<svg xmlns="http://www.w3.org/2000/svg" xmlns:xlink="http://www.w3.org/1999/xlink" width="750" zoomAndPan="magnify" viewBox="0 0 562.5 562.499982" height="750" preserveAspectRatio="xMidYMid meet" version="1.0"><path fill="#000000" d="M 131.679688 139.8125 C 117.625 140.363281 97.042969 144.503906 85.988281 146.914062 C 67.066406 151.03125 37.46875 161.421875 19.480469 178.398438 C 6.894531 190.273438 -0.128906 205.296875 5.085938 223.519531 C 8.496094 235.4375 20.164062 248.117188 29.027344 255.980469 C 35.261719 261.507812 41.753906 266.664062 48.460938 271.511719 C 48.410156 271.976562 48.460938 272.457031 48.636719 272.925781 C 51.863281 281.683594 59.410156 295.25 65.820312 302.128906 C 77.425781 314.585938 94.003906 325.0625 112.707031 334.34375 C 112.175781 335.613281 111.492188 337.160156 110.769531 338.789062 L 108.832031 343.136719 C 107.875 345.277344 107 347.273438 106.433594 348.6875 C 102.0625 359.5625 96.378906 370.039062 91.902344 380.871094 C 88.230469 389.765625 76.179688 416.613281 71.785156 422.667969 C 70.023438 422.53125 67.875 421.964844 65.5625 421.800781 C 60.230469 421.425781 54.160156 422.519531 49.230469 431.296875 C 44.625 439.503906 45.0625 447.867188 51.878906 456.558594 C 56.902344 462.964844 66.8125 466.964844 74.835938 466.175781 C 78.117188 465.855469 81.253906 464.257812 83.921875 461.90625 C 87.644531 458.625 90.417969 453.890625 91.414062 449.777344 C 92.589844 444.925781 91.0625 441.207031 89.425781 438.210938 C 88.929688 437.300781 88.425781 436.476562 88.066406 435.714844 C 87.984375 435.539062 87.886719 435.269531 87.835938 435.109375 C 99.765625 414.492188 111.996094 394.175781 123.242188 374.304688 C 127.257812 367.207031 136.761719 354.339844 140.914062 347.035156 C 147.324219 349.691406 153.808594 352.265625 160.273438 354.785156 C 188.902344 365.925781 217.574219 373.019531 247.699219 378.109375 C 247.5625 385.296875 247.5 397.382812 247.402344 404.339844 C 247.015625 432.441406 241.90625 460.550781 242.59375 488.667969 C 235.828125 490.648438 229.925781 495.75 227.507812 500.113281 C 221.277344 511.367188 224.558594 525.789062 236.964844 530.902344 C 247.835938 535.382812 259.648438 534.625 268.0625 525.367188 C 278.75 513.613281 272.1875 498.453125 261.824219 492.320312 C 269.714844 456.164062 276.453125 420.179688 283.941406 383.28125 C 317.203125 387.101562 351.117188 387.011719 385.578125 383.046875 C 387.863281 391.296875 393.496094 405.574219 395.507812 413.242188 C 401.300781 435.335938 407.925781 458.097656 414.1875 481.085938 C 414.09375 481.226562 413.933594 481.460938 413.808594 481.609375 C 413.265625 482.253906 412.570312 482.921875 411.855469 483.675781 C 409.507812 486.152344 407.078125 489.355469 406.976562 494.347656 C 406.890625 498.578125 408.359375 503.863281 411.121094 507.992188 C 413.09375 510.941406 415.722656 513.292969 418.808594 514.441406 C 426.367188 517.257812 436.972656 515.925781 443.46875 511.011719 C 452.273438 504.351562 454.839844 496.382812 452.484375 487.269531 C 449.964844 477.519531 444.375 474.910156 439.125 473.910156 C 436.847656 473.480469 434.625 473.480469 432.886719 473.160156 C 430.1875 466.179688 425.402344 437.144531 424.125 427.609375 C 422.570312 415.988281 419.753906 404.410156 418.308594 392.777344 C 417.894531 389.457031 416.769531 383.039062 416.105469 378.625 C 434.109375 375.441406 452.867188 370.605469 467.484375 361.042969 C 476.703125 355.015625 483.257812 347.558594 490.578125 337.652344 C 493.941406 336.519531 497.128906 335.359375 500.082031 334.179688 C 510.820312 329.890625 538.269531 312.441406 546.367188 300.125 C 561.78125 276.675781 556.273438 254.074219 537.457031 235.460938 C 511.671875 209.960938 472.734375 192.722656 439.695312 185.304688 C 439.332031 181.992188 438.960938 178.972656 438.800781 176.558594 C 437.417969 155.871094 428.460938 136.789062 418.25 119.03125 C 406.292969 98.246094 389.308594 80.832031 369.601562 66.40625 C 315.265625 26.640625 244.8125 30.953125 190.953125 68.101562 C 168.5625 83.550781 145.007812 115.550781 133.570312 136.28125 C 132.894531 137.496094 132.269531 138.675781 131.679688 139.8125 Z M 253.929688 379.132812 C 253.804688 386.382812 253.742188 397.765625 253.652344 404.425781 C 253.253906 433.222656 247.859375 462.023438 248.910156 490.835938 C 248.960938 492.203125 248.121094 493.394531 246.917969 493.863281 C 246.589844 494.078125 246.207031 494.234375 245.796875 494.3125 C 240.132812 495.398438 234.957031 499.566406 232.976562 503.140625 C 228.546875 511.136719 230.527344 521.492188 239.34375 525.125 C 247.75 528.589844 256.933594 528.324219 263.441406 521.167969 C 271.597656 512.191406 265.304688 500.523438 257.03125 496.867188 C 255.566406 496.214844 254.84375 494.570312 255.316406 493.070312 C 255.324219 492.886719 255.34375 492.695312 255.386719 492.503906 C 263.382812 456.027344 270.171875 419.738281 277.722656 382.523438 C 269.671875 381.496094 261.746094 380.371094 253.929688 379.128906 Z M 409.941406 379.664062 C 406.25 380.253906 402.613281 380.792969 399.078125 381.300781 C 396.667969 381.648438 394.261719 381.972656 391.855469 382.285156 C 394.261719 390.621094 399.601562 404.238281 401.550781 411.660156 C 407.359375 433.820312 414.015625 456.65625 420.289062 479.710938 C 420.851562 481.785156 420.214844 483.707031 418.585938 485.640625 C 417.773438 486.605469 416.648438 487.625 415.582031 488.863281 C 414.402344 490.238281 413.277344 491.957031 413.222656 494.476562 C 413.160156 497.59375 414.28125 501.476562 416.316406 504.515625 C 417.535156 506.339844 419.082031 507.875 420.988281 508.585938 C 426.722656 510.71875 434.773438 509.75 439.695312 506.03125 C 446.105469 501.1875 448.144531 495.457031 446.433594 488.832031 C 445.652344 485.808594 444.503906 483.773438 443.078125 482.433594 C 440.984375 480.453125 438.371094 480.035156 436.050781 479.769531 C 433.734375 479.503906 431.597656 479.382812 430 478.878906 C 429.453125 478.707031 428.765625 478.339844 428.152344 477.535156 C 427.613281 476.824219 426.851562 475.078125 426.136719 472.53125 C 423.292969 462.433594 419.117188 437.28125 417.929688 428.4375 C 416.375 416.796875 413.554688 405.199219 412.109375 393.546875 C 411.703125 390.292969 410.613281 384.0625 409.941406 379.664062 Z M 118.335938 337.078125 C 117.832031 338.265625 117.214844 339.65625 116.566406 341.121094 L 114.625 345.46875 C 113.675781 347.605469 112.800781 349.601562 112.234375 351.015625 C 107.855469 361.910156 102.160156 372.402344 97.675781 383.253906 C 94.269531 391.503906 83.800781 414.757812 78.472656 423.789062 C 77.128906 426.066406 75.949219 427.5625 75.242188 428.109375 C 74.445312 428.730469 73.683594 428.910156 73.113281 428.9375 C 71.4375 429.015625 69.34375 428.585938 67.035156 428.25 C 64.722656 427.910156 62.09375 427.648438 59.558594 429.027344 C 57.839844 429.960938 56.207031 431.632812 54.683594 434.355469 C 51.332031 440.324219 51.839844 446.386719 56.792969 452.703125 C 60.601562 457.5625 68.140625 460.558594 74.226562 459.960938 C 76.25 459.757812 78.140625 458.671875 79.789062 457.21875 C 82.53125 454.800781 84.605469 451.332031 85.34375 448.304688 C 85.933594 445.855469 85.285156 443.90625 84.5 442.277344 C 83.785156 440.804688 82.960938 439.53125 82.417969 438.390625 C 81.335938 436.101562 81.210938 434.085938 82.289062 432.222656 C 94.25 411.539062 106.523438 391.164062 117.804688 371.226562 C 121.710938 364.332031 130.792969 351.980469 135.109375 344.597656 C 129.414062 342.167969 123.800781 339.671875 118.335938 337.078125 Z M 57.542969 277.804688 C 61.035156 285.007812 65.988281 293.144531 70.390625 297.871094 C 90.761719 319.734375 126.984375 335.125 162.539062 348.960938 C 200.433594 363.710938 238.402344 371.25 279.785156 376.488281 C 318.40625 381.378906 357.933594 380.898438 398.1875 375.117188 C 419.84375 372.003906 445.46875 367.976562 464.0625 355.816406 C 470.351562 351.703125 475.285156 346.847656 480.148438 340.925781 C 460.875 346.597656 438.445312 351.367188 422.027344 354.355469 C 372.140625 363.433594 331.054688 360.457031 283.695312 354.265625 C 226.84375 346.835938 172.988281 334.667969 118.042969 310.21875 C 97.164062 300.925781 76.628906 290.488281 57.542969 277.804688 Z M 128.628906 146.242188 C 115.160156 147.207031 97.277344 150.851562 87.316406 153.019531 C 69.253906 156.949219 40.941406 166.738281 23.769531 182.941406 C 12.910156 193.191406 6.59375 206.074219 11.09375 221.800781 C 14.207031 232.691406 25.078125 244.121094 33.175781 251.304688 C 58.980469 274.195312 89.402344 290.636719 120.582031 304.507812 C 174.953125 328.703125 228.25 340.71875 284.503906 348.074219 C 331.203125 354.175781 371.714844 357.15625 420.910156 348.207031 C 443.15625 344.15625 476.640625 336.820312 497.765625 328.378906 C 507.800781 324.367188 533.574219 308.210938 541.140625 296.695312 C 554.6875 276.085938 549.597656 256.261719 533.0625 239.90625 C 508.605469 215.714844 471.886719 199.28125 440.320312 191.859375 C 440.53125 194.683594 440.652344 197.5625 440.574219 200.335938 C 440.394531 206.667969 439.121094 212.46875 436.03125 216.320312 C 429.652344 224.28125 416.195312 229.296875 407.167969 232.832031 C 378.886719 243.90625 349.976562 246.78125 319.761719 245.726562 C 289.835938 244.683594 259.410156 239.777344 230.828125 230.820312 C 205.144531 222.773438 175.933594 212.863281 155.53125 194.617188 C 145.28125 185.457031 130.289062 173.921875 126.347656 156.410156 C 126.105469 155.332031 126.160156 153.695312 126.707031 151.609375 C 127.097656 150.125 127.746094 148.3125 128.628906 146.238281 Z M 352.894531 312.972656 C 358.804688 313.980469 365.324219 311.371094 369.457031 307.277344 C 372.453125 304.308594 374.164062 300.59375 373.9375 297 C 373.730469 293.753906 371.964844 290.679688 369.328125 288.109375 C 365.871094 284.746094 360.9375 282.242188 357.261719 281.203125 C 349.550781 279.027344 341.640625 280.765625 335.1875 286.113281 C 330.304688 290.160156 329.992188 295.214844 332.585938 300.03125 C 335.746094 305.902344 344.050781 311.46875 352.894531 312.972656 Z M 353.941406 306.8125 C 350.433594 306.21875 347.015625 304.839844 344.160156 303.035156 C 341.632812 301.433594 339.542969 299.507812 338.3125 297.460938 C 337.605469 296.285156 337.183594 295.09375 337.3125 293.921875 C 337.433594 292.839844 338.066406 291.84375 339.175781 290.925781 C 343.96875 286.949219 349.835938 285.601562 355.5625 287.214844 C 358.429688 288.023438 362.273438 289.96875 364.964844 292.585938 C 366.425781 294.007812 367.585938 295.601562 367.699219 297.398438 C 367.824219 299.332031 366.675781 301.238281 365.058594 302.839844 C 362.273438 305.597656 357.929688 307.492188 353.941406 306.8125 Z M 214.996094 261.859375 C 209.339844 259.863281 202.472656 261.324219 197.703125 264.660156 C 194.246094 267.074219 191.929688 270.445312 191.542969 274.023438 C 191.195312 277.257812 192.410156 280.589844 194.578125 283.570312 C 197.410156 287.472656 201.84375 290.777344 205.292969 292.425781 C 212.519531 295.875 220.613281 295.511719 227.878906 291.335938 C 233.378906 288.179688 234.542969 283.25 232.808594 278.0625 C 230.691406 271.742188 223.453125 264.84375 214.996094 261.859375 Z M 212.914062 267.75 C 216.269531 268.9375 219.40625 270.875 221.910156 273.140625 C 224.128906 275.140625 225.867188 277.394531 226.726562 279.625 C 227.226562 280.902344 227.4375 282.148438 227.113281 283.277344 C 226.8125 284.324219 226.015625 285.199219 224.765625 285.917969 C 219.367188 289.019531 213.355469 289.351562 207.988281 286.789062 C 205.300781 285.503906 201.839844 282.9375 199.632812 279.898438 C 198.4375 278.25 197.566406 276.480469 197.753906 274.691406 C 197.964844 272.761719 199.417969 271.082031 201.285156 269.78125 C 204.5 267.535156 209.105469 266.40625 212.914062 267.75 Z M 461.160156 254.742188 C 455.699219 257.152344 452.71875 260.480469 451.296875 263.921875 C 449.113281 269.214844 450.613281 275.027344 453.542969 279.257812 C 455.410156 281.957031 458.148438 283.617188 461.257812 284.457031 C 465.378906 285.570312 470.167969 285.1875 473.9375 284.15625 C 481.800781 282.003906 486.007812 278.65625 488.824219 270.601562 C 490.839844 264.847656 488.855469 259.992188 484.671875 256.703125 C 479.230469 252.417969 469.578125 251.019531 461.160156 254.742188 Z M 463.6875 260.453125 C 469.808594 257.75 476.847656 258.492188 480.808594 261.609375 C 482.894531 263.253906 483.933594 265.664062 482.929688 268.539062 C 480.921875 274.269531 477.882812 276.597656 472.285156 278.128906 C 469.929688 278.773438 467.042969 279.117188 464.359375 278.726562 C 462.109375 278.398438 459.976562 277.574219 458.679688 275.699219 C 456.878906 273.097656 455.734375 269.558594 457.074219 266.304688 C 458.003906 264.046875 460.109375 262.035156 463.6875 260.453125 Z M 305.273438 46.457031 C 303.945312 49.503906 302.027344 54.765625 301.351562 56.808594 C 297.808594 67.511719 295.035156 78.304688 292.816406 89.347656 C 287.296875 116.769531 284.355469 135.992188 281.75 161.199219 C 279.15625 186.316406 275.085938 209.769531 275.367188 235 C 290.160156 237.476562 305.136719 238.964844 319.980469 239.484375 C 336.960938 240.074219 353.523438 239.410156 369.78125 236.660156 C 370.0625 203.457031 368.550781 177.679688 357.78125 141.972656 C 353.8125 128.816406 349.058594 110.890625 343.070312 99.792969 C 335.742188 86.203125 328.453125 73.496094 319.347656 61.019531 C 316.527344 57.15625 313.007812 53.746094 309.601562 50.40625 C 308.515625 49.347656 307.359375 48.394531 306.152344 47.480469 C 305.773438 47.199219 305.480469 46.847656 305.273438 46.457031 Z M 316.546875 48.484375 C 319.34375 51.273438 322.085938 54.167969 324.394531 57.335938 C 333.671875 70.046875 341.105469 82.984375 348.570312 96.824219 C 354.726562 108.238281 359.683594 126.644531 363.761719 140.167969 C 374.613281 176.136719 376.273438 202.222656 376.039062 235.492188 C 385.75 233.511719 395.355469 230.746094 404.886719 227.015625 C 413.046875 223.820312 425.390625 219.605469 431.15625 212.414062 C 433.507812 209.480469 434.191406 204.984375 434.328125 200.160156 C 434.558594 191.898438 432.945312 182.691406 432.5625 176.976562 C 431.246094 157.238281 422.578125 139.085938 412.832031 122.148438 C 401.308594 102.109375 384.902344 85.355469 365.910156 71.449219 C 350.535156 60.199219 333.816406 52.636719 316.546875 48.484375 Z M 298.21875 45.363281 C 296.980469 45.984375 288.226562 50.394531 287.070312 50.953125 C 275.367188 56.628906 265.921875 63.710938 256.601562 72.644531 C 238.507812 89.976562 225.019531 111.75 213.667969 136.066406 C 205.082031 154.441406 197.066406 174.746094 192.902344 193.027344 C 191.828125 197.746094 191.765625 204.570312 190.984375 209.636719 C 204.628906 215.902344 219.175781 220.621094 232.695312 224.855469 C 244.566406 228.578125 256.765625 231.585938 269.105469 233.890625 C 268.960938 208.867188 272.957031 185.527344 275.535156 160.558594 C 278.164062 135.144531 281.121094 115.761719 286.6875 88.113281 C 288.960938 76.824219 291.796875 65.789062 295.417969 54.84375 C 296.03125 53 297.601562 48.660156 298.921875 45.4375 Z M 99.976562 196.332031 C 95.9375 195.308594 89.328125 197.023438 84.546875 200.527344 C 81.121094 203.035156 78.703125 206.394531 78.320312 209.941406 C 77.96875 213.203125 78.953125 216.253906 80.757812 218.917969 C 83.144531 222.453125 87.019531 225.296875 90.546875 226.980469 C 97.773438 230.433594 105.863281 230.066406 113.132812 225.890625 C 118.558594 222.777344 119.832031 217.675781 118.183594 212.355469 C 116.113281 205.691406 108.789062 198.570312 99.976562 196.332031 Z M 98.4375 202.386719 C 102.914062 203.527344 106.910156 206.285156 109.542969 209.5 C 112.722656 213.378906 114.183594 218.082031 110.015625 220.472656 C 104.617188 223.574219 98.605469 223.910156 93.238281 221.34375 C 91.035156 220.289062 88.625 218.664062 86.851562 216.613281 C 85.363281 214.894531 84.289062 212.875 84.535156 210.609375 C 84.8125 208.050781 87.300781 205.949219 90.019531 204.425781 C 92.902344 202.8125 96.222656 201.828125 98.4375 202.386719 Z M 285.738281 44.640625 C 253.96875 44.195312 221.984375 54.292969 194.503906 73.246094 C 172.832031 88.195312 150.113281 119.238281 139.039062 139.300781 C 136.257812 144.335938 134.21875 148.664062 133.160156 151.839844 C 132.671875 153.304688 132.296875 154.375 132.445312 155.039062 C 136.078125 171.171875 150.253906 181.519531 159.695312 189.960938 C 167.144531 196.625 175.820312 202.117188 185.074219 206.789062 C 185.671875 201.90625 185.835938 195.921875 186.8125 191.640625 C 191.066406 172.960938 199.234375 152.199219 208.003906 133.421875 C 219.699219 108.378906 233.644531 85.984375 252.277344 68.132812 C 262.085938 58.738281 272.027344 51.304688 284.34375 45.332031 C 284.5625 45.226562 285.066406 44.976562 285.738281 44.640625 Z M 406.148438 158.816406 C 407.886719 158.816406 409.304688 160.226562 409.304688 161.96875 C 409.304688 163.710938 407.886719 165.125 406.148438 165.125 C 404.40625 165.125 402.992188 163.710938 402.992188 161.96875 C 402.992188 160.226562 404.40625 158.816406 406.148438 158.816406 Z M 390.246094 121.859375 C 391.503906 124.160156 392.746094 126.476562 393.816406 128.867188 C 396.960938 135.875 399.546875 143.660156 401.136719 151.203125 C 401.492188 152.890625 403.152344 153.96875 404.839844 153.613281 C 406.527344 153.257812 407.605469 151.601562 407.253906 149.914062 C 405.574219 141.945312 402.839844 133.714844 399.519531 126.308594 C 398.378906 123.769531 397.0625 121.304688 395.730469 118.863281 C 394.902344 117.351562 393 116.792969 391.488281 117.621094 C 389.976562 118.445312 389.417969 120.347656 390.246094 121.859375 Z M 390.246094 121.859375 " fill-opacity="1" fill-rule="evenodd"/></svg>