<svg xmlns="http://www.w3.org/2000/svg" xmlns:xlink="http://www.w3.org/1999/xlink" width="750" zoomAndPan="magnify" viewBox="0 0 562.5 562.499982" height="750" preserveAspectRatio="xMidYMid meet" version="1.0"><path fill="#ffffff" d="M 131.679688 139.820312 C 117.625 140.375 97.042969 144.515625 85.988281 146.921875 C 67.066406 151.042969 37.46875 161.433594 19.480469 178.414062 C 6.894531 190.289062 -0.128906 205.3125 5.085938 223.535156 C 8.496094 235.457031 20.164062 248.136719 29.027344 256.003906 C 35.261719 261.527344 41.753906 266.6875 48.460938 271.535156 C 48.410156 272 48.460938 272.480469 48.636719 272.949219 C 51.863281 281.707031 59.410156 295.273438 65.820312 302.15625 C 77.425781 314.613281 94.003906 325.089844 112.707031 334.375 C 112.175781 335.644531 111.492188 337.1875 110.769531 338.820312 L 108.832031 343.167969 C 107.875 345.304688 107 347.300781 106.433594 348.714844 C 102.0625 359.59375 96.378906 370.070312 91.902344 380.902344 C 88.230469 389.796875 76.179688 416.648438 71.785156 422.707031 C 70.023438 422.570312 67.875 422 65.5625 421.839844 C 60.230469 421.460938 54.160156 422.554688 49.230469 431.332031 C 44.625 439.542969 45.0625 447.90625 51.878906 456.597656 C 56.902344 463.003906 66.8125 467.007812 74.835938 466.21875 C 78.117188 465.898438 81.253906 464.296875 83.921875 461.949219 C 87.644531 458.664062 90.417969 453.929688 91.414062 449.816406 C 92.589844 444.960938 91.0625 441.246094 89.425781 438.25 C 88.929688 437.339844 88.425781 436.515625 88.066406 435.753906 C 87.984375 435.578125 87.886719 435.308594 87.835938 435.148438 C 99.765625 414.527344 111.996094 394.210938 123.242188 374.335938 C 127.257812 367.238281 136.761719 354.371094 140.914062 347.066406 C 147.324219 349.722656 153.808594 352.296875 160.273438 354.8125 C 188.902344 365.957031 217.574219 373.050781 247.699219 378.140625 C 247.5625 385.332031 247.5 397.417969 247.402344 404.375 C 247.015625 432.476562 241.90625 460.59375 242.59375 488.710938 C 235.828125 490.691406 229.925781 495.792969 227.507812 500.15625 C 221.277344 511.410156 224.558594 525.832031 236.964844 530.949219 C 247.835938 535.429688 259.648438 534.671875 268.0625 525.414062 C 278.75 513.660156 272.1875 498.496094 261.824219 492.363281 C 269.714844 456.207031 276.453125 420.214844 283.941406 383.316406 C 317.203125 387.136719 351.117188 387.042969 385.578125 383.078125 C 387.863281 391.328125 393.496094 405.609375 395.507812 413.28125 C 401.300781 435.371094 407.925781 458.140625 414.1875 481.128906 C 414.09375 481.265625 413.933594 481.503906 413.808594 481.652344 C 413.265625 482.296875 412.570312 482.964844 411.855469 483.714844 C 409.507812 486.195312 407.078125 489.398438 406.976562 494.390625 C 406.890625 498.621094 408.359375 503.910156 411.121094 508.035156 C 413.09375 510.988281 415.722656 513.335938 418.808594 514.488281 C 426.367188 517.304688 436.972656 515.96875 443.46875 511.058594 C 452.273438 504.398438 454.839844 496.425781 452.484375 487.3125 C 449.964844 477.5625 444.375 474.953125 439.125 473.953125 C 436.847656 473.519531 434.625 473.519531 432.886719 473.203125 C 430.1875 466.21875 425.402344 437.183594 424.125 427.644531 C 422.570312 416.027344 419.753906 404.445312 418.308594 392.8125 C 417.894531 389.492188 416.769531 383.070312 416.105469 378.660156 C 434.109375 375.472656 452.867188 370.636719 467.484375 361.074219 C 476.703125 355.046875 483.257812 347.585938 490.578125 337.679688 C 493.941406 336.546875 497.128906 335.390625 500.082031 334.207031 C 510.820312 329.921875 538.269531 312.46875 546.367188 300.152344 C 561.78125 276.699219 556.273438 254.09375 537.457031 235.480469 C 511.671875 209.976562 472.734375 192.738281 439.695312 185.320312 C 439.332031 182.007812 438.960938 178.984375 438.800781 176.574219 C 437.417969 155.882812 428.460938 136.800781 418.25 119.039062 C 406.292969 98.253906 389.308594 80.835938 369.601562 66.410156 C 315.265625 26.640625 244.8125 30.953125 190.953125 68.105469 C 168.5625 83.554688 145.007812 115.558594 133.570312 136.292969 C 132.894531 137.507812 132.269531 138.6875 131.679688 139.820312 Z M 253.929688 379.164062 C 253.804688 386.414062 253.742188 397.796875 253.652344 404.460938 C 253.253906 433.257812 247.859375 462.066406 248.910156 490.875 C 248.960938 492.246094 248.121094 493.4375 246.917969 493.90625 C 246.589844 494.121094 246.207031 494.277344 245.796875 494.355469 C 240.132812 495.441406 234.957031 499.609375 232.976562 503.1875 C 228.546875 511.183594 230.527344 521.535156 239.34375 525.171875 C 247.75 528.636719 256.933594 528.371094 263.441406 521.210938 C 271.597656 512.238281 265.304688 500.566406 257.03125 496.910156 C 255.566406 496.257812 254.84375 494.613281 255.316406 493.113281 C 255.324219 492.929688 255.34375 492.738281 255.386719 492.546875 C 263.382812 456.066406 270.171875 419.773438 277.722656 382.554688 C 269.671875 381.527344 261.746094 380.40625 253.929688 379.164062 Z M 409.941406 379.695312 C 406.25 380.289062 402.613281 380.828125 399.078125 381.335938 C 396.667969 381.679688 394.261719 382.007812 391.855469 382.316406 C 394.261719 390.65625 399.601562 404.273438 401.550781 411.695312 C 407.359375 433.855469 414.015625 456.695312 420.289062 479.753906 C 420.851562 481.828125 420.214844 483.746094 418.585938 485.679688 C 417.773438 486.648438 416.648438 487.667969 415.582031 488.90625 C 414.402344 490.28125 413.277344 492 413.222656 494.519531 C 413.160156 497.636719 414.28125 501.519531 416.316406 504.5625 C 417.535156 506.382812 419.082031 507.921875 420.988281 508.628906 C 426.722656 510.765625 434.773438 509.796875 439.695312 506.074219 C 446.105469 501.230469 448.144531 495.5 446.433594 488.875 C 445.652344 485.851562 444.503906 483.816406 443.078125 482.476562 C 440.984375 480.492188 438.371094 480.074219 436.050781 479.808594 C 433.734375 479.542969 431.597656 479.425781 430 478.917969 C 429.453125 478.746094 428.765625 478.382812 428.152344 477.574219 C 427.613281 476.867188 426.851562 475.121094 426.136719 472.570312 C 423.292969 462.476562 419.117188 437.320312 417.929688 428.472656 C 416.375 416.835938 413.554688 405.234375 412.109375 393.582031 C 411.703125 390.324219 410.613281 384.097656 409.941406 379.695312 Z M 118.335938 337.105469 C 117.832031 338.292969 117.214844 339.6875 116.566406 341.148438 L 114.625 345.496094 C 113.675781 347.636719 112.800781 349.632812 112.234375 351.046875 C 107.855469 361.941406 102.160156 372.433594 97.675781 383.289062 C 94.269531 391.539062 83.800781 414.792969 78.472656 423.824219 C 77.128906 426.105469 75.949219 427.597656 75.242188 428.144531 C 74.445312 428.765625 73.683594 428.945312 73.113281 428.972656 C 71.4375 429.050781 69.34375 428.621094 67.035156 428.285156 C 64.722656 427.949219 62.09375 427.6875 59.558594 429.0625 C 57.839844 429.996094 56.207031 431.671875 54.683594 434.390625 C 51.332031 440.363281 51.839844 446.425781 56.792969 452.742188 C 60.601562 457.601562 68.140625 460.597656 74.226562 460 C 76.25 459.800781 78.140625 458.710938 79.789062 457.261719 C 82.53125 454.839844 84.605469 451.371094 85.34375 448.34375 C 85.933594 445.894531 85.285156 443.945312 84.5 442.3125 C 83.785156 440.84375 82.960938 439.570312 82.417969 438.425781 C 81.335938 436.140625 81.210938 434.121094 82.289062 432.261719 C 94.25 411.574219 106.523438 391.195312 117.804688 371.257812 C 121.710938 364.363281 130.792969 352.011719 135.109375 344.625 C 129.414062 342.199219 123.800781 339.699219 118.335938 337.105469 Z M 57.542969 277.828125 C 61.035156 285.03125 65.988281 293.167969 70.390625 297.898438 C 90.761719 319.761719 126.984375 335.152344 162.539062 348.988281 C 200.433594 363.742188 238.402344 371.28125 279.785156 376.519531 C 318.40625 381.414062 357.933594 380.933594 398.1875 375.148438 C 419.84375 372.035156 445.46875 368.011719 464.0625 355.847656 C 470.351562 351.734375 475.285156 346.878906 480.148438 340.953125 C 460.875 346.625 438.445312 351.394531 422.027344 354.382812 C 372.140625 363.464844 331.054688 360.488281 283.695312 354.296875 C 226.84375 346.867188 172.988281 334.695312 118.042969 310.246094 C 97.164062 300.953125 76.628906 290.511719 57.542969 277.828125 Z M 128.628906 146.25 C 115.160156 147.21875 97.277344 150.859375 87.316406 153.03125 C 69.253906 156.960938 40.941406 166.75 23.769531 182.957031 C 12.910156 193.207031 6.59375 206.089844 11.09375 221.820312 C 14.207031 232.710938 25.078125 244.140625 33.175781 251.328125 C 58.980469 274.21875 89.402344 290.660156 120.582031 304.535156 C 174.953125 328.730469 228.25 340.746094 284.503906 348.101562 C 331.203125 354.207031 371.714844 357.1875 420.910156 348.238281 C 443.15625 344.183594 476.640625 336.847656 497.765625 328.40625 C 507.800781 324.394531 533.574219 308.234375 541.140625 296.71875 C 554.6875 276.109375 549.597656 256.28125 533.0625 239.925781 C 508.605469 215.734375 471.886719 199.296875 440.320312 191.875 C 440.53125 194.699219 440.652344 197.578125 440.574219 200.351562 C 440.394531 206.683594 439.121094 212.484375 436.03125 216.339844 C 429.652344 224.296875 416.195312 229.316406 407.167969 232.851562 C 378.886719 243.925781 349.976562 246.804688 319.761719 245.75 C 289.835938 244.703125 259.410156 239.796875 230.828125 230.839844 C 205.144531 222.789062 175.933594 212.882812 155.53125 194.632812 C 145.28125 185.472656 130.289062 173.933594 126.347656 156.421875 C 126.105469 155.34375 126.160156 153.707031 126.707031 151.621094 C 127.097656 150.136719 127.746094 148.324219 128.628906 146.25 Z M 352.894531 313 C 358.804688 314.007812 365.324219 311.398438 369.457031 307.304688 C 372.453125 304.335938 374.164062 300.617188 373.9375 297.027344 C 373.730469 293.777344 371.964844 290.703125 369.328125 288.132812 C 365.871094 284.769531 360.9375 282.265625 357.261719 281.226562 C 349.550781 279.050781 341.640625 280.789062 335.1875 286.136719 C 330.304688 290.183594 329.992188 295.238281 332.585938 300.054688 C 335.746094 305.925781 344.050781 311.496094 352.894531 313 Z M 353.941406 306.839844 C 350.433594 306.242188 347.015625 304.863281 344.160156 303.058594 C 341.632812 301.460938 339.542969 299.535156 338.3125 297.484375 C 337.605469 296.3125 337.183594 295.117188 337.3125 293.949219 C 337.433594 292.867188 338.066406 291.867188 339.175781 290.949219 C 343.96875 286.972656 349.835938 285.625 355.5625 287.238281 C 358.429688 288.050781 362.273438 289.992188 364.964844 292.613281 C 366.425781 294.03125 367.585938 295.628906 367.699219 297.421875 C 367.824219 299.359375 366.675781 301.261719 365.058594 302.863281 C 362.273438 305.625 357.929688 307.519531 353.941406 306.839844 Z M 214.996094 261.878906 C 209.339844 259.882812 202.472656 261.347656 197.703125 264.679688 C 194.246094 267.097656 191.929688 270.464844 191.542969 274.046875 C 191.195312 277.28125 192.410156 280.613281 194.578125 283.59375 C 197.410156 287.496094 201.84375 290.804688 205.292969 292.449219 C 212.519531 295.902344 220.613281 295.535156 227.878906 291.359375 C 233.378906 288.203125 234.542969 283.273438 232.808594 278.085938 C 230.691406 271.765625 223.453125 264.867188 214.996094 261.878906 Z M 212.914062 267.773438 C 216.269531 268.960938 219.40625 270.894531 221.910156 273.160156 C 224.128906 275.164062 225.867188 277.417969 226.726562 279.648438 C 227.226562 280.925781 227.4375 282.171875 227.113281 283.300781 C 226.8125 284.347656 226.015625 285.226562 224.765625 285.941406 C 219.367188 289.042969 213.355469 289.378906 207.988281 286.8125 C 205.300781 285.527344 201.839844 282.960938 199.632812 279.921875 C 198.4375 278.273438 197.566406 276.5 197.753906 274.714844 C 197.964844 272.785156 199.417969 271.105469 201.285156 269.800781 C 204.5 267.554688 209.105469 266.429688 212.914062 267.773438 Z M 461.160156 254.761719 C 455.699219 257.175781 452.71875 260.5 451.296875 263.945312 C 449.113281 269.234375 450.613281 275.050781 453.542969 279.28125 C 455.410156 281.980469 458.148438 283.644531 461.257812 284.484375 C 465.378906 285.59375 470.167969 285.210938 473.9375 284.179688 C 481.800781 282.027344 486.007812 278.679688 488.824219 270.621094 C 490.839844 264.871094 488.855469 260.011719 484.671875 256.722656 C 479.230469 252.4375 469.578125 251.039062 461.160156 254.761719 Z M 463.6875 260.476562 C 469.808594 257.769531 476.847656 258.515625 480.808594 261.632812 C 482.894531 263.273438 483.933594 265.6875 482.929688 268.558594 C 480.921875 274.292969 477.882812 276.621094 472.285156 278.152344 C 469.929688 278.796875 467.042969 279.140625 464.359375 278.75 C 462.109375 278.421875 459.976562 277.597656 458.679688 275.722656 C 456.878906 273.121094 455.734375 269.582031 457.074219 266.324219 C 458.003906 264.070312 460.109375 262.054688 463.6875 260.476562 Z M 305.273438 46.457031 C 303.945312 49.503906 302.027344 54.769531 301.351562 56.8125 C 297.808594 67.515625 295.035156 78.308594 292.816406 89.355469 C 287.296875 116.777344 284.355469 136 281.75 161.210938 C 279.15625 186.332031 275.085938 209.785156 275.367188 235.019531 C 290.160156 237.496094 305.136719 238.984375 319.980469 239.503906 C 336.960938 240.09375 353.523438 239.429688 369.78125 236.679688 C 370.0625 203.472656 368.550781 177.695312 357.78125 141.984375 C 353.8125 128.828125 349.058594 110.898438 343.070312 99.796875 C 335.742188 86.207031 328.453125 73.5 319.347656 61.023438 C 316.527344 57.160156 313.007812 53.75 309.601562 50.410156 C 308.515625 49.347656 307.359375 48.394531 306.152344 47.484375 C 305.773438 47.199219 305.480469 46.847656 305.273438 46.457031 Z M 316.546875 48.488281 C 319.34375 51.273438 322.085938 54.171875 324.394531 57.339844 C 333.671875 70.050781 341.105469 82.988281 348.570312 96.832031 C 354.726562 108.246094 359.683594 126.652344 363.761719 140.179688 C 374.613281 176.152344 376.273438 202.238281 376.039062 235.511719 C 385.75 233.53125 395.355469 230.765625 404.886719 227.03125 C 413.046875 223.835938 425.390625 219.625 431.15625 212.429688 C 433.507812 209.496094 434.191406 205 434.328125 200.175781 C 434.558594 191.914062 432.945312 182.707031 432.5625 176.992188 C 431.246094 157.25 422.578125 139.097656 412.832031 122.15625 C 401.308594 102.117188 384.902344 85.359375 365.910156 71.453125 C 350.535156 60.203125 333.816406 52.640625 316.546875 48.488281 Z M 298.21875 45.363281 C 296.980469 45.988281 288.226562 50.394531 287.070312 50.957031 C 275.367188 56.632812 265.921875 63.714844 256.601562 72.648438 C 238.507812 89.984375 225.019531 111.757812 213.667969 136.078125 C 205.082031 154.453125 197.066406 174.761719 192.902344 193.042969 C 191.828125 197.761719 191.765625 204.585938 190.984375 209.652344 C 204.628906 215.917969 219.175781 220.640625 232.695312 224.875 C 244.566406 228.59375 256.765625 231.601562 269.105469 233.910156 C 268.960938 208.882812 272.957031 185.542969 275.535156 160.570312 C 278.164062 135.152344 281.121094 115.769531 286.6875 88.121094 C 288.960938 76.828125 291.796875 65.789062 295.417969 54.847656 C 296.03125 53.003906 297.601562 48.664062 298.921875 45.441406 Z M 99.976562 196.347656 C 95.9375 195.324219 89.328125 197.039062 84.546875 200.542969 C 81.121094 203.050781 78.703125 206.410156 78.320312 209.957031 C 77.96875 213.21875 78.953125 216.269531 80.757812 218.9375 C 83.144531 222.472656 87.019531 225.316406 90.546875 227 C 97.773438 230.449219 105.863281 230.085938 113.132812 225.910156 C 118.558594 222.792969 119.832031 217.691406 118.183594 212.371094 C 116.113281 205.707031 108.789062 198.585938 99.976562 196.347656 Z M 98.4375 202.402344 C 102.914062 203.542969 106.910156 206.300781 109.542969 209.515625 C 112.722656 213.394531 114.183594 218.101562 110.015625 220.492188 C 104.617188 223.59375 98.605469 223.925781 93.238281 221.363281 C 91.035156 220.308594 88.625 218.679688 86.851562 216.628906 C 85.363281 214.910156 84.289062 212.890625 84.535156 210.628906 C 84.8125 208.066406 87.300781 205.964844 90.019531 204.445312 C 92.902344 202.828125 96.222656 201.84375 98.4375 202.402344 Z M 285.738281 44.640625 C 253.96875 44.199219 221.984375 54.292969 194.503906 73.25 C 172.832031 88.199219 150.113281 119.246094 139.039062 139.3125 C 136.257812 144.347656 134.21875 148.675781 133.160156 151.851562 C 132.671875 153.316406 132.296875 154.386719 132.445312 155.050781 C 136.078125 171.1875 150.253906 181.535156 159.695312 189.976562 C 167.144531 196.640625 175.820312 202.132812 185.074219 206.808594 C 185.671875 201.925781 185.835938 195.9375 186.8125 191.65625 C 191.066406 172.972656 199.234375 152.210938 208.003906 133.433594 C 219.699219 108.382812 233.644531 85.992188 252.277344 68.136719 C 262.085938 58.738281 272.027344 51.304688 284.34375 45.332031 C 284.5625 45.226562 285.066406 44.980469 285.738281 44.640625 Z M 406.148438 158.828125 C 407.886719 158.828125 409.304688 160.238281 409.304688 161.980469 C 409.304688 163.722656 407.886719 165.136719 406.148438 165.136719 C 404.40625 165.136719 402.992188 163.722656 402.992188 161.980469 C 402.992188 160.238281 404.40625 158.828125 406.148438 158.828125 Z M 390.246094 121.867188 C 391.503906 124.167969 392.746094 126.488281 393.816406 128.875 C 396.960938 135.882812 399.546875 143.671875 401.136719 151.210938 C 401.492188 152.902344 403.152344 153.980469 404.839844 153.625 C 406.527344 153.269531 407.605469 151.613281 407.253906 149.921875 C 405.574219 141.957031 402.839844 133.726562 399.519531 126.320312 C 398.378906 123.78125 397.0625 121.3125 395.730469 118.871094 C 394.902344 117.359375 393 116.800781 391.488281 117.628906 C 389.976562 118.457031 389.417969 120.355469 390.246094 121.867188 Z M 390.246094 121.867188 " fill-opacity="1" fill-rule="evenodd"/></svg>