<svg xmlns="http://www.w3.org/2000/svg" xmlns:xlink="http://www.w3.org/1999/xlink" width="750" zoomAndPan="magnify" viewBox="0 0 562.5 562.499982" height="750" preserveAspectRatio="xMidYMid meet" version="1.0"><path fill="#ffffff" d="M 477.445312 188.792969 C 450.5 241.019531 412.707031 286.550781 377.214844 333.171875 C 376.761719 331.691406 375.363281 330.378906 372.546875 329.898438 C 360.09375 325.675781 348.449219 319.25 338.515625 310.597656 C 323.320312 297.941406 306.5 286.996094 293.351562 272.074219 C 284.445312 261.488281 273.925781 252.316406 265.957031 240.941406 C 258.09375 230.117188 248.222656 220.890625 241.429688 209.265625 C 240.261719 207.855469 239.625 205.660156 238.226562 204.453125 C 284.710938 152.984375 331.171875 100.804688 390.003906 63.238281 C 403.335938 55.457031 417.320312 47.0625 431.929688 40.566406 C 431.898438 40.808594 431.863281 41.054688 431.90625 41.316406 C 446.179688 71.664062 482.46875 97.671875 514.550781 107.03125 C 506.363281 137.789062 490.367188 169.140625 477.445312 188.792969 Z M 362.210938 394.351562 C 358.738281 402.972656 354.8125 411.375 349.679688 419.152344 C 337.886719 440.457031 324.378906 462.90625 303.246094 475.996094 C 305.800781 455.96875 314.511719 436.925781 322.742188 418.664062 C 323.058594 417.820312 323.003906 416.949219 322.800781 416.101562 C 325.761719 412.46875 328.429688 407.738281 331.261719 405.5625 C 343.632812 392.554688 354.949219 378.734375 366.140625 364.789062 C 370.027344 374.441406 366.988281 385.242188 362.210938 394.351562 Z M 164.566406 279.074219 C 163.632812 278.796875 162.652344 278.746094 161.742188 279.164062 C 144.554688 290.582031 126.671875 301.707031 107.214844 308.882812 C 118.304688 290.433594 132.007812 273.15625 147.910156 258.574219 C 159.652344 245.976562 171.542969 233.34375 186.988281 225.21875 C 194.75 220.761719 203.84375 220.421875 212.5 219.066406 C 195.582031 238.402344 179.285156 258.210938 164.566406 279.074219 Z M 196.414062 354.503906 C 178.0625 378 162.203125 405.089844 181.253906 411.394531 C 181.648438 411.429688 182.039062 411.445312 182.425781 411.445312 C 190.710938 411.445312 197.164062 404.1875 203.972656 400.199219 C 212.402344 394.890625 220.4375 388.917969 228.0625 382.4375 C 244.183594 395.039062 260.8125 405.726562 275.394531 412.371094 C 270.578125 424.726562 262.484375 436.117188 250.886719 442.875 C 245.523438 438.695312 244.355469 444.285156 241.679688 447.726562 C 228.332031 462.46875 213.164062 480.085938 192.65625 483.449219 C 191.769531 479.625 195.394531 476.789062 195.6875 473.265625 C 193.511719 467.9375 190.5625 467.921875 188.242188 470.269531 C 185.75 470.863281 183.449219 473.878906 181.542969 475.5625 C 160.199219 495.648438 136.996094 519.308594 107.269531 524.445312 C 109.050781 513.828125 116.882812 505.265625 122.996094 496.832031 C 123.96875 493.894531 120.21875 490.394531 117.433594 492.09375 C 114.277344 494.550781 111.605469 497.621094 108.644531 500.320312 C 97.53125 510.828125 47.722656 562.007812 34.558594 540.234375 C 23.136719 514.597656 45.050781 488.523438 61.269531 470.308594 C 76.476562 451.09375 102.019531 443.582031 116.542969 423.808594 C 120.222656 418.5 122.996094 408.867188 115.589844 405.429688 C 113.109375 404.402344 110.371094 404.644531 107.640625 404.882812 C 104.417969 405.164062 101.210938 405.445312 98.441406 403.898438 C 96.554688 387.015625 126.078125 364.652344 137.234375 352.082031 C 147.808594 342.421875 159.394531 333.421875 170.167969 323.824219 C 177.035156 333.707031 186.113281 344.207031 196.414062 354.503906 Z M 269.378906 301.503906 C 280.484375 304.136719 263.621094 326.871094 260.628906 332.761719 C 249.671875 344.816406 239.292969 357.359375 227.273438 368.324219 C 224.738281 370.632812 222.160156 372.90625 219.453125 375.054688 C 219.367188 375.136719 219.277344 375.214844 219.191406 375.292969 C 208.007812 385.492188 196.550781 396.34375 182.402344 402.199219 C 183.808594 386.34375 193.976562 374.066406 204.265625 362.113281 C 206.839844 359.121094 209.28125 356.296875 211.621094 353.445312 C 211.738281 353.300781 211.867188 353.160156 211.984375 353.015625 C 213.964844 350.578125 215.875 348.128906 217.617188 345.628906 C 230.992188 332.246094 250.417969 304.125 269.378906 301.503906 Z M 478.757812 29.296875 C 491.515625 31.203125 508.074219 32.332031 515.375 44.515625 C 521.730469 60 520.890625 79.878906 516.191406 100.417969 C 511.839844 99.867188 507.410156 99.304688 503.480469 96.925781 C 480.523438 84.167969 457.992188 69.136719 442.554688 47.445312 C 440.59375 44.761719 439.523438 39.90625 436.277344 38.71875 C 449.90625 33.082031 464.070312 29.261719 478.757812 29.296875 Z M 527.128906 49.453125 C 503.523438 0.00390625 436.417969 23.578125 400.917969 46.496094 C 349.449219 73.503906 308.796875 114.902344 268.605469 156.058594 C 252.441406 174.617188 235.675781 192.875 219.253906 211.414062 C 213.863281 208.902344 205.804688 212.050781 200.179688 212.464844 C 175.058594 215.722656 159.433594 231.8125 142.703125 249.175781 C 133.566406 260.980469 123.199219 271.667969 113.546875 283.019531 C 107.851562 291.617188 88.574219 307.339844 103.570312 315.636719 C 105.324219 315.921875 107.054688 316.058594 108.777344 316.058594 C 125.242188 316.058594 140.125 303.707031 154.023438 295.976562 C 154.921875 295.097656 156.371094 294.230469 158.007812 293.332031 C 158.144531 293.503906 158.28125 293.710938 158.417969 293.847656 C 157.6875 294.71875 157.203125 295.75 157.191406 296.867188 C 158.304688 302.886719 161.359375 309.785156 165.832031 317.152344 C 161.398438 320.953125 156.925781 324.761719 152.105469 328.078125 C 134.082031 338.550781 50.714844 416.382812 113.300781 412.328125 C 107.277344 423.09375 97.792969 431.492188 87.226562 437.683594 C 71.679688 449.621094 54.832031 461.117188 43.492188 477.386719 C 37.609375 485.960938 31.230469 494.492188 28.113281 504.546875 C 23.152344 521 21.054688 549.015625 43.601562 552.023438 C 43.910156 552.03125 44.21875 552.03125 44.527344 552.03125 C 67.089844 552.03125 82.652344 531.308594 100.210938 519.613281 C 98.746094 526.84375 106.289062 531.875 112.859375 531.308594 C 123.242188 531.226562 131.425781 524.183594 140.058594 519.339844 C 157.042969 510.082031 170.726562 496.230469 185 483.34375 C 185.804688 486.808594 188.085938 489.785156 192.742188 490.679688 C 194.015625 490.941406 195.3125 491.0625 196.636719 491.0625 C 216.015625 491.0625 240.734375 464.585938 251.332031 450.996094 C 264.707031 448.03125 274.71875 436.765625 280.074219 424.636719 C 280.902344 421.875 283.164062 418.851562 283.878906 415.871094 C 289.886719 418.039062 295.40625 419.363281 300.183594 419.605469 C 300.398438 419.632812 300.617188 419.644531 300.839844 419.644531 C 304.492188 419.644531 308.734375 416 307.0625 412.25 C 303.363281 408.46875 296.515625 409.734375 291.753906 407.476562 C 281.96875 404.167969 272.886719 399.09375 263.910156 394.058594 C 253.746094 389 244.863281 382.265625 236.414062 374.953125 C 254.125 358.242188 269.121094 338.570312 280.34375 317.125 C 286.507812 307.378906 281.679688 294.632812 270.0625 292.558594 C 254.464844 292.398438 238.367188 309.429688 227.035156 319.335938 C 223.292969 323.382812 213.925781 333.261719 203.996094 345.140625 C 199.640625 340.566406 195.460938 335.808594 191.164062 331.171875 C 183.015625 322.5625 174.429688 313.859375 169.96875 302.664062 C 168.363281 299.46875 167.644531 296.027344 166.550781 292.75 C 166.121094 292.289062 165.609375 291.992188 165.070312 291.773438 C 168.054688 288.289062 171.046875 282.84375 173.695312 281.039062 C 188.503906 264.757812 200.957031 246.476562 215.207031 229.75 C 221.074219 223.386719 226.902344 216.964844 232.726562 210.53125 C 240.578125 224.019531 249.824219 237.007812 259.894531 248.960938 C 270.144531 261.171875 280.222656 273.457031 292.964844 283.210938 C 315.699219 304.949219 340.875 325.015625 369.363281 338.652344 C 370.234375 338.980469 371.070312 339.125 371.859375 339.125 C 372.207031 339.125 372.507812 339.015625 372.832031 338.960938 C 371.691406 340.476562 370.539062 341.984375 369.402344 343.503906 C 353.1875 361.6875 337.316406 380.132812 322.234375 399.277344 C 319.628906 404.519531 306.5625 412.75 311.050781 418.578125 C 304.753906 431.691406 298.726562 445.195312 296.886719 459.761719 C 296.585938 468.179688 289.421875 484.929688 301.914062 487.582031 C 321.347656 481.773438 331.433594 460.964844 343.519531 446.097656 C 358.367188 426.265625 385.050781 383.992188 370.585938 359.257812 C 375.316406 353.339844 380.042969 347.414062 384.828125 341.523438 C 415.128906 305.261719 443.179688 266.804688 468.238281 226.714844 C 478.660156 208.308594 492.792969 192.117188 500.195312 172.070312 C 514.328125 142.460938 540.953125 80.894531 527.128906 49.453125 " fill-opacity="1" fill-rule="nonzero"/><path fill="#ffffff" d="M 437.730469 169.183594 C 437.351562 171.855469 436.828125 174.480469 436.105469 177.082031 C 435.367188 179.371094 434.488281 181.570312 433.441406 183.734375 C 432.507812 185.421875 431.496094 187.015625 430.355469 188.578125 C 429.15625 190.050781 427.882812 191.410156 426.496094 192.714844 C 424.515625 194.371094 422.476562 195.859375 420.269531 197.199219 C 417.871094 198.515625 415.460938 199.726562 412.914062 200.738281 C 410.671875 201.488281 408.433594 202.136719 406.113281 202.585938 C 403.691406 203.019531 401.25 203.265625 398.792969 203.386719 C 396.652344 203.425781 394.519531 203.375 392.382812 203.203125 C 390.25 202.949219 388.160156 202.566406 386.058594 202.085938 C 384.441406 201.667969 382.84375 201.191406 381.265625 200.632812 C 380.222656 200.226562 379.207031 199.78125 378.195312 199.296875 C 377.269531 198.804688 376.371094 198.277344 375.476562 197.710938 C 374.503906 197.042969 373.574219 196.335938 372.664062 195.585938 C 371.902344 194.90625 371.175781 194.199219 370.464844 193.464844 C 369.585938 192.503906 368.761719 191.5 367.960938 190.472656 C 367.128906 189.332031 366.347656 188.164062 365.617188 186.957031 C 364.6875 185.347656 363.859375 183.691406 363.105469 181.992188 C 362.136719 179.730469 361.285156 177.414062 360.5625 175.0625 C 360.292969 174.097656 360.054688 173.128906 359.871094 172.144531 C 359.496094 169.742188 359.15625 167.3125 359.050781 164.886719 C 359.046875 163.582031 359.109375 162.285156 359.257812 160.988281 C 359.613281 158.554688 360.089844 156.089844 360.742188 153.722656 C 361.035156 152.761719 361.34375 151.804688 361.78125 150.894531 C 362.203125 150.015625 362.660156 149.152344 363.050781 148.261719 C 363.84375 146.460938 364.625 144.652344 365.476562 142.875 C 365.699219 142.472656 365.9375 142.066406 366.1875 141.675781 C 366.839844 141.539062 367.460938 141.25 368.011719 140.570312 C 368.070312 140.507812 368.121094 140.449219 368.183594 140.390625 C 368.53125 140.039062 368.8125 139.570312 369.03125 139.027344 C 369.125 138.84375 369.203125 138.648438 369.296875 138.460938 C 369.292969 138.449219 369.367188 138.238281 369.421875 138.03125 C 369.484375 137.816406 369.53125 137.585938 369.742188 137.203125 C 370.742188 136.421875 371.707031 135.613281 372.738281 134.871094 C 375.292969 133.027344 377.804688 131.179688 380.5 129.539062 C 382.578125 128.378906 384.695312 127.359375 386.914062 126.492188 C 389.230469 125.710938 391.574219 125.140625 393.957031 124.652344 C 396.097656 124.285156 398.214844 124.03125 400.382812 123.929688 C 401.707031 123.941406 403.011719 124.011719 404.332031 124.125 C 406.09375 124.332031 407.835938 124.617188 409.570312 125.003906 C 410.699219 125.300781 411.820312 125.632812 412.925781 126.011719 C 413.953125 126.417969 414.957031 126.851562 415.949219 127.339844 C 417.390625 128.117188 418.789062 128.964844 420.160156 129.863281 C 421.828125 131.03125 423.457031 132.242188 425.03125 133.542969 C 426.160156 134.53125 427.246094 135.546875 428.296875 136.625 C 429.296875 137.71875 430.25 138.835938 431.175781 140 C 432.132812 141.304688 433.019531 142.648438 433.851562 144.039062 C 434.53125 145.226562 435.164062 146.425781 435.734375 147.671875 C 436.125 148.644531 436.484375 149.621094 436.808594 150.621094 C 437.242188 152.128906 437.582031 153.640625 437.863281 155.179688 C 438.066406 156.65625 438.222656 158.121094 438.296875 159.613281 C 438.308594 162.816406 438.105469 166.003906 437.730469 169.183594 Z M 445.375 149.484375 C 444.480469 146.921875 443.484375 144.363281 442.246094 141.945312 C 437.285156 132.230469 428.851562 123.835938 418.542969 119.957031 C 412.339844 117.621094 405.984375 115.90625 399.320312 115.722656 C 393.945312 115.570312 388.640625 116.003906 383.511719 117.699219 C 378.722656 119.273438 374.148438 121.285156 370.070312 124.28125 C 367.929688 125.851562 366.058594 127.664062 364.402344 129.730469 C 363.925781 130.320312 363.492188 130.902344 363.125 131.527344 C 362.476562 131.644531 361.863281 131.921875 361.351562 132.378906 C 360.828125 132.742188 360.410156 133.148438 360.082031 133.714844 C 360.0625 133.734375 359.96875 133.863281 359.871094 133.992188 C 359.429688 134.605469 359.300781 135.394531 359.359375 136.167969 C 358.4375 137.671875 357.164062 138.953125 356.273438 140.476562 C 355.527344 141.75 354.773438 143.085938 354.300781 144.488281 C 353.972656 145.453125 353.691406 146.429688 353.410156 147.402344 C 352.730469 149.597656 351.960938 151.828125 351.585938 154.09375 C 351.277344 155.992188 351.125 157.921875 351.027344 159.839844 C 350.914062 162.101562 350.757812 164.390625 350.875 166.652344 C 350.976562 168.535156 351.238281 170.398438 351.628906 172.238281 C 352.289062 175.417969 353.039062 178.515625 354.304688 181.519531 C 355.34375 183.976562 356.636719 186.375 358.160156 188.578125 C 361.527344 193.433594 365.609375 197.648438 370.296875 201.253906 C 375.277344 205.085938 380.789062 208.625 386.789062 210.59375 C 391.320312 212.082031 396.121094 212.976562 400.898438 212.976562 C 401.675781 212.976562 402.460938 212.953125 403.238281 212.902344 C 408.675781 212.558594 413.914062 211.21875 418.898438 209.011719 C 424.207031 206.660156 428.957031 203.257812 432.980469 199.070312 C 440.21875 191.539062 446.621094 182.171875 448.074219 171.59375 C 448.761719 166.589844 448.371094 161.597656 447.367188 156.664062 C 446.878906 154.226562 446.1875 151.832031 445.375 149.484375 " fill-opacity="1" fill-rule="nonzero"/></svg>