<svg xmlns="http://www.w3.org/2000/svg" xmlns:xlink="http://www.w3.org/1999/xlink" width="750" zoomAndPan="magnify" viewBox="0 0 562.5 562.499982" height="750" preserveAspectRatio="xMidYMid meet" version="1.0"><path fill="#000000" d="M 477.402344 188.792969 C 450.460938 241.019531 412.671875 286.550781 377.183594 333.171875 C 376.730469 331.691406 375.332031 330.378906 372.515625 329.898438 C 360.0625 325.675781 348.417969 319.25 338.488281 310.597656 C 323.292969 297.941406 306.472656 286.996094 293.328125 272.074219 C 284.421875 261.488281 273.902344 252.316406 265.9375 240.941406 C 258.074219 230.117188 248.203125 220.890625 241.410156 209.265625 C 240.242188 207.855469 239.605469 205.660156 238.207031 204.453125 C 284.6875 152.984375 331.140625 100.804688 389.96875 63.238281 C 403.300781 55.457031 417.285156 47.0625 431.894531 40.566406 C 431.859375 40.808594 431.828125 41.054688 431.871094 41.316406 C 446.144531 71.664062 482.425781 97.671875 514.507812 107.03125 C 506.320312 137.789062 490.324219 169.140625 477.402344 188.792969 Z M 362.183594 394.351562 C 358.707031 402.972656 354.78125 411.375 349.648438 419.152344 C 337.859375 440.457031 324.351562 462.90625 303.222656 475.996094 C 305.777344 455.96875 314.484375 436.925781 322.714844 418.664062 C 323.03125 417.820312 322.976562 416.949219 322.773438 416.101562 C 325.734375 412.46875 328.402344 407.738281 331.234375 405.5625 C 343.601562 392.554688 354.917969 378.734375 366.109375 364.789062 C 369.996094 374.441406 366.957031 385.242188 362.183594 394.351562 Z M 164.550781 279.074219 C 163.617188 278.796875 162.636719 278.746094 161.730469 279.164062 C 144.546875 290.582031 126.660156 301.707031 107.207031 308.882812 C 118.296875 290.433594 131.996094 273.15625 147.898438 258.574219 C 159.640625 245.976562 171.527344 233.34375 186.972656 225.21875 C 194.734375 220.761719 203.828125 220.421875 212.484375 219.066406 C 195.566406 238.402344 179.273438 258.210938 164.550781 279.074219 Z M 196.398438 354.503906 C 178.046875 378 162.1875 405.089844 181.238281 411.394531 C 181.632812 411.429688 182.023438 411.445312 182.410156 411.445312 C 190.695312 411.445312 197.148438 404.1875 203.953125 400.199219 C 212.386719 394.890625 220.421875 388.917969 228.042969 382.4375 C 244.164062 395.039062 260.789062 405.726562 275.371094 412.371094 C 270.554688 424.726562 262.464844 436.117188 250.867188 442.875 C 245.503906 438.695312 244.335938 444.285156 241.660156 447.726562 C 228.316406 462.46875 213.148438 480.085938 192.640625 483.449219 C 191.753906 479.625 195.378906 476.789062 195.671875 473.265625 C 193.496094 467.9375 190.546875 467.921875 188.226562 470.269531 C 185.734375 470.863281 183.4375 473.878906 181.527344 475.5625 C 160.1875 495.648438 136.984375 519.308594 107.261719 524.445312 C 109.042969 513.828125 116.875 505.265625 122.988281 496.832031 C 123.960938 493.894531 120.210938 490.394531 117.425781 492.09375 C 114.269531 494.550781 111.597656 497.621094 108.636719 500.320312 C 97.527344 510.828125 47.722656 562.007812 34.558594 540.234375 C 23.136719 514.597656 45.050781 488.523438 61.265625 470.308594 C 76.472656 451.09375 102.011719 443.582031 116.53125 423.808594 C 120.214844 418.5 122.988281 408.867188 115.582031 405.429688 C 113.101562 404.402344 110.363281 404.644531 107.632812 404.882812 C 104.410156 405.164062 101.203125 405.445312 98.433594 403.898438 C 96.546875 387.015625 126.070312 364.652344 137.222656 352.082031 C 147.796875 342.421875 159.378906 333.421875 170.152344 323.824219 C 177.019531 333.707031 186.097656 344.207031 196.398438 354.503906 Z M 269.355469 301.503906 C 280.460938 304.136719 263.597656 326.871094 260.609375 332.761719 C 249.652344 344.816406 239.273438 357.359375 227.253906 368.324219 C 224.722656 370.632812 222.140625 372.90625 219.4375 375.054688 C 219.351562 375.136719 219.257812 375.214844 219.171875 375.292969 C 207.992188 385.492188 196.535156 396.34375 182.386719 402.199219 C 183.796875 386.34375 193.960938 374.066406 204.25 362.113281 C 206.820312 359.121094 209.261719 356.296875 211.601562 353.445312 C 211.722656 353.300781 211.851562 353.160156 211.96875 353.015625 C 213.945312 350.578125 215.855469 348.128906 217.597656 345.628906 C 230.976562 332.246094 250.394531 304.125 269.355469 301.503906 Z M 478.71875 29.296875 C 491.472656 31.203125 508.03125 32.332031 515.328125 44.515625 C 521.683594 60 520.847656 79.878906 516.144531 100.417969 C 511.792969 99.867188 507.367188 99.304688 503.4375 96.925781 C 480.484375 84.167969 457.953125 69.136719 442.515625 47.445312 C 440.554688 44.761719 439.488281 39.90625 436.242188 38.71875 C 449.867188 33.082031 464.027344 29.261719 478.71875 29.296875 Z M 527.082031 49.453125 C 503.480469 0.00390625 436.378906 23.578125 400.882812 46.496094 C 349.417969 73.503906 308.773438 114.902344 268.585938 156.058594 C 252.421875 174.617188 235.65625 192.875 219.238281 211.414062 C 213.847656 208.902344 205.789062 212.050781 200.164062 212.464844 C 175.046875 215.722656 159.421875 231.8125 142.691406 249.175781 C 133.554688 260.980469 123.1875 271.667969 113.539062 283.019531 C 107.84375 291.617188 88.566406 307.339844 103.5625 315.636719 C 105.316406 315.921875 107.046875 316.058594 108.769531 316.058594 C 125.234375 316.058594 140.113281 303.707031 154.011719 295.976562 C 154.910156 295.097656 156.359375 294.230469 157.996094 293.332031 C 158.132812 293.503906 158.265625 293.710938 158.40625 293.847656 C 157.675781 294.71875 157.191406 295.75 157.179688 296.867188 C 158.292969 302.886719 161.347656 309.785156 165.820312 317.152344 C 161.386719 320.953125 156.914062 324.761719 152.09375 328.078125 C 134.070312 338.550781 50.710938 416.382812 113.292969 412.328125 C 107.269531 423.09375 97.785156 431.492188 87.222656 437.683594 C 71.671875 449.621094 54.828125 461.117188 43.488281 477.386719 C 37.609375 485.960938 31.226562 494.492188 28.113281 504.546875 C 23.152344 521 21.054688 549.015625 43.597656 552.023438 C 43.90625 552.03125 44.21875 552.03125 44.527344 552.03125 C 67.085938 552.03125 82.644531 531.308594 100.203125 519.613281 C 98.738281 526.84375 106.28125 531.875 112.851562 531.308594 C 123.234375 531.226562 131.417969 524.183594 140.050781 519.339844 C 157.03125 510.082031 170.714844 496.230469 184.984375 483.34375 C 185.789062 486.808594 188.070312 489.785156 192.726562 490.679688 C 194 490.941406 195.296875 491.0625 196.621094 491.0625 C 216 491.0625 240.714844 464.585938 251.3125 450.996094 C 264.683594 448.03125 274.695312 436.765625 280.050781 424.636719 C 280.878906 421.875 283.140625 418.851562 283.855469 415.871094 C 289.863281 418.039062 295.378906 419.363281 300.160156 419.605469 C 300.375 419.632812 300.59375 419.644531 300.8125 419.644531 C 304.46875 419.644531 308.710938 416 307.035156 412.25 C 303.335938 408.46875 296.492188 409.734375 291.730469 407.476562 C 281.945312 404.167969 272.863281 399.09375 263.886719 394.058594 C 253.726562 389 244.84375 382.265625 236.394531 374.953125 C 254.105469 358.242188 269.097656 338.570312 280.320312 317.125 C 286.484375 307.378906 281.65625 294.632812 270.039062 292.558594 C 254.445312 292.398438 238.347656 309.429688 227.015625 319.335938 C 223.277344 323.382812 213.90625 333.261719 203.976562 345.140625 C 199.625 340.566406 195.445312 335.808594 191.148438 331.171875 C 183 322.5625 174.417969 313.859375 169.953125 302.664062 C 168.351562 299.46875 167.632812 296.027344 166.535156 292.75 C 166.105469 292.289062 165.597656 291.992188 165.054688 291.773438 C 168.039062 288.289062 171.035156 282.84375 173.679688 281.039062 C 188.488281 264.757812 200.941406 246.476562 215.191406 229.75 C 221.054688 223.386719 226.886719 216.964844 232.707031 210.53125 C 240.558594 224.019531 249.804688 237.007812 259.871094 248.960938 C 270.121094 261.171875 280.199219 273.457031 292.941406 283.210938 C 315.671875 304.949219 340.84375 325.015625 369.332031 338.652344 C 370.203125 338.980469 371.039062 339.125 371.828125 339.125 C 372.175781 339.125 372.472656 339.015625 372.800781 338.960938 C 371.660156 340.476562 370.507812 341.984375 369.371094 343.503906 C 353.160156 361.6875 337.289062 380.132812 322.207031 399.277344 C 319.601562 404.519531 306.535156 412.75 311.023438 418.578125 C 304.726562 431.691406 298.699219 445.195312 296.863281 459.761719 C 296.558594 468.179688 289.398438 484.929688 301.890625 487.582031 C 321.320312 481.773438 331.40625 460.964844 343.492188 446.097656 C 358.335938 426.265625 385.015625 383.992188 370.554688 359.257812 C 375.285156 353.339844 380.011719 347.414062 384.796875 341.523438 C 415.09375 305.261719 443.140625 266.804688 468.195312 226.714844 C 478.621094 208.308594 492.75 192.117188 500.148438 172.070312 C 514.285156 142.460938 540.90625 80.894531 527.082031 49.453125 " fill-opacity="1" fill-rule="nonzero"/><path fill="#000000" d="M 437.695312 169.183594 C 437.3125 171.855469 436.792969 174.480469 436.070312 177.082031 C 435.332031 179.371094 434.449219 181.570312 433.402344 183.734375 C 432.472656 185.421875 431.457031 187.015625 430.316406 188.578125 C 429.121094 190.050781 427.84375 191.410156 426.460938 192.714844 C 424.476562 194.371094 422.441406 195.859375 420.234375 197.199219 C 417.835938 198.515625 415.421875 199.726562 412.878906 200.738281 C 410.636719 201.488281 408.398438 202.136719 406.078125 202.585938 C 403.65625 203.019531 401.21875 203.265625 398.757812 203.386719 C 396.617188 203.425781 394.484375 203.375 392.347656 203.203125 C 390.21875 202.949219 388.128906 202.566406 386.027344 202.085938 C 384.40625 201.667969 382.8125 201.191406 381.230469 200.632812 C 380.191406 200.226562 379.171875 199.78125 378.164062 199.296875 C 377.234375 198.804688 376.335938 198.277344 375.445312 197.710938 C 374.472656 197.042969 373.539062 196.335938 372.632812 195.585938 C 371.867188 194.90625 371.144531 194.199219 370.433594 193.464844 C 369.554688 192.503906 368.730469 191.5 367.929688 190.472656 C 367.097656 189.332031 366.316406 188.164062 365.585938 186.957031 C 364.65625 185.347656 363.828125 183.691406 363.074219 181.992188 C 362.105469 179.730469 361.257812 177.414062 360.535156 175.0625 C 360.261719 174.097656 360.027344 173.128906 359.84375 172.144531 C 359.464844 169.742188 359.125 167.3125 359.019531 164.886719 C 359.015625 163.582031 359.078125 162.285156 359.226562 160.988281 C 359.585938 158.554688 360.058594 156.089844 360.710938 153.722656 C 361.007812 152.761719 361.3125 151.804688 361.75 150.894531 C 362.171875 150.015625 362.628906 149.152344 363.019531 148.261719 C 363.8125 146.460938 364.59375 144.652344 365.445312 142.875 C 365.667969 142.472656 365.90625 142.066406 366.15625 141.675781 C 366.808594 141.539062 367.429688 141.25 367.980469 140.570312 C 368.039062 140.507812 368.089844 140.449219 368.152344 140.390625 C 368.5 140.039062 368.78125 139.570312 369 139.027344 C 369.09375 138.84375 369.171875 138.648438 369.265625 138.460938 C 369.261719 138.449219 369.335938 138.238281 369.390625 138.03125 C 369.453125 137.816406 369.5 137.585938 369.710938 137.203125 C 370.710938 136.421875 371.675781 135.613281 372.707031 134.871094 C 375.261719 133.027344 377.773438 131.179688 380.46875 129.539062 C 382.546875 128.378906 384.664062 127.359375 386.878906 126.492188 C 389.195312 125.710938 391.539062 125.140625 393.925781 124.652344 C 396.0625 124.285156 398.179688 124.03125 400.347656 123.929688 C 401.675781 123.941406 402.980469 124.011719 404.296875 124.125 C 406.058594 124.332031 407.800781 124.617188 409.535156 125.003906 C 410.664062 125.300781 411.785156 125.632812 412.890625 126.011719 C 413.917969 126.417969 414.921875 126.851562 415.914062 127.339844 C 417.355469 128.117188 418.75 128.964844 420.125 129.863281 C 421.792969 131.03125 423.417969 132.242188 424.996094 133.542969 C 426.125 134.53125 427.210938 135.546875 428.261719 136.625 C 429.257812 137.71875 430.214844 138.835938 431.136719 140 C 432.097656 141.304688 432.980469 142.648438 433.8125 144.039062 C 434.496094 145.226562 435.125 146.425781 435.695312 147.671875 C 436.089844 148.644531 436.445312 149.621094 436.773438 150.621094 C 437.203125 152.128906 437.542969 153.640625 437.824219 155.179688 C 438.03125 156.65625 438.1875 158.121094 438.257812 159.613281 C 438.273438 162.816406 438.066406 166.003906 437.695312 169.183594 Z M 445.335938 149.484375 C 444.445312 146.921875 443.445312 144.363281 442.207031 141.945312 C 437.246094 132.230469 428.8125 123.835938 418.507812 119.957031 C 412.304688 117.621094 405.949219 115.90625 399.285156 115.722656 C 393.910156 115.570312 388.609375 116.003906 383.476562 117.699219 C 378.691406 119.273438 374.113281 121.285156 370.039062 124.28125 C 367.898438 125.851562 366.027344 127.664062 364.371094 129.730469 C 363.894531 130.320312 363.460938 130.902344 363.09375 131.527344 C 362.449219 131.644531 361.832031 131.921875 361.320312 132.378906 C 360.796875 132.742188 360.378906 133.148438 360.050781 133.714844 C 360.03125 133.734375 359.9375 133.863281 359.84375 133.992188 C 359.402344 134.605469 359.269531 135.394531 359.328125 136.167969 C 358.40625 137.671875 357.132812 138.953125 356.242188 140.476562 C 355.5 141.75 354.742188 143.085938 354.269531 144.488281 C 353.941406 145.453125 353.660156 146.429688 353.378906 147.402344 C 352.703125 149.597656 351.929688 151.828125 351.554688 154.09375 C 351.25 155.992188 351.09375 157.921875 350.996094 159.839844 C 350.882812 162.101562 350.726562 164.390625 350.84375 166.652344 C 350.945312 168.535156 351.207031 170.398438 351.597656 172.238281 C 352.261719 175.417969 353.007812 178.515625 354.273438 181.519531 C 355.316406 183.976562 356.609375 186.375 358.128906 188.578125 C 361.5 193.433594 365.578125 197.648438 370.265625 201.253906 C 375.246094 205.085938 380.757812 208.625 386.757812 210.59375 C 391.285156 212.082031 396.085938 212.976562 400.867188 212.976562 C 401.644531 212.976562 402.425781 212.953125 403.203125 212.902344 C 408.640625 212.558594 413.878906 211.21875 418.859375 209.011719 C 424.167969 206.660156 428.921875 203.257812 432.945312 199.070312 C 440.179688 191.539062 446.585938 182.171875 448.035156 171.59375 C 448.726562 166.589844 448.332031 161.597656 447.328125 156.664062 C 446.839844 154.226562 446.148438 151.832031 445.335938 149.484375 " fill-opacity="1" fill-rule="nonzero"/></svg>