<svg xmlns="http://www.w3.org/2000/svg" xmlns:xlink="http://www.w3.org/1999/xlink" width="750" zoomAndPan="magnify" viewBox="0 0 562.5 562.499982" height="750" preserveAspectRatio="xMidYMid meet" version="1.0"><defs><clipPath id="dd6867e565"><path d="M 0.824219 1.992188 L 561.175781 1.992188 L 561.175781 559.929688 L 0.824219 559.929688 Z M 0.824219 1.992188 " clip-rule="nonzero"/></clipPath></defs><g clip-path="url(#dd6867e565)"><path fill="#000000" d="M 305.578125 364.628906 C 307.070312 366.121094 307.070312 368.550781 305.578125 370.058594 L 280.847656 394.789062 C 280.101562 395.535156 279.117188 395.914062 278.128906 395.914062 C 277.15625 395.914062 276.167969 395.535156 275.421875 394.789062 C 273.917969 393.285156 273.917969 390.851562 275.421875 389.363281 L 300.152344 364.628906 C 301.644531 363.125 304.074219 363.125 305.578125 364.628906 Z M 358.597656 299.070312 L 378.175781 279.492188 C 379.667969 278.003906 382.097656 278.003906 383.605469 279.492188 C 385.09375 280.996094 385.09375 283.429688 383.605469 284.917969 L 364.027344 304.496094 C 363.28125 305.242188 362.292969 305.621094 361.320312 305.621094 C 360.332031 305.621094 359.359375 305.242188 358.597656 304.496094 C 357.109375 302.992188 357.109375 300.574219 358.597656 299.070312 Z M 330.066406 230.699219 C 328.5625 229.195312 328.5625 226.761719 330.066406 225.273438 L 354.023438 201.300781 C 355.511719 199.8125 357.945312 199.8125 359.449219 201.300781 C 360.941406 202.804688 360.941406 205.238281 359.449219 206.726562 L 335.496094 230.699219 C 334.734375 231.441406 333.761719 231.824219 332.773438 231.824219 C 331.800781 231.824219 330.8125 231.441406 330.066406 230.699219 Z M 232.191406 229.695312 C 230.703125 228.191406 230.703125 225.773438 232.191406 224.269531 L 256.164062 200.3125 C 257.652344 198.808594 260.085938 198.808594 261.589844 200.3125 C 263.078125 201.816406 263.078125 204.234375 261.589844 205.738281 L 237.617188 229.695312 C 236.871094 230.441406 235.886719 230.820312 234.910156 230.820312 C 233.925781 230.820312 232.949219 230.441406 232.191406 229.695312 Z M 156.371094 281.332031 C 154.882812 279.84375 154.882812 277.410156 156.371094 275.90625 L 181.359375 250.929688 C 182.851562 249.425781 185.28125 249.425781 186.785156 250.929688 C 188.277344 252.433594 188.277344 254.851562 186.785156 256.355469 L 161.796875 281.332031 C 161.050781 282.089844 160.0625 282.472656 159.089844 282.472656 C 158.101562 282.472656 157.117188 282.089844 156.371094 281.332031 Z M 273.460938 287.972656 L 248.472656 312.949219 C 247.726562 313.707031 246.738281 314.074219 245.765625 314.074219 C 244.777344 314.074219 243.789062 313.707031 243.042969 312.949219 C 241.539062 311.460938 241.539062 309.027344 243.042969 307.523438 L 268.019531 282.546875 C 269.523438 281.042969 271.957031 281.042969 273.460938 282.546875 C 274.949219 284.039062 274.949219 286.46875 273.460938 287.972656 Z M 367.308594 253.011719 C 366.246094 254.441406 366.289062 256.417969 367.445312 257.785156 C 368.601562 259.140625 370.546875 259.535156 372.128906 258.726562 L 508.113281 189.125 L 238.621094 506.222656 C 232.175781 513.808594 226.492188 519.464844 220.746094 524.023438 C 168.667969 565.25 93.941406 560.871094 46.910156 513.839844 C -0.121094 466.808594 -4.496094 392.082031 36.726562 340.019531 C 41.285156 334.261719 46.941406 328.574219 54.527344 322.128906 L 370.609375 53.503906 L 298.921875 185.386719 C 298.070312 186.949219 298.40625 188.910156 299.757812 190.097656 C 301.082031 191.285156 303.054688 191.375 304.515625 190.339844 L 539.515625 23.210938 Z M 560.082031 3.144531 C 558.777344 1.792969 556.664062 1.59375 555.113281 2.691406 L 313.589844 174.488281 L 387.175781 39.078125 C 388.058594 37.453125 387.664062 35.433594 386.234375 34.261719 C 384.789062 33.089844 382.738281 33.121094 381.324219 34.320312 L 49.554688 316.277344 C 41.574219 323.058594 35.585938 329.09375 30.707031 335.25 C -12.933594 390.367188 -8.296875 469.484375 41.484375 519.265625 C 68.433594 546.21875 103.960938 559.929688 139.636719 559.929688 C 169.867188 559.929688 200.210938 550.0625 225.503906 530.042969 C 231.675781 525.148438 237.695312 519.160156 244.472656 511.195312 L 526.429688 179.425781 C 527.613281 178.027344 527.660156 175.992188 526.519531 174.5625 C 525.378906 173.117188 523.390625 172.691406 521.761719 173.527344 L 383.40625 244.332031 L 560.417969 8.117188 C 561.542969 6.613281 561.40625 4.5 560.082031 3.144531 Z M 150.046875 433.929688 C 143.859375 433.929688 143.875 424.324219 150.046875 424.324219 C 156.234375 424.324219 156.21875 433.929688 150.046875 433.929688 Z M 74.195312 420.765625 C 68.007812 420.765625 68.023438 411.175781 74.195312 411.175781 C 80.382812 411.175781 80.367188 420.765625 74.195312 420.765625 Z M 192.136719 379.085938 C 182.867188 379.085938 182.878906 364.691406 192.136719 364.691406 C 201.425781 364.691406 201.410156 379.085938 192.136719 379.085938 Z M 105.554688 470.214844 C 96.28125 470.214844 96.296875 455.820312 105.554688 455.820312 C 114.828125 455.820312 114.8125 470.214844 105.554688 470.214844 Z M 180.980469 475.59375 C 171.707031 475.59375 171.722656 461.214844 180.980469 461.214844 C 190.253906 461.214844 190.238281 475.59375 180.980469 475.59375 Z M 136.214844 386.003906 C 128.871094 393.34375 116.925781 393.328125 109.582031 386.003906 C 102.242188 378.660156 102.242188 366.714844 109.582031 359.371094 C 113.246094 355.691406 118.082031 353.867188 122.898438 353.867188 C 127.71875 353.867188 132.535156 355.691406 136.214844 359.371094 C 143.554688 366.714844 143.554688 378.660156 136.214844 386.003906 Z M 141.640625 353.945312 C 131.304688 343.609375 114.492188 343.609375 104.15625 353.945312 C 93.820312 364.28125 93.820312 381.09375 104.15625 391.429688 C 109.324219 396.597656 116.105469 399.183594 122.898438 399.183594 C 129.679688 399.183594 136.472656 396.597656 141.640625 391.429688 C 151.976562 381.09375 151.976562 364.28125 141.640625 353.945312 Z M 212.597656 491.632812 C 191.132812 513.09375 160.839844 523.507812 130.847656 519.980469 C 131.699219 513.628906 129.617188 507.105469 124.980469 502.453125 C 121.027344 498.515625 115.785156 496.34375 110.207031 496.34375 C 104.613281 496.34375 99.367188 498.515625 95.429688 502.453125 C 94.109375 503.761719 93 505.265625 92.070312 506.878906 C 84.972656 502.714844 78.332031 497.636719 72.355469 491.675781 C 33.71875 453.023438 33.730469 390.121094 72.402344 351.4375 C 91.128906 332.726562 116.011719 322.402344 142.492188 322.402344 C 142.492188 322.402344 142.492188 322.402344 142.507812 322.402344 C 168.988281 322.402344 193.871094 332.726562 212.597656 351.4375 C 231.324219 370.164062 241.628906 395.078125 241.628906 421.558594 C 241.628906 448.019531 231.308594 472.917969 212.597656 491.632812 Z M 123.308594 518.765625 C 122.289062 518.550781 121.289062 518.371094 120.269531 518.140625 C 119.507812 517.972656 118.734375 517.808594 117.957031 517.609375 C 113.125 516.378906 108.382812 514.78125 103.777344 512.820312 C 103.078125 512.53125 102.410156 512.199219 101.722656 511.894531 C 100.75 511.453125 99.792969 510.96875 98.835938 510.496094 C 99.398438 509.554688 100.082031 508.65625 100.859375 507.882812 C 105.84375 502.894531 114.570312 502.894531 119.554688 507.882812 C 122.441406 510.769531 123.765625 514.796875 123.308594 518.765625 Z M 142.492188 314.726562 C 113.960938 314.742188 87.148438 325.855469 66.976562 346.011719 C 25.3125 387.675781 25.296875 455.453125 66.929688 497.105469 C 74.4375 504.597656 82.890625 510.875 92.042969 515.726562 C 94.671875 517.136719 97.347656 518.429688 100.066406 519.617188 C 108.214844 523.15625 116.757812 525.636719 125.542969 527.035156 C 131.136719 527.929688 136.746094 528.371094 142.339844 528.371094 C 170.460938 528.371094 197.851562 517.230469 218.023438 497.058594 C 238.195312 476.886719 249.308594 450.074219 249.308594 421.558594 C 249.308594 393.027344 238.210938 366.195312 218.023438 346.011719 C 197.851562 325.839844 170.933594 314.636719 142.492188 314.726562 " fill-opacity="1" fill-rule="nonzero"/></g></svg>