<svg xmlns="http://www.w3.org/2000/svg" xmlns:xlink="http://www.w3.org/1999/xlink" width="750" zoomAndPan="magnify" viewBox="0 0 562.5 562.499982" height="750" preserveAspectRatio="xMidYMid meet" version="1.0"><defs><clipPath id="69efaaf286"><path d="M 325 326 L 556 326 L 556 556.742188 L 325 556.742188 Z M 325 326 " clip-rule="nonzero"/></clipPath></defs><path fill="#000000" d="M 252.460938 428.351562 C 250.128906 428.359375 247.820312 428.136719 245.535156 427.683594 C 243.25 427.234375 241.03125 426.5625 238.878906 425.667969 C 236.722656 424.777344 234.679688 423.683594 232.746094 422.382812 C 230.808594 421.085938 229.019531 419.609375 227.378906 417.957031 L 144.796875 335.371094 C 143.976562 334.550781 143.195312 333.691406 142.457031 332.792969 C 141.71875 331.894531 141.027344 330.964844 140.382812 330 C 139.734375 329.03125 139.140625 328.035156 138.589844 327.011719 C 138.042969 325.988281 137.546875 324.9375 137.101562 323.863281 C 136.65625 322.792969 136.265625 321.699219 135.925781 320.585938 C 135.589844 319.476562 135.308594 318.347656 135.082031 317.210938 C 134.851562 316.070312 134.683594 314.921875 134.570312 313.765625 C 134.453125 312.609375 134.398438 311.449219 134.398438 310.289062 C 134.398438 309.125 134.453125 307.964844 134.570312 306.808594 C 134.683594 305.652344 134.851562 304.503906 135.082031 303.363281 C 135.308594 302.226562 135.589844 301.097656 135.925781 299.988281 C 136.265625 298.875 136.65625 297.78125 137.101562 296.710938 C 137.546875 295.636719 138.042969 294.585938 138.589844 293.5625 C 139.140625 292.539062 139.734375 291.542969 140.382812 290.578125 C 141.027344 289.609375 141.71875 288.679688 142.457031 287.78125 C 143.195312 286.882812 143.976562 286.023438 144.796875 285.203125 L 309.984375 120.011719 C 310.808594 119.191406 311.667969 118.410156 312.566406 117.671875 C 313.464844 116.933594 314.394531 116.242188 315.359375 115.597656 C 316.328125 114.949219 317.324219 114.351562 318.347656 113.804688 C 319.371094 113.257812 320.421875 112.761719 321.496094 112.316406 C 322.566406 111.871094 323.660156 111.476562 324.773438 111.140625 C 325.886719 110.804688 327.011719 110.519531 328.152344 110.292969 C 329.292969 110.066406 330.4375 109.894531 331.597656 109.78125 C 332.753906 109.667969 333.910156 109.609375 335.074219 109.609375 C 336.238281 109.609375 337.394531 109.667969 338.550781 109.78125 C 339.710938 109.894531 340.859375 110.066406 341.996094 110.292969 C 343.136719 110.519531 344.261719 110.804688 345.375 111.140625 C 346.488281 111.476562 347.582031 111.871094 348.652344 112.316406 C 349.726562 112.761719 350.777344 113.257812 351.800781 113.804688 C 352.824219 114.351562 353.820312 114.949219 354.789062 115.597656 C 355.753906 116.242188 356.6875 116.933594 357.582031 117.671875 C 358.480469 118.410156 359.339844 119.191406 360.164062 120.011719 L 442.742188 202.59375 C 443.566406 203.414062 444.34375 204.273438 445.082031 205.171875 C 445.820312 206.070312 446.511719 207.003906 447.160156 207.96875 C 447.804688 208.933594 448.402344 209.929688 448.949219 210.953125 C 449.5 211.980469 449.996094 213.027344 450.441406 214.101562 C 450.886719 215.175781 451.277344 216.269531 451.617188 217.378906 C 451.953125 218.492188 452.234375 219.617188 452.460938 220.757812 C 452.6875 221.898438 452.859375 223.046875 452.972656 224.203125 C 453.085938 225.359375 453.144531 226.519531 453.144531 227.683594 C 453.144531 228.84375 453.085938 230.003906 452.972656 231.160156 C 452.859375 232.316406 452.6875 233.464844 452.460938 234.605469 C 452.234375 235.746094 451.953125 236.871094 451.617188 237.984375 C 451.277344 239.09375 450.886719 240.1875 450.441406 241.261719 C 449.996094 242.335938 449.5 243.382812 448.949219 244.410156 C 448.402344 245.433594 447.804688 246.429688 447.160156 247.394531 C 446.511719 248.359375 445.820312 249.292969 445.082031 250.191406 C 444.34375 251.089844 443.566406 251.949219 442.742188 252.769531 L 277.546875 417.957031 C 275.90625 419.613281 274.117188 421.085938 272.179688 422.386719 C 270.242188 423.683594 268.199219 424.777344 266.046875 425.667969 C 263.894531 426.5625 261.671875 427.234375 259.386719 427.683594 C 257.101562 428.136719 254.792969 428.359375 252.460938 428.351562 Z M 335.074219 118.066406 C 333.296875 118.0625 331.539062 118.234375 329.796875 118.578125 C 328.050781 118.921875 326.359375 119.429688 324.71875 120.109375 C 323.078125 120.789062 321.515625 121.621094 320.039062 122.609375 C 318.5625 123.59375 317.195312 124.714844 315.941406 125.972656 L 150.761719 291.171875 C 150.136719 291.800781 149.546875 292.457031 148.984375 293.140625 C 148.421875 293.824219 147.898438 294.535156 147.40625 295.273438 C 146.914062 296.007812 146.460938 296.765625 146.042969 297.546875 C 145.628906 298.328125 145.25 299.128906 144.914062 299.945312 C 144.574219 300.765625 144.277344 301.597656 144.019531 302.445312 C 143.761719 303.292969 143.550781 304.148438 143.375 305.015625 C 143.203125 305.886719 143.074219 306.761719 142.988281 307.640625 C 142.902344 308.523438 142.859375 309.40625 142.859375 310.289062 C 142.859375 311.175781 142.902344 312.058594 142.988281 312.9375 C 143.074219 313.820312 143.203125 314.695312 143.375 315.5625 C 143.550781 316.429688 143.761719 317.289062 144.019531 318.136719 C 144.277344 318.984375 144.574219 319.816406 144.914062 320.632812 C 145.25 321.453125 145.628906 322.25 146.042969 323.03125 C 146.460938 323.8125 146.914062 324.570312 147.40625 325.308594 C 147.898438 326.042969 148.421875 326.753906 148.984375 327.441406 C 149.546875 328.125 150.136719 328.78125 150.761719 329.40625 L 233.34375 411.992188 C 233.96875 412.617188 234.625 413.210938 235.308594 413.773438 C 235.996094 414.332031 236.707031 414.859375 237.441406 415.347656 C 238.179688 415.839844 238.9375 416.292969 239.71875 416.710938 C 240.5 417.128906 241.296875 417.503906 242.117188 417.84375 C 242.933594 418.183594 243.765625 418.480469 244.613281 418.734375 C 245.460938 418.992188 246.320312 419.207031 247.1875 419.378906 C 248.054688 419.550781 248.929688 419.679688 249.8125 419.769531 C 250.691406 419.855469 251.574219 419.898438 252.460938 419.898438 C 253.34375 419.898438 254.226562 419.855469 255.109375 419.769531 C 255.992188 419.679688 256.863281 419.550781 257.734375 419.378906 C 258.601562 419.207031 259.457031 418.992188 260.304688 418.734375 C 261.152344 418.480469 261.984375 418.183594 262.804688 417.84375 C 263.621094 417.503906 264.421875 417.128906 265.203125 416.710938 C 265.984375 416.292969 266.742188 415.839844 267.476562 415.347656 C 268.214844 414.859375 268.925781 414.332031 269.609375 413.773438 C 270.296875 413.210938 270.949219 412.617188 271.578125 411.992188 L 436.769531 246.800781 C 437.398438 246.171875 437.992188 245.515625 438.554688 244.832031 C 439.117188 244.144531 439.640625 243.433594 440.132812 242.699219 C 440.625 241.960938 441.082031 241.199219 441.5 240.417969 C 441.914062 239.636719 442.292969 238.835938 442.632812 238.019531 C 442.972656 237.199219 443.269531 236.367188 443.527344 235.519531 C 443.785156 234.671875 444 233.8125 444.171875 232.941406 C 444.34375 232.074219 444.472656 231.199219 444.5625 230.316406 C 444.648438 229.433594 444.691406 228.550781 444.691406 227.664062 C 444.691406 226.777344 444.648438 225.894531 444.5625 225.011719 C 444.472656 224.132812 444.34375 223.253906 444.171875 222.386719 C 444 221.515625 443.785156 220.660156 443.527344 219.8125 C 443.269531 218.964844 442.972656 218.128906 442.632812 217.3125 C 442.292969 216.492188 441.914062 215.691406 441.5 214.910156 C 441.082031 214.128906 440.625 213.371094 440.132812 212.632812 C 439.640625 211.894531 439.117188 211.183594 438.554688 210.5 C 437.992188 209.8125 437.398438 209.15625 436.769531 208.53125 L 354.191406 125.980469 C 352.9375 124.722656 351.570312 123.601562 350.097656 122.613281 C 348.621094 121.628906 347.0625 120.792969 345.421875 120.117188 C 343.78125 119.4375 342.089844 118.925781 340.347656 118.582031 C 338.609375 118.234375 336.847656 118.0625 335.074219 118.066406 Z M 335.074219 118.066406 " fill-opacity="1" fill-rule="nonzero"/><g clip-path="url(#69efaaf286)"><path fill="#000000" d="M 466.851562 556.105469 C 464.964844 556.109375 463.152344 555.753906 461.410156 555.035156 C 459.667969 554.316406 458.128906 553.289062 456.792969 551.957031 L 330.089844 425.242188 C 329.425781 424.582031 328.835938 423.863281 328.316406 423.085938 C 327.796875 422.3125 327.359375 421.492188 327 420.628906 C 326.644531 419.765625 326.375 418.878906 326.191406 417.960938 C 326.007812 417.046875 325.917969 416.121094 325.917969 415.1875 C 325.917969 414.253906 326.007812 413.328125 326.191406 412.414062 C 326.375 411.496094 326.644531 410.605469 327 409.746094 C 327.359375 408.882812 327.796875 408.0625 328.316406 407.285156 C 328.835938 406.511719 329.425781 405.792969 330.089844 405.132812 L 404.375 330.847656 C 405.035156 330.1875 405.75 329.597656 406.527344 329.078125 C 407.304688 328.558594 408.125 328.121094 408.988281 327.765625 C 409.851562 327.40625 410.738281 327.136719 411.65625 326.957031 C 412.570312 326.773438 413.496094 326.683594 414.429688 326.683594 C 415.363281 326.683594 416.289062 326.773438 417.203125 326.957031 C 418.121094 327.136719 419.007812 327.40625 419.871094 327.765625 C 420.734375 328.121094 421.554688 328.558594 422.332031 329.078125 C 423.109375 329.597656 423.824219 330.1875 424.484375 330.847656 L 551.171875 457.570312 C 551.828125 458.230469 552.417969 458.953125 552.933594 459.726562 C 553.453125 460.503906 553.890625 461.324219 554.246094 462.1875 C 554.601562 463.050781 554.871094 463.9375 555.054688 464.855469 C 555.234375 465.769531 555.328125 466.695312 555.328125 467.628906 C 555.328125 468.5625 555.234375 469.484375 555.054688 470.402344 C 554.871094 471.316406 554.601562 472.207031 554.246094 473.070312 C 553.890625 473.929688 553.453125 474.75 552.933594 475.527344 C 552.417969 476.304688 551.828125 477.023438 551.171875 477.683594 L 476.90625 551.957031 C 475.574219 553.289062 474.035156 554.316406 472.292969 555.035156 C 470.550781 555.753906 468.734375 556.109375 466.851562 556.105469 Z M 410.316406 336.835938 L 336.03125 411.121094 C 335.761719 411.390625 335.523438 411.679688 335.3125 411.996094 C 335.101562 412.3125 334.921875 412.644531 334.777344 412.996094 C 334.632812 413.347656 334.523438 413.707031 334.449219 414.082031 C 334.375 414.453125 334.335938 414.828125 334.335938 415.210938 C 334.335938 415.589844 334.375 415.964844 334.449219 416.335938 C 334.523438 416.710938 334.632812 417.070312 334.777344 417.421875 C 334.921875 417.773438 335.101562 418.105469 335.3125 418.421875 C 335.523438 418.738281 335.761719 419.027344 336.03125 419.296875 L 462.761719 545.980469 C 463.027344 546.25 463.320312 546.488281 463.636719 546.699219 C 463.953125 546.910156 464.285156 547.089844 464.636719 547.234375 C 464.988281 547.378906 465.351562 547.488281 465.722656 547.5625 C 466.09375 547.636719 466.472656 547.675781 466.851562 547.675781 C 467.230469 547.675781 467.605469 547.636719 467.980469 547.5625 C 468.351562 547.488281 468.714844 547.378906 469.066406 547.234375 C 469.417969 547.089844 469.75 546.910156 470.066406 546.699219 C 470.382812 546.488281 470.671875 546.25 470.941406 545.980469 L 545.199219 471.695312 C 545.46875 471.429688 545.707031 471.136719 545.917969 470.820312 C 546.125 470.503906 546.304688 470.171875 546.449219 469.820312 C 546.59375 469.46875 546.703125 469.109375 546.777344 468.734375 C 546.851562 468.363281 546.886719 467.988281 546.886719 467.609375 C 546.886719 467.230469 546.851562 466.851562 546.777344 466.480469 C 546.703125 466.109375 546.59375 465.746094 546.449219 465.398438 C 546.304688 465.046875 546.125 464.710938 545.917969 464.398438 C 545.707031 464.082031 545.46875 463.789062 545.199219 463.519531 L 418.492188 336.835938 C 418.222656 336.566406 417.929688 336.328125 417.617188 336.117188 C 417.300781 335.910156 416.964844 335.730469 416.617188 335.585938 C 416.265625 335.441406 415.902344 335.332031 415.53125 335.257812 C 415.160156 335.183594 414.785156 335.148438 414.40625 335.148438 C 414.023438 335.148438 413.648438 335.183594 413.277344 335.257812 C 412.90625 335.332031 412.542969 335.441406 412.191406 335.585938 C 411.84375 335.730469 411.507812 335.910156 411.191406 336.117188 C 410.878906 336.328125 410.585938 336.566406 410.316406 336.835938 Z M 410.316406 336.835938 " fill-opacity="1" fill-rule="nonzero"/></g><path fill="#000000" d="M 372.613281 461.800781 L 461.015625 373.394531 L 466.984375 379.363281 L 378.582031 467.769531 Z M 372.613281 461.800781 " fill-opacity="1" fill-rule="nonzero"/><path fill="#000000" d="M 414.261719 503.449219 L 502.667969 415.046875 L 508.636719 421.015625 L 420.230469 509.417969 Z M 414.261719 503.449219 " fill-opacity="1" fill-rule="nonzero"/><path fill="#000000" d="M 367.21875 373.960938 L 373.1875 367.992188 L 514.039062 508.84375 L 508.070312 514.8125 Z M 367.21875 373.960938 " fill-opacity="1" fill-rule="nonzero"/><path fill="#000000" d="M 363.855469 325.6875 L 369.824219 319.71875 L 395.648438 345.546875 L 389.679688 351.515625 Z M 363.855469 325.6875 " fill-opacity="1" fill-rule="nonzero"/><path fill="#000000" d="M 318.945312 370.605469 L 324.914062 364.636719 L 350.734375 390.457031 L 344.765625 396.425781 Z M 318.945312 370.605469 " fill-opacity="1" fill-rule="nonzero"/><path fill="#000000" d="M 147.566406 236.808594 C 145.679688 236.816406 143.863281 236.457031 142.121094 235.734375 C 140.375 235.011719 138.839844 233.980469 137.511719 232.640625 L 10.804688 105.960938 C 10.144531 105.300781 9.554688 104.582031 9.039062 103.804688 C 8.519531 103.027344 8.082031 102.207031 7.726562 101.34375 C 7.371094 100.484375 7.101562 99.59375 6.917969 98.679688 C 6.738281 97.761719 6.648438 96.839844 6.648438 95.90625 C 6.648438 94.972656 6.738281 94.046875 6.917969 93.132812 C 7.101562 92.214844 7.371094 91.328125 7.726562 90.464844 C 8.082031 89.601562 8.519531 88.78125 9.039062 88.003906 C 9.554688 87.226562 10.144531 86.507812 10.804688 85.847656 L 85.089844 11.5625 C 85.757812 10.921875 86.484375 10.351562 87.265625 9.847656 C 88.046875 9.347656 88.867188 8.921875 89.726562 8.578125 C 90.589844 8.230469 91.476562 7.972656 92.386719 7.796875 C 93.296875 7.621094 94.21875 7.53125 95.144531 7.53125 C 96.074219 7.53125 96.992188 7.621094 97.902344 7.796875 C 98.816406 7.972656 99.699219 8.230469 100.5625 8.578125 C 101.421875 8.921875 102.246094 9.347656 103.023438 9.847656 C 103.804688 10.351562 104.53125 10.921875 105.203125 11.5625 L 231.886719 138.292969 C 232.542969 138.953125 233.132812 139.671875 233.652344 140.449219 C 234.167969 141.226562 234.605469 142.046875 234.960938 142.90625 C 235.320312 143.769531 235.589844 144.660156 235.769531 145.574219 C 235.953125 146.492188 236.042969 147.414062 236.042969 148.347656 C 236.042969 149.28125 235.953125 150.207031 235.769531 151.121094 C 235.589844 152.039062 235.320312 152.925781 234.960938 153.789062 C 234.605469 154.652344 234.167969 155.472656 233.652344 156.25 C 233.132812 157.027344 232.542969 157.746094 231.886719 158.40625 L 157.601562 232.691406 C 156.269531 234.019531 154.734375 235.039062 152.996094 235.753906 C 151.257812 236.464844 149.445312 236.820312 147.566406 236.808594 Z M 95.121094 15.863281 C 94.355469 15.859375 93.617188 16.003906 92.910156 16.296875 C 92.203125 16.589844 91.578125 17.007812 91.035156 17.550781 L 16.75 91.835938 C 16.484375 92.105469 16.242188 92.398438 16.035156 92.710938 C 15.824219 93.027344 15.644531 93.359375 15.5 93.710938 C 15.355469 94.0625 15.246094 94.425781 15.171875 94.796875 C 15.097656 95.167969 15.058594 95.542969 15.058594 95.925781 C 15.058594 96.304688 15.097656 96.679688 15.171875 97.050781 C 15.246094 97.425781 15.355469 97.785156 15.5 98.136719 C 15.644531 98.488281 15.824219 98.820312 16.035156 99.136719 C 16.242188 99.453125 16.484375 99.746094 16.75 100.011719 L 143.480469 226.679688 C 143.753906 226.941406 144.046875 227.175781 144.363281 227.378906 C 144.679688 227.582031 145.015625 227.753906 145.363281 227.894531 C 145.714844 228.035156 146.074219 228.144531 146.445312 228.214844 C 146.816406 228.285156 147.1875 228.324219 147.566406 228.324219 C 147.945312 228.324219 148.316406 228.285156 148.6875 228.214844 C 149.058594 228.144531 149.417969 228.035156 149.769531 227.894531 C 150.117188 227.753906 150.453125 227.582031 150.769531 227.378906 C 151.085938 227.175781 151.378906 226.941406 151.652344 226.679688 L 225.9375 152.421875 C 226.203125 152.152344 226.445312 151.863281 226.652344 151.546875 C 226.863281 151.230469 227.042969 150.894531 227.1875 150.542969 C 227.332031 150.195312 227.441406 149.832031 227.515625 149.460938 C 227.589844 149.085938 227.625 148.710938 227.625 148.332031 C 227.625 147.953125 227.589844 147.578125 227.515625 147.203125 C 227.441406 146.832031 227.332031 146.46875 227.1875 146.117188 C 227.042969 145.769531 226.863281 145.433594 226.652344 145.117188 C 226.445312 144.800781 226.203125 144.511719 225.9375 144.242188 L 99.214844 17.554688 C 98.671875 17.011719 98.046875 16.59375 97.339844 16.300781 C 96.628906 16.003906 95.890625 15.859375 95.121094 15.863281 Z M 95.121094 15.863281 " fill-opacity="1" fill-rule="nonzero"/><path fill="#000000" d="M 94.988281 184.171875 L 183.394531 95.765625 L 189.363281 101.734375 L 100.957031 190.140625 Z M 94.988281 184.171875 " fill-opacity="1" fill-rule="nonzero"/><path fill="#000000" d="M 53.332031 142.519531 L 141.742188 54.109375 L 147.710938 60.078125 L 59.300781 148.488281 Z M 53.332031 142.519531 " fill-opacity="1" fill-rule="nonzero"/><path fill="#000000" d="M 47.933594 54.683594 L 53.902344 48.714844 L 194.753906 189.5625 L 188.785156 195.53125 Z M 47.933594 54.683594 " fill-opacity="1" fill-rule="nonzero"/><path fill="#000000" d="M 166.332031 217.988281 L 172.300781 212.019531 L 198.121094 237.84375 L 192.152344 243.8125 Z M 166.332031 217.988281 " fill-opacity="1" fill-rule="nonzero"/><path fill="#000000" d="M 211.242188 173.082031 L 217.214844 167.113281 L 243.039062 192.9375 L 237.070312 198.90625 Z M 211.242188 173.082031 " fill-opacity="1" fill-rule="nonzero"/><path fill="#000000" d="M 435.324219 207.105469 L 355.644531 127.429688 L 358.625 124.449219 C 359.929688 123.144531 361.296875 121.90625 362.722656 120.734375 C 364.148438 119.5625 365.628906 118.464844 367.164062 117.441406 C 368.699219 116.414062 370.277344 115.46875 371.90625 114.597656 C 373.535156 113.726562 375.199219 112.9375 376.90625 112.234375 C 378.609375 111.527344 380.34375 110.90625 382.109375 110.371094 C 383.875 109.835938 385.664062 109.386719 387.472656 109.027344 C 389.285156 108.667969 391.109375 108.394531 392.945312 108.214844 C 394.78125 108.035156 396.621094 107.941406 398.46875 107.941406 C 400.3125 107.941406 402.152344 108.035156 403.988281 108.214844 C 405.824219 108.394531 407.648438 108.667969 409.460938 109.027344 C 411.269531 109.386719 413.058594 109.835938 414.824219 110.371094 C 416.589844 110.90625 418.324219 111.527344 420.027344 112.234375 C 421.734375 112.9375 423.398438 113.726562 425.027344 114.597656 C 426.65625 115.46875 428.234375 116.414062 429.769531 117.441406 C 431.304688 118.464844 432.785156 119.5625 434.210938 120.734375 C 435.636719 121.90625 437.003906 123.144531 438.308594 124.449219 C 439.613281 125.753906 440.851562 127.117188 442.019531 128.546875 C 443.191406 129.972656 444.289062 131.453125 445.3125 132.984375 C 446.339844 134.519531 447.285156 136.101562 448.15625 137.726562 C 449.027344 139.355469 449.8125 141.023438 450.519531 142.726562 C 451.226562 144.429688 451.847656 146.167969 452.382812 147.933594 C 452.917969 149.699219 453.363281 151.484375 453.726562 153.296875 C 454.085938 155.105469 454.355469 156.929688 454.535156 158.765625 C 454.71875 160.601562 454.808594 162.441406 454.808594 164.285156 C 454.808594 166.132812 454.71875 167.972656 454.535156 169.808594 C 454.355469 171.644531 454.085938 173.46875 453.726562 175.277344 C 453.363281 177.085938 452.917969 178.875 452.382812 180.640625 C 451.847656 182.40625 451.226562 184.140625 450.519531 185.847656 C 449.8125 187.550781 449.027344 189.21875 448.15625 190.84375 C 447.285156 192.472656 446.339844 194.050781 445.3125 195.585938 C 444.289062 197.121094 443.191406 198.601562 442.019531 200.027344 C 440.851562 201.453125 439.613281 202.820312 438.308594 204.125 Z M 367.707031 127.558594 L 435.183594 195.042969 C 436.132812 193.90625 437.03125 192.730469 437.871094 191.511719 C 438.710938 190.292969 439.496094 189.039062 440.21875 187.746094 C 440.945312 186.457031 441.609375 185.132812 442.210938 183.78125 C 442.8125 182.429688 443.351562 181.050781 443.828125 179.648438 C 444.300781 178.246094 444.710938 176.824219 445.054688 175.386719 C 445.394531 173.945312 445.671875 172.492188 445.878906 171.027344 C 446.085938 169.558594 446.226562 168.085938 446.300781 166.609375 C 446.371094 165.128906 446.375 163.652344 446.308594 162.171875 C 446.242188 160.691406 446.109375 159.21875 445.90625 157.753906 C 445.707031 156.285156 445.4375 154.832031 445.097656 153.390625 C 444.761719 151.949219 444.359375 150.527344 443.890625 149.121094 C 443.421875 147.71875 442.890625 146.335938 442.292969 144.984375 C 441.695312 143.628906 441.039062 142.304688 440.320312 141.007812 C 439.601562 139.714844 438.820312 138.457031 437.984375 137.234375 C 437.148438 136.011719 436.257812 134.832031 435.3125 133.691406 C 434.367188 132.554688 433.371094 131.460938 432.324219 130.414062 C 431.277344 129.367188 430.1875 128.371094 429.046875 127.425781 C 427.90625 126.480469 426.726562 125.589844 425.503906 124.753906 C 424.28125 123.914062 423.023438 123.136719 421.730469 122.417969 C 420.4375 121.699219 419.113281 121.042969 417.757812 120.445312 C 416.402344 119.847656 415.023438 119.316406 413.617188 118.847656 C 412.210938 118.378906 410.789062 117.976562 409.347656 117.636719 C 407.90625 117.300781 406.453125 117.03125 404.984375 116.832031 C 403.519531 116.628906 402.046875 116.496094 400.566406 116.429688 C 399.085938 116.363281 397.609375 116.367188 396.128906 116.4375 C 394.648438 116.511719 393.175781 116.652344 391.710938 116.859375 C 390.246094 117.066406 388.792969 117.34375 387.351562 117.6875 C 385.914062 118.03125 384.492188 118.4375 383.089844 118.914062 C 381.6875 119.390625 380.308594 119.925781 378.957031 120.53125 C 377.605469 121.132812 376.28125 121.796875 374.992188 122.523438 C 373.699219 123.246094 372.445312 124.03125 371.226562 124.871094 C 370.007812 125.714844 368.832031 126.609375 367.699219 127.558594 Z M 367.707031 127.558594 " fill-opacity="1" fill-rule="nonzero"/><path fill="#000000" d="M 188.445312 515.316406 C 186.25 515.316406 184.136719 514.894531 182.105469 514.054688 C 180.078125 513.21875 178.285156 512.023438 176.730469 510.472656 L 52.285156 386.015625 C 51.867188 385.597656 51.472656 385.15625 51.101562 384.695312 C 50.730469 384.234375 50.386719 383.753906 50.066406 383.253906 C 49.746094 382.757812 49.453125 382.242188 49.191406 381.710938 C 48.925781 381.183594 48.691406 380.640625 48.484375 380.085938 C 48.277344 379.53125 48.101562 378.964844 47.953125 378.394531 C 47.808594 377.820312 47.691406 377.238281 47.609375 376.652344 C 47.523438 376.066406 47.46875 375.476562 47.449219 374.886719 C 47.429688 374.292969 47.4375 373.703125 47.480469 373.113281 C 47.523438 372.523438 47.59375 371.9375 47.699219 371.351562 C 47.804688 370.769531 47.941406 370.195312 48.105469 369.625 C 48.273438 369.058594 48.46875 368.5 48.695312 367.953125 C 48.917969 367.40625 49.175781 366.871094 49.457031 366.351562 C 49.738281 365.832031 50.050781 365.328125 50.386719 364.839844 C 50.722656 364.355469 51.085938 363.886719 51.472656 363.4375 C 51.859375 362.988281 52.265625 362.5625 52.699219 362.160156 C 53.132812 361.753906 53.585938 361.375 54.058594 361.019531 C 55.3125 360.074219 56.589844 359.15625 57.886719 358.269531 C 59.183594 357.378906 60.5 356.519531 61.835938 355.691406 C 63.171875 354.863281 64.523438 354.0625 65.894531 353.296875 C 67.265625 352.527344 68.652344 351.789062 70.054688 351.082031 C 71.460938 350.375 72.878906 349.699219 74.3125 349.058594 C 75.746094 348.414062 77.195312 347.804688 78.65625 347.226562 C 80.117188 346.648438 81.59375 346.101562 83.078125 345.589844 C 84.5625 345.074219 86.058594 344.597656 87.566406 344.152344 C 89.074219 343.707031 90.589844 343.292969 92.117188 342.917969 C 93.644531 342.539062 95.175781 342.195312 96.71875 341.886719 C 98.257812 341.574219 99.804688 341.300781 101.359375 341.0625 C 102.910156 340.820312 104.46875 340.617188 106.03125 340.445312 C 107.59375 340.273438 109.160156 340.140625 110.730469 340.039062 C 112.296875 339.9375 113.867188 339.871094 115.4375 339.84375 C 117.011719 339.8125 118.582031 339.816406 120.152344 339.855469 C 121.722656 339.898438 123.292969 339.972656 124.863281 340.082031 C 126.429688 340.191406 127.996094 340.335938 129.554688 340.519531 C 131.117188 340.699219 132.675781 340.914062 134.226562 341.164062 C 135.777344 341.414062 137.324219 341.695312 138.863281 342.015625 C 140.402344 342.335938 141.933594 342.6875 143.457031 343.074219 C 144.980469 343.460938 146.492188 343.882812 147.996094 344.339844 C 149.5 344.792969 150.996094 345.28125 152.476562 345.804688 C 153.960938 346.324219 155.429688 346.878906 156.890625 347.46875 C 158.347656 348.054688 159.789062 348.675781 161.222656 349.324219 C 162.652344 349.976562 164.066406 350.660156 165.464844 351.378906 C 166.863281 352.09375 168.246094 352.839844 169.613281 353.617188 C 170.980469 354.394531 172.328125 355.199219 173.660156 356.039062 C 174.988281 356.875 176.300781 357.742188 177.589844 358.636719 C 178.882812 359.535156 180.152344 360.457031 181.402344 361.410156 C 182.652344 362.363281 183.882812 363.34375 185.085938 364.351562 C 186.292969 365.359375 187.476562 366.394531 188.636719 367.453125 C 189.796875 368.515625 190.933594 369.601562 192.042969 370.710938 C 193.15625 371.824219 194.242188 372.960938 195.300781 374.121094 C 196.363281 375.28125 197.394531 376.460938 198.402344 377.667969 C 199.410156 378.875 200.390625 380.101562 201.34375 381.351562 C 202.296875 382.601562 203.222656 383.875 204.117188 385.164062 C 205.015625 386.457031 205.882812 387.765625 206.71875 389.097656 C 207.554688 390.425781 208.363281 391.777344 209.140625 393.140625 C 209.917969 394.507812 210.664062 395.890625 211.378906 397.289062 C 212.09375 398.691406 212.777344 400.105469 213.429688 401.535156 C 214.082031 402.964844 214.703125 404.410156 215.289062 405.867188 C 215.875 407.324219 216.429688 408.796875 216.953125 410.277344 C 217.476562 411.761719 217.964844 413.253906 218.417969 414.757812 C 218.871094 416.261719 219.292969 417.777344 219.679688 419.300781 C 220.070312 420.824219 220.421875 422.355469 220.742188 423.894531 C 221.058594 425.433594 221.34375 426.976562 221.59375 428.53125 C 221.84375 430.082031 222.058594 431.636719 222.238281 433.199219 C 222.417969 434.761719 222.5625 436.324219 222.671875 437.894531 C 222.785156 439.460938 222.859375 441.03125 222.898438 442.601562 C 222.9375 444.175781 222.945312 445.746094 222.914062 447.316406 C 222.882812 448.886719 222.816406 450.457031 222.71875 452.027344 C 222.617188 453.59375 222.480469 455.160156 222.3125 456.722656 C 222.140625 458.285156 221.933594 459.84375 221.695312 461.398438 C 221.453125 462.949219 221.179688 464.496094 220.871094 466.039062 C 220.5625 467.578125 220.21875 469.113281 219.839844 470.640625 C 219.460938 472.164062 219.050781 473.679688 218.605469 475.1875 C 218.160156 476.695312 217.679688 478.191406 217.167969 479.679688 C 216.65625 481.164062 216.109375 482.636719 215.53125 484.097656 C 214.953125 485.558594 214.339844 487.007812 213.699219 488.441406 C 213.054688 489.875 212.378906 491.296875 211.671875 492.699219 C 210.96875 494.101562 210.230469 495.492188 209.460938 496.863281 C 208.691406 498.234375 207.894531 499.585938 207.0625 500.921875 C 206.234375 502.257812 205.375 503.574219 204.488281 504.871094 C 203.601562 506.167969 202.683594 507.441406 201.738281 508.699219 C 201.019531 509.648438 200.210938 510.511719 199.308594 511.289062 C 198.40625 512.066406 197.433594 512.738281 196.386719 513.304688 C 195.339844 513.871094 194.246094 514.320312 193.101562 514.65625 C 191.957031 514.988281 190.792969 515.195312 189.605469 515.277344 C 189.214844 515.304688 188.828125 515.316406 188.445312 515.316406 Z M 182.699219 504.5 C 183.523438 505.347656 184.488281 505.976562 185.59375 506.386719 C 186.703125 506.796875 187.84375 506.953125 189.019531 506.851562 C 190.203125 506.769531 191.320312 506.445312 192.363281 505.882812 C 193.40625 505.316406 194.285156 504.558594 195.003906 503.609375 C 195.871094 502.457031 196.714844 501.28125 197.53125 500.089844 C 198.347656 498.894531 199.136719 497.683594 199.902344 496.457031 C 200.664062 495.226562 201.398438 493.984375 202.105469 492.722656 C 202.8125 491.460938 203.492188 490.183594 204.140625 488.890625 C 204.792969 487.601562 205.414062 486.296875 206.003906 484.976562 C 206.597656 483.65625 207.15625 482.324219 207.691406 480.980469 C 208.222656 479.636719 208.722656 478.28125 209.195312 476.914062 C 209.667969 475.546875 210.109375 474.167969 210.515625 472.78125 C 210.925781 471.394531 211.304688 470 211.652344 468.597656 C 212 467.195312 212.316406 465.785156 212.601562 464.367188 C 212.886719 462.949219 213.140625 461.523438 213.359375 460.09375 C 213.582031 458.667969 213.769531 457.234375 213.925781 455.796875 C 214.082031 454.359375 214.207031 452.917969 214.300781 451.476562 C 214.390625 450.03125 214.453125 448.589844 214.480469 447.140625 C 214.507812 445.695312 214.503906 444.25 214.46875 442.804688 C 214.429688 441.359375 214.359375 439.917969 214.257812 438.472656 C 214.160156 437.03125 214.023438 435.59375 213.859375 434.15625 C 213.691406 432.71875 213.496094 431.285156 213.265625 429.859375 C 213.035156 428.433594 212.773438 427.011719 212.480469 425.59375 C 212.1875 424.179688 211.863281 422.769531 211.507812 421.367188 C 211.152344 419.96875 210.761719 418.574219 210.34375 417.191406 C 209.925781 415.804688 209.476562 414.433594 208.996094 413.066406 C 208.515625 411.703125 208.007812 410.351562 207.464844 409.011719 C 206.925781 407.667969 206.355469 406.339844 205.753906 405.027344 C 205.15625 403.710938 204.527344 402.40625 203.867188 401.121094 C 203.210938 399.832031 202.523438 398.5625 201.808594 397.304688 C 201.09375 396.046875 200.351562 394.808594 199.582031 393.582031 C 198.808594 392.359375 198.011719 391.152344 197.1875 389.964844 C 196.363281 388.777344 195.515625 387.609375 194.636719 386.460938 C 193.761719 385.308594 192.859375 384.179688 191.933594 383.070312 C 191.003906 381.960938 190.054688 380.871094 189.078125 379.804688 C 188.101562 378.738281 187.101562 377.691406 186.082031 376.671875 C 185.058594 375.648438 184.011719 374.648438 182.945312 373.671875 C 181.878906 372.699219 180.789062 371.746094 179.679688 370.820312 C 178.570312 369.890625 177.441406 368.988281 176.292969 368.113281 C 175.140625 367.238281 173.972656 366.386719 172.785156 365.5625 C 171.597656 364.738281 170.390625 363.941406 169.167969 363.171875 C 167.941406 362.398438 166.703125 361.65625 165.445312 360.941406 C 164.1875 360.226562 162.917969 359.542969 161.628906 358.882812 C 160.339844 358.226562 159.039062 357.597656 157.722656 356.996094 C 156.410156 356.398438 155.082031 355.828125 153.738281 355.285156 C 152.398438 354.746094 151.046875 354.234375 149.679688 353.753906 C 148.316406 353.277344 146.945312 352.828125 145.558594 352.40625 C 144.175781 351.988281 142.78125 351.601562 141.382812 351.246094 C 139.980469 350.890625 138.570312 350.566406 137.15625 350.273438 C 135.738281 349.976562 134.316406 349.714844 132.890625 349.488281 C 131.460938 349.257812 130.03125 349.058594 128.59375 348.894531 C 127.15625 348.726562 125.71875 348.59375 124.277344 348.492188 C 122.832031 348.390625 121.390625 348.324219 119.945312 348.285156 C 118.5 348.25 117.054688 348.246094 115.605469 348.273438 C 114.160156 348.300781 112.71875 348.359375 111.273438 348.453125 C 109.832031 348.546875 108.390625 348.671875 106.953125 348.828125 C 105.515625 348.984375 104.082031 349.171875 102.652344 349.394531 C 101.226562 349.613281 99.800781 349.867188 98.382812 350.152344 C 96.964844 350.4375 95.554688 350.753906 94.152344 351.101562 C 92.75 351.449219 91.355469 351.828125 89.96875 352.238281 C 88.582031 352.648438 87.203125 353.089844 85.835938 353.558594 C 84.46875 354.03125 83.113281 354.53125 81.769531 355.066406 C 80.425781 355.597656 79.09375 356.160156 77.773438 356.75 C 76.453125 357.34375 75.148438 357.964844 73.859375 358.613281 C 72.566406 359.265625 71.289062 359.941406 70.027344 360.648438 C 68.765625 361.355469 67.523438 362.09375 66.292969 362.855469 C 65.066406 363.617188 63.855469 364.40625 62.660156 365.222656 C 61.46875 366.042969 60.292969 366.882812 59.140625 367.753906 C 58.1875 368.46875 57.425781 369.347656 56.859375 370.390625 C 56.289062 371.433594 55.964844 372.550781 55.878906 373.734375 C 55.789062 374.910156 55.949219 376.050781 56.363281 377.152344 C 56.773438 378.257812 57.398438 379.222656 58.238281 380.050781 Z M 182.699219 504.5 " fill-opacity="1" fill-rule="nonzero"/><path fill="#000000" d="M 95.171875 473.585938 L 93.429688 473.585938 L 93.398438 469.339844 L 90.441406 466.382812 L 114.53125 442.292969 L 120.496094 448.261719 Z M 95.171875 473.585938 " fill-opacity="1" fill-rule="nonzero"/><path fill="#000000" d="M 79.476562 507.183594 C 78.988281 507.183594 78.5 507.171875 78.011719 507.140625 C 77.523438 507.113281 77.035156 507.066406 76.550781 507.007812 C 76.0625 506.949219 75.578125 506.875 75.097656 506.785156 C 74.617188 506.695312 74.140625 506.59375 73.664062 506.472656 C 73.191406 506.355469 72.71875 506.222656 72.253906 506.074219 C 71.785156 505.929688 71.324219 505.765625 70.867188 505.589844 C 70.410156 505.414062 69.960938 505.226562 69.515625 505.023438 C 69.070312 504.820312 68.628906 504.601562 68.199219 504.371094 C 67.765625 504.140625 67.34375 503.898438 66.925781 503.644531 C 66.507812 503.386719 66.101562 503.117188 65.699219 502.835938 C 65.300781 502.554688 64.90625 502.261719 64.527344 501.957031 C 64.144531 501.652344 63.769531 501.332031 63.40625 501.003906 C 63.042969 500.675781 62.691406 500.335938 62.351562 499.988281 C 62.007812 499.636719 61.675781 499.277344 61.355469 498.90625 C 61.035156 498.535156 60.730469 498.15625 60.433594 497.769531 C 60.136719 497.378906 59.851562 496.980469 59.578125 496.574219 C 59.304688 496.167969 59.046875 495.753906 58.800781 495.332031 C 58.554688 494.90625 58.320312 494.476562 58.097656 494.039062 C 57.878906 493.605469 57.671875 493.160156 57.480469 492.710938 C 57.285156 492.261719 57.105469 491.804688 56.941406 491.34375 C 56.777344 490.886719 56.625 490.417969 56.488281 489.949219 C 56.351562 489.480469 56.230469 489.007812 56.121094 488.527344 C 56.015625 488.050781 55.921875 487.570312 55.84375 487.085938 C 55.765625 486.605469 55.703125 486.121094 55.65625 485.632812 C 55.605469 485.144531 55.574219 484.65625 55.554688 484.167969 C 55.535156 483.679688 55.53125 483.191406 55.542969 482.699219 C 55.554688 482.210938 55.582031 481.722656 55.625 481.234375 C 55.667969 480.75 55.722656 480.261719 55.792969 479.777344 C 55.867188 479.292969 55.953125 478.8125 56.054688 478.332031 C 56.15625 477.855469 56.269531 477.378906 56.398438 476.90625 C 56.53125 476.4375 56.675781 475.96875 56.835938 475.503906 C 56.992188 475.042969 57.167969 474.585938 57.351562 474.132812 C 57.539062 473.679688 57.742188 473.234375 57.957031 472.796875 C 58.167969 472.355469 58.398438 471.921875 58.636719 471.496094 C 58.878906 471.070312 59.132812 470.652344 59.398438 470.242188 C 59.667969 469.832031 59.945312 469.429688 60.238281 469.035156 C 60.527344 468.644531 60.832031 468.257812 61.148438 467.886719 C 61.460938 467.511719 61.789062 467.144531 62.125 466.792969 C 62.460938 466.4375 62.808594 466.09375 63.167969 465.757812 C 63.527344 465.425781 63.894531 465.105469 64.273438 464.792969 C 64.652344 464.484375 65.039062 464.183594 65.4375 463.898438 C 65.832031 463.609375 66.238281 463.335938 66.652344 463.074219 C 67.0625 462.8125 67.484375 462.5625 67.914062 462.328125 C 68.34375 462.089844 68.777344 461.867188 69.21875 461.660156 C 69.664062 461.449219 70.109375 461.253906 70.566406 461.074219 C 71.019531 460.890625 71.480469 460.722656 71.945312 460.570312 C 72.410156 460.414062 72.878906 460.277344 73.351562 460.152344 C 73.824219 460.027344 74.300781 459.917969 74.78125 459.820312 C 75.261719 459.726562 75.742188 459.644531 76.226562 459.578125 C 76.710938 459.511719 77.199219 459.460938 77.6875 459.425781 C 78.175781 459.390625 78.664062 459.367188 79.152344 459.363281 C 79.644531 459.355469 80.132812 459.367188 80.621094 459.390625 C 81.109375 459.414062 81.597656 459.453125 82.082031 459.507812 C 82.570312 459.558594 83.054688 459.628906 83.535156 459.710938 C 84.019531 459.796875 84.496094 459.894531 84.972656 460.007812 C 85.449219 460.121094 85.921875 460.25 86.390625 460.390625 C 86.859375 460.53125 87.324219 460.6875 87.78125 460.859375 C 88.238281 461.03125 88.691406 461.214844 89.140625 461.414062 C 89.585938 461.609375 90.027344 461.824219 90.464844 462.046875 C 90.898438 462.273438 91.324219 462.511719 91.746094 462.765625 C 92.164062 463.015625 92.574219 463.28125 92.980469 463.554688 C 93.382812 463.832031 93.777344 464.121094 94.164062 464.421875 C 94.550781 464.726562 94.925781 465.039062 95.292969 465.363281 C 95.660156 465.6875 96.015625 466.019531 96.359375 466.367188 C 97.191406 467.199219 97.957031 468.085938 98.660156 469.03125 C 99.359375 469.972656 99.988281 470.964844 100.542969 472 C 101.097656 473.035156 101.570312 474.109375 101.96875 475.214844 C 102.363281 476.320312 102.679688 477.453125 102.90625 478.605469 C 103.136719 479.757812 103.28125 480.921875 103.339844 482.09375 C 103.398438 483.269531 103.371094 484.441406 103.253906 485.609375 C 103.140625 486.78125 102.941406 487.933594 102.65625 489.074219 C 102.371094 490.214844 102.003906 491.328125 101.554688 492.414062 C 101.105469 493.503906 100.578125 494.550781 99.972656 495.558594 C 99.371094 496.566406 98.695312 497.527344 97.949219 498.433594 C 97.207031 499.34375 96.398438 500.191406 95.527344 500.984375 C 94.65625 501.773438 93.734375 502.496094 92.753906 503.148438 C 91.777344 503.800781 90.757812 504.378906 89.695312 504.882812 C 88.632812 505.386719 87.539062 505.808594 86.414062 506.152344 C 85.292969 506.492188 84.148438 506.75 82.984375 506.925781 C 81.820312 507.097656 80.652344 507.183594 79.476562 507.183594 Z M 79.476562 467.792969 C 78.886719 467.792969 78.296875 467.828125 77.707031 467.894531 C 77.121094 467.964844 76.539062 468.066406 75.964844 468.203125 C 75.386719 468.335938 74.820312 468.503906 74.265625 468.707031 C 73.707031 468.90625 73.164062 469.136719 72.632812 469.398438 C 72.105469 469.664062 71.589844 469.953125 71.09375 470.277344 C 70.597656 470.597656 70.121094 470.945312 69.664062 471.324219 C 69.207031 471.699219 68.773438 472.101562 68.363281 472.527344 C 67.953125 472.953125 67.566406 473.398438 67.207031 473.871094 C 66.851562 474.339844 66.519531 474.828125 66.214844 475.335938 C 65.914062 475.84375 65.640625 476.367188 65.394531 476.90625 C 65.152344 477.449219 64.941406 478 64.761719 478.5625 C 64.582031 479.125 64.433594 479.699219 64.320312 480.277344 C 64.207031 480.859375 64.125 481.445312 64.078125 482.035156 C 64.03125 482.625 64.019531 483.214844 64.039062 483.804688 C 64.058594 484.398438 64.113281 484.984375 64.203125 485.570312 C 64.289062 486.15625 64.410156 486.734375 64.566406 487.304688 C 64.71875 487.875 64.90625 488.4375 65.125 488.984375 C 65.34375 489.535156 65.59375 490.070312 65.871094 490.59375 C 66.152344 491.113281 66.460938 491.617188 66.800781 492.101562 C 67.136719 492.589844 67.5 493.054688 67.890625 493.496094 C 68.285156 493.941406 68.699219 494.359375 69.136719 494.757812 C 69.578125 495.152344 70.039062 495.523438 70.519531 495.867188 C 71 496.210938 71.5 496.523438 72.019531 496.8125 C 72.535156 497.097656 73.070312 497.351562 73.617188 497.578125 C 74.164062 497.804688 74.722656 497.996094 75.289062 498.15625 C 75.859375 498.320312 76.4375 498.445312 77.019531 498.542969 C 77.605469 498.636719 78.191406 498.699219 78.78125 498.726562 C 79.375 498.753906 79.964844 498.746094 80.554688 498.707031 C 81.144531 498.667969 81.730469 498.59375 82.3125 498.488281 C 82.894531 498.378906 83.46875 498.238281 84.035156 498.066406 C 84.597656 497.894531 85.152344 497.6875 85.695312 497.453125 C 86.238281 497.214844 86.765625 496.949219 87.277344 496.652344 C 87.789062 496.355469 88.28125 496.027344 88.753906 495.675781 C 89.230469 495.320312 89.683594 494.941406 90.113281 494.535156 C 90.542969 494.128906 90.949219 493.703125 91.332031 493.25 C 91.714844 492.796875 92.066406 492.324219 92.394531 491.832031 C 92.722656 491.339844 93.019531 490.828125 93.289062 490.304688 C 93.558594 489.777344 93.796875 489.234375 94.003906 488.679688 C 94.210938 488.125 94.386719 487.5625 94.527344 486.988281 C 94.667969 486.414062 94.777344 485.832031 94.855469 485.246094 C 94.929688 484.660156 94.972656 484.070312 94.980469 483.480469 C 94.988281 482.886719 94.960938 482.296875 94.902344 481.707031 C 94.84375 481.121094 94.75 480.535156 94.625 479.960938 C 94.496094 479.382812 94.339844 478.8125 94.144531 478.253906 C 93.953125 477.691406 93.730469 477.144531 93.476562 476.613281 C 93.222656 476.078125 92.9375 475.558594 92.625 475.058594 C 92.3125 474.558594 91.96875 474.074219 91.601562 473.613281 C 91.230469 473.148438 90.835938 472.710938 90.417969 472.292969 C 88.964844 470.847656 87.292969 469.734375 85.394531 468.953125 C 83.5 468.175781 81.527344 467.792969 79.476562 467.800781 Z M 79.476562 467.792969 " fill-opacity="1" fill-rule="nonzero"/><path fill="#000000" d="M 338.175781 264.949219 C 337.347656 264.949219 336.523438 264.921875 335.699219 264.871094 C 334.875 264.820312 334.054688 264.746094 333.234375 264.644531 C 332.414062 264.542969 331.597656 264.417969 330.785156 264.265625 C 329.976562 264.113281 329.167969 263.9375 328.367188 263.738281 C 327.566406 263.539062 326.773438 263.3125 325.984375 263.0625 C 325.199219 262.8125 324.417969 262.539062 323.648438 262.242188 C 322.878906 261.945312 322.117188 261.625 321.367188 261.28125 C 320.617188 260.9375 319.875 260.570312 319.148438 260.179688 C 318.417969 259.792969 317.703125 259.378906 317 258.945312 C 316.296875 258.515625 315.609375 258.058594 314.933594 257.582031 C 314.257812 257.109375 313.597656 256.613281 312.953125 256.097656 C 312.308594 255.582031 311.679688 255.046875 311.070312 254.492188 C 310.457031 253.9375 309.863281 253.363281 309.285156 252.773438 C 308.710938 252.179688 308.152344 251.574219 307.613281 250.945312 C 307.074219 250.320312 306.554688 249.679688 306.054688 249.023438 C 305.554688 248.367188 305.074219 247.695312 304.613281 247.007812 C 304.15625 246.320312 303.71875 245.621094 303.304688 244.90625 C 302.886719 244.191406 302.492188 243.46875 302.121094 242.730469 C 301.75 241.992188 301.402344 241.242188 301.078125 240.484375 C 300.753906 239.726562 300.449219 238.957031 300.171875 238.179688 C 299.894531 237.402344 299.640625 236.617188 299.410156 235.824219 C 299.179688 235.03125 298.976562 234.230469 298.792969 233.425781 C 298.613281 232.621094 298.457031 231.808594 298.328125 230.992188 C 298.195312 230.179688 298.089844 229.359375 298.007812 228.539062 C 297.929688 227.714844 297.871094 226.890625 297.84375 226.066406 C 297.8125 225.242188 297.808594 224.417969 297.828125 223.589844 C 297.847656 222.765625 297.894531 221.941406 297.964844 221.117188 C 298.035156 220.296875 298.132812 219.476562 298.253906 218.660156 C 298.375 217.84375 298.519531 217.03125 298.691406 216.222656 C 298.863281 215.414062 299.058594 214.613281 299.277344 213.816406 C 299.5 213.019531 299.742188 212.230469 300.011719 211.449219 C 300.28125 210.671875 300.574219 209.898438 300.890625 209.136719 C 301.207031 208.371094 301.546875 207.621094 301.90625 206.878906 C 302.269531 206.136719 302.65625 205.40625 303.0625 204.6875 C 303.46875 203.96875 303.898438 203.261719 304.347656 202.570312 C 304.796875 201.878906 305.269531 201.199219 305.761719 200.539062 C 306.253906 199.875 306.765625 199.226562 307.296875 198.59375 C 307.828125 197.964844 308.378906 197.347656 308.949219 196.75 C 309.519531 196.152344 310.105469 195.574219 310.710938 195.011719 C 311.316406 194.449219 311.9375 193.90625 312.578125 193.382812 C 313.214844 192.859375 313.871094 192.355469 314.539062 191.871094 C 315.207031 191.386719 315.890625 190.925781 316.589844 190.484375 C 317.289062 190.042969 318 189.621094 318.722656 189.222656 C 319.445312 188.824219 320.179688 188.449219 320.925781 188.097656 C 321.671875 187.742188 322.429688 187.414062 323.195312 187.109375 C 323.964844 186.800781 324.738281 186.519531 325.523438 186.257812 C 326.308594 186 327.097656 185.765625 327.898438 185.554688 C 328.695312 185.34375 329.5 185.160156 330.3125 185 C 331.121094 184.839844 331.933594 184.703125 332.753906 184.589844 C 333.570312 184.480469 334.390625 184.394531 335.214844 184.332031 C 336.039062 184.273438 336.863281 184.238281 337.691406 184.226562 C 338.515625 184.21875 339.339844 184.234375 340.167969 184.273438 C 340.992188 184.316406 341.8125 184.378906 342.632812 184.472656 C 343.457031 184.5625 344.273438 184.679688 345.085938 184.820312 C 345.898438 184.960938 346.707031 185.128906 347.511719 185.320312 C 348.316406 185.511719 349.113281 185.726562 349.902344 185.964844 C 350.691406 186.207031 351.472656 186.46875 352.25 186.757812 C 353.023438 187.046875 353.785156 187.355469 354.542969 187.691406 C 355.296875 188.027344 356.039062 188.382812 356.773438 188.765625 C 357.507812 189.144531 358.226562 189.546875 358.933594 189.972656 C 359.644531 190.398438 360.339844 190.84375 361.019531 191.3125 C 361.699219 191.777344 362.367188 192.265625 363.015625 192.773438 C 363.667969 193.28125 364.300781 193.808594 364.921875 194.355469 C 365.539062 194.90625 366.140625 195.46875 366.722656 196.054688 C 368.128906 197.457031 369.421875 198.957031 370.605469 200.550781 C 371.789062 202.144531 372.847656 203.816406 373.785156 205.566406 C 374.722656 207.316406 375.523438 209.128906 376.191406 210.996094 C 376.863281 212.867188 377.390625 214.773438 377.777344 216.722656 C 378.164062 218.667969 378.40625 220.632812 378.503906 222.617188 C 378.601562 224.597656 378.554688 226.578125 378.359375 228.554688 C 378.164062 230.527344 377.828125 232.480469 377.34375 234.40625 C 376.859375 236.332031 376.238281 238.210938 375.480469 240.042969 C 374.71875 241.878906 373.828125 243.648438 372.808594 245.351562 C 371.789062 247.050781 370.648438 248.671875 369.386719 250.203125 C 368.128906 251.738281 366.761719 253.171875 365.289062 254.503906 C 363.820312 255.835938 362.257812 257.054688 360.605469 258.15625 C 358.957031 259.257812 357.234375 260.234375 355.4375 261.082031 C 353.640625 261.929688 351.792969 262.640625 349.894531 263.21875 C 347.996094 263.792969 346.0625 264.226562 344.097656 264.515625 C 342.136719 264.804688 340.160156 264.949219 338.175781 264.949219 Z M 338.175781 192.683594 C 337.566406 192.683594 336.957031 192.703125 336.347656 192.738281 C 335.742188 192.773438 335.132812 192.824219 334.53125 192.894531 C 333.925781 192.964844 333.320312 193.054688 332.722656 193.160156 C 332.121094 193.261719 331.523438 193.386719 330.933594 193.523438 C 330.339844 193.664062 329.75 193.820312 329.167969 193.992188 C 328.582031 194.164062 328.003906 194.351562 327.429688 194.558594 C 326.855469 194.765625 326.289062 194.988281 325.730469 195.226562 C 325.167969 195.464844 324.617188 195.71875 324.070312 195.988281 C 323.523438 196.257812 322.984375 196.542969 322.457031 196.84375 C 321.925781 197.144531 321.40625 197.460938 320.894531 197.789062 C 320.382812 198.121094 319.878906 198.464844 319.390625 198.824219 C 318.898438 199.183594 318.414062 199.558594 317.945312 199.945312 C 317.476562 200.332031 317.015625 200.730469 316.566406 201.144531 C 316.121094 201.558594 315.683594 201.984375 315.261719 202.421875 C 314.839844 202.859375 314.429688 203.308594 314.03125 203.769531 C 313.632812 204.230469 313.25 204.703125 312.878906 205.1875 C 312.507812 205.671875 312.152344 206.164062 311.8125 206.667969 C 311.46875 207.171875 311.140625 207.6875 310.828125 208.210938 C 310.515625 208.730469 310.21875 209.261719 309.9375 209.804688 C 309.652344 210.34375 309.386719 210.890625 309.136719 211.445312 C 308.886719 212 308.652344 212.5625 308.433594 213.132812 C 308.214844 213.699219 308.011719 214.273438 307.824219 214.855469 C 307.640625 215.433594 307.46875 216.019531 307.316406 216.609375 C 307.164062 217.199219 307.03125 217.792969 306.914062 218.390625 C 306.792969 218.988281 306.691406 219.585938 306.609375 220.191406 C 306.523438 220.792969 306.457031 221.398438 306.410156 222.007812 C 306.359375 222.613281 306.328125 223.222656 306.3125 223.832031 C 306.300781 224.4375 306.300781 225.046875 306.324219 225.65625 C 306.34375 226.265625 306.382812 226.875 306.4375 227.480469 C 306.492188 228.085938 306.5625 228.691406 306.652344 229.292969 C 306.742188 229.894531 306.851562 230.496094 306.976562 231.089844 C 307.097656 231.6875 307.238281 232.28125 307.398438 232.867188 C 307.554688 233.457031 307.730469 234.039062 307.921875 234.617188 C 308.113281 235.195312 308.320312 235.769531 308.546875 236.335938 C 308.769531 236.902344 309.011719 237.460938 309.265625 238.011719 C 309.523438 238.566406 309.796875 239.109375 310.082031 239.648438 C 310.371094 240.183594 310.671875 240.710938 310.992188 241.230469 C 311.308594 241.75 311.640625 242.261719 311.988281 242.761719 C 312.335938 243.261719 312.695312 243.753906 313.070312 244.234375 C 313.445312 244.714844 313.835938 245.183594 314.238281 245.640625 C 314.640625 246.097656 315.054688 246.542969 315.480469 246.976562 C 315.910156 247.410156 316.347656 247.832031 316.800781 248.242188 C 317.25 248.648438 317.714844 249.046875 318.1875 249.425781 C 318.664062 249.808594 319.148438 250.179688 319.644531 250.53125 C 320.140625 250.886719 320.644531 251.226562 321.160156 251.550781 C 321.671875 251.878906 322.199219 252.1875 322.730469 252.484375 C 323.261719 252.777344 323.804688 253.058594 324.351562 253.324219 C 324.902344 253.589844 325.457031 253.835938 326.019531 254.070312 C 326.582031 254.300781 327.152344 254.519531 327.726562 254.71875 C 328.300781 254.917969 328.882812 255.101562 329.46875 255.269531 C 330.054688 255.4375 330.644531 255.585938 331.238281 255.71875 C 331.832031 255.851562 332.429688 255.96875 333.03125 256.066406 C 333.632812 256.164062 334.234375 256.246094 334.84375 256.3125 C 335.449219 256.375 336.054688 256.421875 336.664062 256.453125 C 337.269531 256.480469 337.878906 256.492188 338.488281 256.488281 C 339.097656 256.484375 339.707031 256.460938 340.316406 256.421875 C 340.921875 256.378906 341.527344 256.320312 342.132812 256.246094 C 342.738281 256.171875 343.339844 256.082031 343.9375 255.972656 C 344.539062 255.863281 345.132812 255.734375 345.726562 255.589844 C 346.316406 255.449219 346.90625 255.289062 347.488281 255.109375 C 348.070312 254.933594 348.648438 254.738281 349.21875 254.527344 C 349.789062 254.320312 350.355469 254.09375 350.914062 253.851562 C 351.472656 253.605469 352.023438 253.347656 352.570312 253.074219 C 353.113281 252.800781 353.648438 252.511719 354.175781 252.207031 C 354.703125 251.902344 355.222656 251.582031 355.730469 251.246094 C 356.238281 250.914062 356.738281 250.5625 357.226562 250.199219 C 357.714844 249.835938 358.195312 249.460938 358.660156 249.070312 C 359.128906 248.679688 359.585938 248.277344 360.03125 247.859375 C 360.472656 247.441406 360.90625 247.015625 361.324219 246.574219 C 361.746094 246.132812 362.152344 245.679688 362.546875 245.214844 C 362.941406 244.75 363.320312 244.273438 363.6875 243.785156 C 364.054688 243.300781 364.40625 242.804688 364.742188 242.296875 C 365.082031 241.789062 365.40625 241.273438 365.714844 240.75 C 366.023438 240.222656 366.316406 239.691406 366.59375 239.148438 C 366.871094 238.605469 367.132812 238.058594 367.378906 237.5 C 367.628906 236.945312 367.855469 236.378906 368.070312 235.808594 C 368.285156 235.238281 368.484375 234.664062 368.664062 234.082031 C 368.847656 233.5 369.011719 232.914062 369.160156 232.324219 C 369.304688 231.734375 369.4375 231.136719 369.550781 230.539062 C 369.664062 229.941406 369.761719 229.339844 369.839844 228.734375 C 369.917969 228.132812 369.980469 227.527344 370.027344 226.917969 C 370.070312 226.3125 370.097656 225.703125 370.105469 225.09375 C 370.117188 224.484375 370.109375 223.875 370.082031 223.269531 C 370.058594 222.660156 370.015625 222.050781 369.957031 221.445312 C 369.894531 220.839844 369.820312 220.234375 369.722656 219.632812 C 369.628906 219.03125 369.519531 218.433594 369.390625 217.839844 C 369.261719 217.242188 369.113281 216.652344 368.953125 216.066406 C 368.789062 215.476562 368.609375 214.894531 368.414062 214.320312 C 368.21875 213.742188 368.003906 213.171875 367.777344 212.605469 C 367.546875 212.042969 367.304688 211.484375 367.042969 210.933594 C 366.78125 210.382812 366.503906 209.839844 366.214844 209.308594 C 365.921875 208.773438 365.617188 208.246094 365.292969 207.730469 C 364.972656 207.210938 364.636719 206.703125 364.285156 206.207031 C 363.933594 205.707031 363.570312 205.222656 363.191406 204.746094 C 362.8125 204.265625 362.417969 203.800781 362.011719 203.347656 C 361.609375 202.894531 361.191406 202.449219 360.757812 202.019531 C 359.277344 200.535156 357.664062 199.207031 355.921875 198.042969 C 354.175781 196.875 352.335938 195.890625 350.398438 195.089844 C 348.460938 194.285156 346.460938 193.679688 344.402344 193.273438 C 342.34375 192.867188 340.265625 192.664062 338.167969 192.667969 Z M 338.175781 192.683594 " fill-opacity="1" fill-rule="nonzero"/></svg>