<svg xmlns="http://www.w3.org/2000/svg" xmlns:xlink="http://www.w3.org/1999/xlink" width="750" zoomAndPan="magnify" viewBox="0 0 562.5 562.499982" height="750" preserveAspectRatio="xMidYMid meet" version="1.0"><defs><clipPath id="343ccade76"><path d="M 325 326 L 556 326 L 556 556.742188 L 325 556.742188 Z M 325 326 " clip-rule="nonzero"/></clipPath></defs><path fill="#ffffff" d="M 252.472656 428.371094 C 250.140625 428.378906 247.832031 428.15625 245.546875 427.703125 C 243.257812 427.25 241.039062 426.578125 238.886719 425.6875 C 236.734375 424.796875 234.691406 423.699219 232.753906 422.402344 C 230.820312 421.105469 229.03125 419.628906 227.386719 417.976562 L 144.804688 335.386719 C 143.980469 334.566406 143.203125 333.707031 142.464844 332.808594 C 141.726562 331.910156 141.035156 330.976562 140.386719 330.011719 C 139.742188 329.046875 139.144531 328.050781 138.597656 327.027344 C 138.046875 326 137.550781 324.953125 137.105469 323.878906 C 136.660156 322.804688 136.269531 321.710938 135.933594 320.601562 C 135.59375 319.488281 135.3125 318.363281 135.085938 317.222656 C 134.859375 316.082031 134.6875 314.933594 134.574219 313.777344 C 134.460938 312.621094 134.402344 311.460938 134.402344 310.300781 C 134.402344 309.136719 134.460938 307.980469 134.574219 306.820312 C 134.6875 305.664062 134.859375 304.515625 135.085938 303.378906 C 135.3125 302.238281 135.59375 301.113281 135.933594 300 C 136.269531 298.886719 136.660156 297.796875 137.105469 296.722656 C 137.550781 295.648438 138.046875 294.597656 138.597656 293.574219 C 139.144531 292.550781 139.742188 291.554688 140.386719 290.589844 C 141.035156 289.621094 141.726562 288.691406 142.464844 287.792969 C 143.203125 286.894531 143.980469 286.035156 144.804688 285.214844 L 310 120.019531 C 310.820312 119.195312 311.679688 118.414062 312.578125 117.679688 C 313.476562 116.941406 314.40625 116.246094 315.375 115.601562 C 316.339844 114.957031 317.335938 114.359375 318.359375 113.808594 C 319.386719 113.261719 320.433594 112.765625 321.507812 112.320312 C 322.582031 111.875 323.675781 111.484375 324.785156 111.144531 C 325.898438 110.808594 327.023438 110.523438 328.164062 110.296875 C 329.304688 110.070312 330.453125 109.902344 331.609375 109.785156 C 332.765625 109.671875 333.925781 109.617188 335.089844 109.617188 C 336.25 109.617188 337.410156 109.671875 338.566406 109.785156 C 339.722656 109.902344 340.871094 110.070312 342.011719 110.296875 C 343.152344 110.523438 344.277344 110.808594 345.390625 111.144531 C 346.5 111.484375 347.59375 111.875 348.667969 112.320312 C 349.742188 112.765625 350.792969 113.261719 351.816406 113.808594 C 352.839844 114.359375 353.835938 114.957031 354.800781 115.601562 C 355.769531 116.246094 356.699219 116.941406 357.597656 117.679688 C 358.496094 118.414062 359.355469 119.195312 360.175781 120.019531 L 442.761719 202.601562 C 443.582031 203.421875 444.363281 204.28125 445.101562 205.179688 C 445.839844 206.078125 446.53125 207.011719 447.179688 207.976562 C 447.824219 208.941406 448.421875 209.9375 448.96875 210.964844 C 449.519531 211.988281 450.015625 213.039062 450.460938 214.109375 C 450.90625 215.183594 451.296875 216.277344 451.632812 217.390625 C 451.972656 218.5 452.253906 219.628906 452.480469 220.769531 C 452.707031 221.90625 452.878906 223.054688 452.992188 224.210938 C 453.105469 225.371094 453.164062 226.527344 453.164062 227.691406 C 453.164062 228.851562 453.105469 230.011719 452.992188 231.167969 C 452.878906 232.328125 452.707031 233.476562 452.480469 234.613281 C 452.253906 235.753906 451.972656 236.878906 451.632812 237.992188 C 451.296875 239.105469 450.90625 240.199219 450.460938 241.269531 C 450.015625 242.34375 449.519531 243.394531 448.96875 244.417969 C 448.421875 245.445312 447.824219 246.4375 447.179688 247.40625 C 446.53125 248.371094 445.839844 249.304688 445.101562 250.203125 C 444.363281 251.097656 443.582031 251.960938 442.761719 252.78125 L 277.558594 417.976562 C 275.917969 419.628906 274.128906 421.105469 272.191406 422.402344 C 270.253906 423.699219 268.210938 424.796875 266.058594 425.6875 C 263.902344 426.578125 261.683594 427.25 259.398438 427.703125 C 257.109375 428.15625 254.800781 428.378906 252.472656 428.371094 Z M 335.089844 118.070312 C 333.3125 118.066406 331.550781 118.238281 329.808594 118.582031 C 328.066406 118.925781 326.375 119.4375 324.730469 120.113281 C 323.089844 120.792969 321.53125 121.625 320.054688 122.613281 C 318.574219 123.601562 317.207031 124.722656 315.953125 125.976562 L 150.769531 291.183594 C 150.144531 291.8125 149.550781 292.46875 148.992188 293.152344 C 148.429688 293.835938 147.902344 294.546875 147.414062 295.285156 C 146.921875 296.019531 146.46875 296.78125 146.050781 297.5625 C 145.632812 298.339844 145.257812 299.140625 144.917969 299.960938 C 144.578125 300.777344 144.28125 301.609375 144.027344 302.457031 C 143.769531 303.304688 143.554688 304.160156 143.382812 305.03125 C 143.210938 305.898438 143.082031 306.773438 142.992188 307.652344 C 142.90625 308.535156 142.863281 309.417969 142.863281 310.304688 C 142.863281 311.1875 142.90625 312.070312 142.992188 312.953125 C 143.082031 313.832031 143.210938 314.707031 143.382812 315.574219 C 143.554688 316.445312 143.769531 317.300781 144.027344 318.148438 C 144.28125 318.996094 144.578125 319.828125 144.917969 320.648438 C 145.257812 321.464844 145.632812 322.265625 146.050781 323.046875 C 146.46875 323.828125 146.921875 324.585938 147.414062 325.320312 C 147.902344 326.058594 148.429688 326.769531 148.992188 327.453125 C 149.550781 328.136719 150.144531 328.792969 150.769531 329.421875 L 233.351562 412.011719 C 233.980469 412.636719 234.636719 413.226562 235.320312 413.789062 C 236.003906 414.351562 236.714844 414.875 237.453125 415.367188 C 238.1875 415.859375 238.949219 416.3125 239.726562 416.730469 C 240.507812 417.144531 241.308594 417.523438 242.125 417.859375 C 242.945312 418.199219 243.777344 418.496094 244.625 418.753906 C 245.472656 419.011719 246.328125 419.222656 247.199219 419.398438 C 248.066406 419.570312 248.941406 419.699219 249.820312 419.785156 C 250.703125 419.871094 251.585938 419.914062 252.472656 419.914062 C 253.355469 419.914062 254.238281 419.871094 255.121094 419.785156 C 256 419.699219 256.875 419.570312 257.742188 419.398438 C 258.613281 419.222656 259.46875 419.011719 260.316406 418.753906 C 261.164062 418.496094 261.996094 418.199219 262.816406 417.859375 C 263.632812 417.523438 264.433594 417.144531 265.214844 416.730469 C 265.996094 416.3125 266.753906 415.859375 267.488281 415.367188 C 268.226562 414.875 268.9375 414.351562 269.621094 413.789062 C 270.304688 413.226562 270.960938 412.636719 271.589844 412.011719 L 436.789062 246.808594 C 437.417969 246.183594 438.011719 245.527344 438.570312 244.839844 C 439.132812 244.15625 439.660156 243.445312 440.152344 242.707031 C 440.644531 241.96875 441.097656 241.210938 441.515625 240.429688 C 441.933594 239.648438 442.3125 238.847656 442.652344 238.027344 C 442.988281 237.210938 443.289062 236.375 443.546875 235.527344 C 443.800781 234.679688 444.015625 233.820312 444.191406 232.953125 C 444.363281 232.082031 444.492188 231.207031 444.578125 230.328125 C 444.664062 229.445312 444.710938 228.558594 444.710938 227.675781 C 444.710938 226.789062 444.667969 225.902344 444.578125 225.023438 C 444.492188 224.140625 444.363281 223.265625 444.191406 222.394531 C 444.015625 221.527344 443.800781 220.667969 443.546875 219.820312 C 443.289062 218.972656 442.988281 218.136719 442.652344 217.320312 C 442.3125 216.5 441.933594 215.699219 441.515625 214.917969 C 441.097656 214.136719 440.644531 213.378906 440.152344 212.640625 C 439.660156 211.902344 439.132812 211.191406 438.570312 210.507812 C 438.011719 209.824219 437.417969 209.167969 436.789062 208.539062 L 354.207031 125.984375 C 352.953125 124.726562 351.585938 123.605469 350.109375 122.621094 C 348.636719 121.632812 347.078125 120.800781 345.4375 120.121094 C 343.796875 119.441406 342.105469 118.929688 340.363281 118.585938 C 338.621094 118.238281 336.863281 118.070312 335.089844 118.070312 Z M 335.089844 118.070312 " fill-opacity="1" fill-rule="nonzero"/><g clip-path="url(#343ccade76)"><path fill="#ffffff" d="M 466.871094 556.128906 C 464.984375 556.132812 463.171875 555.777344 461.429688 555.058594 C 459.6875 554.339844 458.148438 553.3125 456.8125 551.980469 L 330.101562 425.257812 C 329.441406 424.597656 328.851562 423.878906 328.332031 423.105469 C 327.8125 422.328125 327.375 421.507812 327.015625 420.644531 C 326.65625 419.785156 326.386719 418.894531 326.207031 417.980469 C 326.023438 417.0625 325.929688 416.136719 325.929688 415.203125 C 325.929688 414.269531 326.023438 413.34375 326.207031 412.429688 C 326.386719 411.511719 326.65625 410.625 327.015625 409.761719 C 327.375 408.898438 327.8125 408.078125 328.332031 407.304688 C 328.851562 406.527344 329.441406 405.808594 330.101562 405.148438 L 404.390625 330.863281 C 405.050781 330.203125 405.769531 329.613281 406.546875 329.09375 C 407.320312 328.574219 408.140625 328.136719 409.003906 327.777344 C 409.867188 327.421875 410.757812 327.152344 411.671875 326.96875 C 412.589844 326.785156 413.511719 326.695312 414.445312 326.695312 C 415.382812 326.695312 416.304688 326.785156 417.222656 326.96875 C 418.136719 327.152344 419.027344 327.421875 419.890625 327.777344 C 420.753906 328.136719 421.574219 328.574219 422.347656 329.09375 C 423.125 329.613281 423.84375 330.203125 424.503906 330.863281 L 551.195312 457.589844 C 551.851562 458.25 552.441406 458.96875 552.957031 459.746094 C 553.476562 460.523438 553.914062 461.34375 554.269531 462.207031 C 554.625 463.070312 554.894531 463.957031 555.078125 464.875 C 555.257812 465.789062 555.351562 466.714844 555.351562 467.648438 C 555.351562 468.582031 555.257812 469.503906 555.078125 470.421875 C 554.894531 471.335938 554.625 472.226562 554.269531 473.089844 C 553.914062 473.953125 553.476562 474.769531 552.957031 475.546875 C 552.441406 476.324219 551.851562 477.042969 551.195312 477.703125 L 476.929688 551.980469 C 475.59375 553.3125 474.054688 554.339844 472.3125 555.058594 C 470.570312 555.777344 468.757812 556.132812 466.871094 556.128906 Z M 410.332031 336.851562 L 336.046875 411.136719 C 335.777344 411.40625 335.535156 411.699219 335.324219 412.015625 C 335.113281 412.328125 334.9375 412.664062 334.789062 413.011719 C 334.644531 413.363281 334.535156 413.726562 334.460938 414.097656 C 334.386719 414.472656 334.351562 414.847656 334.351562 415.226562 C 334.351562 415.605469 334.386719 415.980469 334.460938 416.355469 C 334.535156 416.726562 334.644531 417.089844 334.789062 417.441406 C 334.9375 417.789062 335.113281 418.125 335.324219 418.4375 C 335.535156 418.753906 335.777344 419.046875 336.046875 419.316406 L 462.78125 546.003906 C 463.046875 546.273438 463.339844 546.511719 463.65625 546.722656 C 463.972656 546.933594 464.304688 547.113281 464.65625 547.257812 C 465.007812 547.402344 465.371094 547.511719 465.742188 547.585938 C 466.113281 547.660156 466.492188 547.699219 466.871094 547.699219 C 467.25 547.699219 467.625 547.660156 468 547.585938 C 468.371094 547.511719 468.734375 547.402344 469.085938 547.257812 C 469.4375 547.113281 469.769531 546.933594 470.085938 546.722656 C 470.402344 546.511719 470.695312 546.273438 470.960938 546.003906 L 545.222656 471.714844 C 545.488281 471.449219 545.730469 471.15625 545.9375 470.839844 C 546.148438 470.523438 546.328125 470.191406 546.472656 469.839844 C 546.617188 469.488281 546.726562 469.128906 546.800781 468.753906 C 546.875 468.382812 546.910156 468.007812 546.910156 467.628906 C 546.910156 467.25 546.875 466.871094 546.800781 466.5 C 546.726562 466.128906 546.617188 465.765625 546.472656 465.417969 C 546.328125 465.066406 546.148438 464.730469 545.9375 464.417969 C 545.730469 464.101562 545.488281 463.808594 545.222656 463.539062 L 418.511719 336.851562 C 418.242188 336.582031 417.949219 336.34375 417.632812 336.132812 C 417.316406 335.921875 416.984375 335.746094 416.632812 335.601562 C 416.28125 335.457031 415.921875 335.347656 415.550781 335.273438 C 415.175781 335.199219 414.800781 335.164062 414.421875 335.164062 C 414.042969 335.164062 413.667969 335.199219 413.292969 335.273438 C 412.921875 335.347656 412.5625 335.457031 412.210938 335.601562 C 411.859375 335.746094 411.527344 335.921875 411.210938 336.132812 C 410.894531 336.34375 410.601562 336.582031 410.332031 336.851562 Z M 410.332031 336.851562 " fill-opacity="1" fill-rule="nonzero"/></g><path fill="#ffffff" d="M 372.628906 461.816406 L 461.035156 373.410156 L 467.003906 379.378906 L 378.597656 467.789062 Z M 372.628906 461.816406 " fill-opacity="1" fill-rule="nonzero"/><path fill="#ffffff" d="M 414.28125 503.472656 L 502.691406 415.0625 L 508.660156 421.03125 L 420.25 509.441406 Z M 414.28125 503.472656 " fill-opacity="1" fill-rule="nonzero"/><path fill="#ffffff" d="M 367.234375 373.976562 L 373.203125 368.007812 L 514.058594 508.863281 L 508.089844 514.832031 Z M 367.234375 373.976562 " fill-opacity="1" fill-rule="nonzero"/><path fill="#ffffff" d="M 363.871094 325.703125 L 369.839844 319.734375 L 395.667969 345.558594 L 389.695312 351.527344 Z M 363.871094 325.703125 " fill-opacity="1" fill-rule="nonzero"/><path fill="#ffffff" d="M 318.957031 370.621094 L 324.925781 364.652344 L 350.75 390.472656 L 344.78125 396.441406 Z M 318.957031 370.621094 " fill-opacity="1" fill-rule="nonzero"/><path fill="#ffffff" d="M 147.574219 236.820312 C 145.683594 236.824219 143.871094 236.464844 142.125 235.742188 C 140.382812 235.019531 138.84375 233.988281 137.515625 232.648438 L 10.804688 105.964844 C 10.144531 105.304688 9.554688 104.585938 9.039062 103.808594 C 8.519531 103.03125 8.082031 102.210938 7.726562 101.351562 C 7.371094 100.488281 7.101562 99.597656 6.917969 98.683594 C 6.738281 97.765625 6.648438 96.84375 6.648438 95.910156 C 6.648438 94.976562 6.738281 94.050781 6.917969 93.136719 C 7.101562 92.21875 7.371094 91.332031 7.726562 90.46875 C 8.082031 89.605469 8.519531 88.785156 9.039062 88.007812 C 9.554688 87.230469 10.144531 86.511719 10.804688 85.851562 L 85.089844 11.5625 C 85.761719 10.921875 86.488281 10.351562 87.269531 9.847656 C 88.050781 9.347656 88.871094 8.921875 89.730469 8.578125 C 90.59375 8.230469 91.480469 7.972656 92.390625 7.796875 C 93.300781 7.621094 94.222656 7.53125 95.148438 7.53125 C 96.078125 7.53125 96.996094 7.621094 97.90625 7.796875 C 98.820312 7.972656 99.703125 8.230469 100.566406 8.578125 C 101.425781 8.921875 102.25 9.347656 103.027344 9.847656 C 103.808594 10.351562 104.535156 10.921875 105.207031 11.5625 L 231.894531 138.296875 C 232.554688 138.957031 233.144531 139.679688 233.660156 140.453125 C 234.179688 141.230469 234.617188 142.050781 234.972656 142.914062 C 235.328125 143.777344 235.597656 144.664062 235.78125 145.582031 C 235.960938 146.496094 236.050781 147.421875 236.050781 148.355469 C 236.050781 149.289062 235.960938 150.214844 235.78125 151.128906 C 235.597656 152.042969 235.328125 152.933594 234.972656 153.796875 C 234.617188 154.660156 234.179688 155.476562 233.660156 156.253906 C 233.144531 157.03125 232.554688 157.75 231.894531 158.410156 L 157.605469 232.699219 C 156.277344 234.027344 154.742188 235.046875 153 235.761719 C 151.261719 236.476562 149.453125 236.828125 147.574219 236.820312 Z M 95.125 15.863281 C 94.359375 15.859375 93.621094 16.003906 92.914062 16.296875 C 92.203125 16.589844 91.582031 17.007812 91.039062 17.550781 L 16.753906 91.839844 C 16.484375 92.109375 16.246094 92.398438 16.035156 92.714844 C 15.824219 93.03125 15.644531 93.363281 15.5 93.714844 C 15.355469 94.066406 15.246094 94.429688 15.171875 94.800781 C 15.097656 95.171875 15.058594 95.546875 15.058594 95.929688 C 15.058594 96.308594 15.097656 96.683594 15.171875 97.054688 C 15.246094 97.429688 15.355469 97.789062 15.5 98.140625 C 15.644531 98.492188 15.824219 98.824219 16.035156 99.140625 C 16.246094 99.457031 16.484375 99.75 16.753906 100.015625 L 143.488281 226.691406 C 143.757812 226.949219 144.054688 227.183594 144.371094 227.386719 C 144.6875 227.59375 145.019531 227.765625 145.371094 227.90625 C 145.722656 228.046875 146.082031 228.152344 146.453125 228.222656 C 146.820312 228.296875 147.195312 228.332031 147.574219 228.332031 C 147.949219 228.332031 148.324219 228.296875 148.695312 228.222656 C 149.0625 228.152344 149.425781 228.046875 149.773438 227.90625 C 150.125 227.765625 150.457031 227.59375 150.773438 227.386719 C 151.089844 227.183594 151.386719 226.949219 151.660156 226.691406 L 225.945312 152.429688 C 226.214844 152.160156 226.453125 151.867188 226.664062 151.550781 C 226.875 151.234375 227.050781 150.902344 227.195312 150.550781 C 227.339844 150.199219 227.449219 149.839844 227.523438 149.464844 C 227.597656 149.09375 227.632812 148.71875 227.632812 148.339844 C 227.632812 147.957031 227.597656 147.582031 227.523438 147.210938 C 227.449219 146.835938 227.339844 146.476562 227.195312 146.125 C 227.050781 145.773438 226.875 145.441406 226.664062 145.125 C 226.453125 144.808594 226.214844 144.515625 225.945312 144.246094 L 99.21875 17.558594 C 98.675781 17.011719 98.050781 16.59375 97.34375 16.300781 C 96.632812 16.007812 95.894531 15.859375 95.125 15.863281 Z M 95.125 15.863281 " fill-opacity="1" fill-rule="nonzero"/><path fill="#ffffff" d="M 94.992188 184.179688 L 183.402344 95.769531 L 189.371094 101.738281 L 100.960938 190.148438 Z M 94.992188 184.179688 " fill-opacity="1" fill-rule="nonzero"/><path fill="#ffffff" d="M 53.335938 142.527344 L 141.746094 54.113281 L 147.714844 60.082031 L 59.304688 148.496094 Z M 53.335938 142.527344 " fill-opacity="1" fill-rule="nonzero"/><path fill="#ffffff" d="M 47.9375 54.6875 L 53.90625 48.714844 L 194.761719 189.570312 L 188.792969 195.539062 Z M 47.9375 54.6875 " fill-opacity="1" fill-rule="nonzero"/><path fill="#ffffff" d="M 166.339844 217.996094 L 172.308594 212.027344 L 198.128906 237.851562 L 192.160156 243.824219 Z M 166.339844 217.996094 " fill-opacity="1" fill-rule="nonzero"/><path fill="#ffffff" d="M 211.253906 173.089844 L 217.222656 167.117188 L 243.050781 192.945312 L 237.078125 198.914062 Z M 211.253906 173.089844 " fill-opacity="1" fill-rule="nonzero"/><path fill="#ffffff" d="M 435.34375 207.117188 L 355.65625 127.4375 L 358.640625 124.453125 C 359.945312 123.148438 361.3125 121.910156 362.738281 120.738281 C 364.164062 119.570312 365.644531 118.46875 367.179688 117.445312 C 368.714844 116.417969 370.292969 115.472656 371.921875 114.601562 C 373.550781 113.730469 375.214844 112.945312 376.921875 112.238281 C 378.625 111.53125 380.359375 110.910156 382.125 110.375 C 383.894531 109.839844 385.679688 109.390625 387.492188 109.03125 C 389.300781 108.671875 391.125 108.398438 392.960938 108.21875 C 394.796875 108.039062 396.636719 107.949219 398.484375 107.949219 C 400.328125 107.949219 402.171875 108.039062 404.007812 108.21875 C 405.84375 108.398438 407.667969 108.671875 409.476562 109.03125 C 411.285156 109.390625 413.074219 109.839844 414.839844 110.375 C 416.605469 110.910156 418.339844 111.53125 420.046875 112.238281 C 421.75 112.945312 423.417969 113.730469 425.046875 114.601562 C 426.671875 115.472656 428.253906 116.417969 429.789062 117.445312 C 431.324219 118.46875 432.804688 119.570312 434.230469 120.738281 C 435.65625 121.910156 437.019531 123.148438 438.328125 124.453125 C 439.632812 125.757812 440.867188 127.125 442.039062 128.550781 C 443.210938 129.976562 444.308594 131.457031 445.332031 132.992188 C 446.359375 134.527344 447.304688 136.105469 448.175781 137.734375 C 449.042969 139.363281 449.832031 141.027344 450.539062 142.730469 C 451.246094 144.4375 451.867188 146.171875 452.402344 147.9375 C 452.9375 149.703125 453.382812 151.492188 453.742188 153.300781 C 454.105469 155.109375 454.375 156.933594 454.554688 158.769531 C 454.734375 160.605469 454.828125 162.449219 454.828125 164.292969 C 454.828125 166.136719 454.734375 167.980469 454.554688 169.816406 C 454.375 171.652344 454.105469 173.476562 453.742188 175.285156 C 453.382812 177.09375 452.9375 178.882812 452.402344 180.648438 C 451.867188 182.414062 451.246094 184.148438 450.539062 185.855469 C 449.832031 187.558594 449.042969 189.226562 448.175781 190.851562 C 447.304688 192.480469 446.355469 194.058594 445.332031 195.59375 C 444.308594 197.128906 443.210938 198.609375 442.039062 200.035156 C 440.867188 201.460938 439.632812 202.828125 438.328125 204.132812 Z M 367.722656 127.566406 L 435.203125 195.050781 C 436.152344 193.914062 437.046875 192.738281 437.890625 191.519531 C 438.730469 190.300781 439.515625 189.046875 440.238281 187.753906 C 440.964844 186.464844 441.628906 185.140625 442.230469 183.789062 C 442.832031 182.4375 443.371094 181.058594 443.84375 179.65625 C 444.320312 178.253906 444.730469 176.832031 445.070312 175.390625 C 445.414062 173.953125 445.691406 172.5 445.898438 171.03125 C 446.105469 169.566406 446.246094 168.09375 446.316406 166.617188 C 446.390625 165.136719 446.390625 163.65625 446.328125 162.179688 C 446.261719 160.699219 446.128906 159.226562 445.925781 157.761719 C 445.722656 156.292969 445.453125 154.839844 445.117188 153.398438 C 444.78125 151.957031 444.378906 150.53125 443.910156 149.128906 C 443.441406 147.722656 442.90625 146.34375 442.3125 144.988281 C 441.714844 143.632812 441.058594 142.308594 440.335938 141.015625 C 439.617188 139.71875 438.839844 138.460938 438.003906 137.242188 C 437.167969 136.019531 436.277344 134.839844 435.332031 133.699219 C 434.386719 132.558594 433.390625 131.464844 432.34375 130.417969 C 431.296875 129.371094 430.203125 128.375 429.0625 127.429688 C 427.925781 126.484375 426.742188 125.59375 425.523438 124.757812 C 424.300781 123.921875 423.042969 123.144531 421.746094 122.421875 C 420.453125 121.703125 419.128906 121.046875 417.773438 120.449219 C 416.417969 119.851562 415.039062 119.320312 413.632812 118.851562 C 412.230469 118.382812 410.808594 117.980469 409.363281 117.644531 C 407.921875 117.304688 406.46875 117.035156 405.003906 116.835938 C 403.535156 116.632812 402.0625 116.5 400.582031 116.433594 C 399.105469 116.367188 397.625 116.371094 396.144531 116.445312 C 394.667969 116.515625 393.195312 116.65625 391.726562 116.863281 C 390.261719 117.074219 388.808594 117.347656 387.367188 117.691406 C 385.929688 118.035156 384.507812 118.445312 383.105469 118.917969 C 381.703125 119.394531 380.324219 119.933594 378.972656 120.535156 C 377.621094 121.136719 376.296875 121.800781 375.007812 122.527344 C 373.714844 123.253906 372.460938 124.035156 371.242188 124.878906 C 370.023438 125.71875 368.847656 126.613281 367.714844 127.566406 Z M 367.722656 127.566406 " fill-opacity="1" fill-rule="nonzero"/><path fill="#ffffff" d="M 188.453125 515.339844 C 186.257812 515.335938 184.144531 514.917969 182.113281 514.078125 C 180.085938 513.238281 178.292969 512.042969 176.734375 510.492188 L 52.285156 386.03125 C 51.867188 385.613281 51.472656 385.171875 51.101562 384.710938 C 50.734375 384.25 50.386719 383.769531 50.066406 383.269531 C 49.75 382.773438 49.457031 382.257812 49.191406 381.726562 C 48.925781 381.199219 48.691406 380.65625 48.484375 380.101562 C 48.277344 379.546875 48.101562 378.980469 47.957031 378.410156 C 47.808594 377.835938 47.695312 377.253906 47.609375 376.667969 C 47.523438 376.082031 47.472656 375.492188 47.449219 374.902344 C 47.429688 374.308594 47.441406 373.71875 47.480469 373.128906 C 47.523438 372.539062 47.597656 371.953125 47.703125 371.367188 C 47.804688 370.785156 47.941406 370.210938 48.109375 369.640625 C 48.273438 369.074219 48.46875 368.515625 48.695312 367.96875 C 48.921875 367.421875 49.175781 366.886719 49.457031 366.367188 C 49.742188 365.847656 50.050781 365.34375 50.386719 364.855469 C 50.726562 364.371094 51.085938 363.902344 51.472656 363.453125 C 51.859375 363.003906 52.269531 362.578125 52.703125 362.175781 C 53.132812 361.769531 53.585938 361.390625 54.058594 361.03125 C 55.316406 360.085938 56.59375 359.171875 57.890625 358.28125 C 59.1875 357.394531 60.5 356.535156 61.835938 355.707031 C 63.171875 354.878906 64.527344 354.078125 65.898438 353.308594 C 67.269531 352.542969 68.65625 351.804688 70.058594 351.097656 C 71.464844 350.390625 72.882812 349.714844 74.316406 349.074219 C 75.75 348.429688 77.199219 347.816406 78.660156 347.238281 C 80.121094 346.660156 81.59375 346.117188 83.082031 345.601562 C 84.566406 345.089844 86.0625 344.613281 87.570312 344.164062 C 89.078125 343.71875 90.59375 343.308594 92.121094 342.929688 C 93.648438 342.550781 95.179688 342.210938 96.722656 341.898438 C 98.261719 341.589844 99.808594 341.316406 101.363281 341.074219 C 102.917969 340.835938 104.472656 340.628906 106.035156 340.460938 C 107.597656 340.289062 109.164062 340.152344 110.734375 340.054688 C 112.300781 339.953125 113.871094 339.886719 115.445312 339.855469 C 117.015625 339.828125 118.585938 339.832031 120.15625 339.871094 C 121.730469 339.910156 123.300781 339.988281 124.867188 340.097656 C 126.433594 340.207031 128 340.351562 129.5625 340.53125 C 131.121094 340.710938 132.679688 340.925781 134.230469 341.175781 C 135.78125 341.425781 137.328125 341.710938 138.867188 342.03125 C 140.40625 342.347656 141.9375 342.703125 143.460938 343.089844 C 144.984375 343.476562 146.5 343.898438 148.003906 344.351562 C 149.507812 344.808594 151 345.296875 152.484375 345.816406 C 153.96875 346.339844 155.4375 346.894531 156.894531 347.480469 C 158.351562 348.070312 159.796875 348.6875 161.226562 349.339844 C 162.65625 349.992188 164.074219 350.675781 165.472656 351.390625 C 166.871094 352.105469 168.253906 352.851562 169.621094 353.628906 C 170.988281 354.40625 172.335938 355.214844 173.664062 356.050781 C 174.996094 356.890625 176.308594 357.757812 177.597656 358.652344 C 178.890625 359.546875 180.160156 360.472656 181.410156 361.425781 C 182.660156 362.378906 183.886719 363.359375 185.09375 364.367188 C 186.300781 365.375 187.484375 366.410156 188.644531 367.46875 C 189.804688 368.53125 190.941406 369.617188 192.050781 370.726562 C 193.164062 371.839844 194.25 372.976562 195.308594 374.136719 C 196.371094 375.296875 197.40625 376.476562 198.414062 377.683594 C 199.421875 378.890625 200.402344 380.117188 201.351562 381.367188 C 202.304688 382.617188 203.230469 383.890625 204.125 385.179688 C 205.023438 386.472656 205.890625 387.785156 206.726562 389.113281 C 207.5625 390.445312 208.371094 391.792969 209.148438 393.160156 C 209.925781 394.523438 210.671875 395.90625 211.386719 397.308594 C 212.101562 398.707031 212.785156 400.121094 213.4375 401.550781 C 214.089844 402.980469 214.710938 404.425781 215.296875 405.882812 C 215.886719 407.34375 216.441406 408.8125 216.960938 410.296875 C 217.484375 411.777344 217.972656 413.269531 218.425781 414.777344 C 218.882812 416.28125 219.304688 417.792969 219.691406 419.316406 C 220.078125 420.839844 220.429688 422.371094 220.75 423.910156 C 221.070312 425.449219 221.351562 426.996094 221.601562 428.546875 C 221.851562 430.101562 222.066406 431.65625 222.246094 433.21875 C 222.425781 434.78125 222.574219 436.34375 222.683594 437.914062 C 222.792969 439.480469 222.867188 441.050781 222.90625 442.621094 C 222.949219 444.191406 222.953125 445.765625 222.921875 447.335938 C 222.890625 448.90625 222.828125 450.476562 222.726562 452.046875 C 222.625 453.613281 222.492188 455.179688 222.320312 456.742188 C 222.148438 458.304688 221.945312 459.863281 221.703125 461.417969 C 221.464844 462.96875 221.1875 464.515625 220.878906 466.058594 C 220.570312 467.597656 220.226562 469.132812 219.847656 470.660156 C 219.472656 472.183594 219.058594 473.699219 218.613281 475.207031 C 218.167969 476.714844 217.6875 478.210938 217.175781 479.699219 C 216.664062 481.183594 216.117188 482.65625 215.539062 484.117188 C 214.960938 485.582031 214.351562 487.027344 213.707031 488.460938 C 213.0625 489.898438 212.390625 491.316406 211.683594 492.71875 C 210.976562 494.125 210.238281 495.511719 209.46875 496.882812 C 208.699219 498.253906 207.902344 499.605469 207.074219 500.941406 C 206.242188 502.277344 205.382812 503.59375 204.496094 504.890625 C 203.609375 506.1875 202.691406 507.464844 201.746094 508.71875 C 201.03125 509.671875 200.21875 510.535156 199.316406 511.308594 C 198.414062 512.085938 197.441406 512.757812 196.394531 513.324219 C 195.347656 513.894531 194.253906 514.34375 193.109375 514.675781 C 191.964844 515.007812 190.800781 515.214844 189.613281 515.300781 C 189.222656 515.328125 188.835938 515.339844 188.453125 515.339844 Z M 182.707031 504.519531 C 183.53125 505.367188 184.496094 505.996094 185.601562 506.40625 C 186.710938 506.820312 187.851562 506.976562 189.027344 506.875 C 190.210938 506.792969 191.328125 506.46875 192.371094 505.902344 C 193.414062 505.335938 194.292969 504.578125 195.011719 503.632812 C 195.878906 502.476562 196.722656 501.300781 197.539062 500.109375 C 198.355469 498.917969 199.144531 497.707031 199.910156 496.476562 C 200.671875 495.25 201.40625 494.003906 202.113281 492.742188 C 202.820312 491.480469 203.5 490.203125 204.148438 488.914062 C 204.800781 487.621094 205.421875 486.316406 206.011719 484.996094 C 206.605469 483.675781 207.167969 482.34375 207.699219 481 C 208.230469 479.65625 208.730469 478.300781 209.203125 476.933594 C 209.675781 475.566406 210.117188 474.1875 210.527344 472.800781 C 210.9375 471.414062 211.316406 470.019531 211.664062 468.617188 C 212.011719 467.214844 212.324219 465.804688 212.609375 464.386719 C 212.894531 462.96875 213.148438 461.542969 213.367188 460.113281 C 213.589844 458.6875 213.777344 457.253906 213.933594 455.816406 C 214.09375 454.378906 214.214844 452.9375 214.308594 451.496094 C 214.402344 450.050781 214.460938 448.605469 214.488281 447.160156 C 214.515625 445.714844 214.511719 444.269531 214.476562 442.824219 C 214.4375 441.378906 214.371094 439.933594 214.269531 438.492188 C 214.167969 437.050781 214.035156 435.609375 213.867188 434.171875 C 213.703125 432.738281 213.503906 431.304688 213.273438 429.878906 C 213.042969 428.449219 212.785156 427.027344 212.488281 425.613281 C 212.195312 424.195312 211.871094 422.789062 211.515625 421.386719 C 211.160156 419.984375 210.773438 418.59375 210.351562 417.207031 C 209.933594 415.824219 209.484375 414.449219 209.003906 413.085938 C 208.523438 411.722656 208.015625 410.367188 207.472656 409.027344 C 206.933594 407.6875 206.363281 406.359375 205.765625 405.042969 C 205.164062 403.726562 204.535156 402.425781 203.875 401.136719 C 203.21875 399.851562 202.53125 398.578125 201.816406 397.320312 C 201.101562 396.0625 200.359375 394.824219 199.589844 393.601562 C 198.820312 392.375 198.019531 391.171875 197.195312 389.980469 C 196.371094 388.792969 195.523438 387.625 194.644531 386.476562 C 193.769531 385.324219 192.867188 384.195312 191.941406 383.085938 C 191.011719 381.976562 190.0625 380.886719 189.085938 379.820312 C 188.109375 378.753906 187.109375 377.707031 186.089844 376.6875 C 185.066406 375.664062 184.019531 374.664062 182.953125 373.6875 C 181.886719 372.714844 180.796875 371.761719 179.6875 370.835938 C 178.578125 369.90625 177.449219 369.003906 176.296875 368.128906 C 175.148438 367.253906 173.980469 366.402344 172.792969 365.578125 C 171.601562 364.753906 170.398438 363.957031 169.171875 363.1875 C 167.949219 362.414062 166.710938 361.671875 165.453125 360.957031 C 164.195312 360.242188 162.921875 359.554688 161.636719 358.898438 C 160.347656 358.242188 159.046875 357.613281 157.730469 357.011719 C 156.414062 356.410156 155.085938 355.839844 153.746094 355.300781 C 152.402344 354.761719 151.050781 354.25 149.6875 353.769531 C 148.324219 353.289062 146.949219 352.839844 145.566406 352.421875 C 144.179688 352.003906 142.789062 351.617188 141.386719 351.261719 C 139.984375 350.902344 138.578125 350.578125 137.160156 350.285156 C 135.746094 349.992188 134.324219 349.730469 132.894531 349.5 C 131.46875 349.273438 130.035156 349.074219 128.597656 348.910156 C 127.164062 348.742188 125.722656 348.609375 124.28125 348.507812 C 122.839844 348.40625 121.394531 348.335938 119.949219 348.300781 C 118.503906 348.265625 117.058594 348.261719 115.613281 348.289062 C 114.167969 348.316406 112.722656 348.375 111.277344 348.46875 C 109.835938 348.5625 108.394531 348.683594 106.957031 348.84375 C 105.519531 349 104.085938 349.1875 102.65625 349.410156 C 101.230469 349.628906 99.804688 349.882812 98.386719 350.167969 C 96.96875 350.453125 95.558594 350.769531 94.15625 351.117188 C 92.753906 351.464844 91.355469 351.84375 89.96875 352.253906 C 88.582031 352.660156 87.207031 353.101562 85.839844 353.574219 C 84.472656 354.046875 83.117188 354.546875 81.773438 355.082031 C 80.429688 355.613281 79.097656 356.175781 77.777344 356.765625 C 76.457031 357.359375 75.152344 357.980469 73.859375 358.628906 C 72.570312 359.277344 71.292969 359.957031 70.03125 360.664062 C 68.769531 361.371094 67.523438 362.105469 66.296875 362.871094 C 65.066406 363.632812 63.855469 364.421875 62.664062 365.238281 C 61.472656 366.054688 60.296875 366.898438 59.140625 367.769531 C 58.191406 368.484375 57.429688 369.363281 56.859375 370.40625 C 56.292969 371.449219 55.964844 372.566406 55.882812 373.75 C 55.792969 374.925781 55.953125 376.066406 56.363281 377.167969 C 56.777344 378.273438 57.402344 379.238281 58.242188 380.066406 Z M 182.707031 504.519531 " fill-opacity="1" fill-rule="nonzero"/><path fill="#ffffff" d="M 95.175781 473.609375 L 93.433594 473.609375 L 93.402344 469.359375 L 90.445312 466.402344 L 114.535156 442.3125 L 120.503906 448.28125 Z M 95.175781 473.609375 " fill-opacity="1" fill-rule="nonzero"/><path fill="#ffffff" d="M 79.480469 507.207031 C 78.992188 507.207031 78.503906 507.191406 78.015625 507.164062 C 77.523438 507.132812 77.039062 507.089844 76.550781 507.03125 C 76.066406 506.96875 75.582031 506.894531 75.101562 506.808594 C 74.621094 506.71875 74.140625 506.613281 73.667969 506.496094 C 73.191406 506.378906 72.722656 506.246094 72.253906 506.097656 C 71.789062 505.949219 71.328125 505.789062 70.871094 505.613281 C 70.414062 505.4375 69.960938 505.246094 69.515625 505.042969 C 69.070312 504.839844 68.632812 504.625 68.203125 504.394531 C 67.769531 504.164062 67.34375 503.921875 66.929688 503.664062 C 66.511719 503.40625 66.101562 503.140625 65.703125 502.855469 C 65.300781 502.574219 64.910156 502.28125 64.527344 501.976562 C 64.144531 501.671875 63.773438 501.355469 63.410156 501.027344 C 63.046875 500.699219 62.695312 500.359375 62.351562 500.007812 C 62.011719 499.660156 61.679688 499.296875 61.359375 498.929688 C 61.039062 498.558594 60.730469 498.179688 60.433594 497.789062 C 60.136719 497.398438 59.851562 497 59.582031 496.59375 C 59.308594 496.1875 59.050781 495.773438 58.800781 495.351562 C 58.554688 494.929688 58.320312 494.5 58.101562 494.0625 C 57.882812 493.625 57.675781 493.179688 57.480469 492.730469 C 57.289062 492.28125 57.109375 491.828125 56.945312 491.367188 C 56.777344 490.90625 56.628906 490.441406 56.492188 489.96875 C 56.355469 489.5 56.230469 489.027344 56.125 488.550781 C 56.015625 488.070312 55.925781 487.589844 55.847656 487.109375 C 55.769531 486.625 55.703125 486.140625 55.65625 485.652344 C 55.609375 485.164062 55.574219 484.679688 55.554688 484.1875 C 55.539062 483.699219 55.535156 483.210938 55.546875 482.722656 C 55.558594 482.230469 55.585938 481.742188 55.625 481.257812 C 55.667969 480.769531 55.726562 480.28125 55.796875 479.796875 C 55.867188 479.3125 55.953125 478.832031 56.054688 478.355469 C 56.15625 477.875 56.273438 477.398438 56.402344 476.929688 C 56.53125 476.457031 56.675781 475.988281 56.835938 475.527344 C 56.996094 475.0625 57.167969 474.605469 57.355469 474.152344 C 57.542969 473.699219 57.742188 473.253906 57.957031 472.816406 C 58.171875 472.375 58.398438 471.941406 58.640625 471.515625 C 58.882812 471.089844 59.136719 470.671875 59.402344 470.261719 C 59.667969 469.851562 59.949219 469.449219 60.238281 469.054688 C 60.53125 468.664062 60.835938 468.277344 61.148438 467.90625 C 61.464844 467.53125 61.789062 467.164062 62.128906 466.8125 C 62.464844 466.457031 62.8125 466.113281 63.171875 465.777344 C 63.53125 465.445312 63.898438 465.125 64.277344 464.8125 C 64.65625 464.503906 65.042969 464.203125 65.4375 463.917969 C 65.835938 463.628906 66.238281 463.355469 66.652344 463.09375 C 67.066406 462.832031 67.488281 462.582031 67.917969 462.347656 C 68.34375 462.109375 68.78125 461.886719 69.222656 461.679688 C 69.664062 461.46875 70.113281 461.273438 70.566406 461.09375 C 71.023438 460.910156 71.480469 460.742188 71.945312 460.589844 C 72.410156 460.433594 72.878906 460.296875 73.355469 460.171875 C 73.828125 460.046875 74.304688 459.9375 74.785156 459.839844 C 75.261719 459.746094 75.746094 459.664062 76.230469 459.597656 C 76.714844 459.53125 77.203125 459.480469 77.691406 459.445312 C 78.179688 459.410156 78.667969 459.386719 79.15625 459.382812 C 79.644531 459.375 80.136719 459.386719 80.625 459.410156 C 81.113281 459.433594 81.601562 459.472656 82.085938 459.527344 C 82.574219 459.578125 83.058594 459.648438 83.539062 459.730469 C 84.023438 459.816406 84.5 459.914062 84.976562 460.027344 C 85.453125 460.140625 85.925781 460.269531 86.394531 460.410156 C 86.863281 460.550781 87.324219 460.707031 87.785156 460.878906 C 88.242188 461.050781 88.695312 461.234375 89.144531 461.433594 C 89.589844 461.628906 90.03125 461.84375 90.464844 462.066406 C 90.902344 462.292969 91.328125 462.53125 91.746094 462.785156 C 92.167969 463.035156 92.578125 463.300781 92.984375 463.574219 C 93.386719 463.851562 93.78125 464.140625 94.167969 464.441406 C 94.550781 464.746094 94.929688 465.058594 95.296875 465.382812 C 95.660156 465.707031 96.019531 466.039062 96.363281 466.386719 C 97.195312 467.21875 97.960938 468.105469 98.664062 469.050781 C 99.363281 469.992188 99.992188 470.984375 100.546875 472.019531 C 101.101562 473.054688 101.574219 474.128906 101.972656 475.234375 C 102.367188 476.339844 102.683594 477.472656 102.910156 478.625 C 103.140625 479.777344 103.285156 480.941406 103.34375 482.113281 C 103.402344 483.289062 103.375 484.460938 103.257812 485.628906 C 103.144531 486.800781 102.945312 487.957031 102.660156 489.097656 C 102.375 490.238281 102.007812 491.351562 101.558594 492.4375 C 101.109375 493.523438 100.582031 494.570312 99.980469 495.578125 C 99.375 496.585938 98.699219 497.546875 97.953125 498.457031 C 97.210938 499.363281 96.402344 500.214844 95.53125 501.003906 C 94.660156 501.792969 93.738281 502.515625 92.757812 503.167969 C 91.78125 503.824219 90.761719 504.402344 89.699219 504.90625 C 88.636719 505.40625 87.542969 505.832031 86.417969 506.171875 C 85.292969 506.515625 84.152344 506.773438 82.988281 506.945312 C 81.824219 507.117188 80.65625 507.207031 79.480469 507.207031 Z M 79.480469 467.8125 C 78.890625 467.8125 78.300781 467.847656 77.710938 467.914062 C 77.125 467.984375 76.542969 468.085938 75.964844 468.222656 C 75.390625 468.355469 74.824219 468.523438 74.265625 468.726562 C 73.710938 468.925781 73.167969 469.15625 72.636719 469.417969 C 72.105469 469.683594 71.59375 469.972656 71.097656 470.296875 C 70.601562 470.617188 70.125 470.964844 69.667969 471.34375 C 69.210938 471.71875 68.777344 472.121094 68.367188 472.546875 C 67.957031 472.972656 67.570312 473.417969 67.210938 473.890625 C 66.851562 474.359375 66.519531 474.847656 66.21875 475.355469 C 65.914062 475.863281 65.640625 476.390625 65.398438 476.929688 C 65.15625 477.46875 64.945312 478.019531 64.765625 478.582031 C 64.585938 479.144531 64.4375 479.71875 64.324219 480.300781 C 64.207031 480.878906 64.128906 481.464844 64.082031 482.054688 C 64.035156 482.644531 64.019531 483.234375 64.042969 483.824219 C 64.0625 484.417969 64.117188 485.003906 64.203125 485.589844 C 64.292969 486.175781 64.414062 486.753906 64.566406 487.324219 C 64.722656 487.894531 64.910156 488.457031 65.128906 489.007812 C 65.34375 489.554688 65.59375 490.089844 65.875 490.613281 C 66.15625 491.132812 66.464844 491.636719 66.800781 492.121094 C 67.140625 492.609375 67.503906 493.074219 67.894531 493.515625 C 68.285156 493.960938 68.703125 494.382812 69.140625 494.777344 C 69.578125 495.175781 70.039062 495.542969 70.523438 495.886719 C 71.003906 496.230469 71.503906 496.546875 72.019531 496.832031 C 72.539062 497.117188 73.070312 497.375 73.617188 497.597656 C 74.164062 497.824219 74.722656 498.019531 75.292969 498.179688 C 75.863281 498.339844 76.4375 498.46875 77.023438 498.5625 C 77.605469 498.65625 78.195312 498.71875 78.785156 498.746094 C 79.375 498.773438 79.96875 498.769531 80.558594 498.730469 C 81.148438 498.6875 81.734375 498.613281 82.316406 498.507812 C 82.898438 498.398438 83.472656 498.261719 84.035156 498.085938 C 84.601562 497.914062 85.15625 497.707031 85.699219 497.472656 C 86.242188 497.234375 86.769531 496.96875 87.28125 496.671875 C 87.792969 496.375 88.285156 496.050781 88.757812 495.695312 C 89.234375 495.34375 89.6875 494.960938 90.117188 494.558594 C 90.546875 494.152344 90.953125 493.722656 91.335938 493.269531 C 91.714844 492.816406 92.070312 492.347656 92.398438 491.851562 C 92.726562 491.359375 93.023438 490.851562 93.292969 490.324219 C 93.5625 489.796875 93.800781 489.253906 94.007812 488.703125 C 94.214844 488.148438 94.390625 487.582031 94.53125 487.007812 C 94.671875 486.433594 94.78125 485.855469 94.859375 485.265625 C 94.933594 484.679688 94.976562 484.089844 94.984375 483.5 C 94.992188 482.90625 94.964844 482.316406 94.90625 481.730469 C 94.847656 481.140625 94.753906 480.558594 94.628906 479.980469 C 94.5 479.402344 94.34375 478.832031 94.148438 478.273438 C 93.957031 477.714844 93.734375 477.167969 93.480469 476.632812 C 93.226562 476.097656 92.941406 475.578125 92.628906 475.078125 C 92.316406 474.578125 91.972656 474.09375 91.605469 473.632812 C 91.234375 473.171875 90.839844 472.730469 90.421875 472.3125 C 88.96875 470.867188 87.296875 469.753906 85.398438 468.972656 C 83.503906 468.195312 81.53125 467.8125 79.480469 467.820312 Z M 79.480469 467.8125 " fill-opacity="1" fill-rule="nonzero"/><path fill="#ffffff" d="M 338.1875 264.960938 C 337.363281 264.960938 336.539062 264.933594 335.714844 264.882812 C 334.890625 264.832031 334.066406 264.757812 333.246094 264.65625 C 332.429688 264.554688 331.613281 264.429688 330.800781 264.277344 C 329.988281 264.125 329.183594 263.949219 328.382812 263.75 C 327.582031 263.546875 326.785156 263.324219 326 263.074219 C 325.210938 262.824219 324.433594 262.550781 323.660156 262.253906 C 322.890625 261.957031 322.128906 261.636719 321.378906 261.292969 C 320.628906 260.949219 319.890625 260.582031 319.160156 260.191406 C 318.433594 259.800781 317.71875 259.390625 317.015625 258.957031 C 316.3125 258.523438 315.621094 258.070312 314.945312 257.59375 C 314.273438 257.117188 313.613281 256.625 312.96875 256.105469 C 312.320312 255.589844 311.695312 255.054688 311.082031 254.5 C 310.46875 253.945312 309.875 253.375 309.300781 252.78125 C 308.722656 252.191406 308.164062 251.582031 307.625 250.957031 C 307.085938 250.332031 306.566406 249.691406 306.066406 249.035156 C 305.566406 248.375 305.085938 247.703125 304.628906 247.015625 C 304.167969 246.332031 303.730469 245.628906 303.316406 244.917969 C 302.898438 244.203125 302.507812 243.476562 302.136719 242.738281 C 301.765625 242.003906 301.414062 241.253906 301.089844 240.496094 C 300.765625 239.734375 300.464844 238.96875 300.183594 238.191406 C 299.90625 237.410156 299.652344 236.625 299.421875 235.832031 C 299.191406 235.039062 298.988281 234.242188 298.808594 233.433594 C 298.625 232.628906 298.46875 231.820312 298.339844 231.003906 C 298.207031 230.1875 298.101562 229.367188 298.019531 228.546875 C 297.941406 227.726562 297.886719 226.902344 297.855469 226.078125 C 297.824219 225.25 297.820312 224.425781 297.839844 223.601562 C 297.859375 222.773438 297.90625 221.949219 297.976562 221.128906 C 298.046875 220.304688 298.144531 219.484375 298.265625 218.667969 C 298.386719 217.851562 298.53125 217.039062 298.703125 216.230469 C 298.875 215.421875 299.070312 214.621094 299.292969 213.824219 C 299.511719 213.027344 299.757812 212.242188 300.023438 211.460938 C 300.292969 210.679688 300.585938 209.90625 300.902344 209.144531 C 301.21875 208.382812 301.558594 207.628906 301.921875 206.886719 C 302.28125 206.144531 302.667969 205.414062 303.074219 204.695312 C 303.480469 203.976562 303.910156 203.269531 304.359375 202.578125 C 304.8125 201.886719 305.28125 201.210938 305.773438 200.546875 C 306.265625 199.882812 306.777344 199.234375 307.308594 198.601562 C 307.84375 197.972656 308.394531 197.355469 308.960938 196.757812 C 309.53125 196.160156 310.121094 195.582031 310.722656 195.019531 C 311.328125 194.457031 311.953125 193.914062 312.589844 193.390625 C 313.230469 192.867188 313.882812 192.363281 314.550781 191.878906 C 315.222656 191.394531 315.90625 190.933594 316.601562 190.492188 C 317.300781 190.050781 318.011719 189.628906 318.734375 189.230469 C 319.457031 188.832031 320.195312 188.457031 320.941406 188.105469 C 321.6875 187.75 322.445312 187.421875 323.210938 187.117188 C 323.976562 186.808594 324.753906 186.527344 325.539062 186.265625 C 326.320312 186.007812 327.113281 185.773438 327.910156 185.5625 C 328.710938 185.351562 329.515625 185.167969 330.324219 185.007812 C 331.132812 184.84375 331.949219 184.710938 332.765625 184.597656 C 333.585938 184.488281 334.40625 184.402344 335.230469 184.339844 C 336.054688 184.28125 336.878906 184.246094 337.703125 184.234375 C 338.53125 184.226562 339.355469 184.242188 340.179688 184.28125 C 341.003906 184.324219 341.828125 184.386719 342.648438 184.480469 C 343.46875 184.570312 344.285156 184.6875 345.101562 184.828125 C 345.914062 184.96875 346.722656 185.136719 347.527344 185.328125 C 348.328125 185.519531 349.125 185.734375 349.917969 185.972656 C 350.707031 186.214844 351.488281 186.476562 352.261719 186.765625 C 353.039062 187.054688 353.800781 187.363281 354.554688 187.699219 C 355.3125 188.035156 356.054688 188.390625 356.789062 188.773438 C 357.519531 189.152344 358.242188 189.554688 358.949219 189.980469 C 359.660156 190.40625 360.351562 190.851562 361.035156 191.320312 C 361.714844 191.785156 362.378906 192.273438 363.03125 192.78125 C 363.683594 193.289062 364.316406 193.816406 364.9375 194.367188 C 365.554688 194.914062 366.15625 195.476562 366.738281 196.0625 C 368.144531 197.464844 369.4375 198.964844 370.621094 200.558594 C 371.804688 202.152344 372.863281 203.824219 373.800781 205.574219 C 374.738281 207.328125 375.539062 209.136719 376.207031 211.003906 C 376.878906 212.875 377.40625 214.78125 377.792969 216.730469 C 378.179688 218.675781 378.421875 220.640625 378.519531 222.625 C 378.617188 224.609375 378.570312 226.585938 378.375 228.5625 C 378.179688 230.539062 377.84375 232.488281 377.359375 234.414062 C 376.878906 236.339844 376.253906 238.222656 375.496094 240.054688 C 374.734375 241.890625 373.84375 243.65625 372.824219 245.359375 C 371.804688 247.0625 370.664062 248.679688 369.402344 250.214844 C 368.144531 251.75 366.777344 253.183594 365.304688 254.515625 C 363.835938 255.847656 362.273438 257.066406 360.621094 258.167969 C 358.96875 259.269531 357.246094 260.246094 355.453125 261.09375 C 353.65625 261.941406 351.808594 262.652344 349.910156 263.226562 C 348.007812 263.804688 346.078125 264.234375 344.113281 264.527344 C 342.148438 264.816406 340.175781 264.960938 338.1875 264.960938 Z M 338.1875 192.691406 C 337.578125 192.691406 336.972656 192.710938 336.363281 192.746094 C 335.753906 192.78125 335.148438 192.832031 334.542969 192.902344 C 333.9375 192.972656 333.335938 193.0625 332.734375 193.167969 C 332.136719 193.269531 331.539062 193.394531 330.945312 193.53125 C 330.351562 193.671875 329.765625 193.828125 329.179688 194 C 328.597656 194.171875 328.015625 194.359375 327.445312 194.566406 C 326.871094 194.773438 326.304688 194.996094 325.742188 195.234375 C 325.183594 195.472656 324.628906 195.726562 324.082031 195.996094 C 323.539062 196.265625 323 196.550781 322.46875 196.851562 C 321.941406 197.152344 321.417969 197.46875 320.90625 197.796875 C 320.394531 198.128906 319.894531 198.472656 319.402344 198.832031 C 318.910156 199.191406 318.429688 199.566406 317.957031 199.953125 C 317.488281 200.339844 317.027344 200.738281 316.582031 201.152344 C 316.132812 201.566406 315.699219 201.992188 315.273438 202.429688 C 314.851562 202.867188 314.441406 203.316406 314.042969 203.777344 C 313.648438 204.242188 313.261719 204.714844 312.894531 205.195312 C 312.523438 205.679688 312.167969 206.175781 311.824219 206.679688 C 311.480469 207.183594 311.15625 207.695312 310.839844 208.21875 C 310.527344 208.742188 310.230469 209.273438 309.949219 209.8125 C 309.667969 210.351562 309.402344 210.898438 309.148438 211.453125 C 308.898438 212.007812 308.664062 212.570312 308.445312 213.140625 C 308.226562 213.707031 308.023438 214.28125 307.839844 214.863281 C 307.652344 215.441406 307.484375 216.027344 307.332031 216.617188 C 307.179688 217.207031 307.042969 217.800781 306.925781 218.398438 C 306.808594 218.996094 306.707031 219.597656 306.621094 220.199219 C 306.539062 220.804688 306.472656 221.410156 306.421875 222.015625 C 306.371094 222.621094 306.339844 223.230469 306.328125 223.839844 C 306.3125 224.449219 306.316406 225.058594 306.335938 225.667969 C 306.355469 226.273438 306.394531 226.882812 306.449219 227.488281 C 306.503906 228.097656 306.578125 228.699219 306.667969 229.304688 C 306.757812 229.90625 306.863281 230.503906 306.988281 231.101562 C 307.113281 231.699219 307.253906 232.289062 307.410156 232.878906 C 307.570312 233.464844 307.742188 234.050781 307.9375 234.628906 C 308.128906 235.207031 308.335938 235.777344 308.558594 236.34375 C 308.785156 236.910156 309.023438 237.46875 309.28125 238.023438 C 309.535156 238.574219 309.808594 239.121094 310.097656 239.65625 C 310.382812 240.195312 310.6875 240.722656 311.003906 241.242188 C 311.320312 241.761719 311.65625 242.273438 312 242.773438 C 312.347656 243.273438 312.710938 243.761719 313.085938 244.242188 C 313.460938 244.722656 313.847656 245.191406 314.25 245.648438 C 314.652344 246.109375 315.066406 246.554688 315.496094 246.988281 C 315.921875 247.421875 316.363281 247.84375 316.8125 248.25 C 317.265625 248.660156 317.726562 249.054688 318.203125 249.4375 C 318.675781 249.820312 319.160156 250.1875 319.65625 250.542969 C 320.152344 250.898438 320.65625 251.238281 321.171875 251.5625 C 321.6875 251.886719 322.210938 252.199219 322.742188 252.492188 C 323.277344 252.789062 323.816406 253.070312 324.367188 253.335938 C 324.914062 253.597656 325.46875 253.847656 326.03125 254.082031 C 326.597656 254.3125 327.164062 254.527344 327.742188 254.730469 C 328.316406 254.929688 328.894531 255.113281 329.480469 255.28125 C 330.066406 255.445312 330.65625 255.597656 331.253906 255.730469 C 331.847656 255.863281 332.445312 255.980469 333.046875 256.078125 C 333.648438 256.175781 334.25 256.257812 334.855469 256.320312 C 335.460938 256.386719 336.070312 256.433594 336.675781 256.460938 C 337.285156 256.492188 337.894531 256.503906 338.503906 256.5 C 339.113281 256.492188 339.722656 256.472656 340.328125 256.429688 C 340.9375 256.390625 341.542969 256.332031 342.148438 256.257812 C 342.75 256.183594 343.355469 256.089844 343.953125 255.980469 C 344.550781 255.871094 345.148438 255.746094 345.738281 255.601562 C 346.332031 255.457031 346.917969 255.296875 347.5 255.121094 C 348.085938 254.945312 348.660156 254.75 349.234375 254.539062 C 349.804688 254.328125 350.371094 254.101562 350.929688 253.859375 C 351.488281 253.617188 352.039062 253.359375 352.582031 253.085938 C 353.128906 252.8125 353.664062 252.523438 354.191406 252.214844 C 354.71875 251.910156 355.234375 251.59375 355.746094 251.257812 C 356.253906 250.921875 356.753906 250.574219 357.242188 250.210938 C 357.730469 249.847656 358.210938 249.472656 358.675781 249.082031 C 359.144531 248.691406 359.601562 248.285156 360.042969 247.871094 C 360.488281 247.453125 360.921875 247.023438 361.339844 246.582031 C 361.761719 246.140625 362.167969 245.6875 362.5625 245.222656 C 362.953125 244.757812 363.335938 244.285156 363.703125 243.796875 C 364.066406 243.308594 364.421875 242.8125 364.757812 242.308594 C 365.097656 241.800781 365.421875 241.285156 365.730469 240.757812 C 366.039062 240.234375 366.332031 239.699219 366.609375 239.160156 C 366.886719 238.617188 367.148438 238.066406 367.394531 237.511719 C 367.640625 236.953125 367.871094 236.390625 368.085938 235.820312 C 368.300781 235.25 368.5 234.671875 368.679688 234.09375 C 368.863281 233.511719 369.027344 232.925781 369.175781 232.332031 C 369.320312 231.742188 369.453125 231.148438 369.566406 230.550781 C 369.679688 229.949219 369.777344 229.347656 369.855469 228.746094 C 369.933594 228.140625 369.996094 227.535156 370.042969 226.929688 C 370.085938 226.320312 370.113281 225.710938 370.121094 225.101562 C 370.132812 224.496094 370.125 223.886719 370.097656 223.277344 C 370.074219 222.667969 370.03125 222.0625 369.972656 221.453125 C 369.910156 220.847656 369.835938 220.246094 369.738281 219.644531 C 369.644531 219.042969 369.535156 218.441406 369.40625 217.847656 C 369.277344 217.25 369.128906 216.660156 368.96875 216.074219 C 368.804688 215.488281 368.625 214.90625 368.429688 214.328125 C 368.234375 213.75 368.019531 213.179688 367.792969 212.617188 C 367.5625 212.050781 367.320312 211.492188 367.058594 210.945312 C 366.796875 210.394531 366.519531 209.851562 366.230469 209.316406 C 365.9375 208.78125 365.628906 208.253906 365.308594 207.738281 C 364.988281 207.21875 364.652344 206.714844 364.300781 206.214844 C 363.949219 205.71875 363.582031 205.230469 363.203125 204.753906 C 362.828125 204.277344 362.433594 203.808594 362.027344 203.355469 C 361.621094 202.902344 361.203125 202.457031 360.773438 202.027344 C 359.292969 200.542969 357.679688 199.214844 355.9375 198.050781 C 354.191406 196.882812 352.351562 195.898438 350.414062 195.097656 C 348.472656 194.292969 346.476562 193.6875 344.417969 193.28125 C 342.359375 192.875 340.28125 192.671875 338.183594 192.675781 Z M 338.1875 192.691406 " fill-opacity="1" fill-rule="nonzero"/></svg>