<svg xmlns="http://www.w3.org/2000/svg" xmlns:xlink="http://www.w3.org/1999/xlink" width="750" zoomAndPan="magnify" viewBox="0 0 562.5 562.499982" height="750" preserveAspectRatio="xMidYMid meet" version="1.0"><defs><clipPath id="77d12e93d3"><path d="M 165.097656 238.6875 L 315.824219 238.6875 L 315.824219 489.738281 L 165.097656 489.738281 Z M 165.097656 238.6875 " clip-rule="nonzero"/></clipPath><clipPath id="8a13d0376b"><path d="M 89 0 L 473.953125 0 L 473.953125 562 L 89 562 Z M 89 0 " clip-rule="nonzero"/></clipPath></defs><g clip-path="url(#77d12e93d3)"><path fill="#ffffff" d="M 165.097656 238.6875 L 315.824219 238.6875 L 315.824219 489.511719 L 165.097656 489.511719 Z M 165.097656 238.6875 " fill-opacity="1" fill-rule="nonzero"/></g><g clip-path="url(#8a13d0376b)"><path fill="#ffffff" d="M 202.433594 561.925781 C 195.078125 561.035156 189.5 559.761719 186.65625 558.332031 C 180.75 555.359375 178.683594 549.511719 181.082031 542.554688 C 182.542969 538.328125 185.128906 533.316406 188.285156 528.605469 C 189.878906 526.226562 191.183594 524.152344 191.183594 523.988281 C 191.183594 523.828125 190.78125 522.796875 190.289062 521.695312 C 185.25 510.429688 181.132812 496.210938 178.253906 480.152344 C 175.917969 467.128906 174.082031 442.925781 174.054688 424.757812 C 174.03125 411.792969 174.855469 402.945312 177.730469 385.273438 C 178.378906 381.277344 178.914062 377.90625 178.914062 377.792969 C 178.914062 377.679688 178.121094 378.726562 177.144531 380.125 C 168.378906 392.714844 167.019531 394.382812 158.800781 402.621094 C 154.394531 407.035156 149.917969 411.234375 148.851562 411.949219 C 147.140625 413.101562 146.949219 413.339844 147.210938 414.023438 C 147.839844 415.675781 148.257812 422.695312 147.898438 425.582031 C 147.09375 432.058594 145.644531 434.324219 140.179688 437.671875 C 137.335938 439.417969 134.792969 440.160156 131.613281 440.183594 C 129.148438 440.199219 128.550781 440.078125 126.839844 439.203125 C 124.382812 437.949219 122.945312 435.730469 122.140625 431.953125 C 121.835938 430.53125 121.511719 429.097656 121.425781 428.773438 C 121.289062 428.28125 120.886719 428.46875 119.03125 429.894531 C 114.878906 433.074219 111.5625 434.304688 107.128906 434.304688 C 100.9375 434.304688 96.03125 431.308594 91.992188 425.0625 C 88.441406 419.570312 88.066406 411.867188 91.082031 406.191406 C 93.0625 402.453125 99.089844 396.921875 106.484375 392.046875 L 110.199219 389.601562 L 110.773438 386.777344 C 112.355469 378.957031 116.542969 364.984375 119.789062 356.695312 C 122.957031 348.601562 130.328125 334.566406 135.871094 326.078125 C 139.257812 320.886719 148.1875 308.449219 151.414062 304.429688 C 160.816406 292.714844 177.609375 275.574219 187.269531 267.835938 C 191.53125 264.421875 199.074219 259.433594 202.40625 257.828125 C 204.28125 256.921875 205.523438 256.566406 207.234375 256.441406 L 209.539062 256.277344 L 209.910156 254.808594 C 210.113281 254 210.285156 251.910156 210.289062 250.164062 C 210.296875 246.484375 210.664062 244.613281 211.839844 242.273438 C 212.304688 241.347656 212.640625 240.5625 212.589844 240.535156 C 212.535156 240.5 211.039062 239.882812 209.253906 239.164062 C 205.320312 237.574219 197.125 233.511719 193.40625 231.308594 C 178.480469 222.46875 164.945312 209.6875 155.695312 195.691406 C 146.386719 181.601562 140.648438 166.515625 137.996094 149.160156 C 137.0625 143.050781 136.707031 129.042969 137.316406 122.335938 C 139.308594 100.367188 147.417969 78.695312 160.605469 60.121094 C 165.511719 53.207031 169.074219 49.027344 175.832031 42.269531 C 187.535156 30.5625 198.644531 22.542969 213.347656 15.1875 C 228.703125 7.503906 244.332031 2.917969 262.265625 0.835938 C 269.339844 0.015625 284.167969 0.015625 291.242188 0.835938 C 303.515625 2.261719 314.238281 4.898438 324.988281 9.128906 C 365.625 25.117188 393.566406 60.917969 398.234375 102.972656 C 399.652344 115.714844 399.089844 128.023438 396.535156 140.300781 C 388.933594 176.738281 365.085938 209.175781 331.195312 229.148438 L 329.65625 230.054688 L 330.640625 232.003906 C 331.609375 233.925781 331.625 234.058594 331.632812 239.621094 C 331.636719 242.738281 331.757812 245.472656 331.90625 245.707031 C 332.304688 246.328125 335.152344 244.476562 348.503906 234.902344 C 361.195312 225.804688 365.175781 222.855469 370.316406 218.730469 C 382.816406 208.703125 399.101562 193.917969 405.878906 186.445312 L 409.707031 182.222656 L 409.847656 177.621094 C 410.007812 172.253906 411.464844 158.074219 412.207031 154.613281 C 413.785156 147.289062 417.410156 141.226562 421.367188 139.304688 C 423.34375 138.34375 426.355469 137.871094 428.242188 138.222656 C 429.824219 138.519531 431.785156 140.25 432.582031 142.054688 C 432.929688 142.832031 433.308594 144.410156 433.425781 145.554688 C 433.546875 146.707031 433.753906 147.710938 433.886719 147.792969 C 434.019531 147.875 435.414062 146.773438 436.988281 145.347656 C 444.269531 138.742188 450.050781 135.585938 453.769531 136.183594 C 457.253906 136.738281 460.914062 139.347656 464.863281 144.089844 C 469.847656 150.070312 473.097656 156.53125 473.359375 160.972656 C 473.9375 170.957031 463 184.570312 444.574219 196.808594 C 442.726562 198.035156 440.679688 199.171875 440.03125 199.339844 L 438.851562 199.644531 L 438.125 204.566406 C 437.007812 212.152344 436.101562 215.882812 433.195312 224.878906 C 429.84375 235.246094 428.699219 238.128906 425.277344 244.875 C 421.792969 251.738281 419.191406 255.917969 412.890625 264.761719 C 406.910156 273.160156 403.03125 278.046875 394.746094 287.632812 C 384.664062 299.304688 377.488281 306.125 368.566406 312.515625 C 364.921875 315.125 363.289062 316.039062 357.527344 318.675781 C 353.761719 320.402344 353.957031 319.917969 354.929688 325.230469 C 357.636719 339.957031 359.171875 369.28125 358.546875 394.253906 C 357.746094 426.394531 356.527344 444.574219 354.125 460.382812 C 353.578125 463.945312 352.734375 469.6875 352.246094 473.144531 C 351.167969 480.792969 349.882812 487.039062 347.425781 496.6875 C 344.804688 506.953125 344.347656 508.394531 343.378906 509.441406 C 342.910156 509.945312 342.273438 510.851562 341.96875 511.453125 C 341.660156 512.050781 340.964844 513.191406 340.417969 513.984375 C 339.652344 515.109375 339.503906 515.570312 339.769531 516.066406 C 340.550781 517.519531 341.527344 524.886719 341.542969 529.414062 C 341.566406 535.019531 341.113281 537.988281 339.792969 540.898438 C 337.421875 546.125 333.640625 550.066406 328.761719 552.402344 C 323.023438 555.148438 318.96875 555.660156 307.925781 555.023438 C 300.640625 554.601562 298.273438 554.121094 294.15625 552.210938 C 287.859375 549.296875 284.28125 545.339844 274.296875 530.265625 C 271.933594 526.703125 269.679688 523.496094 269.277344 523.140625 C 268.515625 522.457031 268.28125 520.617188 268.878906 520.019531 C 269.089844 519.808594 268.910156 518.875 268.382812 517.410156 C 267.925781 516.15625 267.089844 512.632812 266.523438 509.574219 C 265.953125 506.519531 265.039062 501.84375 264.492188 499.1875 C 263.941406 496.53125 263.242188 491.929688 262.933594 488.960938 C 262.628906 485.996094 262.265625 482.878906 262.132812 482.03125 L 261.878906 480.5 L 261.171875 483.226562 C 257.296875 498.160156 252.160156 514.816406 250.136719 519.015625 C 248.605469 522.195312 246.492188 525.199219 244.835938 526.558594 C 243.808594 527.398438 243.328125 528.054688 243.328125 528.617188 C 243.328125 529.78125 241.363281 534.71875 239.144531 539.144531 C 231.515625 554.351562 221.65625 561.375 207.132812 561.941406 C 205.207031 562.007812 203.089844 562.007812 202.433594 561.925781 Z M 211.742188 555.679688 C 215.617188 555.007812 219.53125 553.414062 222.746094 551.203125 C 226.8125 548.410156 230.78125 543.074219 234.535156 535.367188 C 235.863281 532.636719 236.894531 530.355469 236.824219 530.289062 C 236.75 530.226562 235.464844 530.417969 233.964844 530.714844 C 231.777344 531.144531 228.738281 531.257812 218.625 531.261719 C 206.3125 531.273438 205.886719 531.246094 200.773438 530.328125 C 197.894531 529.808594 195.386719 529.351562 195.199219 529.308594 C 194.617188 529.1875 190.910156 534.867188 188.804688 539.125 C 183.8125 549.191406 184.890625 552.550781 193.78125 554.664062 C 200.960938 556.367188 206.066406 556.65625 211.742188 555.679688 Z M 321.875 548.851562 C 325.652344 547.882812 328.894531 546.070312 331.101562 543.683594 C 335.65625 538.761719 336.851562 532.824219 335.324219 522.71875 L 334.957031 520.285156 L 332.867188 521.738281 C 328.785156 524.574219 325.554688 525.886719 319.742188 527.070312 C 316.574219 527.714844 315.046875 527.808594 307.597656 527.789062 C 298.464844 527.769531 294.484375 527.488281 284.621094 526.152344 C 281.171875 525.6875 278.296875 525.359375 278.230469 525.421875 C 278.167969 525.488281 279.722656 527.960938 281.6875 530.917969 C 292.707031 547.484375 295.875 549.304688 313.933594 549.472656 C 318.207031 549.511719 319.742188 549.390625 321.875 548.851562 Z M 234.101562 524.828125 C 240.328125 523.390625 242.203125 522.003906 244.667969 517.03125 C 247.734375 510.832031 255.539062 483.910156 258.023438 470.949219 C 259.316406 464.21875 259.878906 462.816406 261.511719 462.277344 C 262.472656 461.960938 262.945312 461.980469 263.90625 462.378906 C 266.003906 463.257812 266.175781 464.039062 267.71875 479.46875 C 269.019531 492.460938 269.066406 492.792969 270.769531 501.285156 C 271.410156 504.476562 272.257812 508.769531 272.652344 510.832031 C 273.46875 515.089844 274.585938 517.847656 275.820312 518.652344 C 276.796875 519.289062 278.261719 519.5625 287.066406 520.71875 C 300.773438 522.519531 313.230469 522.65625 320.09375 521.085938 C 325.652344 519.808594 329.105469 517.898438 332.863281 514.011719 C 334.691406 512.117188 337.761719 507.929688 337.761719 507.328125 C 337.761719 507.210938 338.136719 506.570312 338.59375 505.90625 C 339.167969 505.066406 340.152344 501.820312 341.804688 495.320312 C 344.75 483.703125 345.328125 480.894531 346.609375 471.9375 C 347.167969 468.019531 348.011719 462.355469 348.476562 459.355469 C 350.675781 445.289062 352.023438 425.347656 352.792969 395.777344 C 353.476562 369.1875 351.941406 339.589844 349.144531 325.558594 C 348.011719 319.871094 345.035156 308.371094 344.21875 306.507812 C 343.03125 303.816406 343.628906 301.914062 345.800781 301.496094 C 346.625 301.335938 347.082031 301.492188 347.96875 302.238281 C 349.390625 303.4375 350.136719 305.191406 351.445312 310.410156 L 352.488281 314.578125 L 354.757812 313.558594 C 360.625 310.925781 362.8125 309.65625 367.171875 306.378906 C 375.875 299.839844 381.53125 294.257812 392.824219 281.066406 C 399.449219 273.332031 401.824219 270.328125 406.949219 263.171875 C 418.4375 247.140625 422.019531 240.371094 426.972656 225.335938 C 430.3125 215.195312 431.1875 211.796875 432.351562 204.371094 C 433.5625 196.652344 433.605469 196.992188 431.1875 195.210938 C 430.078125 194.394531 427.585938 192.761719 425.648438 191.585938 C 423.710938 190.40625 420.527344 188.457031 418.570312 187.253906 L 415.011719 185.0625 L 411.273438 189.089844 C 400.734375 200.453125 380.402344 218.582031 366.566406 228.953125 C 359.078125 234.5625 339.503906 248.371094 336.375 250.253906 C 334.417969 251.429688 332.34375 252.742188 331.761719 253.179688 C 331.179688 253.617188 330.542969 253.972656 330.34375 253.972656 C 330.144531 253.972656 329.429688 254.722656 328.757812 255.640625 C 325.882812 259.550781 317.984375 264.722656 312.109375 266.535156 C 308.421875 267.675781 299.289062 269.542969 291.914062 270.671875 C 278.488281 272.722656 277.503906 272.796875 252.371094 273.75 C 239.910156 274.222656 236.015625 273.84375 227.378906 271.328125 C 217.800781 268.539062 213.703125 266.359375 211.589844 262.929688 L 210.84375 261.730469 L 208.765625 261.941406 C 206.148438 262.210938 203.886719 263.3125 198 267.1875 C 190.972656 271.8125 186.441406 275.722656 175.808594 286.339844 C 162.542969 299.582031 157.183594 305.792969 148.425781 318.058594 C 142.007812 327.039062 139.550781 330.78125 135.988281 336.976562 C 129.378906 348.472656 125.679688 356.566406 122.113281 367.34375 C 119.652344 374.78125 116.195312 387.839844 116.1875 389.707031 C 116.183594 393.277344 119.617188 397.082031 128.117188 402.914062 C 132.378906 405.835938 139.363281 409.753906 140.316406 409.753906 C 141.621094 409.753906 144.941406 407.808594 147.8125 405.359375 C 151.214844 402.460938 158.9375 394.671875 161.875 391.179688 C 166.542969 385.625 179.457031 366.707031 181.886719 361.863281 C 182.261719 361.113281 182.886719 359.117188 183.273438 357.433594 C 184.371094 352.644531 186.984375 343.804688 187.734375 342.332031 C 188.664062 340.511719 190.109375 339.90625 191.707031 340.667969 C 193.082031 341.320312 193.496094 342.527344 192.960938 344.289062 C 190.65625 351.8125 189.070312 357.773438 188.96875 359.308594 C 188.898438 360.339844 188.535156 361.871094 188.160156 362.714844 C 187.035156 365.257812 183.742188 382.90625 181.835938 396.632812 C 179.25 415.253906 179.058594 425.191406 180.796875 450.488281 C 182.417969 474.039062 185.097656 489.605469 190.21875 505.199219 C 193.082031 513.914062 196.414062 521.902344 197.191406 521.902344 C 197.457031 521.902344 197.980469 522.421875 198.355469 523.054688 C 199.019531 524.179688 199.113281 524.214844 202.859375 524.785156 C 204.964844 525.101562 206.917969 525.421875 207.199219 525.484375 C 207.480469 525.550781 213.078125 525.558594 219.640625 525.507812 C 229.441406 525.429688 232.03125 525.304688 234.101562 524.828125 Z M 136.246094 433.25 C 139.148438 431.820312 141.226562 429.78125 141.785156 427.828125 C 142.273438 426.089844 142.40625 419.597656 141.996094 417.214844 L 141.726562 415.632812 L 139.738281 415.492188 C 138.078125 415.371094 137.109375 414.992188 133.875 413.195312 C 124.742188 408.128906 116.109375 401.625 113.300781 397.6875 L 111.703125 395.449219 L 108.167969 397.855469 C 104.160156 400.585938 99.492188 404.550781 97.664062 406.777344 C 95.515625 409.398438 94.90625 411.191406 94.894531 414.878906 C 94.890625 417.878906 94.972656 418.304688 96.019531 420.425781 C 97.492188 423.410156 100.375 426.515625 102.757812 427.683594 C 104.4375 428.507812 104.886719 428.578125 107.589844 428.4375 C 111.292969 428.25 112.777344 427.546875 117.542969 423.710938 C 121.429688 420.585938 122.53125 420.113281 124.253906 420.835938 C 125.714844 421.445312 126.125 422.410156 127.078125 427.433594 C 128.007812 432.328125 128.597656 433.820312 129.769531 434.273438 C 131.203125 434.835938 133.894531 434.40625 136.246094 433.25 Z M 253.222656 428.292969 C 241.09375 427.683594 226.492188 425.035156 220.648438 422.386719 C 215.300781 419.964844 213.53125 417.835938 213.167969 413.402344 C 212.949219 410.699219 213.648438 345.84375 214.003906 336.238281 C 214.015625 336.019531 214.414062 335.367188 214.902344 334.789062 C 216.03125 333.445312 217.664062 333.359375 218.972656 334.578125 C 220.570312 336.058594 225.460938 336.707031 237.367188 337.019531 C 247.003906 337.277344 254.675781 336.824219 261.257812 335.605469 C 272.390625 333.546875 293.5 327.351562 302.320312 323.542969 C 308.460938 320.894531 309.757812 321.777344 310.296875 328.96875 C 310.417969 330.5625 310.808594 334.167969 311.167969 336.980469 C 312.882812 350.386719 313.59375 364.558594 313.664062 386.808594 C 313.734375 409.453125 313.476562 411.636719 310.601562 413 C 309.613281 413.46875 309.355469 413.472656 308.285156 413.027344 C 307.160156 412.554688 307.058594 412.566406 306.71875 413.203125 C 306.050781 414.453125 300.84375 417.980469 296.695312 419.992188 C 292.085938 422.230469 285.5 424.585938 280.152344 425.90625 C 273.0625 427.660156 261.316406 428.699219 253.222656 428.292969 Z M 270.4375 421.84375 C 283.425781 420.15625 298.542969 414.140625 302.652344 409.023438 C 303.644531 407.792969 303.882812 407.664062 304.996094 407.796875 C 305.675781 407.878906 306.488281 408.058594 306.800781 408.195312 C 307.78125 408.628906 307.9375 405.5 307.910156 386.066406 C 307.878906 364.226562 307.367188 353.859375 305.53125 338.003906 C 304.445312 328.621094 304.496094 328.871094 303.742188 329.273438 C 302.539062 329.917969 288.6875 334.503906 283.050781 336.125 C 273.039062 339 264.214844 341.089844 258.507812 341.929688 C 251.164062 343.011719 230.066406 342.941406 222.640625 341.8125 L 219.839844 341.386719 L 219.667969 342.765625 C 219.574219 343.523438 219.40625 348.910156 219.289062 354.734375 L 219.074219 365.328125 L 230.097656 365.933594 C 239.535156 366.453125 242.152344 366.480469 248.28125 366.140625 C 255.753906 365.722656 272.253906 365.757812 272.523438 366.191406 C 273.027344 367.003906 267.464844 368.527344 262.257812 369.003906 C 261.132812 369.105469 256.914062 369.515625 252.882812 369.914062 C 247.128906 370.484375 244.199219 370.601562 239.246094 370.460938 C 233.539062 370.300781 224.90625 369.367188 220.878906 368.476562 C 220.058594 368.296875 219.324219 368.210938 219.25 368.285156 C 219.175781 368.359375 219.019531 375.480469 218.902344 384.113281 L 218.683594 399.804688 L 221.554688 399.636719 C 223.175781 399.539062 227.96875 399.777344 232.585938 400.183594 C 243.457031 401.132812 247.246094 401.101562 254.03125 400.015625 C 257.105469 399.523438 260.960938 399.132812 262.769531 399.128906 C 265.957031 399.121094 268.898438 399.714844 269.019531 400.386719 C 269.152344 401.148438 254.117188 405.035156 248.671875 405.648438 C 244.898438 406.070312 239.292969 405.671875 229.757812 404.300781 C 225.886719 403.746094 221.835938 403.289062 220.757812 403.285156 L 218.800781 403.28125 L 218.800781 408.375 C 218.800781 411.171875 218.9375 413.832031 219.113281 414.285156 C 219.824219 416.164062 223.769531 417.847656 231.628906 419.621094 C 239.304688 421.351562 241.648438 421.675781 252.71875 422.507812 C 256.21875 422.773438 266.160156 422.402344 270.4375 421.84375 Z M 285.59375 401.394531 C 285.273438 401.003906 285.257812 400.765625 285.539062 400.484375 C 286 400.023438 292.109375 399.019531 297.519531 398.519531 C 299.683594 398.320312 302.109375 398.085938 302.90625 397.996094 C 304.558594 397.820312 304.695312 398.070312 303.542969 399.152344 C 302.433594 400.195312 300.195312 400.8125 295.347656 401.414062 C 289.863281 402.09375 286.167969 402.085938 285.59375 401.394531 Z M 287.054688 365.90625 C 286.636719 365.816406 286.289062 365.601562 286.289062 365.4375 C 286.289062 365.089844 287.476562 364.878906 291.058594 364.589844 C 293.746094 364.375 299.417969 363.082031 301.507812 362.207031 C 302.96875 361.597656 302.992188 361.597656 302.992188 362.058594 C 302.992188 362.585938 299.070312 364.277344 295.96875 365.089844 C 293.308594 365.785156 288.566406 366.226562 287.054688 365.90625 Z M 254.585938 267.953125 C 273.53125 267.246094 277.414062 266.960938 287.199219 265.542969 C 296.734375 264.160156 301.960938 263.179688 308.273438 261.597656 C 315.890625 259.691406 324.402344 253.734375 325.742188 249.375 C 325.957031 248.664062 326.023438 245.664062 325.914062 241.472656 C 325.753906 235.539062 325.65625 234.605469 325.082031 233.785156 L 324.425781 232.851562 L 321.996094 234.074219 C 319.914062 235.125 319.320312 235.277344 317.867188 235.136719 C 316.339844 234.992188 316.023438 235.089844 314.640625 236.144531 C 313.800781 236.785156 312.539062 237.605469 311.835938 237.960938 C 305.597656 241.140625 288.039062 246.296875 278.484375 247.746094 C 275.140625 248.253906 272.265625 248.34375 260.035156 248.320312 C 233.675781 248.265625 225.003906 246.910156 220.867188 242.199219 C 219.613281 240.769531 219.410156 240.84375 217.800781 243.351562 C 216.339844 245.628906 215.679688 248.457031 215.941406 251.296875 C 216.078125 252.765625 216 254.167969 215.730469 255.140625 C 215.492188 255.984375 215.398438 257.195312 215.515625 257.828125 C 215.816406 259.449219 217.714844 261.511719 219.859375 262.558594 C 223.742188 264.453125 233.628906 267.308594 238.390625 267.90625 C 241.808594 268.339844 244.050781 268.339844 254.585938 267.953125 Z M 274.355469 242.367188 C 279.652344 241.882812 285.1875 240.734375 292.9375 238.507812 C 307.367188 234.355469 312.332031 231.902344 314.925781 227.648438 C 316.171875 225.601562 315.792969 224.675781 313.441406 224.035156 C 312.175781 223.691406 312.136719 223.707031 312.347656 224.425781 C 313.242188 227.417969 312.835938 229.144531 311.113281 229.746094 C 308.960938 230.496094 307.855469 229.371094 306.46875 225.003906 C 305.054688 220.550781 304.566406 216.808594 304.792969 212.1875 L 304.980469 208.351562 L 301.6875 210.847656 C 281.324219 226.273438 256.609375 229.800781 234.6875 220.414062 L 233.363281 219.84375 L 233.589844 220.636719 C 233.71875 221.070312 233.90625 223.726562 234.011719 226.539062 C 234.230469 232.382812 233.578125 237.96875 232.449219 239.882812 C 232.082031 240.503906 231.890625 241.078125 232.027344 241.160156 C 233.894531 242.3125 265.164062 243.207031 274.355469 242.367188 Z M 227.597656 236.925781 C 227.835938 235.417969 227.9375 234.046875 227.835938 233.878906 C 227.71875 233.691406 227.246094 233.703125 226.660156 233.910156 C 224.261719 234.742188 223.730469 237.058594 225.558594 238.691406 C 226.15625 239.226562 226.761719 239.660156 226.90625 239.660156 C 227.050781 239.660156 227.355469 238.445312 227.597656 236.925781 Z M 219.492188 232.527344 C 222.542969 229.195312 224.445312 228.070312 227.007812 228.070312 L 228.441406 228.070312 L 228.210938 224.769531 C 228.085938 222.953125 227.8125 220.800781 227.609375 219.992188 C 227.40625 219.183594 227.316406 218.097656 227.421875 217.585938 C 227.585938 216.734375 227.375 216.5 225.054688 214.945312 C 214.835938 208.117188 205.636719 196.097656 201.054688 183.585938 C 200.4375 181.898438 199.898438 180.472656 199.855469 180.414062 C 199.816406 180.355469 198.769531 180.160156 197.53125 179.988281 C 188.394531 178.695312 181.050781 174.042969 179.378906 168.488281 C 178.410156 165.261719 179.023438 160.644531 180.941406 156.777344 C 182.183594 154.269531 183.574219 152.574219 185.917969 150.707031 L 187.824219 149.191406 L 187.597656 139.96875 L 187.367188 130.75 L 186.054688 129.625 C 183.894531 127.777344 180.578125 123.410156 179.402344 120.863281 C 178.796875 119.550781 177.882812 116.945312 177.371094 115.070312 C 176.863281 113.195312 175.773438 110.085938 174.949219 108.15625 C 172.738281 102.980469 173.222656 102.054688 178.769531 100.882812 C 180.632812 100.484375 183.105469 99.820312 184.265625 99.398438 C 190.050781 97.300781 195.644531 92.695312 199.203125 87.113281 C 200.277344 85.425781 201.4375 83.734375 201.789062 83.351562 C 202.183594 82.917969 202.550781 81.710938 202.777344 80.113281 C 203.328125 76.179688 204.375 72.769531 206.179688 69.046875 C 208.589844 64.058594 210.914062 60.71875 214.640625 56.875 C 222.417969 48.851562 231.070312 44.335938 238.65625 44.335938 C 242.199219 44.335938 247.542969 45.445312 251.109375 46.921875 L 253.964844 48.101562 L 258.480469 45.089844 C 267.542969 39.042969 276.578125 36.371094 284.082031 37.511719 C 290.796875 38.539062 295.355469 40.441406 303 45.417969 C 324.160156 59.199219 329.746094 63.484375 333.316406 68.671875 C 336.117188 72.75 340.945312 83.246094 343.34375 90.480469 C 344.796875 94.867188 346.480469 102.011719 348.210938 111.144531 C 349.351562 117.1875 349.464844 118.324219 349.464844 123.589844 C 349.457031 129.664062 349.023438 133.972656 348.117188 136.953125 L 347.574219 138.726562 L 349.03125 140.359375 C 349.832031 141.257812 350.988281 143.066406 351.597656 144.378906 C 354.78125 151.214844 353.769531 157.371094 348.59375 162.703125 C 345.03125 166.375 340.503906 168.113281 333.515625 168.507812 L 330.789062 168.660156 L 329.164062 173.035156 C 325.339844 183.339844 319.992188 192.414062 313.214844 200.105469 L 310.824219 202.820312 L 310.75 210.808594 C 310.707031 215.203125 310.765625 218.890625 310.875 219 C 310.988281 219.113281 311.566406 218.960938 312.167969 218.660156 C 313.101562 218.199219 313.515625 218.179688 315.035156 218.535156 C 317.414062 219.09375 317.582031 219.199219 319.726562 221.421875 C 320.746094 222.480469 322.195312 223.65625 322.945312 224.039062 C 323.699219 224.421875 324.566406 224.957031 324.875 225.230469 C 325.558594 225.828125 325.980469 225.640625 331.296875 222.332031 C 355.925781 207.003906 374.699219 184.847656 384.921875 159.027344 C 389.375 147.789062 392.027344 136.257812 392.992188 123.957031 C 394.332031 106.933594 391.234375 88.710938 384.292969 72.734375 C 372.957031 46.636719 350.929688 25.617188 323.457031 14.671875 C 298.351562 4.6875 270.128906 3.128906 242.824219 10.238281 C 198.90625 21.667969 163.328125 53.765625 149.105469 94.78125 C 144.632812 107.671875 142.632812 119.730469 142.6875 133.472656 C 142.75 150.816406 146.5 166.484375 154.226562 181.707031 C 166.238281 205.371094 186.105469 223.414062 211.804688 234 C 213.867188 234.847656 215.8125 235.546875 216.128906 235.554688 C 216.441406 235.566406 217.945312 234.207031 219.492188 232.527344 Z M 270.4375 218.867188 C 283.875 216.230469 296.207031 209.378906 306.425781 198.875 C 317.28125 187.722656 324.328125 173.753906 327.382812 157.335938 C 328.039062 153.816406 328.511719 138.574219 327.980469 138.042969 C 327.804688 137.867188 325.90625 137.570312 323.761719 137.382812 C 318.386719 136.910156 315.453125 136.21875 312.300781 134.695312 C 309.121094 133.15625 304.632812 130.398438 301.863281 128.273438 C 300.773438 127.4375 299.839844 126.808594 299.785156 126.875 C 299.734375 126.945312 299.214844 127.703125 298.632812 128.566406 C 297.175781 130.726562 294.140625 133.421875 291.996094 134.46875 C 288.28125 136.277344 285.277344 136.824219 278.957031 136.847656 C 273.851562 136.863281 272.714844 136.761719 269.414062 135.976562 C 255.273438 132.613281 242.109375 124.328125 237.398438 115.828125 C 236.488281 114.183594 235.617188 112.757812 235.464844 112.664062 C 235.1875 112.492188 232.03125 114.996094 224.417969 121.40625 C 219.617188 125.449219 209.3125 133.167969 206.773438 134.621094 C 205.25 135.492188 204.820312 135.921875 204.820312 136.554688 C 204.820312 137.003906 204.523438 138.640625 204.160156 140.195312 C 202.324219 148.082031 201.699219 159.566406 202.726562 166.542969 C 204.921875 181.441406 210.5 193.335938 219.808594 202.972656 C 228.921875 212.402344 240.300781 217.980469 253.90625 219.679688 C 256.988281 220.0625 266.742188 219.585938 270.4375 218.867188 Z M 259.957031 195.5625 C 257.121094 194.503906 254.632812 191.777344 253.734375 188.75 C 253.453125 187.808594 253.226562 185.867188 253.226562 184.433594 C 253.226562 182.152344 253.324219 181.738281 254.015625 181.089844 C 255.085938 180.082031 256.96875 180.09375 257.894531 181.113281 C 258.402344 181.671875 258.652344 182.558594 258.8125 184.378906 C 259.054688 187.164062 259.59375 188.46875 260.933594 189.519531 C 262.070312 190.417969 263.640625 190.429688 265.074219 189.550781 C 267.078125 188.332031 267.652344 186.785156 268.417969 180.5625 C 268.789062 177.542969 271.316406 176.246094 273.1875 178.117188 C 273.882812 178.816406 274.023438 179.285156 274.019531 180.929688 C 274.007812 189.828125 269.980469 195.542969 263.457031 195.914062 C 262.085938 195.992188 260.742188 195.855469 259.957031 195.5625 Z M 446.332031 188.5625 C 455.101562 182.363281 462.289062 174.765625 465.671875 168.128906 C 467.371094 164.78125 467.464844 164.464844 467.464844 161.992188 C 467.464844 159.621094 467.332031 159.101562 466.023438 156.375 C 462.558594 149.167969 455.835938 141.828125 452.695312 141.828125 C 451.511719 141.828125 447.394531 144.152344 444.59375 146.394531 C 441.699219 148.714844 436.046875 154.175781 433.695312 156.917969 C 432.535156 158.273438 432.125 158.53125 431.113281 158.53125 C 430.265625 158.53125 429.675781 158.273438 429.089844 157.652344 C 428.308594 156.820312 428.253906 156.480469 428.050781 151.261719 C 427.804688 145.03125 427.519531 143.871094 426.214844 143.871094 C 423.71875 143.871094 421.902344 145.585938 419.839844 149.867188 C 418.101562 153.484375 417.398438 157.070312 416.34375 167.734375 C 415.183594 179.417969 415.132812 178.621094 417.097656 179.699219 C 420.910156 181.785156 432.378906 188.957031 435.121094 190.972656 L 438.105469 193.164062 L 439.660156 192.667969 C 440.515625 192.402344 443.503906 190.5625 446.332031 188.5625 Z M 197.59375 170.714844 C 196.914062 166.929688 196.28125 157.792969 196.550781 155.695312 C 196.753906 154.117188 195.679688 152.738281 194.253906 152.738281 C 192.878906 152.738281 189.136719 155.164062 187.566406 157.078125 C 185.066406 160.117188 184.007812 164.972656 185.269531 167.625 C 185.835938 168.820312 188.273438 170.867188 190.5 172.023438 C 191.648438 172.621094 196.585938 174.097656 197.683594 174.175781 C 198.164062 174.207031 198.15625 173.851562 197.59375 170.714844 Z M 235.859375 170.730469 C 234.40625 169.964844 233.679688 168.246094 233.519531 165.1875 C 233.394531 162.84375 233.484375 162.1875 234.097656 160.992188 C 234.929688 159.363281 235.667969 158.875 237.292969 158.875 C 239.578125 158.875 240.589844 161.128906 240.605469 166.265625 C 240.609375 168.683594 240.507812 169.179688 239.84375 169.945312 C 238.941406 170.980469 237.074219 171.351562 235.859375 170.730469 Z M 283.140625 169.125 C 282.074219 168.171875 282.023438 168.007812 281.910156 165.277344 C 281.703125 160.226562 283.097656 157.507812 285.894531 157.507812 C 287.734375 157.507812 288.269531 157.761719 288.859375 158.894531 C 289.457031 160.058594 289.515625 163.886719 288.972656 166.421875 C 288.21875 169.945312 285.5 171.214844 283.140625 169.125 Z M 337.761719 162.214844 C 341.824219 161.441406 345.210938 158.84375 346.859375 155.246094 C 348.054688 152.632812 347.855469 149.886719 346.234375 146.664062 C 344.261719 142.730469 341.269531 141.511719 336.226562 142.585938 L 334.179688 143.019531 L 333.960938 148.304688 C 333.835938 151.210938 333.414062 155.546875 333.023438 157.941406 C 332.628906 160.335938 332.308594 162.449219 332.308594 162.640625 C 332.308594 163.007812 334.476562 162.835938 337.761719 162.214844 Z M 197.136719 146.515625 C 197.234375 146.09375 197.542969 144.367188 197.824219 142.679688 C 198.105469 140.992188 198.492188 139.078125 198.679688 138.421875 C 199.292969 136.292969 199.246094 136.242188 196.125 135.503906 L 193.226562 134.820312 L 193.226562 137.25 C 193.226562 138.582031 193.324219 141.300781 193.449219 143.292969 L 193.671875 146.90625 L 194.898438 147.035156 C 195.574219 147.109375 196.3125 147.195312 196.542969 147.226562 C 196.777344 147.257812 197.042969 146.933594 197.136719 146.515625 Z M 339.902344 136.542969 L 342.21875 136.542969 L 342.703125 134.910156 C 343.417969 132.503906 344.011719 125.085938 343.785156 121.371094 C 343.40625 115.140625 340.089844 98.933594 337.785156 92.058594 C 335.4375 85.0625 331.5 76.476562 328.710938 72.285156 C 325.429688 67.347656 322.167969 64.863281 298.902344 49.613281 C 294.875 46.972656 292.34375 45.699219 288.84375 44.570312 C 282.160156 42.402344 277.9375 42.476562 271.28125 44.867188 C 267.632812 46.175781 265.292969 47.421875 261.085938 50.28125 C 254.898438 54.496094 254.554688 54.570312 250.003906 52.683594 C 241.703125 49.246094 235.910156 49.308594 229.019531 52.890625 C 217.65625 58.796875 209.296875 70.929688 208.25 83.027344 C 207.796875 88.246094 207.292969 90.984375 206.59375 92.058594 C 206.285156 92.53125 206.007812 93.714844 205.972656 94.6875 C 205.855469 98.117188 202.390625 103.644531 200.03125 104.164062 C 198.324219 104.535156 198.300781 104.039062 199.933594 101.84375 C 201.578125 99.628906 203.207031 96.394531 203.605469 94.558594 C 203.800781 93.65625 203.722656 93.445312 203.125 93.253906 C 202.550781 93.074219 201.878906 93.574219 199.613281 95.902344 C 196.449219 99.140625 194.101562 100.972656 190.773438 102.789062 C 188.5 104.03125 183.125 106.03125 182.039062 106.042969 C 180.78125 106.054688 180.53125 106.53125 181.089844 107.871094 C 181.375 108.558594 182.167969 110.996094 182.84375 113.289062 C 184.53125 118.992188 185.644531 120.941406 189.355469 124.699219 C 192.921875 128.308594 195.242188 129.617188 199.261719 130.273438 C 201.625 130.660156 201.78125 130.640625 203.519531 129.785156 C 205.832031 128.640625 215.589844 121.328125 222.097656 115.871094 C 232.578125 107.078125 234.433594 105.695312 235.796875 105.699219 C 237.851562 105.703125 238.789062 106.78125 243.015625 113.96875 C 244.652344 116.761719 247.027344 119.019531 251.355469 121.910156 C 259.945312 127.640625 270.558594 131.261719 278.792969 131.261719 C 287.441406 131.261719 292.050781 129.007812 295.050781 123.324219 C 296.53125 120.515625 297.832031 119.332031 299.445312 119.332031 C 300.433594 119.332031 301.042969 119.726562 303.316406 121.851562 C 307.109375 125.398438 313.992188 129.605469 317.859375 130.742188 C 319.664062 131.273438 326.796875 132.019531 327.265625 131.730469 C 327.414062 131.636719 327.535156 131.363281 327.535156 131.125 C 327.535156 130.3125 328.902344 129.421875 330.152344 129.421875 C 332.042969 129.421875 332.820312 130.582031 333.328125 134.152344 L 333.746094 137.097656 L 335.667969 136.820312 C 336.722656 136.667969 338.609375 136.542969 339.902344 136.542969 Z M 378.03125 125.082031 C 377.929688 118.039062 377.988281 116.546875 378.363281 116.671875 C 379.171875 116.9375 379.726562 120.691406 379.785156 126.34375 C 379.832031 131.054688 379.757812 131.957031 379.246094 132.738281 C 378.917969 133.238281 378.539062 133.644531 378.402344 133.644531 C 378.269531 133.644531 378.101562 129.804688 378.03125 125.082031 Z M 376.660156 106.800781 C 376.480469 106.097656 376.074219 104.21875 375.765625 102.625 C 375.457031 101.03125 374.894531 98.5 374.519531 97 C 374.140625 95.503906 373.238281 91.519531 372.507812 88.152344 C 370.769531 80.128906 369.808594 77.203125 367.226562 72.09375 C 366.050781 69.765625 365.230469 67.773438 365.402344 67.667969 C 366.59375 66.929688 369.296875 70.277344 372.035156 75.867188 C 375.675781 83.304688 378.40625 97.035156 377.816406 104.925781 C 377.6875 106.660156 377.449219 108.078125 377.285156 108.078125 C 377.125 108.082031 376.847656 107.519531 376.660156 106.800781 Z M 331.042969 106.632812 C 329.082031 104.496094 323.945312 94.664062 323.566406 92.328125 C 323.375 91.167969 324.160156 89.78125 324.785156 90.171875 C 325.1875 90.417969 329.085938 97.425781 330.109375 99.734375 C 330.886719 101.496094 332.304688 106.257812 332.304688 107.113281 C 332.308594 107.625 331.761719 107.417969 331.042969 106.632812 Z M 312.410156 79.144531 C 310.398438 75.65625 308.246094 73.519531 304.28125 71.066406 C 302.542969 69.992188 299.523438 68.042969 297.574219 66.734375 C 293.226562 63.824219 291.589844 63.082031 288.742188 62.726562 C 287.527344 62.574219 286.417969 62.261719 286.269531 62.03125 C 285.492188 60.769531 287.304688 60.164062 291.0625 60.433594 C 293.855469 60.632812 295.804688 61.546875 302.9375 65.996094 C 308.613281 69.539062 311.328125 71.851562 312.644531 74.277344 C 313.675781 76.171875 314.785156 81.085938 314.292969 81.578125 C 314.117188 81.753906 313.335938 80.75 312.410156 79.144531 Z M 312.410156 79.144531 " fill-opacity="1" fill-rule="evenodd"/></g></svg>