<svg xmlns="http://www.w3.org/2000/svg" xmlns:xlink="http://www.w3.org/1999/xlink" width="750" zoomAndPan="magnify" viewBox="0 0 562.5 562.499982" height="750" preserveAspectRatio="xMidYMid meet" version="1.0"><defs><clipPath id="3b225a36f1"><path d="M 22.480469 125 L 236 125 L 236 430 L 22.480469 430 Z M 22.480469 125 " clip-rule="nonzero"/></clipPath></defs><path fill="#000000" d="M 170.855469 105.085938 C 168.808594 105.085938 167.695312 105.566406 167.550781 105.933594 C 167.535156 105.945312 167.125 107.058594 169.800781 110.320312 C 175.050781 116.679688 181.78125 122.664062 189.78125 128.089844 C 201.992188 136.382812 215.328125 142.800781 229.425781 147.175781 C 233.476562 148.433594 237.074219 148.386719 237.792969 147.085938 C 238.421875 145.945312 237.296875 143.371094 234.925781 140.503906 C 219.628906 122.046875 197.28125 109.222656 173.617188 105.332031 C 172.566406 105.15625 171.644531 105.085938 170.855469 105.085938 Z M 234.648438 157.441406 C 232.207031 157.441406 229.53125 157.003906 226.664062 156.109375 C 211.671875 151.472656 197.5 144.644531 184.515625 135.824219 C 175.785156 129.902344 168.414062 123.320312 162.578125 116.273438 C 158.410156 111.210938 157.164062 106.515625 158.890625 102.347656 C 161.085938 97.039062 167.023438 94.757812 175.15625 96.105469 C 200.996094 100.359375 225.421875 114.371094 242.136719 134.539062 C 248.703125 142.480469 247.867188 148.183594 246.011719 151.578125 C 243.890625 155.4375 239.855469 157.441406 234.648438 157.441406 " fill-opacity="1" fill-rule="nonzero"/><path fill="#000000" d="M 233.230469 182.960938 C 232.335938 182.960938 231.445312 182.917969 230.554688 182.84375 C 209.640625 181.03125 190.128906 173.527344 174.144531 161.183594 C 172.097656 159.605469 171.71875 156.664062 173.296875 154.617188 C 174.890625 152.570312 177.816406 152.191406 179.863281 153.769531 C 194.429688 165.03125 212.242188 171.859375 231.371094 173.527344 C 239.253906 174.199219 247.09375 170.441406 251.730469 163.714844 C 259.394531 152.613281 257.683594 140.519531 246.683594 127.796875 C 224.164062 101.691406 202.898438 90.0625 170.871094 86.277344 C 158.527344 84.800781 149.632812 94.640625 144.355469 103.152344 C 140.214844 109.835938 141.152344 119.078125 146.652344 125.632812 C 150.175781 129.84375 154.136719 133.703125 158.394531 137.097656 C 160.414062 138.707031 160.75 141.644531 159.125 143.679688 C 157.515625 145.695312 154.578125 146.035156 152.558594 144.410156 C 147.804688 140.621094 143.402344 136.335938 139.46875 131.628906 C 131.292969 121.875 130.066406 108.449219 136.414062 98.210938 C 146.035156 82.722656 158.335938 75.382812 171.964844 76.988281 C 206.144531 81.011719 229.851562 93.96875 253.777344 121.683594 C 267.511719 137.582031 269.527344 154.398438 259.4375 169.023438 C 253.410156 177.785156 243.539062 182.960938 233.230469 182.960938 " fill-opacity="1" fill-rule="nonzero"/><g clip-path="url(#3b225a36f1)"><path fill="#000000" d="M 75.429688 429.683594 C 65.613281 429.683594 55.683594 426.890625 47.230469 421.316406 C 32.007812 411.238281 22.308594 392.460938 22.558594 373.492188 C 22.808594 354.949219 31.507812 338.144531 39.1875 323.316406 L 95.960938 213.4375 C 96.003906 213.335938 96.046875 213.25 96.09375 213.160156 L 140.171875 127.929688 C 141.355469 125.632812 144.195312 124.726562 146.476562 125.925781 C 148.785156 127.109375 149.679688 129.929688 148.492188 132.226562 L 104.53125 217.226562 C 104.5 217.316406 104.457031 217.386719 104.414062 217.492188 L 47.507812 327.601562 C 40.300781 341.523438 32.136719 357.289062 31.917969 373.625 C 31.714844 389.492188 39.757812 405.140625 52.394531 413.507812 C 65.378906 422.0625 83.324219 422.53125 96.019531 414.664062 C 108.320312 407.011719 115.558594 392.871094 121.949219 380.382812 C 140.304688 344.464844 158.671875 308.558594 177.042969 272.640625 L 196.652344 234.324219 C 196.695312 234.234375 196.742188 234.164062 196.785156 234.089844 C 197.605469 232.40625 198.480469 230.742188 199.34375 229.058594 C 199.386719 228.984375 199.417969 228.882812 199.460938 228.808594 C 208.457031 211.203125 217.433594 193.636719 226.457031 176.042969 C 227.628906 173.734375 230.449219 172.828125 232.746094 174.011719 C 235.058594 175.179688 235.964844 178.003906 234.78125 180.300781 C 225.816406 197.804688 216.878906 215.28125 207.941406 232.800781 C 207.886719 232.90625 207.839844 233.023438 207.78125 233.125 C 206.847656 234.910156 205.925781 236.707031 205.03125 238.492188 C 204.972656 238.625 204.914062 238.726562 204.84375 238.84375 L 185.378906 276.910156 C 167.007812 312.816406 148.640625 348.734375 130.285156 384.636719 C 123.675781 397.535156 115.46875 413.59375 100.949219 422.605469 C 93.34375 427.34375 84.421875 429.683594 75.429688 429.683594 " fill-opacity="1" fill-rule="nonzero"/></g><path fill="#000000" d="M 203.628906 235.640625 C 203.585938 235.640625 203.527344 235.640625 203.46875 235.640625 C 200.953125 235.550781 198.949219 233.503906 198.949219 230.988281 L 198.949219 230.929688 C 199.285156 226.324219 193.785156 221.90625 188.550781 219.1875 C 166.527344 207.839844 139.910156 204.386719 115.558594 209.726562 C 111.023438 210.734375 107.632812 212.285156 105.992188 214.113281 C 104.269531 216.042969 101.300781 216.203125 99.382812 214.476562 C 97.453125 212.753906 97.292969 209.796875 99.019531 207.867188 C 102.03125 204.503906 106.914062 202.046875 113.539062 200.585938 C 139.996094 194.777344 168.910156 198.535156 192.851562 210.878906 C 203.234375 216.261719 208.863281 223.691406 208.308594 231.28125 C 208.117188 233.722656 206.085938 235.640625 203.628906 235.640625 " fill-opacity="1" fill-rule="nonzero"/><path fill="#000000" d="M 170.136719 245.9375 C 150.277344 245.9375 130.445312 242.207031 111.960938 234.910156 C 108.332031 233.476562 104.210938 231.675781 100.890625 228.605469 C 96.707031 224.6875 94.746094 219.464844 95.625 214.609375 C 95.640625 214.550781 95.652344 214.492188 95.667969 214.417969 C 95.84375 213.496094 96.3125 212.621094 96.96875 211.949219 C 98.796875 210.121094 101.765625 210.121094 103.59375 211.949219 C 104.792969 213.160156 105.203125 214.871094 104.808594 216.40625 C 104.574219 218.046875 105.527344 220.121094 107.265625 221.746094 C 109.386719 223.707031 112.457031 225.035156 115.410156 226.222656 C 137.746094 235.027344 162.183594 238.316406 186.109375 235.714844 C 189.941406 235.316406 195.117188 234.761719 197.648438 232.992188 C 198.480469 232.203125 199.605469 231.71875 200.835938 231.71875 C 203.425781 231.71875 205.515625 233.8125 205.515625 236.398438 C 205.515625 237.890625 204.8125 239.238281 203.730469 240.101562 C 199.183594 243.742188 192.207031 244.488281 187.101562 245.027344 C 181.472656 245.644531 175.8125 245.9375 170.136719 245.9375 " fill-opacity="1" fill-rule="nonzero"/><path fill="#000000" d="M 142.890625 270.898438 C 141.5625 270.898438 140.214844 271.367188 139.308594 272.246094 C 137.671875 273.882812 137.453125 277.027344 138.871094 278.855469 C 140.273438 280.683594 143.375 281.285156 145.363281 280.128906 C 146.386719 279.527344 147.96875 277.714844 148.097656 275.726562 C 148.128906 275.214844 148.246094 273.679688 145.933594 271.867188 C 145.101562 271.222656 144.003906 270.898438 142.890625 270.898438 Z M 143.039062 290.074219 C 138.621094 290.074219 134.191406 288.128906 131.457031 284.558594 C 127.183594 279.03125 127.753906 270.503906 132.726562 265.589844 C 137.699219 260.675781 146.226562 260.195312 151.710938 264.507812 C 155.703125 267.652344 157.734375 271.851562 157.445312 276.355469 C 157.078125 281.78125 153.496094 286.210938 150.117188 288.203125 C 147.953125 289.460938 145.496094 290.074219 143.039062 290.074219 " fill-opacity="1" fill-rule="nonzero"/><path fill="#000000" d="M 100.582031 298.878906 C 98.050781 298.878906 95.390625 300.296875 94.277344 302.535156 C 92.789062 305.53125 94.117188 309.964844 97.042969 311.660156 C 99.984375 313.386719 104.515625 312.40625 106.535156 309.613281 C 107.425781 308.414062 108.15625 306.335938 107.585938 304.140625 C 107.0625 302.125 105.539062 300.53125 103.070312 299.402344 C 102.292969 299.039062 101.445312 298.878906 100.582031 298.878906 Z M 100.449219 321.898438 C 97.628906 321.898438 94.804688 321.195312 92.320312 319.746094 C 85.136719 315.550781 82.199219 305.75 85.898438 298.351562 C 89.671875 290.789062 99.339844 287.382812 106.972656 290.890625 C 111.976562 293.1875 115.410156 297.0625 116.640625 301.773438 C 117.824219 306.320312 116.890625 311.308594 114.109375 315.125 C 110.9375 319.5 105.6875 321.898438 100.449219 321.898438 " fill-opacity="1" fill-rule="nonzero"/><path fill="#000000" d="M 77.519531 357.683594 C 72.824219 357.683594 68.175781 361.238281 66.988281 365.785156 C 65.789062 370.464844 68.335938 376.066406 72.664062 378.246094 C 75.894531 379.871094 80.152344 379.695312 83.238281 377.824219 C 85.429688 376.476562 89 373.246094 88.035156 366.796875 C 87.332031 362 82.8125 357.917969 77.957031 357.699219 C 77.8125 357.683594 77.664062 357.683594 77.519531 357.683594 Z M 77.535156 388.703125 C 74.402344 388.703125 71.257812 388.015625 68.464844 386.613281 C 60.128906 382.414062 55.609375 372.457031 57.9375 363.445312 C 60.234375 354.523438 69.210938 347.957031 78.410156 348.339844 C 87.640625 348.777344 95.945312 356.28125 97.292969 365.421875 C 98.550781 373.902344 95.128906 381.523438 88.121094 385.808594 C 84.964844 387.738281 81.25 388.703125 77.535156 388.703125 " fill-opacity="1" fill-rule="nonzero"/><path fill="#000000" d="M 215.269531 11.632812 C 214.859375 11.632812 214.453125 11.660156 214.042969 11.734375 C 209.875 12.421875 206.40625 16.734375 206.628906 20.960938 C 206.847656 25.175781 210.738281 29.109375 214.964844 29.355469 C 217.347656 29.515625 220.960938 28.304688 222.964844 25.804688 C 224.585938 23.800781 224.9375 21.269531 224.03125 18.066406 C 222.992188 14.410156 219.085938 11.632812 215.269531 11.632812 Z M 215.300781 38.730469 C 214.992188 38.730469 214.683594 38.714844 214.394531 38.703125 C 205.429688 38.160156 197.734375 30.425781 197.265625 21.445312 C 196.8125 12.464844 203.644531 3.96875 212.507812 2.503906 C 221.367188 1.042969 230.582031 6.878906 233.039062 15.523438 C 234.75 21.578125 233.769531 27.308594 230.261719 31.683594 C 226.28125 36.609375 220.066406 38.730469 215.300781 38.730469 " fill-opacity="1" fill-rule="nonzero"/><path fill="#000000" d="M 274.355469 75.234375 L 274.398438 75.234375 Z M 259.1875 63.050781 C 253.820312 63.050781 248.554688 67.628906 247.882812 73.054688 C 247.195312 78.699219 251.523438 84.84375 257.171875 86.1875 C 259.90625 86.832031 262.582031 86.363281 264.71875 84.859375 C 267.464844 82.914062 269.191406 79.417969 269.703125 74.722656 C 269.996094 72.164062 269.074219 69.398438 267.203125 67.117188 C 265.257812 64.777344 262.609375 63.300781 259.933594 63.082031 C 259.6875 63.050781 259.4375 63.050781 259.1875 63.050781 Z M 259.496094 95.828125 C 258.003906 95.828125 256.496094 95.652344 255.007812 95.285156 C 244.679688 92.828125 237.308594 82.34375 238.597656 71.914062 C 239.914062 61.195312 250.035156 52.875 260.695312 53.75 C 265.871094 54.175781 270.875 56.878906 274.414062 61.164062 C 277.894531 65.378906 279.574219 70.699219 279.003906 75.746094 C 277.96875 85.148438 273.59375 90.050781 270.113281 92.507812 C 267.011719 94.6875 263.3125 95.828125 259.496094 95.828125 " fill-opacity="1" fill-rule="nonzero"/><path fill="#000000" d="M 344 99.90625 C 342.855469 99.90625 341.714844 100.054688 340.605469 100.34375 C 333.367188 102.21875 328.144531 110.335938 329.445312 117.691406 C 330.734375 125.074219 338.398438 130.898438 345.855469 130.210938 C 349.644531 129.859375 354.761719 127.460938 357.703125 122.898438 C 360.085938 119.183594 360.464844 114.867188 358.796875 110.085938 C 358.796875 110.070312 358.796875 110.070312 358.796875 110.070312 C 356.722656 104.089844 350.316406 99.90625 344 99.90625 Z M 344.65625 139.628906 C 333.148438 139.628906 322.222656 130.75 320.21875 119.3125 C 318.082031 107.203125 326.347656 94.363281 338.25 91.277344 C 350.140625 88.191406 363.609375 95.386719 367.644531 107.015625 C 370.953125 116.519531 368.332031 123.65625 365.570312 127.972656 C 361.503906 134.289062 354.105469 138.839844 346.734375 139.527344 C 346.046875 139.597656 345.34375 139.628906 344.65625 139.628906 " fill-opacity="1" fill-rule="nonzero"/><path fill="#000000" d="M 403.433594 38.484375 C 401.621094 38.484375 399.878906 38.890625 398.375 39.683594 C 395.828125 41.027344 393.808594 43.585938 392.84375 46.714844 C 391.878906 49.847656 392.113281 53.105469 393.460938 55.652344 C 394.820312 58.195312 397.394531 60.214844 400.523438 61.164062 C 403.652344 62.117188 406.898438 61.882812 409.457031 60.523438 C 412.824219 58.722656 418.4375 52.464844 414.34375 44.625 C 413 42.066406 410.4375 40.046875 407.308594 39.082031 C 406.023438 38.6875 404.707031 38.484375 403.433594 38.484375 Z M 404.324219 71.097656 C 402.144531 71.097656 399.9375 70.773438 397.789062 70.117188 C 392.304688 68.433594 387.710938 64.777344 385.195312 60.039062 C 382.679688 55.316406 382.210938 49.449219 383.894531 43.96875 C 385.589844 38.484375 389.277344 33.90625 394.015625 31.402344 C 398.738281 28.902344 404.601562 28.433594 410.085938 30.144531 C 415.570312 31.84375 420.136719 35.527344 422.621094 40.28125 C 429.347656 53.105469 421.554688 64.660156 413.859375 68.769531 C 410.996094 70.304688 407.6875 71.097656 404.324219 71.097656 " fill-opacity="1" fill-rule="nonzero"/><path fill="#000000" d="M 408.597656 106.195312 C 408.539062 106.195312 408.480469 106.195312 408.421875 106.195312 C 406.023438 106.238281 403.945312 107.234375 402.863281 108.84375 C 401.796875 110.453125 401.664062 112.746094 402.542969 114.984375 C 403.402344 117.222656 405.058594 118.832031 406.929688 119.285156 C 408.945312 119.78125 412.851562 118.1875 414.664062 115.46875 C 416.082031 113.347656 415.894531 111.125 414.082031 108.625 C 412.96875 107.101562 410.921875 106.195312 408.597656 106.195312 Z M 407.6875 128.730469 C 406.679688 128.730469 405.671875 128.617188 404.71875 128.394531 C 399.863281 127.210938 395.800781 123.46875 393.808594 118.378906 C 391.835938 113.304688 392.320312 107.789062 395.097656 103.636719 C 397.875 99.484375 402.789062 96.9375 408.246094 96.835938 C 413.640625 96.617188 418.703125 99.085938 421.640625 103.125 C 425.792969 108.828125 426.085938 115.21875 422.445312 120.675781 C 419.183594 125.558594 413.128906 128.730469 407.6875 128.730469 " fill-opacity="1" fill-rule="nonzero"/><path fill="#000000" d="M 359.308594 211.1875 C 355.699219 211.1875 351.894531 210.777344 348.269531 209.285156 C 341.511719 206.523438 335.675781 198.929688 337.621094 191.046875 C 339.246094 184.46875 345.226562 180.824219 350.273438 178.382812 C 377.136719 165.367188 407.074219 159.34375 436.910156 160.980469 C 448.449219 161.609375 455.863281 166.289062 457.238281 173.792969 C 458.539062 180.898438 453.890625 187.625 444.164062 192.730469 C 427.609375 201.402344 409.839844 207.28125 391.351562 210.207031 C 388.792969 210.617188 386.410156 208.863281 386 206.300781 C 385.605469 203.757812 387.347656 201.359375 389.890625 200.964844 C 407.367188 198.199219 424.171875 192.644531 439.820312 184.4375 C 441.925781 183.328125 448.753906 179.421875 448.023438 175.472656 C 447.410156 172.109375 441.386719 170.601562 436.398438 170.324219 C 408.15625 168.789062 379.800781 174.480469 354.351562 186.808594 C 351.148438 188.359375 347.390625 190.492188 346.703125 193.285156 C 346.015625 196.09375 348.855469 199.414062 351.824219 200.628906 C 355.933594 202.296875 361.183594 201.855469 365.832031 201.460938 C 368.363281 201.273438 370.671875 203.144531 370.894531 205.71875 C 371.113281 208.292969 369.210938 210.558594 366.621094 210.777344 C 364.371094 210.980469 361.882812 211.1875 359.308594 211.1875 " fill-opacity="1" fill-rule="nonzero"/><path fill="#000000" d="M 427.695312 152.789062 C 399.804688 152.789062 371.902344 159.3125 346.105469 171.933594 C 340.195312 174.828125 334.082031 178.195312 329.503906 183.078125 C 325.496094 187.363281 323.4375 192.421875 323.378906 198.113281 C 323.363281 199.734375 323.640625 201.535156 324.238281 203.613281 L 325.820312 209.167969 C 328 216.890625 334.242188 222.917969 342.113281 224.90625 C 373.847656 232.933594 434.832031 223.195312 460.761719 200.363281 C 469.214844 192.933594 472.972656 184.878906 471.949219 176.4375 C 471.949219 176.425781 471.949219 176.425781 471.949219 176.425781 L 471.90625 175.984375 C 470.855469 167.371094 465.222656 160.015625 457.195312 156.769531 C 452.894531 155.027344 448.40625 153.929688 443.871094 153.519531 C 438.488281 153.039062 433.09375 152.789062 427.695312 152.789062 Z M 368.304688 237.027344 C 357.703125 237.027344 347.902344 236.035156 339.816406 233.972656 C 328.714844 231.164062 319.894531 222.652344 316.8125 211.726562 L 315.230469 206.183594 C 314.382812 203.230469 313.988281 200.554688 314.015625 198.011719 C 314.089844 189.90625 317.015625 182.726562 322.675781 176.6875 C 328.304688 170.675781 335.589844 166.667969 341.996094 163.539062 C 374.316406 147.699219 409.839844 141.03125 444.71875 144.207031 C 450.175781 144.703125 455.554688 146.003906 460.703125 148.09375 C 471.878906 152.613281 479.730469 162.867188 481.195312 174.84375 L 481.253906 175.3125 C 482.640625 186.851562 477.699219 197.9375 466.949219 207.398438 C 445.042969 226.675781 402.425781 237.027344 368.304688 237.027344 " fill-opacity="1" fill-rule="nonzero"/><path fill="#000000" d="M 463.191406 560.851562 C 446.210938 560.851562 430.183594 555.265625 418.863281 545.117188 C 400.960938 529.058594 395.476562 503.1875 391.46875 484.292969 C 373.554688 399.789062 355.609375 315.226562 337.664062 230.710938 C 337.125 228.179688 338.734375 225.695312 341.261719 225.152344 C 343.777344 224.613281 346.28125 226.234375 346.820312 228.765625 C 364.765625 313.28125 382.710938 397.84375 400.625 482.359375 C 405.464844 505.203125 410.65625 525.183594 425.109375 538.140625 C 436.792969 548.597656 454.5625 553.335938 472.683594 550.820312 C 494.648438 547.777344 513.601562 534.308594 520.972656 516.523438 C 528.710938 497.949219 524.613281 476.980469 518.894531 453.476562 L 484.453125 311.542969 C 484.265625 310.824219 484.089844 310.066406 483.929688 309.289062 C 483.914062 309.246094 483.898438 309.1875 483.882812 309.144531 L 458.714844 205.511719 C 458.117188 202.996094 459.652344 200.46875 462.167969 199.851562 C 464.683594 199.238281 467.210938 200.789062 467.8125 203.304688 L 492.9375 306.789062 C 492.964844 306.890625 492.996094 306.980469 493.011719 307.082031 C 493.1875 307.8125 493.347656 308.53125 493.535156 309.261719 L 527.992188 451.269531 C 532.703125 470.660156 539.167969 497.203125 529.617188 520.121094 C 521.003906 540.902344 499.152344 556.597656 473.96875 560.089844 C 470.355469 560.589844 466.746094 560.851562 463.191406 560.851562 " fill-opacity="1" fill-rule="nonzero"/><path fill="#000000" d="M 484.558594 311.894531 Z M 426.160156 293.832031 C 410.773438 293.832031 395.917969 295.921875 382.082031 300.089844 C 377.546875 301.421875 372.910156 303.074219 369.519531 306.027344 C 366.945312 308.238281 364.691406 311.96875 365.4375 315.390625 C 365.921875 317.714844 367.808594 320.023438 370.601562 321.734375 C 373.65625 323.621094 377.472656 324.675781 380.808594 325.507812 C 409.503906 332.792969 437.84375 333.15625 462.796875 326.546875 C 467.300781 325.363281 472.460938 323.753906 476.644531 320.859375 C 480.492188 318.242188 484.820312 314.820312 484.425781 311.453125 C 484.425781 311.425781 484.425781 311.394531 484.425781 311.394531 C 484.351562 311.03125 484.308594 310.679688 484.324219 310.3125 C 484.191406 310.066406 484.074219 309.800781 483.988281 309.523438 C 483.035156 306.9375 480.84375 304.433594 477.960938 302.664062 C 474.335938 300.398438 470.035156 299.183594 464.667969 298.042969 C 451.667969 295.234375 438.738281 293.832031 426.160156 293.832031 Z M 425.28125 340.617188 C 410.074219 340.617188 394.335938 338.597656 378.527344 334.589844 C 374.535156 333.597656 369.898438 332.296875 365.703125 329.722656 C 360.640625 326.605469 357.292969 322.21875 356.28125 317.335938 C 354.910156 310.941406 357.628906 303.894531 363.40625 298.9375 C 368.128906 294.828125 374.140625 292.675781 379.390625 291.113281 C 406.066406 283.097656 436.222656 282.324219 466.628906 288.890625 C 472.097656 290.058594 477.859375 291.566406 482.890625 294.710938 C 487.644531 297.632812 491.183594 301.816406 492.835938 306.46875 C 492.851562 306.511719 492.863281 306.570312 492.878906 306.613281 C 493.039062 307.097656 493.128906 307.609375 493.128906 308.105469 C 493.128906 308.148438 493.128906 308.179688 493.128906 308.222656 C 493.257812 308.457031 493.363281 308.707031 493.449219 308.96875 C 493.550781 309.289062 493.667969 309.917969 493.710938 310.253906 C 494.839844 319.777344 485.816406 325.933594 481.953125 328.566406 C 476.601562 332.28125 470.472656 334.195312 465.179688 335.601562 C 452.558594 338.949219 439.132812 340.617188 425.28125 340.617188 " fill-opacity="1" fill-rule="nonzero"/><path fill="#000000" d="M 422.167969 379.738281 C 417.179688 379.738281 412.078125 383.101562 410.554688 387.871094 C 408.742188 393.53125 412.179688 400.535156 417.78125 402.554688 C 423.367188 404.585938 430.488281 401.398438 432.726562 395.882812 C 433.910156 392.929688 433.707031 389.171875 432.1875 386.085938 C 431.164062 383.992188 429.085938 381.257812 424.976562 380.105469 C 424.054688 379.855469 423.117188 379.738281 422.167969 379.738281 Z M 421.246094 412.496094 C 418.996094 412.511719 416.742188 412.132812 414.59375 411.355469 C 404.382812 407.671875 398.328125 395.34375 401.632812 385.003906 C 404.96875 374.664062 417.035156 368.140625 427.507812 371.09375 C 433.296875 372.734375 437.949219 376.578125 440.59375 381.960938 C 443.285156 387.445312 443.59375 393.953125 441.398438 399.394531 C 438.195312 407.351562 429.699219 412.496094 421.246094 412.496094 " fill-opacity="1" fill-rule="nonzero"/><path fill="#000000" d="M 478.808594 406.691406 C 478.386719 406.691406 477.960938 406.75 477.566406 406.867188 C 475.199219 407.539062 473.414062 410.390625 473.824219 412.835938 C 474.246094 415.277344 476.851562 417.398438 479.351562 417.207031 C 480.796875 417.121094 482.890625 416.082031 483.871094 414.515625 C 484.644531 413.257812 484.660156 411.765625 483.914062 409.925781 C 483.125 408.023438 480.902344 406.691406 478.808594 406.691406 Z M 479.101562 426.566406 C 472.183594 426.566406 465.792969 421.273438 464.609375 414.429688 C 463.378906 407.292969 468.03125 399.875 474.976562 397.875 C 481.910156 395.855469 489.824219 399.6875 492.570312 406.371094 C 494.472656 411.007812 494.195312 415.65625 491.796875 419.472656 C 488.945312 424.035156 483.78125 426.304688 479.9375 426.550781 C 479.65625 426.566406 479.378906 426.566406 479.101562 426.566406 " fill-opacity="1" fill-rule="nonzero"/><path fill="#000000" d="M 432.113281 450.273438 C 430.5625 450.273438 428.96875 450.84375 427.972656 451.957031 C 426.160156 454.003906 426.308594 457.777344 428.28125 459.722656 C 430.242188 461.652344 434.117188 461.769531 436.222656 459.941406 C 437.332031 458.988281 437.992188 457.558594 438.007812 456.109375 C 438.007812 454.457031 437.144531 452.832031 435.535156 451.429688 C 434.628906 450.640625 433.386719 450.273438 432.113281 450.273438 Z M 432.390625 470.644531 C 428.484375 470.644531 424.582031 469.214844 421.714844 466.390625 C 416.1875 460.949219 415.851562 451.503906 420.984375 445.738281 C 426.160156 439.933594 435.828125 439.289062 441.664062 444.351562 C 441.664062 444.351562 441.664062 444.351562 441.664062 444.367188 C 445.347656 447.566406 447.382812 451.75 447.367188 456.136719 C 447.351562 460.277344 445.464844 464.359375 442.320312 467.046875 C 439.511719 469.445312 435.945312 470.644531 432.390625 470.644531 " fill-opacity="1" fill-rule="nonzero"/><path fill="#000000" d="M 476.074219 477.753906 C 475.445312 477.753906 474.800781 477.8125 474.171875 477.929688 C 470.121094 478.660156 466.570312 481.777344 465.3125 485.695312 C 464.054688 489.613281 465.148438 494.222656 468.015625 497.160156 C 471.484375 500.699219 477.539062 501.546875 481.792969 499.078125 C 484.265625 497.660156 487.085938 494.585938 487.789062 490.945312 C 488.359375 488.019531 487.480469 485.050781 485.1875 482.125 C 483.050781 479.390625 479.554688 477.753906 476.074219 477.753906 Z M 476.339844 509.824219 C 470.796875 509.824219 465.253906 507.707031 461.332031 503.714844 C 456.007812 498.273438 454.078125 490.082031 456.390625 482.84375 C 458.714844 475.605469 465.046875 470.0625 472.519531 468.714844 C 480.007812 467.371094 487.878906 470.367188 492.558594 476.351562 C 497.589844 482.769531 497.734375 488.808594 496.972656 492.730469 C 495.628906 499.707031 490.65625 504.765625 486.472656 507.195312 C 483.386719 508.964844 479.863281 509.824219 476.339844 509.824219 " fill-opacity="1" fill-rule="nonzero"/></svg>