<svg xmlns="http://www.w3.org/2000/svg" xmlns:xlink="http://www.w3.org/1999/xlink" width="750" zoomAndPan="magnify" viewBox="0 0 562.5 562.499982" height="750" preserveAspectRatio="xMidYMid meet" version="1.0"><defs><clipPath id="5f025d505a"><path d="M 11.355469 0 L 363 0 L 363 341 L 11.355469 341 Z M 11.355469 0 " clip-rule="nonzero"/></clipPath><clipPath id="15765a07b8"><path d="M 124 349 L 550.878906 349 L 550.878906 561 L 124 561 Z M 124 349 " clip-rule="nonzero"/></clipPath></defs><g clip-path="url(#5f025d505a)"><path fill="#000000" d="M 23.027344 175.667969 C 23.027344 85.261719 96.605469 11.726562 187.039062 11.726562 C 277.46875 11.726562 351.046875 85.273438 351.046875 175.667969 C 351.046875 196.214844 347.210938 215.878906 340.277344 234.015625 C 340.589844 233.992188 340.871094 233.925781 341.195312 233.925781 C 345.550781 233.925781 348.839844 235.933594 350.980469 238.746094 C 358.554688 219.152344 362.753906 197.898438 362.753906 175.667969 C 362.753906 78.8125 283.933594 0.0273438 187.039062 0.0273438 C 90.140625 0.0273438 11.335938 78.8125 11.335938 175.667969 C 11.335938 251.5 59.664062 316.242188 127.148438 340.785156 C 127.160156 336.207031 129.585938 331.988281 134.792969 331.027344 C 69.910156 309.164062 23.039062 247.800781 23.039062 175.667969 Z M 23.027344 175.667969 " fill-opacity="1" fill-rule="nonzero"/></g><path fill="#000000" d="M 126.554688 342.433594 C 125.421875 342.433594 124.265625 342.105469 123.257812 341.410156 C 100.589844 325.945312 82.9375 305.800781 72.222656 283.132812 C 52.371094 241.148438 58.722656 198.558594 62.527344 173.109375 C 63.894531 163.945312 65.792969 154.78125 68.171875 145.832031 C 68.808594 143.40625 70.917969 141.667969 73.421875 141.5 C 81.109375 140.984375 88.863281 141.140625 96.503906 141.984375 C 106.535156 143.082031 116.445312 145.371094 125.972656 148.769531 C 148.648438 139.246094 172.089844 132.113281 195.691406 127.527344 C 213.578125 124.058594 226.683594 122.050781 240.699219 122.199219 C 243.996094 122.230469 247.308594 122.355469 250.59375 122.566406 C 253.109375 117.386719 256.363281 112.628906 260.300781 108.402344 C 265.945312 102.324219 273.003906 97.433594 280.714844 94.234375 C 282.65625 93.425781 284.875 93.730469 286.546875 95.019531 C 294.707031 101.359375 302.101562 108.582031 308.53125 116.488281 C 333.644531 147.324219 338.558594 181.734375 341.511719 202.292969 C 344.023438 219.894531 344.496094 237.953125 342.914062 255.988281 C 342.632812 259.207031 339.75 261.574219 336.574219 261.292969 C 333.351562 261.011719 330.972656 258.175781 331.265625 254.957031 C 332.78125 237.828125 332.332031 220.667969 329.941406 203.953125 C 327.167969 184.59375 322.535156 152.191406 299.476562 123.878906 C 294.324219 117.554688 288.5 111.710938 282.128906 106.460938 C 277.167969 108.953125 272.644531 112.339844 268.886719 116.367188 C 264.949219 120.59375 261.871094 125.472656 259.730469 130.878906 C 258.777344 133.289062 256.339844 134.773438 253.769531 134.546875 C 249.441406 134.164062 245.007812 133.941406 240.609375 133.898438 C 227.636719 133.738281 215.089844 135.679688 197.933594 139.011719 C 174.390625 143.578125 151.015625 150.789062 128.441406 160.433594 C 127.046875 161.019531 125.488281 161.050781 124.074219 160.523438 C 114.773438 157.015625 105.066406 154.691406 95.226562 153.605469 C 89.671875 153 84.039062 152.773438 78.414062 152.953125 C 76.644531 160.164062 75.183594 167.5 74.09375 174.8125 C 70.492188 198.972656 64.46875 239.363281 82.804688 278.140625 C 92.632812 298.925781 108.902344 317.464844 129.855469 331.753906 C 132.523438 333.570312 133.210938 337.21875 131.390625 339.875 C 130.257812 341.535156 128.417969 342.433594 126.554688 342.433594 Z M 126.554688 342.433594 " fill-opacity="1" fill-rule="nonzero"/><path fill="#000000" d="M 166.019531 243.804688 C 163.171875 243.804688 160.679688 241.730469 160.242188 238.828125 C 158.816406 229.359375 164.875 219.714844 174.019531 216.863281 C 183.167969 214.015625 193.625 218.511719 197.84375 227.105469 C 199.269531 230 198.070312 233.511719 195.171875 234.933594 C 192.265625 236.359375 188.765625 235.160156 187.339844 232.265625 C 185.679688 228.886719 181.066406 226.914062 177.5 228.035156 C 173.910156 229.15625 171.261719 233.386719 171.8125 237.097656 C 172.292969 240.296875 170.09375 243.269531 166.894531 243.75 C 166.605469 243.796875 166.3125 243.816406 166.019531 243.816406 Z M 166.019531 243.804688 " fill-opacity="1" fill-rule="nonzero"/><path fill="#000000" d="M 209.402344 227.667969 C 209.703125 229.527344 211.097656 231.066406 212.734375 231.996094 C 214.371094 232.925781 216.234375 233.363281 218.074219 233.777344 C 221.878906 234.644531 225.695312 235.507812 229.5 236.371094 C 233.226562 232.085938 236.0625 227.050781 237.8125 221.664062 C 238.65625 219.074219 239.117188 215.898438 237.230469 213.9375 C 231.730469 208.214844 227.816406 219.152344 223.753906 220.488281 C 219.421875 221.910156 207.988281 218.984375 209.390625 227.667969 Z M 209.402344 227.667969 " fill-opacity="1" fill-rule="nonzero"/><path fill="#000000" d="M 219.925781 259.230469 C 214.394531 259.230469 208.820312 256.773438 204.902344 252.265625 C 202.78125 249.828125 203.039062 246.140625 205.472656 244.019531 C 207.910156 241.898438 211.613281 242.15625 213.722656 244.589844 C 216.066406 247.292969 219.679688 248.28125 222.496094 247.003906 C 225.898438 245.457031 226.425781 240.890625 226.4375 240.84375 C 226.714844 237.75 224.953125 235.417969 224.417969 234.777344 C 222.316406 232.320312 222.621094 228.628906 225.078125 226.53125 C 227.546875 224.445312 231.226562 224.738281 233.324219 227.195312 C 234.988281 229.148438 238.769531 234.472656 238.082031 241.921875 C 237.984375 243.054688 236.828125 253.339844 227.332031 257.648438 C 224.988281 258.714844 222.464844 259.230469 219.9375 259.230469 Z M 219.925781 259.230469 " fill-opacity="1" fill-rule="nonzero"/><path fill="#000000" d="M 245.128906 250.894531 C 239.566406 250.894531 235.078125 248.023438 233.582031 246.945312 C 231.464844 245.410156 230.015625 243.875 228.265625 241.25 C 226.210938 238.1875 224.347656 234.96875 222.722656 231.679688 C 221.285156 228.789062 222.476562 225.277344 225.382812 223.851562 C 228.277344 222.429688 231.777344 223.605469 233.214844 226.511719 C 234.617188 229.335938 236.210938 232.109375 237.984375 234.742188 C 239.046875 236.335938 239.585938 236.851562 240.441406 237.46875 C 240.789062 237.726562 243.828125 239.859375 246.410156 238.984375 C 248.585938 238.242188 250.15625 235.640625 250.246094 232.65625 C 250.335938 229.425781 252.972656 226.925781 256.261719 226.980469 C 259.492188 227.070312 262.03125 229.761719 261.941406 232.992188 C 261.714844 240.878906 256.992188 247.730469 250.179688 250.054688 C 248.441406 250.648438 246.734375 250.882812 245.121094 250.882812 Z M 245.128906 250.894531 " fill-opacity="1" fill-rule="nonzero"/><path fill="#000000" d="M 250.730469 214.261719 C 247.902344 214.261719 245.421875 212.210938 244.960938 209.328125 C 243.46875 199.871094 249.429688 190.179688 258.539062 187.253906 C 267.664062 184.335938 278.15625 188.734375 282.453125 197.292969 C 283.898438 200.175781 282.734375 203.683594 279.847656 205.144531 C 276.964844 206.589844 273.453125 205.425781 271.996094 202.542969 C 270.3125 199.1875 265.699219 197.246094 262.121094 198.402344 C 258.550781 199.546875 255.925781 203.808594 256.507812 207.519531 C 257.015625 210.707031 254.835938 213.703125 251.648438 214.207031 C 251.347656 214.25 251.03125 214.273438 250.730469 214.273438 Z M 250.730469 214.261719 " fill-opacity="1" fill-rule="nonzero"/><g clip-path="url(#15765a07b8)"><path fill="#000000" d="M 544.492188 370.753906 C 537.5 356.824219 523.273438 348.253906 509.820312 349.925781 C 499.796875 351.171875 490.28125 357.988281 484.378906 368.183594 C 479.230469 377.070312 477.253906 387.265625 475.996094 396.070312 C 474.921875 403.640625 474.203125 411.324219 473.507812 418.761719 C 472.40625 430.414062 471.273438 442.472656 468.75 453.914062 C 465.515625 468.5625 458.269531 488.480469 442.152344 500.125 C 431.191406 508.042969 414.515625 511.140625 401.914062 504.789062 C 414.011719 495.773438 422.304688 481.886719 424.492188 466.957031 C 426.207031 467.496094 427.980469 467.886719 429.753906 468.125 C 431.898438 468.40625 438.417969 469.257812 445.488281 466.09375 C 446.117188 465.8125 451.816406 463.144531 456.359375 457.265625 C 469.734375 439.972656 459.683594 407.960938 457.527344 401.710938 C 453.824219 390.945312 449.988281 379.816406 438.800781 374.566406 C 432.636719 371.664062 423.113281 370.160156 414.898438 374.679688 C 404.921875 380.164062 399.78125 392.402344 402.105469 405.132812 C 402.6875 408.308594 405.761719 410.402344 408.90625 409.832031 C 412.082031 409.25 414.191406 406.210938 413.605469 403.035156 C 412.203125 395.386719 415.054688 387.9375 420.519531 384.933594 C 426.277344 381.769531 433.054688 384.796875 433.804688 385.15625 C 440.191406 388.152344 442.769531 394.847656 446.453125 405.523438 C 450.46875 417.191406 455.136719 439.710938 447.089844 450.109375 C 444.320312 453.699219 440.671875 455.425781 440.671875 455.425781 C 436.644531 457.242188 432.863281 456.75 431.257812 456.539062 C 427.34375 456.03125 424.347656 454.417969 422.515625 453.148438 C 420.699219 451.894531 418.34375 451.769531 416.414062 452.8125 C 414.484375 453.855469 413.292969 455.898438 413.339844 458.097656 C 413.742188 474.796875 403.609375 491.734375 388.695312 499.273438 C 386.992188 500.136719 385.8125 501.773438 385.542969 503.65625 C 385.273438 505.542969 385.945312 507.449219 387.339844 508.75 C 404.484375 524.789062 432.15625 521.785156 448.988281 509.601562 C 468.085938 495.796875 476.480469 473.070312 480.148438 456.4375 C 482.832031 444.289062 484 431.871094 485.132812 419.859375 C 485.816406 412.570312 486.523438 405.019531 487.566406 397.730469 C 488.710938 389.652344 490.351562 381.183594 494.492188 374.0625 C 498.574219 367.03125 504.835938 362.339844 511.253906 361.546875 C 520.804688 360.378906 529.972656 367.917969 534.023438 376.015625 C 539.09375 386.132812 539.0625 398.515625 538.464844 408.183594 C 535.640625 454.125 516.339844 494.425781 485.535156 518.777344 C 451.410156 545.742188 402.746094 549.78125 369.820312 528.402344 C 367.9375 527.179688 365.511719 527.144531 363.59375 528.3125 C 311.257812 560.121094 238.710938 555.242188 191.109375 516.703125 C 146.136719 480.304688 125.960938 415.910156 140.929688 360.175781 C 137.203125 358.574219 134.757812 355.242188 133.757812 351.617188 C 133.050781 351.011719 132.421875 350.328125 131.875 349.589844 C 111.753906 411.289062 133.253906 484.902344 183.75 525.777344 C 212.410156 548.972656 249.441406 560.851562 286.390625 560.851562 C 314.398438 560.851562 342.351562 554.019531 366.566406 540.121094 C 403.464844 561.960938 455.921875 557.082031 492.796875 527.929688 C 526.214844 501.527344 547.117188 458.140625 550.160156 408.878906 C 550.84375 397.753906 550.820312 383.371094 544.492188 370.753906 Z M 544.492188 370.753906 " fill-opacity="1" fill-rule="nonzero"/></g><path fill="#000000" d="M 405.964844 403 C 406.324219 400.34375 406.917969 397.71875 407.042969 395.039062 C 407.15625 392.726562 408.445312 390.574219 410.039062 388.855469 C 404.472656 377.4375 396.886719 366.953125 387.699219 358.214844 C 377.96875 348.960938 366.421875 341.570312 353.933594 336.542969 C 364.523438 322.445312 372.804688 306.875 378.597656 290.152344 C 381.414062 282.019531 384.476562 271.242188 383.175781 260.082031 C 381.75 247.910156 374.917969 237.492188 365.332031 232.882812 C 353.597656 227.238281 338.605469 231.804688 333.261719 242.664062 C 331.835938 245.554688 333.027344 249.066406 335.933594 250.492188 C 338.828125 251.914062 342.339844 250.726562 343.765625 247.820312 C 346.289062 242.695312 354.300781 240.554688 360.261719 243.414062 C 366.175781 246.261719 370.605469 253.328125 371.550781 261.425781 C 372.582031 270.242188 369.945312 279.363281 367.542969 286.328125 C 361.316406 304.332031 351.980469 320.898438 339.804688 335.566406 C 338.558594 337.070312 338.144531 339.089844 338.695312 340.964844 C 339.253906 342.835938 340.703125 344.304688 342.554688 344.890625 C 356.355469 349.195312 369.171875 356.734375 379.628906 366.683594 C 389.828125 376.375 397.863281 388.453125 402.867188 401.597656 C 403.429688 403.089844 404.5625 404.15625 405.910156 404.773438 C 405.898438 404.179688 405.886719 403.585938 405.964844 403 Z M 405.964844 403 " fill-opacity="1" fill-rule="nonzero"/><path fill="#000000" d="M 220.589844 413.308594 C 219.488281 413.308594 218.378906 413.007812 217.390625 412.355469 C 214.6875 410.59375 213.933594 406.960938 215.695312 404.257812 C 223.730469 391.976562 232.84375 378.042969 236.222656 361.792969 C 239.621094 345.425781 235.378906 327.558594 226.570312 321.121094 C 217.503906 314.480469 205.441406 320.785156 198.214844 330.429688 C 189.359375 342.242188 184.761719 359.347656 180.710938 374.445312 C 179.867188 377.5625 176.65625 379.425781 173.550781 378.570312 C 170.429688 377.730469 168.578125 374.523438 169.421875 371.40625 C 173.75 355.296875 178.65625 337.027344 188.855469 323.421875 C 199.527344 309.175781 218.265625 300.5625 233.484375 311.6875 C 247.789062 322.140625 251.449219 346.011719 247.679688 364.171875 C 243.851562 382.585938 234.101562 397.492188 225.492188 410.652344 C 224.371094 412.367188 222.496094 413.296875 220.589844 413.296875 Z M 220.589844 413.308594 " fill-opacity="1" fill-rule="nonzero"/><path fill="#000000" d="M 303.539062 540.976562 C 287.164062 540.976562 275.28125 530.777344 273.746094 529.398438 C 271.34375 527.234375 271.152344 523.542969 273.308594 521.144531 C 275.472656 518.742188 279.164062 518.542969 281.566406 520.707031 C 282.117188 521.199219 295.097656 532.640625 310.945312 528.265625 C 324.578125 524.507812 330.402344 511.734375 332.265625 506.417969 C 334.824219 499.148438 333.769531 492.003906 331.46875 476.335938 C 329.71875 464.410156 328.839844 459.363281 324.847656 453.734375 C 322.367188 450.246094 317.203125 442.988281 308.933594 442.515625 C 300.285156 442.035156 294.335938 449.269531 294.089844 449.582031 C 288.164062 456.886719 290.195312 465.722656 290.441406 466.699219 C 291.238281 469.828125 289.355469 473.015625 286.222656 473.8125 C 283.082031 474.617188 279.90625 472.710938 279.109375 469.59375 C 278.457031 467.035156 275.675781 453.710938 285 442.214844 C 286.648438 440.171875 295.546875 429.988281 309.585938 430.839844 C 323.476562 431.613281 331.398438 442.753906 334.375 446.949219 C 340.164062 455.101562 341.296875 462.863281 343.035156 474.605469 C 345.472656 491.183594 346.816406 500.304688 343.292969 510.285156 C 340.816406 517.332031 333.003906 534.300781 314.050781 539.527344 C 310.394531 540.539062 306.871094 540.964844 303.527344 540.964844 Z M 303.539062 540.976562 " fill-opacity="1" fill-rule="nonzero"/><path fill="#000000" d="M 130.078125 261.886719 C 129.808594 261.886719 129.539062 261.863281 129.269531 261.832031 L 103.507812 258.296875 C 100.308594 257.859375 98.0625 254.910156 98.5 251.714844 C 98.9375 248.515625 101.890625 246.261719 105.089844 246.722656 L 130.851562 250.257812 C 134.050781 250.695312 136.296875 253.644531 135.859375 256.839844 C 135.453125 259.765625 132.941406 261.886719 130.066406 261.886719 Z M 130.078125 261.886719 " fill-opacity="1" fill-rule="nonzero"/><path fill="#000000" d="M 136.980469 289.523438 C 136.824219 289.523438 136.664062 289.523438 136.507812 289.503906 L 111.832031 287.527344 C 108.613281 287.269531 106.210938 284.453125 106.46875 281.234375 C 106.726562 278.015625 109.511719 275.617188 112.765625 275.875 L 137.441406 277.847656 C 140.660156 278.105469 143.0625 280.921875 142.804688 284.140625 C 142.554688 287.203125 140 289.523438 136.980469 289.523438 Z M 136.980469 289.523438 " fill-opacity="1" fill-rule="nonzero"/><path fill="#000000" d="M 303.941406 216.863281 C 302.269531 216.863281 300.597656 216.148438 299.453125 214.765625 C 297.378906 212.289062 297.714844 208.597656 300.195312 206.535156 L 311.527344 197.089844 C 314.007812 195.027344 317.699219 195.351562 319.761719 197.832031 C 321.828125 200.308594 321.492188 204 319.011719 206.0625 L 307.679688 215.507812 C 306.589844 216.414062 305.253906 216.863281 303.929688 216.863281 Z M 303.941406 216.863281 " fill-opacity="1" fill-rule="nonzero"/><path fill="#000000" d="M 309.832031 242.414062 C 308.046875 242.414062 306.277344 241.597656 305.132812 240.050781 C 303.199219 237.457031 303.738281 233.789062 306.34375 231.871094 L 316.464844 224.367188 C 319.054688 222.449219 322.726562 222.988281 324.644531 225.578125 C 326.5625 228.171875 326.023438 231.839844 323.433594 233.757812 L 313.324219 241.261719 C 312.269531 242.035156 311.042969 242.414062 309.832031 242.414062 Z M 309.832031 242.414062 " fill-opacity="1" fill-rule="nonzero"/><path fill="#000000" d="M 178.398438 351.628906 C 166.953125 353.707031 155.425781 355.332031 143.800781 356.375 C 140.738281 353.707031 137.269531 349.632812 135.410156 343.890625 C 135.070312 342.859375 134.800781 341.816406 134.601562 340.75 C 153.957031 339.304688 173.089844 336.351562 191.886719 331.980469 C 191.582031 329.914062 191.808594 327.726562 192.558594 325.652344 C 192.894531 324.722656 193.3125 323.835938 193.679688 322.917969 C 194.34375 321.234375 195.429688 319.84375 196.753906 318.730469 C 174.269531 324.484375 151.242188 328.121094 127.925781 329.488281 C 124.847656 329.667969 122.4375 332.203125 122.414062 335.289062 C 122.378906 339.472656 123.019531 343.589844 124.289062 347.511719 C 127.441406 357.226562 133.714844 363.519531 138.425781 367.074219 C 139.449219 367.847656 140.683594 368.265625 141.960938 368.265625 C 142.117188 368.265625 142.289062 368.265625 142.445312 368.242188 C 154.621094 367.230469 166.695312 365.59375 178.679688 363.476562 C 176.804688 359.90625 176.457031 355.375 178.398438 351.652344 Z M 178.398438 351.628906 " fill-opacity="1" fill-rule="nonzero"/><path fill="#000000" d="M 348.792969 260.96875 C 347.199219 257.433594 345.257812 254.035156 343.003906 250.882812 C 342.070312 249.570312 340.636719 248.707031 339.03125 248.484375 C 337.460938 248.257812 335.820312 248.707031 334.5625 249.71875 C 306.097656 272.65625 274.441406 291.105469 240.472656 304.566406 C 234.605469 306.886719 228.667969 308.996094 222.710938 311.015625 C 224.707031 311.519531 226.738281 312.238281 228.914062 313.113281 C 231.722656 314.234375 233.785156 316.476562 234.941406 319.136719 C 238.230469 317.9375 241.527344 316.746094 244.78125 315.445312 C 277.785156 302.367188 308.6875 284.710938 336.71875 262.929688 C 337.210938 263.863281 337.671875 264.804688 338.097656 265.757812 C 340.085938 270.1875 341.375 274.875 341.9375 279.765625 C 313.972656 300.964844 283.273438 318.226562 250.640625 331.105469 C 248.597656 331.910156 246.535156 332.640625 244.480469 333.402344 C 246.386719 337.21875 246.308594 342.253906 243.941406 346.078125 C 247.621094 344.753906 251.292969 343.410156 254.925781 341.972656 C 289.578125 328.3125 322.097656 309.847656 351.597656 287.089844 C 353.125 285.914062 353.964844 284.0625 353.863281 282.144531 C 353.460938 274.742188 351.746094 267.617188 348.769531 260.980469 Z M 348.792969 260.96875 " fill-opacity="1" fill-rule="nonzero"/></svg>