<svg xmlns="http://www.w3.org/2000/svg" xmlns:xlink="http://www.w3.org/1999/xlink" width="750" zoomAndPan="magnify" viewBox="0 0 562.5 562.499982" height="750" preserveAspectRatio="xMidYMid meet" version="1.0"><defs><clipPath id="b7dfffe563"><path d="M 0 124 L 558 124 L 558 441.59375 L 0 441.59375 Z M 0 124 " clip-rule="nonzero"/></clipPath></defs><g clip-path="url(#b7dfffe563)"><path fill="#010101" d="M 292.5625 199.40625 C 294.007812 200.851562 296.613281 201.429688 299.503906 201.429688 C 306.152344 201.429688 315.402344 198.539062 325.808594 193.917969 C 330.722656 196.230469 336.796875 196.519531 342.578125 196.519531 C 362.234375 196.519531 378.425781 180.34375 378.425781 160.703125 C 380.449219 158.679688 382.472656 156.945312 384.207031 155.214844 C 396.925781 141.347656 394.613281 133.261719 390.566406 128.929688 C 382.472656 120.550781 363.96875 129.21875 361.65625 130.371094 C 356.164062 126.90625 349.804688 124.886719 342.867188 124.886719 C 323.207031 124.886719 307.019531 141.058594 307.019531 160.703125 C 307.019531 161.855469 307.019531 163.300781 307.308594 164.457031 C 304.707031 166.476562 288.515625 178.609375 288.226562 189.875 C 287.9375 193.628906 289.382812 196.804688 292.5625 199.40625 Z M 329.855469 192.183594 C 340.554688 187.273438 352.117188 180.34375 362.523438 173.410156 C 359.34375 176.585938 359.34375 176.585938 357.03125 179.1875 L 356.164062 180.054688 C 355.007812 181.496094 351.25 185.832031 352.40625 187.5625 C 352.695312 187.851562 352.984375 188.140625 353.5625 188.140625 C 353.851562 188.140625 354.140625 188.140625 354.71875 187.851562 C 355.585938 187.5625 356.453125 187.273438 357.320312 186.695312 C 359.054688 185.832031 360.210938 185.253906 362.523438 185.253906 C 362.523438 185.253906 362.8125 185.253906 362.8125 185.253906 C 363.390625 185.253906 363.96875 185.253906 364.546875 184.964844 C 358.765625 190.164062 351.25 193.339844 342.867188 193.339844 C 338.242188 193.628906 333.617188 193.339844 329.855469 192.183594 Z M 367.441406 182.074219 C 365.992188 182.941406 364.257812 183.519531 362.523438 183.519531 C 359.921875 183.519531 358.1875 184.097656 356.453125 184.964844 C 355.585938 185.253906 355.007812 185.542969 354.140625 185.832031 C 354.140625 185.832031 354.140625 185.832031 353.851562 185.832031 C 354.140625 184.964844 355.296875 183.230469 357.320312 180.632812 L 358.1875 179.765625 C 360.5 177.164062 360.5 177.164062 364.257812 173.410156 L 364.546875 173.121094 C 367.441406 170.234375 372.644531 166.765625 375.246094 165.035156 C 374.089844 171.964844 371.488281 177.742188 367.441406 182.074219 Z M 375.535156 163.589844 C 375.246094 163.589844 375.246094 163.878906 374.957031 163.878906 C 374.957031 163.878906 375.246094 163.589844 375.535156 163.589844 Z M 376.691406 149.148438 C 374.957031 143.660156 371.777344 139.039062 368.019531 135.28125 C 372.644531 132.394531 381.316406 130.949219 383.917969 133.550781 C 385.941406 135.570312 383.917969 140.769531 377.847656 147.703125 C 377.558594 148.28125 376.980469 148.859375 376.691406 149.148438 Z M 342.867188 128.0625 C 347.492188 128.0625 351.828125 128.929688 355.585938 130.660156 C 351.828125 132.394531 344.601562 135.570312 341.421875 136.148438 L 339.976562 136.4375 C 337.664062 137.015625 333.617188 137.59375 333.039062 137.015625 C 333.328125 136.148438 333.90625 135.570312 334.773438 134.707031 C 335.640625 134.128906 336.796875 133.261719 337.664062 131.816406 C 338.820312 130.085938 340.84375 128.640625 342.289062 128.0625 C 342.289062 128.0625 342.578125 128.0625 342.867188 128.0625 Z M 338.53125 128.351562 C 337.664062 129.21875 336.796875 130.082031 335.929688 130.949219 C 335.0625 132.105469 334.195312 132.683594 333.328125 133.550781 C 332.171875 134.417969 331.304688 135.28125 330.722656 136.726562 C 330.433594 137.59375 330.722656 138.171875 331.011719 138.460938 C 331.59375 139.039062 332.460938 139.328125 333.328125 139.328125 C 334.773438 139.328125 337.085938 139.039062 339.6875 138.460938 L 341.132812 138.171875 C 345.179688 137.304688 354.140625 133.550781 357.320312 132.105469 C 361.367188 134.128906 365.125 137.304688 368.019531 140.769531 C 365.992188 140.195312 362.234375 141.058594 360.789062 141.636719 C 359.921875 141.347656 357.898438 141.347656 352.695312 142.503906 L 350.960938 142.792969 C 346.046875 143.949219 343.734375 144.527344 339.6875 147.125 C 335.351562 150.304688 333.90625 152.902344 331.882812 156.367188 C 331.011719 157.8125 329.277344 159.546875 327.542969 161.277344 C 324.652344 163.878906 322.050781 166.476562 322.339844 168.789062 C 322.339844 169.65625 322.917969 170.234375 323.207031 170.234375 C 323.496094 170.523438 323.785156 170.523438 324.363281 170.523438 C 325.519531 170.523438 326.964844 169.945312 328.699219 169.078125 C 331.011719 167.921875 333.90625 166.765625 336.796875 166.476562 C 337.953125 166.476562 339.109375 166.1875 340.265625 166.1875 C 345.46875 165.902344 350.09375 165.613281 354.429688 160.988281 C 357.320312 157.8125 358.765625 154.925781 359.921875 152.613281 C 360.789062 150.878906 361.367188 149.4375 362.523438 148.570312 C 363.390625 147.414062 364.835938 146.546875 365.992188 145.96875 C 367.730469 144.816406 369.175781 143.949219 369.464844 142.503906 C 371.488281 145.394531 372.933594 148.570312 373.800781 151.746094 C 365.992188 159.546875 355.007812 167.054688 343.734375 173.121094 C 342.289062 172.832031 340.265625 173.699219 336.507812 174.855469 C 334.195312 175.722656 331.59375 176.585938 329.855469 176.875 C 326.097656 177.453125 320.027344 180.632812 317.425781 182.074219 C 313.957031 178.320312 311.644531 173.699219 310.488281 168.789062 C 311.644531 167.632812 315.402344 164.167969 317.425781 160.988281 C 318.292969 159.546875 318.871094 158.390625 319.160156 157.523438 C 319.738281 156.078125 320.316406 155.214844 321.761719 153.191406 C 325.519531 148.28125 325.519531 146.546875 325.519531 145.679688 C 325.519531 145.105469 324.941406 144.527344 324.652344 144.238281 C 323.207031 143.371094 321.472656 144.238281 319.738281 145.394531 C 318.871094 145.96875 318.003906 146.257812 317.136719 146.835938 C 315.980469 147.414062 315.691406 147.414062 315.402344 147.703125 C 315.113281 147.703125 314.535156 147.414062 312.800781 147.992188 C 312.511719 147.992188 312.511719 147.992188 312.222656 148.28125 C 316.847656 137.59375 326.675781 129.796875 338.53125 128.351562 Z M 368.019531 142.214844 C 368.019531 142.792969 366.863281 143.660156 365.414062 144.527344 C 364.257812 145.394531 362.8125 146.257812 361.65625 147.414062 C 360.5 148.570312 359.632812 150.304688 358.765625 152.035156 C 357.609375 154.347656 356.164062 156.945312 353.5625 159.835938 C 349.804688 163.878906 345.757812 164.167969 340.554688 164.457031 C 339.398438 164.457031 338.242188 164.457031 337.085938 164.746094 C 333.90625 165.035156 331.011719 166.476562 328.699219 167.34375 C 327.253906 167.921875 325.230469 168.789062 324.941406 168.789062 C 324.941406 168.789062 324.941406 168.789062 324.941406 168.5 C 324.652344 167.054688 327.542969 164.457031 329.566406 162.433594 C 331.59375 160.703125 333.328125 158.96875 334.195312 157.234375 C 335.929688 153.769531 337.375 151.457031 341.421875 148.570312 C 345.179688 145.96875 347.203125 145.679688 352.117188 144.527344 L 353.851562 144.238281 C 357.320312 143.371094 359.054688 143.371094 360.210938 143.371094 C 360.789062 143.371094 361.078125 143.371094 361.078125 143.371094 C 361.367188 143.371094 361.367188 143.371094 361.65625 143.371094 C 364.257812 142.214844 367.441406 141.636719 368.019531 142.214844 Z M 313.667969 149.726562 C 314.246094 149.4375 314.824219 149.4375 315.113281 149.4375 C 315.691406 149.726562 315.980469 149.4375 318.003906 148.570312 C 319.160156 147.992188 320.027344 147.414062 320.894531 147.125 C 322.628906 146.257812 323.496094 145.679688 324.074219 145.96875 C 324.074219 146.257812 324.074219 147.703125 320.894531 152.035156 C 319.449219 154.058594 318.871094 155.214844 318.292969 156.65625 C 317.714844 157.523438 317.425781 158.679688 316.558594 159.835938 C 315.113281 162.144531 312.222656 165.035156 310.777344 166.476562 C 310.488281 164.457031 310.199219 162.433594 310.199219 160.703125 C 310.199219 157.234375 310.777344 154.058594 311.644531 151.167969 C 311.933594 150.589844 312.800781 150.015625 313.667969 149.726562 Z M 317.136719 185.542969 C 309.042969 188.429688 302.972656 189.585938 301.238281 188.140625 C 300.371094 187.5625 300.082031 186.695312 300.082031 185.542969 C 300.082031 181.496094 305.574219 175.144531 309.042969 171.964844 C 310.488281 177.164062 313.378906 181.785156 317.136719 185.542969 Z M 320.027344 184.386719 C 319.738281 184.097656 319.449219 183.808594 319.160156 183.519531 C 321.761719 182.074219 327.253906 179.476562 330.722656 178.898438 C 332.75 178.609375 335.0625 177.742188 337.375 176.875 C 331.304688 179.765625 325.519531 182.363281 320.027344 184.386719 Z M 307.597656 167.921875 C 307.597656 168.210938 307.597656 168.5 307.886719 168.789062 C 305.574219 170.8125 296.613281 179.1875 296.902344 185.542969 C 296.902344 187.5625 297.769531 189.007812 299.214844 190.453125 C 300.082031 191.320312 301.816406 191.605469 303.839844 191.605469 C 318.582031 191.605469 357.320312 172.832031 376.402344 154.058594 C 376.980469 153.769531 377.558594 153.480469 377.558594 152.902344 C 378.425781 152.035156 379.292969 150.878906 380.160156 150.015625 C 387.386719 141.347656 389.410156 135.28125 385.941406 131.816406 C 381.894531 127.773438 370.910156 129.796875 365.703125 133.550781 C 365.414062 133.261719 364.835938 132.972656 364.546875 132.683594 C 369.464844 130.660156 382.761719 125.460938 388.542969 131.238281 C 394.613281 137.304688 388.253906 146.546875 382.183594 153.191406 C 359.054688 178.609375 303.550781 204.605469 294.585938 197.382812 C 292.273438 195.363281 291.117188 193.050781 291.117188 190.164062 C 291.40625 181.496094 303.550781 171.386719 307.597656 167.921875 Z M 237.636719 414.015625 C 233.011719 414.015625 229.832031 417.480469 229.253906 421.238281 C 228.964844 423.835938 229.832031 426.4375 231.566406 428.457031 C 233.011719 430.191406 235.324219 431.347656 237.347656 431.347656 C 237.347656 431.347656 237.347656 431.347656 237.636719 431.347656 C 239.660156 431.347656 241.683594 430.191406 243.128906 428.457031 C 244.863281 426.4375 245.441406 423.835938 245.152344 421.527344 C 244.863281 417.769531 241.972656 414.015625 237.636719 414.015625 Z M 240.816406 426.4375 C 239.949219 427.589844 238.792969 428.167969 237.347656 428.167969 C 235.902344 428.167969 234.746094 427.589844 233.589844 426.4375 C 232.433594 424.992188 231.855469 423.257812 232.144531 421.816406 C 232.433594 419.503906 234.457031 417.191406 237.058594 417.191406 C 237.058594 417.191406 237.058594 417.191406 237.347656 417.191406 C 239.949219 417.191406 241.972656 419.792969 242.261719 421.816406 C 242.550781 423.257812 241.972656 424.992188 240.816406 426.4375 Z M 77.765625 390.042969 L 80.945312 379.644531 C 81.234375 379.066406 80.945312 378.777344 80.65625 378.199219 C 80.367188 377.910156 79.789062 377.621094 79.210938 377.621094 L 67.070312 379.066406 L 58.6875 371.265625 C 58.398438 370.976562 57.820312 370.691406 57.242188 370.976562 C 56.664062 371.265625 56.375 371.554688 56.375 372.132812 L 54.351562 383.6875 L 43.652344 390.621094 C 43.363281 390.910156 43.074219 391.484375 43.074219 391.773438 C 43.074219 392.351562 43.363281 392.640625 43.652344 392.929688 L 54.351562 399.574219 L 55.507812 408.527344 C 55.507812 409.105469 55.796875 409.394531 56.375 409.683594 C 56.664062 409.683594 56.664062 409.683594 56.953125 409.683594 C 57.242188 409.683594 57.53125 409.683594 57.820312 409.394531 L 68.804688 401.308594 L 80.65625 401.308594 C 81.234375 401.308594 81.523438 401.019531 81.8125 400.730469 C 82.101562 400.441406 82.101562 399.863281 81.8125 399.285156 Z M 68.226562 398.417969 C 67.9375 398.417969 67.648438 398.417969 67.359375 398.707031 L 58.109375 405.640625 L 57.242188 398.417969 C 57.242188 397.839844 56.953125 397.550781 56.664062 397.261719 L 47.410156 391.484375 L 56.664062 385.421875 C 56.953125 385.132812 57.242188 384.84375 57.242188 384.554688 L 58.6875 375.023438 L 65.625 381.375 C 65.914062 381.664062 66.492188 381.953125 66.78125 381.664062 L 77.476562 380.511719 L 74.585938 389.175781 C 74.585938 389.464844 74.585938 390.042969 74.585938 390.332031 L 78.054688 398.128906 L 68.226562 398.128906 Z M 443.183594 236.378906 C 443.183594 235.800781 442.894531 235.511719 442.605469 234.933594 L 435.957031 229.734375 L 435.664062 221.9375 C 435.664062 221.359375 435.375 220.78125 434.796875 220.78125 C 434.21875 220.492188 433.640625 220.492188 433.351562 220.78125 L 426.703125 225.402344 L 418.03125 223.667969 C 417.453125 223.667969 416.875 223.667969 416.585938 223.957031 C 416.296875 224.246094 416.007812 224.824219 416.296875 225.402344 L 418.320312 233.777344 L 414.5625 238.6875 C 414.273438 238.976562 414.273438 239.554688 414.273438 240.132812 C 414.273438 240.710938 414.851562 241 415.429688 241 L 424.679688 242.445312 L 430.460938 248.21875 C 430.75 248.507812 431.039062 248.796875 431.617188 248.796875 C 431.617188 248.796875 431.90625 248.796875 431.90625 248.796875 C 432.484375 248.796875 432.773438 248.21875 433.0625 247.933594 L 435.664062 241.289062 L 442.316406 237.820312 C 442.894531 237.246094 443.183594 236.957031 443.183594 236.378906 Z M 433.929688 238.6875 C 433.640625 238.976562 433.351562 239.265625 433.351562 239.554688 L 431.328125 244.464844 L 426.703125 239.84375 C 426.414062 239.554688 426.125 239.554688 425.835938 239.554688 L 418.609375 238.398438 L 421.210938 234.933594 C 421.5 234.644531 421.5 234.066406 421.5 233.777344 L 419.765625 227.136719 L 426.703125 228.578125 C 426.992188 228.578125 427.570312 228.578125 427.859375 228.289062 L 432.773438 224.824219 L 433.0625 230.601562 C 433.0625 230.890625 433.351562 231.46875 433.640625 231.757812 L 439.136719 236.089844 Z M 155.53125 352.203125 C 150.617188 352.78125 146.570312 356.535156 146.28125 361.15625 C 145.992188 364.335938 147.148438 367.800781 149.75 370.113281 C 151.773438 372.132812 154.664062 373.289062 157.269531 373.289062 C 157.847656 373.289062 158.425781 373.289062 158.714844 373.289062 C 163.628906 372.421875 168.542969 367.222656 167.386719 361.15625 C 166.519531 355.667969 161.027344 351.625 155.53125 352.203125 Z M 158.136719 370.402344 C 155.820312 370.691406 153.507812 369.824219 151.773438 368.089844 C 150.039062 366.355469 148.882812 363.757812 149.171875 361.734375 C 149.460938 358.558594 152.351562 355.667969 155.820312 355.382812 C 156.109375 355.382812 156.398438 355.382812 156.6875 355.382812 C 160.449219 355.382812 163.628906 357.980469 164.496094 361.734375 C 165.074219 366.066406 161.605469 369.824219 158.136719 370.402344 Z M 394.324219 301.65625 C 392.011719 300.210938 389.410156 299.632812 387.097656 300.210938 C 384.207031 301.078125 382.183594 303.390625 381.027344 304.832031 C 376.402344 302.523438 368.019531 301.078125 363.96875 307.722656 C 359.921875 314.652344 363.101562 319.566406 365.703125 321.585938 C 365.703125 326.207031 366.863281 329.386719 369.175781 330.828125 C 371.199219 331.984375 373.511719 331.40625 375.246094 330.828125 C 375.824219 333.140625 377.558594 335.738281 381.316406 336.605469 C 381.894531 336.605469 382.472656 336.894531 382.761719 336.894531 C 385.941406 336.894531 388.253906 334.875 389.410156 332.851562 C 392.300781 333.140625 397.792969 332.5625 399.816406 328.230469 C 401.84375 323.898438 398.371094 319.851562 396.636719 318.121094 C 398.949219 313.5 400.683594 305.699219 394.324219 301.65625 Z M 397.214844 326.496094 C 395.480469 330.25 389.699219 329.675781 389.121094 329.386719 C 388.253906 329.097656 387.675781 329.386719 387.386719 330.25 C 387.386719 330.539062 385.652344 334.007812 382.183594 333.429688 C 378.425781 332.851562 378.136719 328.519531 378.136719 328.519531 C 378.136719 327.941406 377.847656 327.652344 377.269531 327.363281 C 376.980469 327.363281 376.691406 327.074219 376.691406 327.074219 C 376.402344 327.074219 376.113281 327.074219 375.824219 327.363281 C 374.957031 327.941406 372.644531 329.097656 370.910156 328.230469 C 369.464844 327.363281 368.597656 324.765625 368.886719 321.007812 C 368.886719 320.429688 368.597656 319.851562 368.308594 319.566406 C 368.019531 319.566406 362.8125 316.097656 366.863281 309.167969 C 370.910156 302.523438 380.738281 307.722656 381.027344 308.011719 C 381.316406 308.300781 381.894531 308.300781 382.183594 308.011719 C 382.472656 308.011719 382.761719 307.722656 383.050781 307.433594 C 383.050781 307.433594 385.074219 303.96875 387.964844 303.101562 C 389.410156 302.8125 391.144531 303.101562 392.878906 304.257812 C 398.949219 308.300781 394.035156 316.964844 393.746094 317.253906 C 393.457031 317.832031 393.457031 318.699219 394.035156 319.277344 C 394.035156 319.277344 398.660156 323.03125 397.214844 326.496094 Z M 371.488281 315.230469 C 371.199219 315.230469 371.199219 315.230469 370.910156 315.230469 C 370.332031 315.230469 369.753906 314.941406 369.464844 314.078125 C 369.175781 313.210938 369.753906 312.34375 370.332031 312.34375 C 370.621094 312.34375 370.910156 312.054688 370.910156 312.054688 C 370.910156 311.765625 370.910156 311.476562 370.910156 311.476562 C 370.621094 310.609375 370.910156 309.742188 371.777344 309.457031 C 372.644531 309.167969 373.511719 309.457031 373.800781 310.320312 C 373.800781 310.609375 374.378906 311.765625 373.800781 313.210938 C 373.800781 313.789062 372.933594 314.652344 371.488281 315.230469 Z M 378.425781 323.320312 C 378.425781 324.1875 377.558594 324.765625 376.980469 324.765625 C 376.980469 324.765625 376.980469 324.765625 376.691406 324.765625 C 375.824219 324.765625 375.246094 323.898438 375.535156 323.03125 C 375.535156 322.742188 375.535156 322.453125 375.535156 322.453125 C 375.246094 322.164062 374.378906 322.164062 373.800781 322.453125 C 372.933594 322.742188 372.066406 322.164062 372.066406 321.296875 C 371.777344 320.429688 372.355469 319.566406 373.222656 319.566406 C 373.800781 319.566406 376.113281 318.988281 377.558594 320.429688 C 378.136719 320.71875 378.714844 321.585938 378.425781 323.320312 Z M 390.566406 322.453125 C 390.855469 323.320312 390.277344 324.1875 389.410156 324.1875 C 388.832031 324.1875 387.964844 325.917969 387.675781 327.652344 C 387.386719 328.230469 386.808594 328.808594 386.230469 328.808594 C 386.230469 328.808594 385.941406 328.808594 385.941406 328.808594 C 385.074219 328.519531 384.496094 327.941406 384.785156 327.074219 C 385.074219 326.207031 386.230469 321.875 388.832031 321.296875 C 389.410156 321.007812 390.277344 321.585938 390.566406 322.453125 Z M 383.917969 319.566406 C 383.628906 319.566406 383.339844 319.566406 383.050781 319.566406 C 381.894531 319.566406 381.316406 319.277344 380.738281 318.699219 C 379.582031 317.832031 379.292969 316.097656 379.292969 316.097656 C 379.292969 315.230469 379.871094 314.652344 380.738281 314.367188 C 381.605469 314.367188 382.183594 314.941406 382.472656 315.808594 C 382.472656 315.808594 382.472656 316.386719 382.761719 316.386719 C 383.050781 316.675781 383.339844 316.386719 383.628906 316.386719 C 384.496094 316.386719 385.074219 316.675781 385.363281 317.542969 C 385.652344 318.410156 384.785156 319.277344 383.917969 319.566406 Z M 391.722656 311.1875 C 392.011719 312.054688 391.722656 312.921875 390.855469 313.210938 C 389.988281 313.5 389.410156 313.789062 388.832031 313.789062 C 387.964844 313.789062 387.386719 313.5 386.808594 313.210938 C 384.785156 312.054688 384.496094 309.167969 384.496094 308.589844 C 384.496094 307.722656 385.074219 307.144531 385.941406 307.144531 C 386.808594 307.144531 387.386719 307.722656 387.386719 308.589844 C 387.386719 309.167969 387.675781 310.320312 388.253906 310.609375 C 388.542969 310.898438 389.121094 310.609375 389.410156 310.609375 C 390.277344 310.03125 391.433594 310.320312 391.722656 311.1875 Z M 552.171875 327.652344 C 543.210938 316.675781 541.476562 314.367188 542.34375 312.632812 C 542.34375 312.632812 542.34375 312.34375 542.34375 312.34375 C 542.34375 312.054688 542.34375 312.054688 542.34375 311.765625 C 542.34375 311.765625 542.34375 311.476562 542.34375 311.476562 C 542.054688 311.1875 537.714844 303.390625 528.464844 304.257812 C 528.464844 304.257812 528.175781 304.257812 528.175781 304.542969 C 528.175781 304.542969 527.886719 304.832031 527.886719 304.832031 C 527.886719 304.832031 527.886719 305.121094 527.886719 305.121094 C 527.886719 305.410156 526.441406 308.878906 522.972656 308.011719 C 522.105469 307.722656 521.238281 307.433594 519.792969 306.855469 C 514.011719 304.832031 503.3125 300.789062 489.148438 303.96875 C 487.703125 302.8125 482.789062 299.921875 481.632812 299.058594 C 481.632812 299.058594 481.34375 299.058594 481.34375 299.058594 C 481.34375 299.058594 481.34375 299.058594 481.054688 299.058594 C 479.320312 298.480469 475.851562 299.34375 473.828125 299.921875 C 471.222656 300.789062 465.441406 303.101562 463.996094 307.144531 C 463.996094 307.144531 463.996094 307.433594 463.996094 307.433594 C 463.996094 307.433594 463.996094 307.722656 463.996094 307.722656 C 464.285156 310.03125 464.574219 317.253906 463.128906 319.851562 C 462.839844 320.429688 461.972656 321.296875 460.816406 322.164062 C 456.191406 326.496094 447.230469 334.296875 446.941406 353.648438 C 446.652344 354.515625 445.496094 358.269531 442.316406 360.292969 C 442.027344 360.292969 442.027344 360.582031 442.027344 360.582031 C 442.027344 360.582031 436.820312 368.957031 444.628906 377.910156 C 444.628906 377.910156 444.917969 378.199219 444.917969 378.199219 C 445.207031 378.199219 445.207031 378.199219 445.496094 378.199219 C 445.496094 378.199219 445.496094 378.199219 445.785156 378.199219 C 445.785156 378.199219 445.785156 378.199219 446.074219 378.199219 C 447.808594 377.621094 453.589844 376.753906 455.613281 379.066406 C 456.191406 379.644531 456.769531 380.511719 457.347656 381.375 C 461.394531 386.863281 468.621094 396.398438 474.984375 398.996094 C 474.40625 400.441406 474.117188 402.75 475.5625 405.0625 C 477.007812 407.371094 481.34375 409.394531 485.390625 409.683594 C 485.96875 409.683594 486.257812 409.683594 486.835938 409.683594 C 488.859375 409.683594 490.59375 409.105469 491.75 408.238281 C 493.484375 406.796875 493.195312 405.351562 493.195312 404.484375 C 493.195312 404.484375 493.195312 404.195312 493.195312 404.195312 C 493.484375 403.90625 494.640625 403.617188 498.398438 403.328125 C 499.554688 403.328125 501 403.039062 502.15625 403.039062 C 511.699219 402.460938 521.238281 401.882812 527.019531 397.261719 C 529.042969 395.53125 530.488281 394.085938 531.355469 393.21875 C 533.378906 391.199219 533.667969 390.621094 536.558594 391.199219 C 542.921875 392.351562 549.859375 388.019531 552.171875 383.109375 C 553.328125 380.511719 553.039062 379.066406 552.75 377.621094 C 552.460938 376.464844 552.171875 375.3125 553.328125 372.421875 C 556.796875 365.78125 562 339.785156 552.171875 327.652344 Z M 538.003906 310.609375 C 533.378906 310.609375 531.355469 308.589844 530.488281 306.855469 C 534.246094 307.144531 536.558594 309.167969 538.003906 310.609375 Z M 477.875 301.367188 C 475.273438 306.277344 470.355469 306.277344 467.464844 305.988281 C 469.777344 303.679688 474.984375 301.945312 477.875 301.367188 Z M 442.894531 366.066406 C 443.761719 367.800781 444.628906 370.113281 444.628906 372.710938 C 442.894531 370.113281 442.605469 367.800781 442.894531 366.066406 Z M 477.875 403.328125 C 479.609375 403.039062 482.789062 403.328125 485.679688 406.507812 C 485.679688 406.507812 485.679688 406.507812 485.390625 406.507812 C 482.210938 405.929688 479.03125 404.484375 477.875 403.328125 Z M 542.054688 387.441406 C 542.921875 385.710938 544.65625 382.820312 549.859375 381.089844 C 549.859375 381.089844 549.859375 381.089844 549.859375 381.375 C 548.414062 383.976562 545.523438 386.289062 542.054688 387.441406 Z M 551.015625 370.976562 C 549.28125 374.734375 549.859375 376.464844 550.148438 378.199219 C 541.476562 380.511719 539.449219 385.710938 538.871094 388.019531 C 538.292969 388.019531 537.714844 388.019531 537.425781 387.730469 C 533.089844 386.863281 531.933594 388.019531 529.332031 390.621094 C 528.464844 391.773438 527.019531 392.929688 525.285156 394.375 C 520.082031 398.417969 510.832031 398.996094 502.15625 399.574219 C 501 399.574219 499.554688 399.574219 498.398438 399.863281 C 492.617188 400.152344 490.015625 401.019531 490.304688 404.195312 C 490.304688 404.773438 490.304688 405.0625 489.726562 405.640625 C 489.726562 405.640625 489.4375 405.929688 489.4375 405.929688 C 485.96875 400.730469 481.054688 399.863281 477.585938 400.152344 C 477.875 399.285156 478.164062 398.417969 478.453125 398.417969 C 478.742188 398.128906 478.742188 397.550781 478.742188 396.972656 C 478.453125 396.398438 478.164062 396.109375 477.585938 396.109375 C 471.804688 395.242188 463.707031 384.554688 459.949219 379.355469 C 459.082031 378.199219 458.503906 377.332031 457.925781 376.753906 C 455.613281 373.867188 450.699219 373.867188 447.808594 374.445312 C 448.964844 368.378906 444.628906 362.601562 444.339844 362.3125 C 444.339844 362.3125 444.339844 362.3125 444.050781 362.023438 C 444.050781 362.023438 444.050781 361.734375 444.050781 361.734375 C 448.097656 358.847656 449.542969 353.648438 449.542969 353.359375 C 449.542969 353.359375 449.542969 353.070312 449.542969 353.070312 C 449.832031 334.875 457.925781 327.652344 462.261719 323.609375 C 463.707031 322.453125 464.574219 321.585938 465.152344 320.429688 C 466.886719 317.542969 466.886719 311.765625 466.597656 308.589844 C 467.464844 308.589844 468.332031 308.878906 469.199219 308.878906 C 473.25 308.878906 477.875 307.433594 480.476562 301.945312 C 482.789062 303.679688 486.835938 306.277344 487.125 306.277344 C 487.414062 306.566406 487.992188 306.566406 488.28125 306.566406 C 501.867188 303.390625 511.699219 307.144531 517.769531 309.167969 C 518.925781 309.742188 520.082031 310.03125 520.949219 310.320312 C 524.128906 311.1875 526.441406 310.03125 527.886719 308.300781 C 529.332031 310.609375 532.222656 313.210938 537.425781 313.210938 C 537.714844 313.210938 538.292969 313.210938 538.582031 313.210938 C 538.871094 315.808594 541.472656 319.566406 549.570312 329.097656 C 558.820312 340.648438 553.617188 364.914062 551.015625 370.976562 Z M 539.738281 340.074219 C 539.738281 340.074219 539.449219 340.074219 539.738281 340.074219 C 539.449219 339.785156 539.160156 339.785156 539.160156 339.785156 C 539.160156 339.785156 539.160156 339.785156 538.871094 339.785156 C 538.871094 339.785156 538.582031 339.785156 538.582031 339.785156 C 534.246094 340.648438 531.644531 337.761719 531.355469 337.761719 C 530.777344 337.183594 529.910156 337.183594 529.332031 337.761719 C 528.753906 338.339844 528.753906 339.207031 529.332031 339.785156 C 529.332031 339.785156 531.933594 342.671875 535.980469 342.960938 C 533.957031 347.003906 535.113281 352.492188 536.847656 355.667969 C 537.136719 355.957031 537.136719 356.246094 537.425781 356.535156 C 533.957031 358.558594 533.378906 362.601562 533.089844 362.890625 C 533.089844 363.757812 533.667969 364.335938 534.246094 364.625 C 534.246094 364.625 534.535156 364.625 534.535156 364.625 C 535.113281 364.625 535.980469 364.046875 535.980469 363.46875 C 535.980469 363.179688 536.558594 359.425781 540.605469 358.558594 C 540.898438 358.558594 540.898438 358.558594 541.1875 358.269531 C 542.921875 357.691406 544.078125 355.09375 544.367188 351.046875 C 544.65625 344.117188 540.027344 340.359375 539.738281 340.074219 Z M 541.1875 350.757812 C 540.898438 353.648438 540.316406 355.09375 540.027344 355.382812 C 539.738281 355.382812 539.449219 354.804688 539.160156 354.226562 C 537.425781 351.335938 536.847656 346.136719 538.871094 343.25 C 540.027344 344.695312 541.476562 347.292969 541.1875 350.757812 Z M 501.289062 323.320312 C 503.601562 325.917969 507.941406 328.808594 512.855469 328.808594 C 513.433594 328.808594 514.011719 328.808594 514.300781 328.808594 C 514.011719 331.695312 515.167969 333.429688 515.167969 333.429688 C 515.457031 334.007812 516.035156 334.007812 516.324219 334.007812 C 516.613281 334.007812 516.902344 334.007812 517.191406 333.71875 C 517.769531 333.140625 518.058594 332.273438 517.769531 331.695312 C 517.769531 331.695312 516.613281 329.675781 517.769531 327.074219 C 517.769531 327.074219 517.769531 326.785156 517.769531 326.785156 C 517.769531 326.496094 517.769531 326.496094 517.769531 326.207031 C 517.769531 326.207031 517.769531 325.917969 517.480469 325.917969 C 517.191406 325.628906 511.121094 316.675781 500.710938 319.277344 C 500.421875 319.277344 500.421875 319.277344 500.421875 319.566406 C 500.421875 319.566406 500.132812 319.851562 500.132812 319.851562 C 497.53125 324.1875 494.351562 325.917969 494.351562 325.917969 C 493.484375 326.207031 493.195312 327.074219 493.484375 327.941406 C 493.773438 328.519531 494.351562 328.808594 494.929688 328.808594 C 495.21875 328.808594 495.21875 328.808594 495.507812 328.808594 C 495.21875 328.808594 498.398438 327.363281 501.289062 323.320312 Z M 513.722656 325.917969 C 509.386719 326.496094 505.917969 323.898438 504.179688 321.875 C 508.519531 321.585938 511.988281 324.1875 513.722656 325.917969 Z M 483.078125 335.738281 C 483.078125 335.738281 480.1875 336.894531 477.296875 336.027344 C 477.007812 336.027344 477.007812 336.027344 476.71875 336.027344 C 476.71875 336.027344 476.429688 336.027344 476.429688 336.027344 C 473.539062 337.183594 468.621094 341.515625 470.355469 349.316406 C 470.355469 349.316406 470.355469 349.316406 470.355469 349.605469 C 470.355469 349.605469 470.355469 349.894531 470.355469 349.894531 C 470.355469 349.894531 470.355469 350.183594 470.644531 350.183594 C 470.644531 350.183594 470.644531 350.183594 470.9375 350.46875 C 470.9375 350.46875 470.9375 350.46875 471.226562 350.46875 C 471.515625 350.46875 475.273438 352.203125 474.695312 355.957031 C 474.695312 356.824219 475.273438 357.402344 475.851562 357.691406 C 475.851562 357.691406 476.140625 357.691406 476.140625 357.691406 C 477.007812 357.691406 477.585938 357.113281 477.585938 356.535156 C 478.164062 353.070312 476.429688 350.757812 474.695312 349.316406 C 475.851562 348.449219 477.296875 347.003906 478.453125 344.695312 C 479.609375 342.671875 479.898438 340.648438 479.609375 339.207031 C 482.210938 339.207031 484.234375 338.339844 484.234375 338.339844 C 485.101562 338.050781 485.390625 337.183594 485.101562 336.316406 C 484.523438 335.738281 483.65625 335.449219 483.078125 335.738281 Z M 475.5625 343.25 C 474.40625 344.984375 473.539062 346.136719 472.671875 346.714844 C 472.382812 342.382812 474.984375 340.359375 476.429688 339.496094 C 476.71875 340.074219 476.71875 341.515625 475.5625 343.25 Z M 486.257812 321.875 C 484.8125 324.765625 482.5 325.339844 480.476562 325.339844 C 479.320312 325.339844 478.164062 325.050781 477.585938 324.765625 C 476.71875 324.476562 476.429688 323.609375 476.71875 322.742188 C 477.007812 321.875 477.875 321.585938 478.742188 321.875 C 479.03125 321.875 482.210938 323.03125 483.65625 320.140625 C 483.945312 319.277344 484.8125 319.277344 485.679688 319.566406 C 486.257812 320.140625 486.546875 321.007812 486.257812 321.875 Z M 462.839844 338.050781 C 463.707031 340.074219 463.996094 344.984375 459.949219 347.582031 C 459.660156 347.871094 459.371094 347.871094 459.082031 347.871094 C 458.503906 347.871094 458.214844 347.582031 457.925781 347.292969 C 457.347656 346.714844 457.636719 345.558594 458.214844 345.273438 C 461.105469 343.25 459.949219 339.207031 459.949219 339.207031 C 459.660156 338.339844 460.238281 337.472656 460.816406 337.183594 C 461.683594 336.894531 462.550781 337.472656 462.839844 338.050781 Z M 473.828125 372.421875 C 474.40625 373.867188 474.40625 375.3125 473.828125 377.042969 C 473.539062 377.621094 472.960938 377.910156 472.382812 377.910156 C 472.09375 377.910156 472.09375 377.910156 471.804688 377.910156 C 470.9375 377.621094 470.644531 376.753906 470.9375 375.890625 C 471.226562 375.023438 471.226562 374.445312 470.9375 373.867188 C 470.355469 372.421875 468.621094 371.554688 467.753906 371.265625 C 466.886719 370.980469 466.597656 370.113281 466.886719 369.246094 C 467.175781 368.378906 468.042969 368.089844 468.910156 368.378906 C 469.488281 368.378906 472.671875 369.824219 473.828125 372.421875 Z M 519.792969 374.445312 C 518.058594 377.042969 517.769531 379.644531 518.058594 381.664062 C 515.167969 381.375 509.964844 381.664062 506.496094 385.710938 C 505.046875 384.554688 502.445312 382.53125 500.421875 381.664062 C 499.554688 381.375 498.6875 381.664062 498.398438 382.53125 C 498.109375 383.398438 498.398438 384.265625 499.265625 384.554688 C 501.867188 385.710938 505.917969 388.886719 505.917969 389.175781 C 505.917969 389.175781 506.207031 389.175781 506.207031 389.464844 C 507.363281 390.042969 508.808594 390.332031 510.832031 390.332031 C 514.011719 390.332031 518.058594 388.886719 521.238281 384.554688 C 521.238281 384.265625 521.238281 384.265625 521.527344 383.976562 C 521.527344 383.6875 521.527344 383.6875 521.527344 383.398438 C 521.527344 383.109375 520.371094 379.933594 522.683594 376.464844 C 523.261719 375.890625 522.972656 374.734375 522.394531 374.445312 C 520.949219 373.578125 520.082031 373.578125 519.792969 374.445312 Z M 509.097656 386.863281 C 511.410156 384.554688 514.589844 384.265625 516.613281 384.554688 C 514.300781 386.863281 511.121094 387.152344 509.097656 386.863281 Z M 510.253906 359.136719 C 509.386719 360.867188 510.253906 362.601562 510.253906 362.601562 C 510.542969 363.46875 510.253906 364.335938 509.386719 364.625 C 509.097656 364.625 509.097656 364.625 508.808594 364.625 C 508.230469 364.625 507.652344 364.335938 507.363281 363.757812 C 507.363281 363.757812 505.917969 360.582031 507.363281 357.691406 C 508.519531 355.667969 510.832031 354.226562 514.300781 353.359375 C 515.167969 353.070312 516.035156 353.648438 516.035156 354.515625 C 516.324219 355.382812 515.746094 356.246094 514.878906 356.246094 C 512.566406 356.824219 510.832031 357.691406 510.253906 359.136719 Z M 530.199219 331.117188 C 525.574219 331.117188 524.128906 327.074219 524.128906 324.765625 C 524.128906 323.898438 524.707031 323.320312 525.574219 323.03125 C 526.441406 323.03125 527.019531 323.609375 527.308594 324.476562 C 527.308594 324.765625 527.597656 327.941406 530.488281 327.941406 C 531.355469 327.941406 531.933594 328.519531 531.933594 329.386719 C 531.933594 330.539062 531.066406 331.117188 530.199219 331.117188 Z M 232.433594 260.640625 C 231.566406 260.640625 230.988281 261.21875 230.699219 261.796875 C 230.699219 262.085938 230.121094 264.394531 226.359375 264.105469 C 222.3125 264.105469 220.867188 258.90625 220.867188 258.617188 C 220.578125 258.042969 220 257.464844 219.421875 257.464844 C 218.84375 257.464844 217.976562 258.042969 217.976562 258.617188 C 217.976562 258.90625 217.398438 262.953125 213.351562 263.527344 C 209.59375 264.105469 207.570312 260.0625 207.28125 260.0625 C 206.992188 259.195312 206.125 258.90625 205.257812 259.484375 C 204.390625 259.773438 204.101562 260.640625 204.679688 261.507812 C 204.679688 261.796875 207.570312 266.996094 213.351562 266.707031 C 213.929688 268.441406 215.375 272.773438 219.132812 273.351562 C 219.421875 273.351562 219.421875 273.351562 219.710938 273.351562 C 223.757812 273.351562 226.941406 268.152344 227.230469 267.574219 C 227.230469 267.574219 227.230469 267.285156 227.230469 267.285156 C 231.855469 266.996094 233.589844 264.105469 233.589844 262.375 C 233.878906 261.507812 233.300781 260.640625 232.433594 260.640625 Z M 219.421875 270.171875 C 217.6875 269.882812 216.53125 267.285156 216.242188 265.839844 C 217.6875 265.261719 218.84375 264.105469 219.710938 262.953125 C 220.578125 264.394531 222.023438 266.128906 224.046875 266.707031 C 223.179688 268.152344 221.15625 270.460938 219.421875 270.171875 Z M 191.667969 259.195312 C 191.667969 260.0625 191.089844 260.640625 190.222656 260.640625 L 182.707031 260.0625 C 181.839844 260.0625 181.261719 259.195312 181.261719 258.617188 C 181.261719 257.753906 182.128906 257.175781 182.707031 257.175781 L 190.222656 257.464844 C 191.089844 257.753906 191.960938 258.328125 191.667969 259.195312 Z M 191.089844 265.550781 C 191.089844 266.417969 190.511719 266.996094 189.644531 267.285156 L 183.863281 267.863281 C 183.863281 267.863281 183.863281 267.863281 183.574219 267.863281 C 182.707031 267.863281 182.128906 267.285156 182.128906 266.417969 C 182.128906 265.550781 182.707031 264.972656 183.574219 264.683594 L 189.355469 264.105469 C 190.222656 264.105469 191.089844 264.683594 191.089844 265.550781 Z M 243.417969 263.242188 C 243.417969 262.375 243.707031 261.796875 244.574219 261.507812 L 252.378906 260.351562 C 253.246094 260.351562 253.824219 260.640625 254.113281 261.507812 C 254.113281 262.375 253.824219 262.953125 252.957031 263.242188 L 245.152344 264.394531 C 245.152344 264.394531 244.863281 264.394531 244.863281 264.394531 C 244.285156 264.394531 243.707031 263.816406 243.417969 263.242188 Z M 261.050781 307.433594 C 261.339844 308.300781 266.546875 328.808594 257.582031 338.050781 C 256.425781 339.207031 255.269531 339.785156 253.824219 339.785156 C 252.957031 339.785156 251.800781 339.496094 250.933594 338.917969 C 242.261719 334.585938 230.410156 307.722656 230.699219 305.699219 C 230.988281 304.832031 231.566406 304.257812 232.433594 304.542969 C 233.011719 304.542969 233.589844 305.121094 233.589844 305.699219 C 234.457031 308.300781 246.019531 334.585938 253.246094 336.605469 C 254.113281 336.894531 254.980469 336.605469 255.558594 335.738281 C 263.367188 327.652344 258.160156 308.011719 258.160156 308.011719 C 257.871094 307.144531 258.449219 306.277344 259.316406 306.277344 C 260.183594 305.988281 260.761719 306.566406 261.050781 307.433594 Z M 324.941406 233.199219 C 317.136719 230.023438 308.464844 230.3125 300.949219 234.066406 C 293.71875 237.820312 288.515625 245.332031 287.070312 254.863281 C 285.046875 266.996094 288.515625 279.992188 296.613281 288.371094 C 302.972656 295.300781 306.441406 300.5 308.175781 304.257812 C 299.503906 295.011719 287.070312 289.523438 277.242188 287.214844 C 264.8125 284.324219 258.160156 280.859375 255.558594 279.414062 C 256.136719 278.550781 256.425781 277.683594 256.425781 276.816406 C 256.425781 276.816406 256.425781 276.527344 256.425781 276.527344 C 267.703125 269.882812 276.375 257.753906 276.085938 236.089844 C 275.507812 201.71875 257.003906 182.363281 222.601562 179.765625 C 198.609375 178.03125 178.082031 184.386719 166.230469 197.09375 C 156.109375 208.070312 152.351562 223.667969 155.53125 242.734375 C 159.003906 264.105469 170.855469 275.082031 183.285156 280.859375 C 183.574219 281.726562 183.863281 282.882812 184.152344 283.75 C 180.394531 287.503906 155.53125 311.765625 156.980469 321.585938 C 157.269531 323.320312 158.136719 324.476562 159.582031 325.050781 C 165.652344 328.230469 172.011719 326.496094 177.503906 324.765625 C 181.839844 323.609375 185.886719 322.164062 189.355469 323.320312 C 192.25 324.1875 194.273438 325.917969 197.164062 328.230469 C 202.078125 332.5625 209.882812 338.917969 230.410156 345.847656 C 235.613281 347.582031 239.949219 349.027344 243.707031 350.183594 C 245.152344 358.269531 249.199219 379.644531 254.691406 381.089844 C 254.980469 381.089844 255.269531 381.089844 255.558594 381.089844 C 260.472656 381.089844 265.390625 370.402344 268.28125 363.46875 C 268.570312 364.335938 269.148438 365.492188 269.4375 366.355469 C 273.484375 375.601562 278.6875 387.441406 285.625 387.441406 C 285.914062 387.441406 286.492188 387.441406 286.78125 387.441406 C 288.804688 387.152344 290.539062 386 291.984375 383.976562 C 295.164062 379.066406 294.296875 369.824219 293.429688 365.203125 C 295.742188 366.066406 298.925781 366.355469 302.394531 365.203125 C 309.042969 362.601562 314.246094 354.804688 317.425781 341.515625 C 318.292969 338.050781 318.871094 334.585938 318.871094 331.40625 C 320.894531 328.808594 330.144531 316.097656 326.386719 299.058594 C 324.363281 288.949219 321.472656 282.59375 319.449219 278.550781 C 321.183594 278.835938 322.917969 279.125 324.652344 278.835938 C 331.882812 277.683594 337.664062 273.925781 340.84375 268.441406 C 344.023438 263.242188 344.3125 257.175781 342.289062 250.820312 C 339.6875 243.019531 333.328125 236.378906 324.941406 233.199219 Z M 188.488281 279.414062 C 189.933594 280.28125 191.378906 280.859375 193.117188 281.726562 C 190.800781 281.148438 188.488281 280.28125 186.175781 279.414062 C 186.175781 279.125 186.175781 278.550781 186.175781 278.261719 C 187.042969 278.550781 187.621094 278.835938 188.488281 279.414062 Z M 189.933594 276.816406 C 189.355469 276.527344 188.777344 276.238281 188.488281 275.949219 L 192.25 271.90625 C 192.828125 271.328125 192.828125 270.460938 192.25 269.882812 C 191.671875 269.304688 190.800781 269.304688 190.222656 269.882812 L 186.175781 273.925781 C 186.175781 273.925781 186.175781 273.925781 186.175781 274.214844 C 161.605469 257.175781 176.636719 227.710938 177.503906 226.269531 C 177.792969 225.980469 177.792969 225.691406 177.503906 225.113281 C 176.636719 221.9375 175.191406 212.691406 178.082031 208.648438 C 178.371094 208.070312 178.949219 207.78125 179.527344 207.78125 C 179.816406 207.78125 180.105469 207.78125 180.105469 207.78125 C 184.441406 207.78125 192.539062 213.269531 195.140625 215.292969 C 195.429688 215.582031 196.007812 215.582031 196.296875 215.582031 C 204.390625 213.558594 235.902344 217.601562 236.191406 217.601562 C 236.769531 217.601562 237.058594 217.601562 237.347656 217.3125 C 241.972656 212.691406 251.222656 209.226562 253.824219 210.671875 C 255.269531 211.25 254.691406 217.027344 254.691406 219.914062 C 254.402344 222.800781 254.402344 225.402344 254.691406 226.847656 C 254.980469 227.421875 255.269531 228.289062 255.558594 229.445312 C 257.582031 234.066406 261.050781 243.019531 259.316406 258.90625 C 259.027344 262.085938 257.292969 265.550781 254.980469 268.441406 C 254.980469 268.441406 254.980469 268.152344 254.980469 268.152344 C 254.980469 267.285156 254.402344 266.707031 253.535156 266.707031 L 244.863281 266.707031 C 243.996094 266.707031 243.417969 267.285156 243.417969 268.152344 C 243.417969 269.015625 243.996094 269.59375 244.863281 269.59375 L 253.824219 269.304688 C 254.113281 269.304688 254.113281 269.304688 254.402344 269.304688 C 253.246094 270.460938 252.089844 271.617188 250.644531 272.773438 L 245.441406 270.460938 C 244.574219 270.171875 243.707031 270.460938 243.417969 271.328125 C 243.128906 272.195312 243.417969 273.0625 244.285156 273.351562 L 248.042969 275.082031 C 246.597656 276.238281 244.863281 277.105469 243.128906 277.972656 C 230.410156 284.324219 209.59375 287.503906 189.933594 276.816406 Z M 252.089844 275.660156 C 252.089844 275.371094 252.089844 275.371094 252.089844 275.660156 C 252.378906 275.371094 252.378906 275.371094 252.378906 275.660156 C 252.089844 275.660156 252.089844 275.660156 252.089844 275.660156 C 251.800781 275.660156 252.089844 275.660156 252.089844 275.660156 Z M 158.425781 242.445312 C 155.53125 224.246094 158.714844 209.515625 168.253906 199.117188 C 179.238281 186.984375 198.898438 181.210938 222.023438 182.941406 C 254.980469 185.542969 272.039062 203.449219 272.617188 236.378906 C 272.90625 256.308594 265.101562 267.574219 254.691406 273.925781 C 254.402344 273.636719 254.402344 273.636719 254.113281 273.351562 C 258.738281 269.015625 261.632812 264.105469 262.210938 258.90625 C 264.234375 242.15625 260.183594 232.621094 258.449219 228 C 258.160156 227.136719 257.871094 226.269531 257.582031 225.691406 C 257.292969 224.535156 257.292969 222.226562 257.582031 219.625 C 257.871094 214.425781 258.160156 208.648438 254.980469 207.492188 C 250.644531 205.761719 240.527344 209.804688 235.613281 214.425781 C 230.988281 213.847656 204.96875 210.960938 196.296875 212.402344 C 193.695312 210.382812 184.441406 203.738281 178.660156 204.894531 C 177.214844 205.183594 176.058594 205.761719 175.191406 206.917969 C 171.433594 212.402344 173.457031 222.800781 174.035156 225.402344 C 172.011719 229.734375 159.292969 258.90625 183.574219 276.238281 C 183.574219 276.527344 183.285156 277.105469 183.285156 277.683594 C 172.011719 272.195312 161.605469 261.796875 158.425781 242.445312 Z M 212.484375 287.214844 C 215.085938 287.214844 216.53125 287.214844 216.820312 286.925781 C 217.109375 286.925781 217.398438 286.636719 217.6875 286.636719 C 224.625 286.636719 231.277344 285.480469 236.769531 283.460938 C 241.972656 282.59375 247.464844 281.148438 252.667969 278.550781 C 252.089844 279.125 251.222656 279.992188 250.066406 280.570312 C 226.652344 295.589844 192.828125 285.480469 188.488281 283.75 C 187.910156 283.460938 187.332031 283.171875 187.042969 282.59375 C 197.164062 286.636719 206.992188 287.214844 212.484375 287.214844 Z M 255.269531 378.488281 C 252.957031 377.910156 248.910156 364.335938 246.886719 351.335938 C 252.957031 353.070312 256.425781 354.226562 258.738281 354.804688 C 261.921875 355.667969 262.5 355.667969 264.234375 356.824219 C 264.8125 357.113281 265.679688 358.269531 266.257812 360.003906 C 262.210938 370.691406 257.292969 379.066406 255.269531 378.488281 Z M 314.535156 340.9375 C 311.644531 352.78125 307.019531 360.292969 301.238281 362.3125 C 296.320312 364.335938 292.273438 361.445312 291.984375 361.445312 C 291.40625 361.15625 290.828125 361.15625 290.25 361.445312 C 289.671875 361.734375 289.382812 362.3125 289.671875 362.890625 C 290.539062 366.644531 292.273438 377.621094 289.09375 382.242188 C 288.226562 383.398438 287.359375 383.976562 285.914062 384.265625 C 280.710938 385.132812 275.21875 373 271.75 365.203125 C 270.59375 362.890625 269.726562 360.867188 268.859375 359.136719 C 267.414062 356.535156 266.546875 354.804688 265.390625 354.226562 C 263.078125 352.78125 262.210938 352.78125 259.027344 351.914062 C 255.269531 350.757812 248.042969 349.027344 230.988281 343.25 C 211.039062 336.605469 204.101562 330.539062 198.898438 326.207031 C 196.007812 323.609375 193.695312 321.875 189.933594 320.71875 C 185.308594 319.566406 180.683594 320.71875 176.347656 322.164062 C 170.855469 323.898438 165.652344 325.339844 160.738281 322.742188 C 160.160156 322.453125 159.871094 322.164062 159.871094 321.296875 C 159.003906 314.941406 174.902344 296.746094 186.175781 286.058594 C 186.464844 286.347656 186.753906 286.347656 187.042969 286.636719 C 189.644531 287.792969 202.945312 291.835938 218.265625 291.835938 C 229.253906 291.835938 241.394531 289.8125 251.511719 283.460938 C 252.089844 283.171875 252.667969 282.59375 253.246094 282.304688 C 255.558594 283.75 262.5 287.503906 276.085938 290.679688 C 287.070312 293.28125 302.683594 300.5 310.488281 313.210938 C 315.691406 321.296875 317.136719 330.539062 314.535156 340.9375 Z M 338.53125 266.996094 C 335.640625 271.617188 330.433594 275.082031 324.363281 275.949219 C 318.582031 276.816406 314.246094 273.351562 312.800781 269.304688 C 311.644531 266.417969 311.644531 262.664062 314.824219 260.351562 C 315.402344 259.773438 315.691406 258.90625 315.113281 258.328125 C 314.535156 257.753906 313.667969 257.464844 313.089844 258.042969 C 309.332031 260.640625 307.886719 265.550781 309.910156 270.460938 C 310.777344 272.484375 312.222656 274.503906 313.957031 275.949219 C 313.957031 275.949219 319.738281 282.304688 323.496094 299.632812 C 326.097656 311.476562 321.472656 321.296875 318.582031 326.207031 C 318.003906 321.007812 316.269531 315.808594 313.378906 311.1875 C 313.089844 310.898438 313.089844 310.609375 312.800781 310.320312 C 312.800781 308.300781 311.355469 299.632812 298.636719 286.058594 C 291.40625 278.261719 287.9375 266.417969 289.960938 255.152344 C 291.40625 246.488281 296.03125 239.554688 302.394531 236.378906 C 309.332031 232.910156 316.847656 232.621094 324.074219 235.511719 C 331.304688 238.398438 337.375 244.464844 339.6875 251.6875 C 341.421875 257.464844 341.132812 262.953125 338.53125 266.996094 Z M 200.921875 251.398438 C 200.921875 253.417969 199.476562 255.152344 198.03125 255.152344 C 196.585938 255.152344 195.140625 253.417969 195.140625 251.398438 C 195.140625 249.375 196.585938 247.644531 198.03125 247.644531 C 199.476562 247.644531 200.921875 249.375 200.921875 251.398438 Z M 242.261719 252.265625 C 242.261719 254.285156 240.816406 256.019531 239.371094 256.019531 C 237.925781 256.019531 236.480469 254.285156 236.480469 252.265625 C 236.480469 250.242188 237.925781 248.507812 239.371094 248.507812 C 240.816406 248.507812 242.261719 250.242188 242.261719 252.265625 Z M 83.546875 223.957031 C 83.257812 223.957031 83.257812 223.957031 83.546875 223.957031 C 83.257812 223.667969 83.257812 223.667969 83.257812 223.667969 C 83.257812 223.667969 83.257812 223.667969 82.96875 223.667969 C 82.96875 223.667969 82.679688 223.667969 82.679688 223.667969 C 82.679688 223.667969 82.390625 223.667969 82.390625 223.667969 C 82.390625 223.667969 82.390625 223.667969 82.101562 223.667969 C 81.523438 223.667969 79.210938 222.511719 77.476562 221.648438 C 76.03125 217.601562 71.984375 212.113281 69.09375 208.359375 C 68.515625 207.492188 67.9375 206.917969 67.359375 206.339844 C 66.203125 204.605469 66.203125 204.027344 66.492188 202.871094 C 66.492188 202.003906 66.78125 201.140625 66.492188 199.984375 C 65.625 196.804688 55.507812 192.761719 54.929688 192.761719 C 54.0625 192.761719 53.484375 193.339844 50.878906 195.941406 C 50.589844 196.230469 50.300781 196.519531 50.011719 196.804688 C 49.722656 196.804688 49.144531 196.519531 48.566406 196.519531 C 46.542969 195.941406 43.074219 194.785156 38.160156 195.074219 C 33.246094 195.363281 29.199219 196.804688 25.730469 197.960938 C 23.707031 198.539062 21.972656 199.40625 20.816406 199.40625 C 19.082031 199.695312 18.214844 198.828125 17.054688 197.960938 C 16.476562 197.382812 15.609375 196.804688 14.453125 196.519531 C 11.273438 195.941406 5.78125 201.71875 4.625 203.738281 C 3.179688 206.050781 4.046875 208.648438 4.914062 210.671875 C 5.203125 210.960938 5.203125 211.539062 5.492188 211.828125 C 5.492188 212.117188 5.203125 212.691406 4.914062 212.980469 C 3.46875 216.160156 0 223.957031 1.15625 234.355469 C 2.3125 244.753906 5.203125 247.933594 6.648438 249.375 C 6.648438 249.375 6.9375 249.664062 6.9375 249.664062 C 6.9375 250.820312 6.648438 254.863281 6.070312 256.308594 C 4.625 260.0625 13.585938 264.105469 13.585938 264.105469 C 13.875 264.105469 14.164062 264.394531 15.320312 264.105469 C 16.476562 263.816406 17.925781 263.527344 20.238281 262.375 C 22.261719 263.242188 28.910156 265.550781 38.738281 266.128906 C 47.988281 266.707031 50.300781 265.839844 51.746094 265.261719 C 52.035156 265.261719 52.328125 264.972656 52.328125 264.972656 C 52.90625 264.972656 54.640625 265.839844 56.085938 266.996094 C 56.375 267.285156 56.664062 267.285156 56.953125 267.285156 C 57.242188 267.285156 57.242188 267.285156 57.53125 267.285156 L 69.671875 262.085938 C 70.25 261.796875 70.828125 260.929688 70.539062 260.351562 C 70.539062 260.351562 69.960938 258.328125 70.25 254.285156 C 70.539062 251.398438 74.007812 245.910156 76.03125 242.734375 C 76.898438 241.578125 77.476562 240.710938 77.765625 239.84375 C 78.632812 238.398438 80.945312 237.246094 81.8125 236.957031 C 81.8125 236.957031 82.101562 236.957031 82.101562 236.667969 C 82.390625 236.667969 82.390625 236.378906 82.390625 236.378906 C 87.015625 230.601562 83.546875 224.246094 83.546875 223.957031 Z M 9.828125 257.753906 C 10.40625 257.753906 10.695312 257.753906 11.273438 258.042969 C 11.851562 258.328125 12.429688 259.195312 13.007812 260.0625 C 11.851562 259.484375 10.695312 258.617188 9.828125 257.753906 Z M 75.453125 238.109375 C 75.164062 238.6875 74.585938 239.554688 73.71875 240.710938 C 70.539062 245.621094 67.648438 250.242188 67.359375 253.707031 C 67.070312 256.308594 67.359375 258.328125 67.648438 259.484375 L 57.53125 263.816406 C 56.375 262.953125 54.351562 261.796875 52.617188 261.796875 C 52.617188 261.796875 52.617188 261.796875 52.328125 261.796875 C 51.746094 261.796875 51.167969 262.085938 50.878906 262.085938 C 49.722656 262.664062 47.410156 263.527344 39.027344 262.953125 C 28.042969 262.085938 21.105469 259.195312 21.105469 259.195312 C 20.816406 258.90625 20.238281 258.90625 19.949219 259.195312 C 18.792969 259.773438 17.34375 260.351562 16.476562 260.640625 C 15.609375 258.042969 14.453125 256.308594 12.71875 255.441406 C 11.5625 254.863281 10.695312 254.574219 9.828125 254.574219 C 10.117188 252.265625 10.40625 249.375 10.117188 248.507812 C 10.117188 247.933594 9.539062 247.355469 9.25 246.777344 C 8.09375 245.621094 5.492188 243.019531 4.625 233.488281 C 3.46875 224.246094 6.359375 217.3125 7.804688 213.847656 C 8.382812 212.691406 8.671875 212.113281 8.671875 211.539062 C 8.671875 210.671875 8.382812 209.804688 8.09375 208.9375 C 7.804688 208.359375 7.515625 207.492188 7.226562 206.628906 C 7.226562 206.628906 7.515625 206.628906 7.515625 206.628906 C 11.5625 204.894531 14.164062 202.292969 15.03125 199.695312 C 16.1875 200.851562 17.925781 202.292969 21.105469 202.003906 C 22.839844 201.71875 24.574219 201.140625 26.597656 200.273438 C 29.777344 199.117188 33.535156 197.671875 38.160156 197.382812 C 42.496094 197.09375 45.675781 197.960938 47.699219 198.539062 C 49.433594 199.117188 50.878906 199.40625 51.746094 198.539062 C 52.035156 198.25 52.328125 197.960938 52.90625 197.382812 C 53.484375 196.804688 54.351562 195.941406 54.929688 195.363281 C 57.242188 196.230469 62.734375 198.828125 63.3125 200.273438 C 63.3125 200.851562 63.3125 201.140625 63.3125 201.71875 C 63.023438 203.449219 63.023438 204.894531 64.757812 207.492188 C 65.335938 208.070312 65.914062 208.9375 66.492188 209.804688 C 69.382812 213.558594 73.71875 219.046875 74.585938 222.800781 C 74.585938 223.089844 74.875 223.667969 75.453125 223.667969 C 77.476562 224.824219 78.921875 225.402344 80.078125 225.691406 C 78.34375 229.445312 79.210938 232.621094 79.789062 234.644531 C 78.34375 235.222656 76.609375 236.378906 75.453125 238.109375 Z M 49.433594 249.375 C 50.011719 249.953125 49.722656 251.109375 48.855469 251.398438 C 48.566406 251.6875 47.410156 253.417969 46.832031 255.152344 C 47.121094 256.019531 46.832031 256.597656 46.542969 256.886719 C 46.253906 257.175781 45.675781 258.042969 42.785156 258.042969 C 41.050781 258.042969 38.738281 257.753906 34.980469 256.886719 C 34.980469 256.886719 34.691406 256.886719 34.691406 256.886719 C 34.402344 256.886719 34.402344 256.597656 34.402344 256.597656 C 34.402344 256.597656 34.113281 256.308594 34.113281 256.308594 C 34.113281 256.308594 34.113281 256.308594 34.113281 256.019531 C 34.113281 256.019531 34.113281 256.019531 34.113281 255.730469 C 34.113281 255.730469 34.113281 255.730469 34.113281 255.441406 C 34.113281 254.863281 33.246094 252.554688 32.089844 250.820312 C 31.511719 250.242188 31.800781 249.085938 32.667969 248.796875 C 33.246094 248.21875 34.402344 248.507812 34.691406 249.375 C 35.269531 249.953125 36.136719 251.976562 36.714844 253.707031 C 38.738281 253.132812 42.207031 252.265625 44.808594 253.132812 C 45.386719 251.6875 46.253906 249.664062 47.410156 249.085938 C 47.988281 248.507812 48.855469 248.796875 49.433594 249.375 Z M 48.855469 223.957031 C 48.566406 223.667969 48.277344 223.667969 47.988281 223.378906 C 43.941406 221.359375 38.449219 223.089844 36.425781 226.847656 C 34.980469 229.734375 34.691406 232.046875 35.558594 233.777344 C 36.714844 236.089844 40.183594 236.957031 43.074219 237.246094 C 43.652344 237.246094 44.519531 237.535156 45.386719 237.535156 C 47.121094 237.535156 49.433594 237.246094 50.589844 235.222656 C 52.617188 231.46875 52.328125 226.269531 48.855469 223.957031 Z M 47.988281 233.488281 C 47.410156 234.644531 45.386719 234.644531 43.652344 234.355469 C 40.472656 234.066406 38.738281 233.199219 38.449219 232.335938 C 37.871094 231.46875 38.738281 229.445312 39.316406 228.289062 C 40.183594 226.558594 42.496094 225.691406 44.519531 225.691406 C 45.386719 225.691406 46.253906 225.980469 46.832031 226.269531 C 47.121094 226.269531 47.121094 226.558594 47.410156 226.558594 C 49.144531 227.710938 49.144531 231.179688 47.988281 233.488281 Z M 26.308594 211.539062 C 25.730469 210.960938 26.019531 209.804688 26.597656 209.515625 C 27.175781 209.226562 27.464844 207.203125 27.175781 205.761719 C 27.175781 205.472656 27.175781 205.472656 27.175781 205.183594 C 27.175781 204.894531 27.175781 204.894531 27.464844 204.605469 C 27.464844 204.605469 27.464844 204.605469 27.753906 204.316406 C 32.957031 199.695312 37.582031 201.71875 38.738281 202.292969 C 38.738281 202.292969 39.027344 202.292969 39.027344 202.292969 C 39.894531 202.292969 40.472656 202.871094 40.761719 203.449219 C 40.761719 204.316406 41.339844 205.472656 41.628906 205.472656 C 42.496094 205.761719 43.074219 206.339844 42.785156 207.203125 C 42.785156 207.78125 41.917969 208.359375 41.339844 208.359375 C 41.339844 208.359375 41.050781 208.359375 41.050781 208.359375 C 39.605469 208.070312 38.738281 206.628906 38.160156 205.472656 C 35.847656 206.917969 33.535156 207.203125 31.800781 207.203125 C 31.222656 207.203125 30.644531 207.203125 30.355469 207.203125 C 30.355469 208.648438 29.777344 210.671875 28.621094 211.828125 C 28.332031 212.113281 28.042969 212.113281 27.753906 212.113281 C 27.175781 212.113281 26.597656 211.828125 26.308594 211.539062 Z M 15.609375 215.003906 C 15.03125 214.425781 15.03125 213.558594 15.609375 212.980469 C 16.476562 211.828125 16.476562 209.515625 16.1875 208.9375 C 16.1875 208.070312 16.476562 207.203125 17.34375 207.203125 C 18.214844 206.917969 19.082031 207.492188 19.082031 208.359375 C 19.082031 208.648438 19.949219 212.402344 17.636719 215.003906 C 17.34375 215.292969 17.054688 215.582031 16.476562 215.582031 C 16.1875 215.292969 15.898438 215.292969 15.609375 215.003906 Z M 26.886719 226.558594 C 26.308594 226.558594 26.019531 226.269531 25.730469 225.980469 C 25.441406 225.402344 25.441406 224.535156 26.308594 223.957031 C 27.464844 223.378906 27.753906 222.511719 27.464844 221.359375 C 27.175781 220.492188 27.753906 219.625 28.621094 219.625 C 29.488281 219.335938 30.355469 219.914062 30.355469 220.78125 C 30.644531 222.226562 30.644531 224.824219 27.753906 226.558594 C 27.464844 226.269531 27.175781 226.558594 26.886719 226.558594 Z M 32.378906 243.019531 C 31.800781 243.019531 31.222656 242.734375 30.933594 242.15625 C 30.355469 240.132812 28.910156 240.421875 28.332031 240.710938 C 27.464844 241 26.597656 240.421875 26.308594 239.84375 C 26.019531 238.976562 26.308594 238.109375 27.175781 237.820312 C 27.464844 237.820312 29.199219 237.246094 30.933594 238.109375 C 32.089844 238.6875 32.957031 239.84375 33.535156 241.289062 C 33.824219 242.15625 33.535156 243.019531 32.667969 243.308594 C 32.667969 243.019531 32.378906 243.019531 32.378906 243.019531 Z M 23.128906 251.398438 C 23.417969 252.265625 23.128906 253.128906 22.261719 253.417969 C 21.972656 253.417969 21.972656 253.417969 21.683594 253.417969 C 21.105469 253.417969 20.527344 253.128906 20.238281 252.554688 C 19.082031 249.664062 16.476562 249.085938 16.476562 249.085938 C 15.609375 249.085938 15.03125 248.507812 15.03125 247.644531 C 15.03125 246.777344 15.898438 246.199219 16.476562 246.199219 C 17.636719 245.910156 21.394531 247.355469 23.128906 251.398438 Z M 18.214844 242.734375 C 18.503906 243.019531 18.792969 243.019531 19.082031 243.019531 C 19.660156 243.019531 19.949219 242.734375 20.238281 242.445312 C 20.816406 241.867188 20.527344 241 19.949219 240.421875 C 18.503906 239.265625 17.34375 238.6875 16.476562 238.109375 C 16.765625 236.667969 17.054688 234.933594 16.1875 232.621094 C 15.609375 230.601562 14.453125 229.15625 13.875 228.289062 C 15.609375 227.136719 17.054688 224.824219 17.34375 224.535156 C 17.925781 223.957031 17.636719 222.800781 16.765625 222.511719 C 16.1875 221.9375 15.03125 222.226562 14.742188 223.089844 C 14.164062 224.246094 12.71875 225.980469 11.5625 226.269531 C 10.984375 226.269531 10.695312 226.558594 10.695312 227.136719 C 10.40625 227.425781 10.40625 227.710938 10.40625 228 C 10.40625 228.289062 9.539062 231.757812 10.695312 235.511719 C 11.851562 238.976562 13.296875 240.132812 13.585938 240.421875 C 13.585938 240.421875 13.875 240.421875 13.875 240.421875 C 13.875 240.421875 13.875 240.421875 14.164062 240.421875 C 14.164062 240.421875 14.453125 240.421875 14.453125 240.421875 C 15.320312 240.710938 16.765625 241.578125 18.214844 242.734375 Z M 13.007812 232.621094 C 13.007812 232.910156 13.296875 233.199219 13.296875 233.488281 C 13.585938 234.066406 13.875 234.933594 13.875 235.511719 C 13.585938 235.222656 13.585938 234.933594 13.585938 234.644531 C 13.296875 233.777344 13.296875 233.199219 13.007812 232.621094 Z M 47.699219 230.890625 C 47.699219 231.46875 47.410156 232.621094 45.964844 233.199219 C 45.097656 233.488281 44.519531 233.777344 43.941406 233.777344 C 42.207031 233.777344 41.050781 232.621094 40.472656 231.757812 C 40.183594 230.890625 40.472656 230.023438 41.050781 229.734375 C 41.917969 229.445312 42.785156 229.734375 43.074219 230.3125 C 43.652344 231.179688 44.519531 230.601562 44.808594 230.601562 C 44.808594 230.3125 44.230469 229.734375 43.652344 229.15625 C 43.074219 228.578125 43.074219 227.710938 43.363281 227.136719 C 43.941406 226.558594 44.808594 226.558594 45.386719 226.847656 C 45.964844 227.136719 47.988281 228.867188 47.699219 230.890625 Z M 69.671875 238.6875 C 70.25 239.265625 70.539062 240.132812 70.539062 241.289062 C 70.539062 244.175781 68.226562 249.085938 67.070312 249.953125 C 66.492188 250.242188 66.203125 250.53125 65.625 250.53125 C 65.335938 250.53125 64.757812 250.53125 64.46875 250.242188 C 63.023438 250.242188 61.867188 251.976562 61.578125 252.554688 C 61.289062 253.128906 60.710938 253.707031 60.132812 253.707031 C 59.265625 253.707031 58.6875 253.128906 58.6875 252.265625 C 58.6875 251.109375 60.132812 249.664062 61 248.796875 C 61.867188 248.21875 62.445312 247.933594 63.3125 247.644531 C 63.3125 246.488281 63.601562 245.042969 64.179688 243.597656 C 65.046875 241.578125 65.914062 240.421875 66.492188 239.554688 C 65.335938 237.246094 65.914062 234.066406 65.914062 233.777344 C 66.203125 232.910156 66.78125 232.335938 67.648438 232.621094 C 68.515625 232.910156 69.09375 233.488281 68.804688 234.355469 C 68.804688 235.222656 68.804688 237.820312 69.671875 238.6875 Z M 58.976562 234.644531 C 57.242188 233.199219 57.242188 231.757812 57.242188 230.601562 C 57.53125 228 59.84375 226.269531 60.132812 226.269531 C 60.710938 225.691406 61.867188 225.980469 62.15625 226.558594 C 62.734375 227.136719 62.445312 228.289062 61.867188 228.578125 C 61.578125 228.867188 60.421875 229.734375 60.421875 230.890625 C 60.421875 231.179688 60.421875 231.757812 61.289062 232.621094 C 61.867188 233.199219 61.867188 234.066406 61.289062 234.644531 C 61 234.933594 60.710938 235.222656 60.132812 235.222656 C 59.554688 234.933594 59.265625 234.933594 58.976562 234.644531 Z M 74.875 233.777344 C 74.585938 234.355469 74.007812 234.644531 73.429688 234.644531 C 73.140625 234.644531 72.851562 234.644531 72.851562 234.355469 C 69.960938 232.910156 70.539062 229.445312 71.117188 227.710938 C 71.40625 226.847656 72.273438 226.558594 73.140625 226.847656 C 74.007812 227.136719 74.296875 228 74.007812 228.867188 C 73.71875 229.445312 73.140625 231.46875 74.007812 231.757812 C 74.875 232.046875 75.453125 232.910156 74.875 233.777344 Z M 58.109375 213.847656 C 57.820312 214.714844 58.109375 215.582031 58.6875 215.871094 C 59.265625 216.160156 60.132812 216.449219 61.289062 216.449219 C 61.867188 216.449219 62.445312 216.449219 63.023438 216.160156 C 64.179688 218.757812 65.914062 222.800781 68.515625 223.957031 C 68.226562 224.824219 67.9375 226.269531 67.9375 227.136719 C 67.9375 228 68.515625 228.578125 69.382812 228.578125 C 70.25 228.578125 70.828125 227.710938 70.828125 227.136719 C 70.828125 226.269531 71.40625 224.824219 71.695312 223.957031 C 72.273438 223.667969 72.5625 223.089844 72.851562 222.226562 C 73.429688 219.335938 69.09375 214.714844 66.492188 213.269531 C 65.914062 212.980469 64.179688 211.828125 63.023438 212.691406 C 61.578125 213.558594 60.421875 212.980469 60.132812 212.980469 C 59.265625 212.980469 58.398438 213.269531 58.109375 213.847656 Z M 69.671875 221.648438 C 69.09375 221.070312 67.9375 219.914062 67.070312 218.179688 C 68.226562 219.335938 69.382812 220.78125 69.671875 221.648438 Z M 53.484375 212.691406 C 53.484375 213.558594 52.90625 214.136719 52.035156 214.136719 C 51.746094 214.136719 51.746094 214.136719 51.457031 214.136719 C 49.433594 214.136719 47.988281 213.558594 47.121094 212.691406 C 45.964844 211.539062 45.964844 210.09375 45.964844 209.804688 C 45.964844 208.9375 46.832031 208.359375 47.699219 208.359375 C 48.566406 208.359375 49.144531 209.226562 49.144531 209.804688 C 49.144531 209.804688 49.144531 210.09375 49.433594 210.382812 C 49.722656 210.671875 50.300781 210.960938 52.035156 210.960938 C 52.617188 211.25 53.484375 211.828125 53.484375 212.691406 Z M 58.398438 208.9375 C 55.796875 208.9375 53.773438 206.917969 53.195312 205.761719 C 52.90625 204.894531 53.195312 204.027344 53.773438 203.738281 C 54.640625 203.449219 55.507812 203.738281 55.796875 204.316406 C 55.796875 204.605469 56.953125 206.050781 58.976562 205.761719 C 59.84375 205.472656 60.710938 206.050781 60.710938 206.917969 C 61 207.78125 60.421875 208.648438 59.554688 208.648438 C 59.265625 208.648438 58.976562 208.9375 58.398438 208.9375 Z M 381.605469 408.238281 C 372.355469 408.238281 365.125 415.75 365.125 424.703125 C 365.125 433.65625 372.644531 441.167969 381.605469 441.167969 C 390.566406 441.167969 398.082031 433.65625 398.082031 424.703125 C 398.082031 415.75 390.855469 408.238281 381.605469 408.238281 Z M 381.605469 438.277344 C 374.089844 438.277344 368.019531 432.214844 368.019531 424.703125 C 368.019531 417.191406 374.089844 411.128906 381.605469 411.128906 C 389.121094 411.128906 395.191406 417.191406 395.191406 424.703125 C 395.191406 432.214844 389.121094 438.277344 381.605469 438.277344 Z M 381.605469 438.277344 " fill-opacity="1" fill-rule="nonzero"/></g></svg>