<svg xmlns="http://www.w3.org/2000/svg" xmlns:xlink="http://www.w3.org/1999/xlink" width="750" zoomAndPan="magnify" viewBox="0 0 562.5 562.499982" height="750" preserveAspectRatio="xMidYMid meet" version="1.0"><defs><clipPath id="4de0a60272"><path d="M 0 124 L 558 124 L 558 441.59375 L 0 441.59375 Z M 0 124 " clip-rule="nonzero"/></clipPath></defs><g clip-path="url(#4de0a60272)"><path fill="#000000" d="M 292.5625 199.476562 C 294.007812 200.921875 296.613281 201.5 299.503906 201.5 C 306.152344 201.5 315.402344 198.609375 325.808594 193.984375 C 330.722656 196.296875 336.796875 196.585938 342.578125 196.585938 C 362.234375 196.585938 378.425781 180.394531 378.425781 160.738281 C 380.449219 158.714844 382.472656 156.976562 384.207031 155.242188 C 396.925781 141.367188 394.613281 133.273438 390.566406 128.9375 C 382.472656 120.550781 363.96875 129.226562 361.65625 130.382812 C 356.164062 126.914062 349.804688 124.890625 342.867188 124.890625 C 323.207031 124.890625 307.019531 141.078125 307.019531 160.738281 C 307.019531 161.894531 307.019531 163.339844 307.308594 164.496094 C 304.707031 166.519531 288.515625 178.660156 288.226562 189.933594 C 287.9375 193.695312 289.382812 196.875 292.5625 199.476562 Z M 329.855469 192.25 C 340.554688 187.332031 352.117188 180.394531 362.523438 173.457031 C 359.34375 176.636719 359.34375 176.636719 357.03125 179.238281 L 356.164062 180.105469 C 355.007812 181.550781 351.25 185.886719 352.40625 187.621094 C 352.695312 187.910156 352.984375 188.199219 353.5625 188.199219 C 353.851562 188.199219 354.140625 188.199219 354.71875 187.910156 C 355.585938 187.621094 356.453125 187.332031 357.320312 186.753906 C 359.054688 185.886719 360.210938 185.308594 362.523438 185.308594 C 362.523438 185.308594 362.8125 185.308594 362.8125 185.308594 C 363.390625 185.308594 363.96875 185.308594 364.546875 185.019531 C 358.765625 190.222656 351.25 193.40625 342.867188 193.40625 C 338.242188 193.695312 333.617188 193.40625 329.855469 192.25 Z M 367.441406 182.128906 C 365.992188 182.996094 364.257812 183.574219 362.523438 183.574219 C 359.921875 183.574219 358.1875 184.152344 356.453125 185.019531 C 355.585938 185.308594 355.007812 185.597656 354.140625 185.886719 C 354.140625 185.886719 354.140625 185.886719 353.851562 185.886719 C 354.140625 185.019531 355.296875 183.285156 357.320312 180.683594 L 358.1875 179.816406 C 360.5 177.214844 360.5 177.214844 364.257812 173.457031 L 364.546875 173.167969 C 367.441406 170.277344 372.644531 166.808594 375.246094 165.074219 C 374.089844 172.011719 371.488281 177.792969 367.441406 182.128906 Z M 375.535156 163.628906 C 375.246094 163.628906 375.246094 163.917969 374.957031 163.917969 C 374.957031 163.917969 375.246094 163.628906 375.535156 163.628906 Z M 376.691406 149.171875 C 374.957031 143.679688 371.777344 139.054688 368.019531 135.296875 C 372.644531 132.40625 381.316406 130.960938 383.917969 133.5625 C 385.941406 135.585938 383.917969 140.789062 377.847656 147.726562 C 377.558594 148.304688 376.980469 148.882812 376.691406 149.171875 Z M 342.867188 128.070312 C 347.492188 128.070312 351.828125 128.9375 355.585938 130.671875 C 351.828125 132.40625 344.601562 135.585938 341.421875 136.164062 L 339.976562 136.453125 C 337.664062 137.03125 333.617188 137.609375 333.039062 137.03125 C 333.328125 136.164062 333.90625 135.585938 334.773438 134.71875 C 335.640625 134.140625 336.796875 133.273438 337.664062 131.828125 C 338.820312 130.09375 340.84375 128.648438 342.289062 128.070312 C 342.289062 128.070312 342.578125 128.070312 342.867188 128.070312 Z M 338.53125 128.359375 C 337.664062 129.226562 336.796875 130.09375 335.929688 130.960938 C 335.0625 132.117188 334.195312 132.695312 333.328125 133.5625 C 332.171875 134.429688 331.304688 135.296875 330.722656 136.742188 C 330.433594 137.609375 330.722656 138.1875 331.011719 138.476562 C 331.59375 139.054688 332.460938 139.34375 333.328125 139.34375 C 334.773438 139.34375 337.085938 139.054688 339.6875 138.476562 L 341.132812 138.1875 C 345.179688 137.320312 354.140625 133.5625 357.320312 132.117188 C 361.367188 134.140625 365.125 137.320312 368.019531 140.789062 C 365.992188 140.210938 362.234375 141.078125 360.789062 141.65625 C 359.921875 141.367188 357.898438 141.367188 352.695312 142.523438 L 350.960938 142.8125 C 346.046875 143.96875 343.734375 144.546875 339.6875 147.148438 C 335.351562 150.328125 333.90625 152.929688 331.882812 156.398438 C 331.011719 157.847656 329.277344 159.582031 327.542969 161.316406 C 324.652344 163.917969 322.050781 166.519531 322.339844 168.832031 C 322.339844 169.699219 322.917969 170.277344 323.207031 170.277344 C 323.496094 170.566406 323.785156 170.566406 324.363281 170.566406 C 325.519531 170.566406 326.964844 169.988281 328.699219 169.121094 C 331.011719 167.964844 333.90625 166.808594 336.796875 166.519531 C 337.953125 166.519531 339.109375 166.230469 340.265625 166.230469 C 345.46875 165.941406 350.09375 165.652344 354.429688 161.027344 C 357.320312 157.847656 358.765625 154.953125 359.921875 152.640625 C 360.789062 150.90625 361.367188 149.460938 362.523438 148.59375 C 363.390625 147.4375 364.835938 146.570312 365.992188 145.992188 C 367.730469 144.835938 369.175781 143.96875 369.464844 142.523438 C 371.488281 145.414062 372.933594 148.59375 373.800781 151.773438 C 365.992188 159.582031 355.007812 167.097656 343.734375 173.167969 C 342.289062 172.878906 340.265625 173.746094 336.507812 174.902344 C 334.195312 175.769531 331.59375 176.636719 329.855469 176.925781 C 326.097656 177.503906 320.027344 180.683594 317.425781 182.128906 C 313.957031 178.371094 311.644531 173.746094 310.488281 168.832031 C 311.644531 167.675781 315.402344 164.207031 317.425781 161.027344 C 318.292969 159.582031 318.871094 158.425781 319.160156 157.558594 C 319.738281 156.109375 320.316406 155.242188 321.761719 153.21875 C 325.519531 148.304688 325.519531 146.570312 325.519531 145.703125 C 325.519531 145.125 324.941406 144.546875 324.652344 144.257812 C 323.207031 143.390625 321.472656 144.257812 319.738281 145.414062 C 318.871094 145.992188 318.003906 146.28125 317.136719 146.859375 C 315.980469 147.4375 315.691406 147.4375 315.402344 147.726562 C 315.113281 147.726562 314.535156 147.4375 312.800781 148.015625 C 312.511719 148.015625 312.511719 148.015625 312.222656 148.304688 C 316.847656 137.609375 326.675781 129.804688 338.53125 128.359375 Z M 368.019531 142.234375 C 368.019531 142.8125 366.863281 143.679688 365.414062 144.546875 C 364.257812 145.414062 362.8125 146.28125 361.65625 147.4375 C 360.5 148.59375 359.632812 150.328125 358.765625 152.0625 C 357.609375 154.375 356.164062 156.976562 353.5625 159.871094 C 349.804688 163.917969 345.757812 164.207031 340.554688 164.496094 C 339.398438 164.496094 338.242188 164.496094 337.085938 164.785156 C 333.90625 165.074219 331.011719 166.519531 328.699219 167.386719 C 327.253906 167.964844 325.230469 168.832031 324.941406 168.832031 C 324.941406 168.832031 324.941406 168.832031 324.941406 168.542969 C 324.652344 167.097656 327.542969 164.496094 329.566406 162.472656 C 331.59375 160.738281 333.328125 159.003906 334.195312 157.269531 C 335.929688 153.796875 337.375 151.484375 341.421875 148.59375 C 345.179688 145.992188 347.203125 145.703125 352.117188 144.546875 L 353.851562 144.257812 C 357.320312 143.390625 359.054688 143.390625 360.210938 143.390625 C 360.789062 143.390625 361.078125 143.390625 361.078125 143.390625 C 361.367188 143.390625 361.367188 143.390625 361.65625 143.390625 C 364.257812 142.234375 367.441406 141.65625 368.019531 142.234375 Z M 313.667969 149.75 C 314.246094 149.460938 314.824219 149.460938 315.113281 149.460938 C 315.691406 149.75 315.980469 149.460938 318.003906 148.59375 C 319.160156 148.015625 320.027344 147.4375 320.894531 147.148438 C 322.628906 146.28125 323.496094 145.703125 324.074219 145.992188 C 324.074219 146.28125 324.074219 147.726562 320.894531 152.0625 C 319.449219 154.085938 318.871094 155.242188 318.292969 156.6875 C 317.714844 157.558594 317.425781 158.714844 316.558594 159.871094 C 315.113281 162.183594 312.222656 165.074219 310.777344 166.519531 C 310.488281 164.496094 310.199219 162.472656 310.199219 160.738281 C 310.199219 157.269531 310.777344 154.085938 311.644531 151.195312 C 311.933594 150.617188 312.800781 150.039062 313.667969 149.75 Z M 317.136719 185.597656 C 309.042969 188.488281 302.972656 189.644531 301.238281 188.199219 C 300.371094 187.621094 300.082031 186.753906 300.082031 185.597656 C 300.082031 181.550781 305.574219 175.191406 309.042969 172.011719 C 310.488281 177.214844 313.378906 181.839844 317.136719 185.597656 Z M 320.027344 184.441406 C 319.738281 184.152344 319.449219 183.863281 319.160156 183.574219 C 321.761719 182.128906 327.253906 179.527344 330.722656 178.949219 C 332.75 178.660156 335.0625 177.792969 337.375 176.925781 C 331.304688 179.816406 325.519531 182.417969 320.027344 184.441406 Z M 307.597656 167.964844 C 307.597656 168.253906 307.597656 168.542969 307.886719 168.832031 C 305.574219 170.855469 296.613281 179.238281 296.902344 185.597656 C 296.902344 187.621094 297.769531 189.066406 299.214844 190.511719 C 300.082031 191.378906 301.816406 191.667969 303.839844 191.667969 C 318.582031 191.667969 357.320312 172.878906 376.402344 154.085938 C 376.980469 153.796875 377.558594 153.507812 377.558594 152.929688 C 378.425781 152.0625 379.292969 150.90625 380.160156 150.039062 C 387.386719 141.367188 389.410156 135.296875 385.941406 131.828125 C 381.894531 127.78125 370.910156 129.804688 365.703125 133.5625 C 365.414062 133.273438 364.835938 132.984375 364.546875 132.695312 C 369.464844 130.671875 382.761719 125.46875 388.542969 131.25 C 394.613281 137.320312 388.253906 146.570312 382.183594 153.21875 C 359.054688 178.660156 303.550781 204.679688 294.585938 197.453125 C 292.273438 195.429688 291.117188 193.117188 291.117188 190.222656 C 291.40625 181.550781 303.550781 171.433594 307.597656 167.964844 Z M 237.636719 414.273438 C 233.011719 414.273438 229.832031 417.742188 229.253906 421.5 C 228.964844 424.101562 229.832031 426.703125 231.566406 428.726562 C 233.011719 430.460938 235.324219 431.617188 237.347656 431.617188 C 237.347656 431.617188 237.347656 431.617188 237.636719 431.617188 C 239.660156 431.617188 241.683594 430.460938 243.128906 428.726562 C 244.863281 426.703125 245.441406 424.101562 245.152344 421.789062 C 244.863281 418.03125 241.972656 414.273438 237.636719 414.273438 Z M 240.816406 426.703125 C 239.949219 427.859375 238.792969 428.4375 237.347656 428.4375 C 235.902344 428.4375 234.746094 427.859375 233.589844 426.703125 C 232.433594 425.257812 231.855469 423.523438 232.144531 422.078125 C 232.433594 419.765625 234.457031 417.453125 237.058594 417.453125 C 237.058594 417.453125 237.058594 417.453125 237.347656 417.453125 C 239.949219 417.453125 241.972656 420.054688 242.261719 422.078125 C 242.550781 423.523438 241.972656 425.257812 240.816406 426.703125 Z M 77.765625 390.277344 L 80.945312 379.871094 C 81.234375 379.292969 80.945312 379.003906 80.65625 378.425781 C 80.367188 378.136719 79.789062 377.847656 79.210938 377.847656 L 67.070312 379.292969 L 58.6875 371.488281 C 58.398438 371.199219 57.820312 370.910156 57.242188 371.199219 C 56.664062 371.488281 56.375 371.777344 56.375 372.355469 L 54.351562 383.917969 L 43.652344 390.855469 C 43.363281 391.144531 43.074219 391.722656 43.074219 392.011719 C 43.074219 392.589844 43.363281 392.878906 43.652344 393.167969 L 54.351562 399.816406 L 55.507812 408.78125 C 55.507812 409.359375 55.796875 409.648438 56.375 409.9375 C 56.664062 409.9375 56.664062 409.9375 56.953125 409.9375 C 57.242188 409.9375 57.53125 409.9375 57.820312 409.648438 L 68.804688 401.550781 L 80.65625 401.550781 C 81.234375 401.550781 81.523438 401.261719 81.8125 400.972656 C 82.101562 400.683594 82.101562 400.105469 81.8125 399.527344 Z M 68.226562 398.660156 C 67.9375 398.660156 67.648438 398.660156 67.359375 398.949219 L 58.109375 405.890625 L 57.242188 398.660156 C 57.242188 398.082031 56.953125 397.792969 56.664062 397.503906 L 47.410156 391.722656 L 56.664062 385.652344 C 56.953125 385.363281 57.242188 385.074219 57.242188 384.785156 L 58.6875 375.246094 L 65.625 381.605469 C 65.914062 381.894531 66.492188 382.183594 66.78125 381.894531 L 77.476562 380.738281 L 74.585938 389.410156 C 74.585938 389.699219 74.585938 390.277344 74.585938 390.566406 L 78.054688 398.371094 L 68.226562 398.371094 Z M 443.183594 236.480469 C 443.183594 235.902344 442.894531 235.613281 442.605469 235.035156 L 435.957031 229.832031 L 435.664062 222.023438 C 435.664062 221.445312 435.375 220.867188 434.796875 220.867188 C 434.21875 220.578125 433.640625 220.578125 433.351562 220.867188 L 426.703125 225.492188 L 418.03125 223.757812 C 417.453125 223.757812 416.875 223.757812 416.585938 224.046875 C 416.296875 224.335938 416.007812 224.914062 416.296875 225.492188 L 418.320312 233.878906 L 414.5625 238.792969 C 414.273438 239.082031 414.273438 239.660156 414.273438 240.238281 C 414.273438 240.816406 414.851562 241.105469 415.429688 241.105469 L 424.679688 242.550781 L 430.460938 248.332031 C 430.75 248.621094 431.039062 248.910156 431.617188 248.910156 C 431.617188 248.910156 431.90625 248.910156 431.90625 248.910156 C 432.484375 248.910156 432.773438 248.332031 433.0625 248.042969 L 435.664062 241.394531 L 442.316406 237.925781 C 442.894531 237.347656 443.183594 237.058594 443.183594 236.480469 Z M 433.929688 238.792969 C 433.640625 239.082031 433.351562 239.371094 433.351562 239.660156 L 431.328125 244.574219 L 426.703125 239.949219 C 426.414062 239.660156 426.125 239.660156 425.835938 239.660156 L 418.609375 238.503906 L 421.210938 235.035156 C 421.5 234.746094 421.5 234.167969 421.5 233.878906 L 419.765625 227.230469 L 426.703125 228.675781 C 426.992188 228.675781 427.570312 228.675781 427.859375 228.386719 L 432.773438 224.914062 L 433.0625 230.699219 C 433.0625 230.988281 433.351562 231.566406 433.640625 231.855469 L 439.136719 236.191406 Z M 155.53125 352.40625 C 150.617188 352.984375 146.570312 356.742188 146.28125 361.367188 C 145.992188 364.546875 147.148438 368.019531 149.75 370.332031 C 151.773438 372.355469 154.664062 373.511719 157.269531 373.511719 C 157.847656 373.511719 158.425781 373.511719 158.714844 373.511719 C 163.628906 372.644531 168.542969 367.441406 167.386719 361.367188 C 166.519531 355.875 161.027344 351.828125 155.53125 352.40625 Z M 158.136719 370.621094 C 155.820312 370.910156 153.507812 370.042969 151.773438 368.308594 C 150.039062 366.570312 148.882812 363.96875 149.171875 361.945312 C 149.460938 358.765625 152.351562 355.875 155.820312 355.585938 C 156.109375 355.585938 156.398438 355.585938 156.6875 355.585938 C 160.449219 355.585938 163.628906 358.1875 164.496094 361.945312 C 165.074219 366.28125 161.605469 370.042969 158.136719 370.621094 Z M 394.324219 301.816406 C 392.011719 300.371094 389.410156 299.792969 387.097656 300.371094 C 384.207031 301.238281 382.183594 303.550781 381.027344 304.996094 C 376.402344 302.683594 368.019531 301.238281 363.96875 307.886719 C 359.921875 314.824219 363.101562 319.738281 365.703125 321.761719 C 365.703125 326.386719 366.863281 329.566406 369.175781 331.011719 C 371.199219 332.171875 373.511719 331.59375 375.246094 331.011719 C 375.824219 333.328125 377.558594 335.929688 381.316406 336.796875 C 381.894531 336.796875 382.472656 337.085938 382.761719 337.085938 C 385.941406 337.085938 388.253906 335.0625 389.410156 333.039062 C 392.300781 333.328125 397.792969 332.75 399.816406 328.410156 C 401.84375 324.074219 398.371094 320.027344 396.636719 318.292969 C 398.949219 313.667969 400.683594 305.863281 394.324219 301.816406 Z M 397.214844 326.675781 C 395.480469 330.433594 389.699219 329.855469 389.121094 329.566406 C 388.253906 329.277344 387.675781 329.566406 387.386719 330.433594 C 387.386719 330.722656 385.652344 334.195312 382.183594 333.617188 C 378.425781 333.039062 378.136719 328.699219 378.136719 328.699219 C 378.136719 328.121094 377.847656 327.832031 377.269531 327.542969 C 376.980469 327.542969 376.691406 327.253906 376.691406 327.253906 C 376.402344 327.253906 376.113281 327.253906 375.824219 327.542969 C 374.957031 328.121094 372.644531 329.277344 370.910156 328.410156 C 369.464844 327.542969 368.597656 324.941406 368.886719 321.183594 C 368.886719 320.605469 368.597656 320.027344 368.308594 319.738281 C 368.019531 319.738281 362.8125 316.269531 366.863281 309.332031 C 370.910156 302.683594 380.738281 307.886719 381.027344 308.175781 C 381.316406 308.464844 381.894531 308.464844 382.183594 308.175781 C 382.472656 308.175781 382.761719 307.886719 383.050781 307.597656 C 383.050781 307.597656 385.074219 304.128906 387.964844 303.261719 C 389.410156 302.972656 391.144531 303.261719 392.878906 304.417969 C 398.949219 308.464844 394.035156 317.136719 393.746094 317.425781 C 393.457031 318.003906 393.457031 318.871094 394.035156 319.449219 C 394.035156 319.449219 398.660156 323.207031 397.214844 326.675781 Z M 371.488281 315.402344 C 371.199219 315.402344 371.199219 315.402344 370.910156 315.402344 C 370.332031 315.402344 369.753906 315.113281 369.464844 314.246094 C 369.175781 313.378906 369.753906 312.511719 370.332031 312.511719 C 370.621094 312.511719 370.910156 312.222656 370.910156 312.222656 C 370.910156 311.933594 370.910156 311.644531 370.910156 311.644531 C 370.621094 310.777344 370.910156 309.910156 371.777344 309.621094 C 372.644531 309.332031 373.511719 309.621094 373.800781 310.488281 C 373.800781 310.777344 374.378906 311.933594 373.800781 313.378906 C 373.800781 313.957031 372.933594 314.824219 371.488281 315.402344 Z M 378.425781 323.496094 C 378.425781 324.363281 377.558594 324.941406 376.980469 324.941406 C 376.980469 324.941406 376.980469 324.941406 376.691406 324.941406 C 375.824219 324.941406 375.246094 324.074219 375.535156 323.207031 C 375.535156 322.917969 375.535156 322.628906 375.535156 322.628906 C 375.246094 322.339844 374.378906 322.339844 373.800781 322.628906 C 372.933594 322.917969 372.066406 322.339844 372.066406 321.472656 C 371.777344 320.605469 372.355469 319.738281 373.222656 319.738281 C 373.800781 319.738281 376.113281 319.160156 377.558594 320.605469 C 378.136719 320.894531 378.714844 321.761719 378.425781 323.496094 Z M 390.566406 322.628906 C 390.855469 323.496094 390.277344 324.363281 389.410156 324.363281 C 388.832031 324.363281 387.964844 326.097656 387.675781 327.832031 C 387.386719 328.410156 386.808594 328.988281 386.230469 328.988281 C 386.230469 328.988281 385.941406 328.988281 385.941406 328.988281 C 385.074219 328.699219 384.496094 328.121094 384.785156 327.253906 C 385.074219 326.386719 386.230469 322.050781 388.832031 321.472656 C 389.410156 321.183594 390.277344 321.761719 390.566406 322.628906 Z M 383.917969 319.738281 C 383.628906 319.738281 383.339844 319.738281 383.050781 319.738281 C 381.894531 319.738281 381.316406 319.449219 380.738281 318.871094 C 379.582031 318.003906 379.292969 316.269531 379.292969 316.269531 C 379.292969 315.402344 379.871094 314.824219 380.738281 314.535156 C 381.605469 314.535156 382.183594 315.113281 382.472656 315.980469 C 382.472656 315.980469 382.472656 316.558594 382.761719 316.558594 C 383.050781 316.847656 383.339844 316.558594 383.628906 316.558594 C 384.496094 316.558594 385.074219 316.847656 385.363281 317.714844 C 385.652344 318.582031 384.785156 319.449219 383.917969 319.738281 Z M 391.722656 311.355469 C 392.011719 312.222656 391.722656 313.089844 390.855469 313.378906 C 389.988281 313.667969 389.410156 313.957031 388.832031 313.957031 C 387.964844 313.957031 387.386719 313.667969 386.808594 313.378906 C 384.785156 312.222656 384.496094 309.332031 384.496094 308.753906 C 384.496094 307.886719 385.074219 307.308594 385.941406 307.308594 C 386.808594 307.308594 387.386719 307.886719 387.386719 308.753906 C 387.386719 309.332031 387.675781 310.488281 388.253906 310.777344 C 388.542969 311.066406 389.121094 310.777344 389.410156 310.777344 C 390.277344 310.199219 391.433594 310.488281 391.722656 311.355469 Z M 552.171875 327.832031 C 543.210938 316.847656 541.476562 314.535156 542.34375 312.800781 C 542.34375 312.800781 542.34375 312.511719 542.34375 312.511719 C 542.34375 312.222656 542.34375 312.222656 542.34375 311.933594 C 542.34375 311.933594 542.34375 311.644531 542.34375 311.644531 C 542.054688 311.355469 537.714844 303.550781 528.464844 304.417969 C 528.464844 304.417969 528.175781 304.417969 528.175781 304.707031 C 528.175781 304.707031 527.886719 304.996094 527.886719 304.996094 C 527.886719 304.996094 527.886719 305.285156 527.886719 305.285156 C 527.886719 305.574219 526.441406 309.042969 522.972656 308.175781 C 522.105469 307.886719 521.238281 307.597656 519.792969 307.019531 C 514.011719 304.996094 503.3125 300.949219 489.148438 304.128906 C 487.703125 302.972656 482.789062 300.082031 481.632812 299.214844 C 481.632812 299.214844 481.34375 299.214844 481.34375 299.214844 C 481.34375 299.214844 481.34375 299.214844 481.054688 299.214844 C 479.320312 298.636719 475.851562 299.503906 473.828125 300.082031 C 471.222656 300.949219 465.441406 303.261719 463.996094 307.308594 C 463.996094 307.308594 463.996094 307.597656 463.996094 307.597656 C 463.996094 307.597656 463.996094 307.886719 463.996094 307.886719 C 464.285156 310.199219 464.574219 317.425781 463.128906 320.027344 C 462.839844 320.605469 461.972656 321.472656 460.816406 322.339844 C 456.191406 326.675781 447.230469 334.484375 446.941406 353.851562 C 446.652344 354.71875 445.496094 358.476562 442.316406 360.5 C 442.027344 360.5 442.027344 360.789062 442.027344 360.789062 C 442.027344 360.789062 436.820312 369.175781 444.628906 378.136719 C 444.628906 378.136719 444.917969 378.425781 444.917969 378.425781 C 445.207031 378.425781 445.207031 378.425781 445.496094 378.425781 C 445.496094 378.425781 445.496094 378.425781 445.785156 378.425781 C 445.785156 378.425781 445.785156 378.425781 446.074219 378.425781 C 447.808594 377.847656 453.589844 376.980469 455.613281 379.292969 C 456.191406 379.871094 456.769531 380.738281 457.347656 381.605469 C 461.394531 387.097656 468.621094 396.636719 474.984375 399.238281 C 474.40625 400.6875 474.117188 403 475.5625 405.3125 C 477.007812 407.625 481.34375 409.648438 485.390625 409.9375 C 485.96875 409.9375 486.257812 409.9375 486.835938 409.9375 C 488.859375 409.9375 490.59375 409.359375 491.75 408.492188 C 493.484375 407.046875 493.195312 405.601562 493.195312 404.734375 C 493.195312 404.734375 493.195312 404.445312 493.195312 404.445312 C 493.484375 404.15625 494.640625 403.867188 498.398438 403.578125 C 499.554688 403.578125 501 403.289062 502.15625 403.289062 C 511.699219 402.710938 521.238281 402.132812 527.019531 397.503906 C 529.042969 395.769531 530.488281 394.324219 531.355469 393.457031 C 533.378906 391.433594 533.667969 390.855469 536.558594 391.433594 C 542.921875 392.589844 549.859375 388.253906 552.171875 383.339844 C 553.328125 380.738281 553.039062 379.292969 552.75 377.847656 C 552.460938 376.691406 552.171875 375.535156 553.328125 372.644531 C 556.796875 365.992188 562 339.976562 552.171875 327.832031 Z M 538.003906 310.777344 C 533.378906 310.777344 531.355469 308.753906 530.488281 307.019531 C 534.246094 307.308594 536.558594 309.332031 538.003906 310.777344 Z M 477.875 301.527344 C 475.273438 306.441406 470.355469 306.441406 467.464844 306.152344 C 469.777344 303.839844 474.984375 302.105469 477.875 301.527344 Z M 442.894531 366.28125 C 443.761719 368.019531 444.628906 370.332031 444.628906 372.933594 C 442.894531 370.332031 442.605469 368.019531 442.894531 366.28125 Z M 477.875 403.578125 C 479.609375 403.289062 482.789062 403.578125 485.679688 406.757812 C 485.679688 406.757812 485.679688 406.757812 485.390625 406.757812 C 482.210938 406.179688 479.03125 404.734375 477.875 403.578125 Z M 542.054688 387.675781 C 542.921875 385.941406 544.65625 383.050781 549.859375 381.316406 C 549.859375 381.316406 549.859375 381.316406 549.859375 381.605469 C 548.414062 384.207031 545.523438 386.519531 542.054688 387.675781 Z M 551.015625 371.199219 C 549.28125 374.957031 549.859375 376.691406 550.148438 378.425781 C 541.476562 380.738281 539.449219 385.941406 538.871094 388.253906 C 538.292969 388.253906 537.714844 388.253906 537.425781 387.964844 C 533.089844 387.097656 531.933594 388.253906 529.332031 390.855469 C 528.464844 392.011719 527.019531 393.167969 525.285156 394.613281 C 520.082031 398.660156 510.832031 399.238281 502.15625 399.816406 C 501 399.816406 499.554688 399.816406 498.398438 400.105469 C 492.617188 400.394531 490.015625 401.261719 490.304688 404.445312 C 490.304688 405.023438 490.304688 405.3125 489.726562 405.890625 C 489.726562 405.890625 489.4375 406.179688 489.4375 406.179688 C 485.96875 400.972656 481.054688 400.105469 477.585938 400.394531 C 477.875 399.527344 478.164062 398.660156 478.453125 398.660156 C 478.742188 398.371094 478.742188 397.792969 478.742188 397.214844 C 478.453125 396.636719 478.164062 396.347656 477.585938 396.347656 C 471.804688 395.480469 463.707031 384.785156 459.949219 379.582031 C 459.082031 378.425781 458.503906 377.558594 457.925781 376.980469 C 455.613281 374.089844 450.699219 374.089844 447.808594 374.667969 C 448.964844 368.597656 444.628906 362.8125 444.339844 362.523438 C 444.339844 362.523438 444.339844 362.523438 444.050781 362.234375 C 444.050781 362.234375 444.050781 361.945312 444.050781 361.945312 C 448.097656 359.054688 449.542969 353.851562 449.542969 353.5625 C 449.542969 353.5625 449.542969 353.273438 449.542969 353.273438 C 449.832031 335.0625 457.925781 327.832031 462.261719 323.785156 C 463.707031 322.628906 464.574219 321.761719 465.152344 320.605469 C 466.886719 317.714844 466.886719 311.933594 466.597656 308.753906 C 467.464844 308.753906 468.332031 309.042969 469.199219 309.042969 C 473.25 309.042969 477.875 307.597656 480.476562 302.105469 C 482.789062 303.839844 486.835938 306.441406 487.125 306.441406 C 487.414062 306.730469 487.992188 306.730469 488.28125 306.730469 C 501.867188 303.550781 511.699219 307.308594 517.769531 309.332031 C 518.925781 309.910156 520.082031 310.199219 520.949219 310.488281 C 524.128906 311.355469 526.441406 310.199219 527.886719 308.464844 C 529.332031 310.777344 532.222656 313.378906 537.425781 313.378906 C 537.714844 313.378906 538.292969 313.378906 538.582031 313.378906 C 538.871094 315.980469 541.472656 319.738281 549.570312 329.277344 C 558.820312 340.84375 553.617188 365.125 551.015625 371.199219 Z M 539.738281 340.265625 C 539.738281 340.265625 539.449219 340.265625 539.738281 340.265625 C 539.449219 339.976562 539.160156 339.976562 539.160156 339.976562 C 539.160156 339.976562 539.160156 339.976562 538.871094 339.976562 C 538.871094 339.976562 538.582031 339.976562 538.582031 339.976562 C 534.246094 340.84375 531.644531 337.953125 531.355469 337.953125 C 530.777344 337.375 529.910156 337.375 529.332031 337.953125 C 528.753906 338.53125 528.753906 339.398438 529.332031 339.976562 C 529.332031 339.976562 531.933594 342.867188 535.980469 343.15625 C 533.957031 347.203125 535.113281 352.695312 536.847656 355.875 C 537.136719 356.164062 537.136719 356.453125 537.425781 356.742188 C 533.957031 358.765625 533.378906 362.8125 533.089844 363.101562 C 533.089844 363.96875 533.667969 364.546875 534.246094 364.835938 C 534.246094 364.835938 534.535156 364.835938 534.535156 364.835938 C 535.113281 364.835938 535.980469 364.257812 535.980469 363.679688 C 535.980469 363.390625 536.558594 359.632812 540.605469 358.765625 C 540.898438 358.765625 540.898438 358.765625 541.1875 358.476562 C 542.921875 357.898438 544.078125 355.296875 544.367188 351.25 C 544.65625 344.3125 540.027344 340.554688 539.738281 340.265625 Z M 541.1875 350.960938 C 540.898438 353.851562 540.316406 355.296875 540.027344 355.585938 C 539.738281 355.585938 539.449219 355.007812 539.160156 354.429688 C 537.425781 351.539062 536.847656 346.335938 538.871094 343.445312 C 540.027344 344.890625 541.476562 347.492188 541.1875 350.960938 Z M 501.289062 323.496094 C 503.601562 326.097656 507.941406 328.988281 512.855469 328.988281 C 513.433594 328.988281 514.011719 328.988281 514.300781 328.988281 C 514.011719 331.882812 515.167969 333.617188 515.167969 333.617188 C 515.457031 334.195312 516.035156 334.195312 516.324219 334.195312 C 516.613281 334.195312 516.902344 334.195312 517.191406 333.90625 C 517.769531 333.328125 518.058594 332.460938 517.769531 331.882812 C 517.769531 331.882812 516.613281 329.855469 517.769531 327.253906 C 517.769531 327.253906 517.769531 326.964844 517.769531 326.964844 C 517.769531 326.675781 517.769531 326.675781 517.769531 326.386719 C 517.769531 326.386719 517.769531 326.097656 517.480469 326.097656 C 517.191406 325.808594 511.121094 316.847656 500.710938 319.449219 C 500.421875 319.449219 500.421875 319.449219 500.421875 319.738281 C 500.421875 319.738281 500.132812 320.027344 500.132812 320.027344 C 497.53125 324.363281 494.351562 326.097656 494.351562 326.097656 C 493.484375 326.386719 493.195312 327.253906 493.484375 328.121094 C 493.773438 328.699219 494.351562 328.988281 494.929688 328.988281 C 495.21875 328.988281 495.21875 328.988281 495.507812 328.988281 C 495.21875 328.988281 498.398438 327.542969 501.289062 323.496094 Z M 513.722656 326.097656 C 509.386719 326.675781 505.917969 324.074219 504.179688 322.050781 C 508.519531 321.761719 511.988281 324.363281 513.722656 326.097656 Z M 483.078125 335.929688 C 483.078125 335.929688 480.1875 337.085938 477.296875 336.21875 C 477.007812 336.21875 477.007812 336.21875 476.71875 336.21875 C 476.71875 336.21875 476.429688 336.21875 476.429688 336.21875 C 473.539062 337.375 468.621094 341.710938 470.355469 349.515625 C 470.355469 349.515625 470.355469 349.515625 470.355469 349.804688 C 470.355469 349.804688 470.355469 350.09375 470.355469 350.09375 C 470.355469 350.09375 470.355469 350.382812 470.644531 350.382812 C 470.644531 350.382812 470.644531 350.382812 470.9375 350.671875 C 470.9375 350.671875 470.9375 350.671875 471.226562 350.671875 C 471.515625 350.671875 475.273438 352.40625 474.695312 356.164062 C 474.695312 357.03125 475.273438 357.609375 475.851562 357.898438 C 475.851562 357.898438 476.140625 357.898438 476.140625 357.898438 C 477.007812 357.898438 477.585938 357.320312 477.585938 356.742188 C 478.164062 353.273438 476.429688 350.960938 474.695312 349.515625 C 475.851562 348.648438 477.296875 347.203125 478.453125 344.890625 C 479.609375 342.867188 479.898438 340.84375 479.609375 339.398438 C 482.210938 339.398438 484.234375 338.53125 484.234375 338.53125 C 485.101562 338.242188 485.390625 337.375 485.101562 336.507812 C 484.523438 335.929688 483.65625 335.640625 483.078125 335.929688 Z M 475.5625 343.445312 C 474.40625 345.179688 473.539062 346.335938 472.671875 346.914062 C 472.382812 342.578125 474.984375 340.554688 476.429688 339.6875 C 476.71875 340.265625 476.71875 341.710938 475.5625 343.445312 Z M 486.257812 322.050781 C 484.8125 324.941406 482.5 325.519531 480.476562 325.519531 C 479.320312 325.519531 478.164062 325.230469 477.585938 324.941406 C 476.71875 324.652344 476.429688 323.785156 476.71875 322.917969 C 477.007812 322.050781 477.875 321.761719 478.742188 322.050781 C 479.03125 322.050781 482.210938 323.207031 483.65625 320.316406 C 483.945312 319.449219 484.8125 319.449219 485.679688 319.738281 C 486.257812 320.316406 486.546875 321.183594 486.257812 322.050781 Z M 462.839844 338.242188 C 463.707031 340.265625 463.996094 345.179688 459.949219 347.78125 C 459.660156 348.070312 459.371094 348.070312 459.082031 348.070312 C 458.503906 348.070312 458.214844 347.78125 457.925781 347.492188 C 457.347656 346.914062 457.636719 345.757812 458.214844 345.46875 C 461.105469 343.445312 459.949219 339.398438 459.949219 339.398438 C 459.660156 338.53125 460.238281 337.664062 460.816406 337.375 C 461.683594 337.085938 462.550781 337.664062 462.839844 338.242188 Z M 473.828125 372.644531 C 474.40625 374.089844 474.40625 375.535156 473.828125 377.269531 C 473.539062 377.847656 472.960938 378.136719 472.382812 378.136719 C 472.09375 378.136719 472.09375 378.136719 471.804688 378.136719 C 470.9375 377.847656 470.644531 376.980469 470.9375 376.113281 C 471.226562 375.246094 471.226562 374.667969 470.9375 374.089844 C 470.355469 372.644531 468.621094 371.777344 467.753906 371.488281 C 466.886719 371.199219 466.597656 370.332031 466.886719 369.464844 C 467.175781 368.597656 468.042969 368.308594 468.910156 368.597656 C 469.488281 368.597656 472.671875 370.042969 473.828125 372.644531 Z M 519.792969 374.667969 C 518.058594 377.269531 517.769531 379.871094 518.058594 381.894531 C 515.167969 381.605469 509.964844 381.894531 506.496094 385.941406 C 505.046875 384.785156 502.445312 382.761719 500.421875 381.894531 C 499.554688 381.605469 498.6875 381.894531 498.398438 382.761719 C 498.109375 383.628906 498.398438 384.496094 499.265625 384.785156 C 501.867188 385.941406 505.917969 389.121094 505.917969 389.410156 C 505.917969 389.410156 506.207031 389.410156 506.207031 389.699219 C 507.363281 390.277344 508.808594 390.566406 510.832031 390.566406 C 514.011719 390.566406 518.058594 389.121094 521.238281 384.785156 C 521.238281 384.496094 521.238281 384.496094 521.527344 384.207031 C 521.527344 383.917969 521.527344 383.917969 521.527344 383.628906 C 521.527344 383.339844 520.371094 380.160156 522.683594 376.691406 C 523.261719 376.113281 522.972656 374.957031 522.394531 374.667969 C 520.949219 373.800781 520.082031 373.800781 519.792969 374.667969 Z M 509.097656 387.097656 C 511.410156 384.785156 514.589844 384.496094 516.613281 384.785156 C 514.300781 387.097656 511.121094 387.386719 509.097656 387.097656 Z M 510.253906 359.34375 C 509.386719 361.078125 510.253906 362.8125 510.253906 362.8125 C 510.542969 363.679688 510.253906 364.546875 509.386719 364.835938 C 509.097656 364.835938 509.097656 364.835938 508.808594 364.835938 C 508.230469 364.835938 507.652344 364.546875 507.363281 363.96875 C 507.363281 363.96875 505.917969 360.789062 507.363281 357.898438 C 508.519531 355.875 510.832031 354.429688 514.300781 353.5625 C 515.167969 353.273438 516.035156 353.851562 516.035156 354.71875 C 516.324219 355.585938 515.746094 356.453125 514.878906 356.453125 C 512.566406 357.03125 510.832031 357.898438 510.253906 359.34375 Z M 530.199219 331.300781 C 525.574219 331.300781 524.128906 327.253906 524.128906 324.941406 C 524.128906 324.074219 524.707031 323.496094 525.574219 323.207031 C 526.441406 323.207031 527.019531 323.785156 527.308594 324.652344 C 527.308594 324.941406 527.597656 328.121094 530.488281 328.121094 C 531.355469 328.121094 531.933594 328.699219 531.933594 329.566406 C 531.933594 330.722656 531.066406 331.300781 530.199219 331.300781 Z M 232.433594 260.761719 C 231.566406 260.761719 230.988281 261.339844 230.699219 261.921875 C 230.699219 262.210938 230.121094 264.523438 226.359375 264.234375 C 222.3125 264.234375 220.867188 259.027344 220.867188 258.738281 C 220.578125 258.160156 220 257.582031 219.421875 257.582031 C 218.84375 257.582031 217.976562 258.160156 217.976562 258.738281 C 217.976562 259.027344 217.398438 263.078125 213.351562 263.65625 C 209.59375 264.234375 207.570312 260.183594 207.28125 260.183594 C 206.992188 259.316406 206.125 259.027344 205.257812 259.605469 C 204.390625 259.894531 204.101562 260.761719 204.679688 261.628906 C 204.679688 261.921875 207.570312 267.125 213.351562 266.835938 C 213.929688 268.570312 215.375 272.90625 219.132812 273.484375 C 219.421875 273.484375 219.421875 273.484375 219.710938 273.484375 C 223.757812 273.484375 226.941406 268.28125 227.230469 267.703125 C 227.230469 267.703125 227.230469 267.414062 227.230469 267.414062 C 231.855469 267.125 233.589844 264.234375 233.589844 262.5 C 233.878906 261.628906 233.300781 260.761719 232.433594 260.761719 Z M 219.421875 270.304688 C 217.6875 270.015625 216.53125 267.414062 216.242188 265.96875 C 217.6875 265.390625 218.84375 264.234375 219.710938 263.078125 C 220.578125 264.523438 222.023438 266.257812 224.046875 266.835938 C 223.179688 268.28125 221.15625 270.59375 219.421875 270.304688 Z M 191.667969 259.316406 C 191.667969 260.183594 191.089844 260.761719 190.222656 260.761719 L 182.707031 260.183594 C 181.839844 260.183594 181.261719 259.316406 181.261719 258.738281 C 181.261719 257.871094 182.128906 257.292969 182.707031 257.292969 L 190.222656 257.582031 C 191.089844 257.871094 191.960938 258.449219 191.667969 259.316406 Z M 191.089844 265.679688 C 191.089844 266.546875 190.511719 267.125 189.644531 267.414062 L 183.863281 267.992188 C 183.863281 267.992188 183.863281 267.992188 183.574219 267.992188 C 182.707031 267.992188 182.128906 267.414062 182.128906 266.546875 C 182.128906 265.679688 182.707031 265.101562 183.574219 264.8125 L 189.355469 264.234375 C 190.222656 264.234375 191.089844 264.8125 191.089844 265.679688 Z M 243.417969 263.367188 C 243.417969 262.5 243.707031 261.921875 244.574219 261.628906 L 252.378906 260.472656 C 253.246094 260.472656 253.824219 260.761719 254.113281 261.628906 C 254.113281 262.5 253.824219 263.078125 252.957031 263.367188 L 245.152344 264.523438 C 245.152344 264.523438 244.863281 264.523438 244.863281 264.523438 C 244.285156 264.523438 243.707031 263.945312 243.417969 263.367188 Z M 261.050781 307.597656 C 261.339844 308.464844 266.546875 328.988281 257.582031 338.242188 C 256.425781 339.398438 255.269531 339.976562 253.824219 339.976562 C 252.957031 339.976562 251.800781 339.6875 250.933594 339.109375 C 242.261719 334.773438 230.410156 307.886719 230.699219 305.863281 C 230.988281 304.996094 231.566406 304.417969 232.433594 304.707031 C 233.011719 304.707031 233.589844 305.285156 233.589844 305.863281 C 234.457031 308.464844 246.019531 334.773438 253.246094 336.796875 C 254.113281 337.085938 254.980469 336.796875 255.558594 335.929688 C 263.367188 327.832031 258.160156 308.175781 258.160156 308.175781 C 257.871094 307.308594 258.449219 306.441406 259.316406 306.441406 C 260.183594 306.152344 260.761719 306.730469 261.050781 307.597656 Z M 324.941406 233.300781 C 317.136719 230.121094 308.464844 230.410156 300.949219 234.167969 C 293.71875 237.925781 288.515625 245.441406 287.070312 254.980469 C 285.046875 267.125 288.515625 280.132812 296.613281 288.515625 C 302.972656 295.453125 306.441406 300.660156 308.175781 304.417969 C 299.503906 295.164062 287.070312 289.671875 277.242188 287.359375 C 264.8125 284.46875 258.160156 281 255.558594 279.554688 C 256.136719 278.6875 256.425781 277.820312 256.425781 276.953125 C 256.425781 276.953125 256.425781 276.664062 256.425781 276.664062 C 267.703125 270.015625 276.375 257.871094 276.085938 236.191406 C 275.507812 201.789062 257.003906 182.417969 222.601562 179.816406 C 198.609375 178.082031 178.082031 184.441406 166.230469 197.164062 C 156.109375 208.148438 152.351562 223.757812 155.53125 242.839844 C 159.003906 264.234375 170.855469 275.21875 183.285156 281 C 183.574219 281.867188 183.863281 283.023438 184.152344 283.890625 C 180.394531 287.648438 155.53125 311.933594 156.980469 321.761719 C 157.269531 323.496094 158.136719 324.652344 159.582031 325.230469 C 165.652344 328.410156 172.011719 326.675781 177.503906 324.941406 C 181.839844 323.785156 185.886719 322.339844 189.355469 323.496094 C 192.25 324.363281 194.273438 326.097656 197.164062 328.410156 C 202.078125 332.75 209.882812 339.109375 230.410156 346.046875 C 235.613281 347.78125 239.949219 349.226562 243.707031 350.382812 C 245.152344 358.476562 249.199219 379.871094 254.691406 381.316406 C 254.980469 381.316406 255.269531 381.316406 255.558594 381.316406 C 260.472656 381.316406 265.390625 370.621094 268.28125 363.679688 C 268.570312 364.546875 269.148438 365.703125 269.4375 366.570312 C 273.484375 375.824219 278.6875 387.675781 285.625 387.675781 C 285.914062 387.675781 286.492188 387.675781 286.78125 387.675781 C 288.804688 387.386719 290.539062 386.230469 291.984375 384.207031 C 295.164062 379.292969 294.296875 370.042969 293.429688 365.414062 C 295.742188 366.28125 298.925781 366.570312 302.394531 365.414062 C 309.042969 362.8125 314.246094 355.007812 317.425781 341.710938 C 318.292969 338.242188 318.871094 334.773438 318.871094 331.59375 C 320.894531 328.988281 330.144531 316.269531 326.386719 299.214844 C 324.363281 289.09375 321.472656 282.734375 319.449219 278.6875 C 321.183594 278.976562 322.917969 279.265625 324.652344 278.976562 C 331.882812 277.820312 337.664062 274.0625 340.84375 268.570312 C 344.023438 263.367188 344.3125 257.292969 342.289062 250.933594 C 339.6875 243.128906 333.328125 236.480469 324.941406 233.300781 Z M 188.488281 279.554688 C 189.933594 280.421875 191.378906 281 193.117188 281.867188 C 190.800781 281.289062 188.488281 280.421875 186.175781 279.554688 C 186.175781 279.265625 186.175781 278.6875 186.175781 278.398438 C 187.042969 278.6875 187.621094 278.976562 188.488281 279.554688 Z M 189.933594 276.953125 C 189.355469 276.664062 188.777344 276.375 188.488281 276.085938 L 192.25 272.039062 C 192.828125 271.460938 192.828125 270.59375 192.25 270.015625 C 191.671875 269.4375 190.800781 269.4375 190.222656 270.015625 L 186.175781 274.0625 C 186.175781 274.0625 186.175781 274.0625 186.175781 274.351562 C 161.605469 257.292969 176.636719 227.808594 177.503906 226.359375 C 177.792969 226.070312 177.792969 225.78125 177.503906 225.203125 C 176.636719 222.023438 175.191406 212.773438 178.082031 208.726562 C 178.371094 208.148438 178.949219 207.859375 179.527344 207.859375 C 179.816406 207.859375 180.105469 207.859375 180.105469 207.859375 C 184.441406 207.859375 192.539062 213.351562 195.140625 215.375 C 195.429688 215.664062 196.007812 215.664062 196.296875 215.664062 C 204.390625 213.640625 235.902344 217.6875 236.191406 217.6875 C 236.769531 217.6875 237.058594 217.6875 237.347656 217.398438 C 241.972656 212.773438 251.222656 209.304688 253.824219 210.75 C 255.269531 211.328125 254.691406 217.109375 254.691406 220 C 254.402344 222.890625 254.402344 225.492188 254.691406 226.9375 C 254.980469 227.519531 255.269531 228.386719 255.558594 229.542969 C 257.582031 234.167969 261.050781 243.128906 259.316406 259.027344 C 259.027344 262.210938 257.292969 265.679688 254.980469 268.570312 C 254.980469 268.570312 254.980469 268.28125 254.980469 268.28125 C 254.980469 267.414062 254.402344 266.835938 253.535156 266.835938 L 244.863281 266.835938 C 243.996094 266.835938 243.417969 267.414062 243.417969 268.28125 C 243.417969 269.148438 243.996094 269.726562 244.863281 269.726562 L 253.824219 269.4375 C 254.113281 269.4375 254.113281 269.4375 254.402344 269.4375 C 253.246094 270.59375 252.089844 271.75 250.644531 272.90625 L 245.441406 270.59375 C 244.574219 270.304688 243.707031 270.59375 243.417969 271.460938 C 243.128906 272.328125 243.417969 273.195312 244.285156 273.484375 L 248.042969 275.21875 C 246.597656 276.375 244.863281 277.242188 243.128906 278.109375 C 230.410156 284.46875 209.59375 287.648438 189.933594 276.953125 Z M 252.089844 275.796875 C 252.089844 275.507812 252.089844 275.507812 252.089844 275.796875 C 252.378906 275.507812 252.378906 275.507812 252.378906 275.796875 C 252.089844 275.796875 252.089844 275.796875 252.089844 275.796875 C 251.800781 275.796875 252.089844 275.796875 252.089844 275.796875 Z M 158.425781 242.550781 C 155.53125 224.335938 158.714844 209.59375 168.253906 199.1875 C 179.238281 187.042969 198.898438 181.261719 222.023438 182.996094 C 254.980469 185.597656 272.039062 203.523438 272.617188 236.480469 C 272.90625 256.425781 265.101562 267.703125 254.691406 274.0625 C 254.402344 273.773438 254.402344 273.773438 254.113281 273.484375 C 258.738281 269.148438 261.632812 264.234375 262.210938 259.027344 C 264.234375 242.261719 260.183594 232.722656 258.449219 228.097656 C 258.160156 227.230469 257.871094 226.359375 257.582031 225.78125 C 257.292969 224.625 257.292969 222.3125 257.582031 219.710938 C 257.871094 214.507812 258.160156 208.726562 254.980469 207.570312 C 250.644531 205.835938 240.527344 209.882812 235.613281 214.507812 C 230.988281 213.929688 204.96875 211.039062 196.296875 212.484375 C 193.695312 210.460938 184.441406 203.8125 178.660156 204.96875 C 177.214844 205.257812 176.058594 205.835938 175.191406 206.992188 C 171.433594 212.484375 173.457031 222.890625 174.035156 225.492188 C 172.011719 229.832031 159.292969 259.027344 183.574219 276.375 C 183.574219 276.664062 183.285156 277.242188 183.285156 277.820312 C 172.011719 272.328125 161.605469 261.921875 158.425781 242.550781 Z M 212.484375 287.359375 C 215.085938 287.359375 216.53125 287.359375 216.820312 287.070312 C 217.109375 287.070312 217.398438 286.78125 217.6875 286.78125 C 224.625 286.78125 231.277344 285.625 236.769531 283.601562 C 241.972656 282.734375 247.464844 281.289062 252.667969 278.6875 C 252.089844 279.265625 251.222656 280.132812 250.066406 280.710938 C 226.652344 295.742188 192.828125 285.625 188.488281 283.890625 C 187.910156 283.601562 187.332031 283.3125 187.042969 282.734375 C 197.164062 286.78125 206.992188 287.359375 212.484375 287.359375 Z M 255.269531 378.714844 C 252.957031 378.136719 248.910156 364.546875 246.886719 351.539062 C 252.957031 353.273438 256.425781 354.429688 258.738281 355.007812 C 261.921875 355.875 262.5 355.875 264.234375 357.03125 C 264.8125 357.320312 265.679688 358.476562 266.257812 360.210938 C 262.210938 370.910156 257.292969 379.292969 255.269531 378.714844 Z M 314.535156 341.132812 C 311.644531 352.984375 307.019531 360.5 301.238281 362.523438 C 296.320312 364.546875 292.273438 361.65625 291.984375 361.65625 C 291.40625 361.367188 290.828125 361.367188 290.25 361.65625 C 289.671875 361.945312 289.382812 362.523438 289.671875 363.101562 C 290.539062 366.863281 292.273438 377.847656 289.09375 382.472656 C 288.226562 383.628906 287.359375 384.207031 285.914062 384.496094 C 280.710938 385.363281 275.21875 373.222656 271.75 365.414062 C 270.59375 363.101562 269.726562 361.078125 268.859375 359.34375 C 267.414062 356.742188 266.546875 355.007812 265.390625 354.429688 C 263.078125 352.984375 262.210938 352.984375 259.027344 352.117188 C 255.269531 350.960938 248.042969 349.226562 230.988281 343.445312 C 211.039062 336.796875 204.101562 330.722656 198.898438 326.386719 C 196.007812 323.785156 193.695312 322.050781 189.933594 320.894531 C 185.308594 319.738281 180.683594 320.894531 176.347656 322.339844 C 170.855469 324.074219 165.652344 325.519531 160.738281 322.917969 C 160.160156 322.628906 159.871094 322.339844 159.871094 321.472656 C 159.003906 315.113281 174.902344 296.902344 186.175781 286.203125 C 186.464844 286.492188 186.753906 286.492188 187.042969 286.78125 C 189.644531 287.9375 202.945312 291.984375 218.265625 291.984375 C 229.253906 291.984375 241.394531 289.960938 251.511719 283.601562 C 252.089844 283.3125 252.667969 282.734375 253.246094 282.445312 C 255.558594 283.890625 262.5 287.648438 276.085938 290.828125 C 287.070312 293.429688 302.683594 300.660156 310.488281 313.378906 C 315.691406 321.472656 317.136719 330.722656 314.535156 341.132812 Z M 338.53125 267.125 C 335.640625 271.75 330.433594 275.21875 324.363281 276.085938 C 318.582031 276.953125 314.246094 273.484375 312.800781 269.4375 C 311.644531 266.546875 311.644531 262.789062 314.824219 260.472656 C 315.402344 259.894531 315.691406 259.027344 315.113281 258.449219 C 314.535156 257.871094 313.667969 257.582031 313.089844 258.160156 C 309.332031 260.761719 307.886719 265.679688 309.910156 270.59375 C 310.777344 272.617188 312.222656 274.640625 313.957031 276.085938 C 313.957031 276.085938 319.738281 282.445312 323.496094 299.792969 C 326.097656 311.644531 321.472656 321.472656 318.582031 326.386719 C 318.003906 321.183594 316.269531 315.980469 313.378906 311.355469 C 313.089844 311.066406 313.089844 310.777344 312.800781 310.488281 C 312.800781 308.464844 311.355469 299.792969 298.636719 286.203125 C 291.40625 278.398438 287.9375 266.546875 289.960938 255.269531 C 291.40625 246.597656 296.03125 239.660156 302.394531 236.480469 C 309.332031 233.011719 316.847656 232.722656 324.074219 235.613281 C 331.304688 238.503906 337.375 244.574219 339.6875 251.800781 C 341.421875 257.582031 341.132812 263.078125 338.53125 267.125 Z M 200.921875 251.511719 C 200.921875 253.535156 199.476562 255.269531 198.03125 255.269531 C 196.585938 255.269531 195.140625 253.535156 195.140625 251.511719 C 195.140625 249.488281 196.585938 247.753906 198.03125 247.753906 C 199.476562 247.753906 200.921875 249.488281 200.921875 251.511719 Z M 242.261719 252.378906 C 242.261719 254.402344 240.816406 256.136719 239.371094 256.136719 C 237.925781 256.136719 236.480469 254.402344 236.480469 252.378906 C 236.480469 250.355469 237.925781 248.621094 239.371094 248.621094 C 240.816406 248.621094 242.261719 250.355469 242.261719 252.378906 Z M 83.546875 224.046875 C 83.257812 224.046875 83.257812 224.046875 83.546875 224.046875 C 83.257812 223.757812 83.257812 223.757812 83.257812 223.757812 C 83.257812 223.757812 83.257812 223.757812 82.96875 223.757812 C 82.96875 223.757812 82.679688 223.757812 82.679688 223.757812 C 82.679688 223.757812 82.390625 223.757812 82.390625 223.757812 C 82.390625 223.757812 82.390625 223.757812 82.101562 223.757812 C 81.523438 223.757812 79.210938 222.601562 77.476562 221.734375 C 76.03125 217.6875 71.984375 212.195312 69.09375 208.4375 C 68.515625 207.570312 67.9375 206.992188 67.359375 206.414062 C 66.203125 204.679688 66.203125 204.101562 66.492188 202.945312 C 66.492188 202.078125 66.78125 201.210938 66.492188 200.054688 C 65.625 196.875 55.507812 192.828125 54.929688 192.828125 C 54.0625 192.828125 53.484375 193.40625 50.878906 196.007812 C 50.589844 196.296875 50.300781 196.585938 50.011719 196.875 C 49.722656 196.875 49.144531 196.585938 48.566406 196.585938 C 46.542969 196.007812 43.074219 194.851562 38.160156 195.140625 C 33.246094 195.429688 29.199219 196.875 25.730469 198.03125 C 23.707031 198.609375 21.972656 199.476562 20.816406 199.476562 C 19.082031 199.765625 18.214844 198.898438 17.054688 198.03125 C 16.476562 197.453125 15.609375 196.875 14.453125 196.585938 C 11.273438 196.007812 5.78125 201.789062 4.625 203.8125 C 3.179688 206.125 4.046875 208.726562 4.914062 210.75 C 5.203125 211.039062 5.203125 211.617188 5.492188 211.90625 C 5.492188 212.195312 5.203125 212.773438 4.914062 213.0625 C 3.46875 216.242188 0 224.046875 1.15625 234.457031 C 2.3125 244.863281 5.203125 248.042969 6.648438 249.488281 C 6.648438 249.488281 6.9375 249.777344 6.9375 249.777344 C 6.9375 250.933594 6.648438 254.980469 6.070312 256.425781 C 4.625 260.183594 13.585938 264.234375 13.585938 264.234375 C 13.875 264.234375 14.164062 264.523438 15.320312 264.234375 C 16.476562 263.945312 17.925781 263.65625 20.238281 262.5 C 22.261719 263.367188 28.910156 265.679688 38.738281 266.257812 C 47.988281 266.835938 50.300781 265.96875 51.746094 265.390625 C 52.035156 265.390625 52.328125 265.101562 52.328125 265.101562 C 52.90625 265.101562 54.640625 265.96875 56.085938 267.125 C 56.375 267.414062 56.664062 267.414062 56.953125 267.414062 C 57.242188 267.414062 57.242188 267.414062 57.53125 267.414062 L 69.671875 262.210938 C 70.25 261.921875 70.828125 261.050781 70.539062 260.472656 C 70.539062 260.472656 69.960938 258.449219 70.25 254.402344 C 70.539062 251.511719 74.007812 246.019531 76.03125 242.839844 C 76.898438 241.683594 77.476562 240.816406 77.765625 239.949219 C 78.632812 238.503906 80.945312 237.347656 81.8125 237.058594 C 81.8125 237.058594 82.101562 237.058594 82.101562 236.769531 C 82.390625 236.769531 82.390625 236.480469 82.390625 236.480469 C 87.015625 230.699219 83.546875 224.335938 83.546875 224.046875 Z M 9.828125 257.871094 C 10.40625 257.871094 10.695312 257.871094 11.273438 258.160156 C 11.851562 258.449219 12.429688 259.316406 13.007812 260.183594 C 11.851562 259.605469 10.695312 258.738281 9.828125 257.871094 Z M 75.453125 238.214844 C 75.164062 238.792969 74.585938 239.660156 73.71875 240.816406 C 70.539062 245.730469 67.648438 250.355469 67.359375 253.824219 C 67.070312 256.425781 67.359375 258.449219 67.648438 259.605469 L 57.53125 263.945312 C 56.375 263.078125 54.351562 261.921875 52.617188 261.921875 C 52.617188 261.921875 52.617188 261.921875 52.328125 261.921875 C 51.746094 261.921875 51.167969 262.210938 50.878906 262.210938 C 49.722656 262.789062 47.410156 263.65625 39.027344 263.078125 C 28.042969 262.210938 21.105469 259.316406 21.105469 259.316406 C 20.816406 259.027344 20.238281 259.027344 19.949219 259.316406 C 18.792969 259.894531 17.34375 260.472656 16.476562 260.761719 C 15.609375 258.160156 14.453125 256.425781 12.71875 255.558594 C 11.5625 254.980469 10.695312 254.691406 9.828125 254.691406 C 10.117188 252.378906 10.40625 249.488281 10.117188 248.621094 C 10.117188 248.042969 9.539062 247.464844 9.25 246.886719 C 8.09375 245.730469 5.492188 243.128906 4.625 233.589844 C 3.46875 224.335938 6.359375 217.398438 7.804688 213.929688 C 8.382812 212.773438 8.671875 212.195312 8.671875 211.617188 C 8.671875 210.75 8.382812 209.882812 8.09375 209.015625 C 7.804688 208.4375 7.515625 207.570312 7.226562 206.703125 C 7.226562 206.703125 7.515625 206.703125 7.515625 206.703125 C 11.5625 204.96875 14.164062 202.367188 15.03125 199.765625 C 16.1875 200.921875 17.925781 202.367188 21.105469 202.078125 C 22.839844 201.789062 24.574219 201.210938 26.597656 200.34375 C 29.777344 199.1875 33.535156 197.742188 38.160156 197.453125 C 42.496094 197.164062 45.675781 198.03125 47.699219 198.609375 C 49.433594 199.1875 50.878906 199.476562 51.746094 198.609375 C 52.035156 198.320312 52.328125 198.03125 52.90625 197.453125 C 53.484375 196.875 54.351562 196.007812 54.929688 195.429688 C 57.242188 196.296875 62.734375 198.898438 63.3125 200.34375 C 63.3125 200.921875 63.3125 201.210938 63.3125 201.789062 C 63.023438 203.523438 63.023438 204.96875 64.757812 207.570312 C 65.335938 208.148438 65.914062 209.015625 66.492188 209.882812 C 69.382812 213.640625 73.71875 219.132812 74.585938 222.890625 C 74.585938 223.179688 74.875 223.757812 75.453125 223.757812 C 77.476562 224.914062 78.921875 225.492188 80.078125 225.78125 C 78.34375 229.542969 79.210938 232.722656 79.789062 234.746094 C 78.34375 235.324219 76.609375 236.480469 75.453125 238.214844 Z M 49.433594 249.488281 C 50.011719 250.066406 49.722656 251.222656 48.855469 251.511719 C 48.566406 251.800781 47.410156 253.535156 46.832031 255.269531 C 47.121094 256.136719 46.832031 256.714844 46.542969 257.003906 C 46.253906 257.292969 45.675781 258.160156 42.785156 258.160156 C 41.050781 258.160156 38.738281 257.871094 34.980469 257.003906 C 34.980469 257.003906 34.691406 257.003906 34.691406 257.003906 C 34.402344 257.003906 34.402344 256.714844 34.402344 256.714844 C 34.402344 256.714844 34.113281 256.425781 34.113281 256.425781 C 34.113281 256.425781 34.113281 256.425781 34.113281 256.136719 C 34.113281 256.136719 34.113281 256.136719 34.113281 255.847656 C 34.113281 255.847656 34.113281 255.847656 34.113281 255.558594 C 34.113281 254.980469 33.246094 252.667969 32.089844 250.933594 C 31.511719 250.355469 31.800781 249.199219 32.667969 248.910156 C 33.246094 248.332031 34.402344 248.621094 34.691406 249.488281 C 35.269531 250.066406 36.136719 252.089844 36.714844 253.824219 C 38.738281 253.246094 42.207031 252.378906 44.808594 253.246094 C 45.386719 251.800781 46.253906 249.777344 47.410156 249.199219 C 47.988281 248.621094 48.855469 248.910156 49.433594 249.488281 Z M 48.855469 224.046875 C 48.566406 223.757812 48.277344 223.757812 47.988281 223.46875 C 43.941406 221.445312 38.449219 223.179688 36.425781 226.941406 C 34.980469 229.832031 34.691406 232.144531 35.558594 233.878906 C 36.714844 236.191406 40.183594 237.058594 43.074219 237.347656 C 43.652344 237.347656 44.519531 237.636719 45.386719 237.636719 C 47.121094 237.636719 49.433594 237.347656 50.589844 235.324219 C 52.617188 231.566406 52.328125 226.359375 48.855469 224.046875 Z M 47.988281 233.589844 C 47.410156 234.746094 45.386719 234.746094 43.652344 234.457031 C 40.472656 234.167969 38.738281 233.300781 38.449219 232.433594 C 37.871094 231.566406 38.738281 229.542969 39.316406 228.386719 C 40.183594 226.652344 42.496094 225.78125 44.519531 225.78125 C 45.386719 225.78125 46.253906 226.070312 46.832031 226.359375 C 47.121094 226.359375 47.121094 226.648438 47.410156 226.648438 C 49.144531 227.808594 49.144531 231.277344 47.988281 233.589844 Z M 26.308594 211.617188 C 25.730469 211.039062 26.019531 209.882812 26.597656 209.59375 C 27.175781 209.304688 27.464844 207.28125 27.175781 205.835938 C 27.175781 205.546875 27.175781 205.546875 27.175781 205.257812 C 27.175781 204.96875 27.175781 204.96875 27.464844 204.679688 C 27.464844 204.679688 27.464844 204.679688 27.753906 204.390625 C 32.957031 199.765625 37.582031 201.789062 38.738281 202.367188 C 38.738281 202.367188 39.027344 202.367188 39.027344 202.367188 C 39.894531 202.367188 40.472656 202.945312 40.761719 203.523438 C 40.761719 204.390625 41.339844 205.546875 41.628906 205.546875 C 42.496094 205.835938 43.074219 206.414062 42.785156 207.28125 C 42.785156 207.859375 41.917969 208.4375 41.339844 208.4375 C 41.339844 208.4375 41.050781 208.4375 41.050781 208.4375 C 39.605469 208.148438 38.738281 206.703125 38.160156 205.546875 C 35.847656 206.992188 33.535156 207.28125 31.800781 207.28125 C 31.222656 207.28125 30.644531 207.28125 30.355469 207.28125 C 30.355469 208.726562 29.777344 210.75 28.621094 211.90625 C 28.332031 212.195312 28.042969 212.195312 27.753906 212.195312 C 27.175781 212.195312 26.597656 211.90625 26.308594 211.617188 Z M 15.609375 215.085938 C 15.03125 214.507812 15.03125 213.640625 15.609375 213.0625 C 16.476562 211.90625 16.476562 209.59375 16.1875 209.015625 C 16.1875 208.148438 16.476562 207.28125 17.34375 207.28125 C 18.214844 206.992188 19.082031 207.570312 19.082031 208.4375 C 19.082031 208.726562 19.949219 212.484375 17.636719 215.085938 C 17.34375 215.375 17.054688 215.664062 16.476562 215.664062 C 16.1875 215.375 15.898438 215.375 15.609375 215.085938 Z M 26.886719 226.648438 C 26.308594 226.648438 26.019531 226.359375 25.730469 226.070312 C 25.441406 225.492188 25.441406 224.625 26.308594 224.046875 C 27.464844 223.46875 27.753906 222.601562 27.464844 221.445312 C 27.175781 220.578125 27.753906 219.710938 28.621094 219.710938 C 29.488281 219.421875 30.355469 220 30.355469 220.867188 C 30.644531 222.3125 30.644531 224.914062 27.753906 226.652344 C 27.464844 226.359375 27.175781 226.648438 26.886719 226.648438 Z M 32.378906 243.128906 C 31.800781 243.128906 31.222656 242.839844 30.933594 242.261719 C 30.355469 240.238281 28.910156 240.527344 28.332031 240.816406 C 27.464844 241.105469 26.597656 240.527344 26.308594 239.949219 C 26.019531 239.082031 26.308594 238.214844 27.175781 237.925781 C 27.464844 237.925781 29.199219 237.347656 30.933594 238.214844 C 32.089844 238.792969 32.957031 239.949219 33.535156 241.394531 C 33.824219 242.261719 33.535156 243.128906 32.667969 243.417969 C 32.667969 243.128906 32.378906 243.128906 32.378906 243.128906 Z M 23.128906 251.511719 C 23.417969 252.378906 23.128906 253.246094 22.261719 253.535156 C 21.972656 253.535156 21.972656 253.535156 21.683594 253.535156 C 21.105469 253.535156 20.527344 253.246094 20.238281 252.667969 C 19.082031 249.777344 16.476562 249.199219 16.476562 249.199219 C 15.609375 249.199219 15.03125 248.621094 15.03125 247.753906 C 15.03125 246.886719 15.898438 246.308594 16.476562 246.308594 C 17.636719 246.019531 21.394531 247.464844 23.128906 251.511719 Z M 18.214844 242.839844 C 18.503906 243.128906 18.792969 243.128906 19.082031 243.128906 C 19.660156 243.128906 19.949219 242.839844 20.238281 242.550781 C 20.816406 241.972656 20.527344 241.105469 19.949219 240.527344 C 18.503906 239.371094 17.34375 238.792969 16.476562 238.214844 C 16.765625 236.769531 17.054688 235.035156 16.1875 232.722656 C 15.609375 230.699219 14.453125 229.253906 13.875 228.386719 C 15.609375 227.230469 17.054688 224.914062 17.34375 224.625 C 17.925781 224.046875 17.636719 222.890625 16.765625 222.601562 C 16.1875 222.023438 15.03125 222.3125 14.742188 223.179688 C 14.164062 224.335938 12.71875 226.070312 11.5625 226.359375 C 10.984375 226.359375 10.695312 226.648438 10.695312 227.230469 C 10.40625 227.519531 10.40625 227.808594 10.40625 228.097656 C 10.40625 228.386719 9.539062 231.855469 10.695312 235.613281 C 11.851562 239.082031 13.296875 240.238281 13.585938 240.527344 C 13.585938 240.527344 13.875 240.527344 13.875 240.527344 C 13.875 240.527344 13.875 240.527344 14.164062 240.527344 C 14.164062 240.527344 14.453125 240.527344 14.453125 240.527344 C 15.320312 240.816406 16.765625 241.683594 18.214844 242.839844 Z M 13.007812 232.722656 C 13.007812 233.011719 13.296875 233.300781 13.296875 233.589844 C 13.585938 234.167969 13.875 235.035156 13.875 235.613281 C 13.585938 235.324219 13.585938 235.035156 13.585938 234.746094 C 13.296875 233.878906 13.296875 233.300781 13.007812 232.722656 Z M 47.699219 230.988281 C 47.699219 231.566406 47.410156 232.722656 45.964844 233.300781 C 45.097656 233.589844 44.519531 233.878906 43.941406 233.878906 C 42.207031 233.878906 41.050781 232.722656 40.472656 231.855469 C 40.183594 230.988281 40.472656 230.121094 41.050781 229.832031 C 41.917969 229.542969 42.785156 229.832031 43.074219 230.410156 C 43.652344 231.277344 44.519531 230.699219 44.808594 230.699219 C 44.808594 230.410156 44.230469 229.832031 43.652344 229.253906 C 43.074219 228.675781 43.074219 227.808594 43.363281 227.230469 C 43.941406 226.652344 44.808594 226.652344 45.386719 226.941406 C 45.964844 227.230469 47.988281 228.964844 47.699219 230.988281 Z M 69.671875 238.792969 C 70.25 239.371094 70.539062 240.238281 70.539062 241.394531 C 70.539062 244.285156 68.226562 249.199219 67.070312 250.066406 C 66.492188 250.355469 66.203125 250.644531 65.625 250.644531 C 65.335938 250.644531 64.757812 250.644531 64.46875 250.355469 C 63.023438 250.355469 61.867188 252.089844 61.578125 252.667969 C 61.289062 253.246094 60.710938 253.824219 60.132812 253.824219 C 59.265625 253.824219 58.6875 253.246094 58.6875 252.378906 C 58.6875 251.222656 60.132812 249.777344 61 248.910156 C 61.867188 248.332031 62.445312 248.042969 63.3125 247.753906 C 63.3125 246.597656 63.601562 245.152344 64.179688 243.707031 C 65.046875 241.683594 65.914062 240.527344 66.492188 239.660156 C 65.335938 237.347656 65.914062 234.167969 65.914062 233.878906 C 66.203125 233.011719 66.78125 232.433594 67.648438 232.722656 C 68.515625 233.011719 69.09375 233.589844 68.804688 234.457031 C 68.804688 235.324219 68.804688 237.925781 69.671875 238.792969 Z M 58.976562 234.746094 C 57.242188 233.300781 57.242188 231.855469 57.242188 230.699219 C 57.53125 228.097656 59.84375 226.359375 60.132812 226.359375 C 60.710938 225.78125 61.867188 226.070312 62.15625 226.648438 C 62.734375 227.230469 62.445312 228.386719 61.867188 228.675781 C 61.578125 228.964844 60.421875 229.832031 60.421875 230.988281 C 60.421875 231.277344 60.421875 231.855469 61.289062 232.722656 C 61.867188 233.300781 61.867188 234.167969 61.289062 234.746094 C 61 235.035156 60.710938 235.324219 60.132812 235.324219 C 59.554688 235.035156 59.265625 235.035156 58.976562 234.746094 Z M 74.875 233.878906 C 74.585938 234.457031 74.007812 234.746094 73.429688 234.746094 C 73.140625 234.746094 72.851562 234.746094 72.851562 234.457031 C 69.960938 233.011719 70.539062 229.542969 71.117188 227.808594 C 71.40625 226.941406 72.273438 226.648438 73.140625 226.941406 C 74.007812 227.230469 74.296875 228.097656 74.007812 228.964844 C 73.71875 229.542969 73.140625 231.566406 74.007812 231.855469 C 74.875 232.144531 75.453125 233.011719 74.875 233.878906 Z M 58.109375 213.929688 C 57.820312 214.796875 58.109375 215.664062 58.6875 215.953125 C 59.265625 216.242188 60.132812 216.53125 61.289062 216.53125 C 61.867188 216.53125 62.445312 216.53125 63.023438 216.242188 C 64.179688 218.84375 65.914062 222.890625 68.515625 224.046875 C 68.226562 224.914062 67.9375 226.359375 67.9375 227.230469 C 67.9375 228.097656 68.515625 228.675781 69.382812 228.675781 C 70.25 228.675781 70.828125 227.808594 70.828125 227.230469 C 70.828125 226.359375 71.40625 224.914062 71.695312 224.046875 C 72.273438 223.757812 72.5625 223.179688 72.851562 222.3125 C 73.429688 219.421875 69.09375 214.796875 66.492188 213.351562 C 65.914062 213.0625 64.179688 211.90625 63.023438 212.773438 C 61.578125 213.640625 60.421875 213.0625 60.132812 213.0625 C 59.265625 213.0625 58.398438 213.351562 58.109375 213.929688 Z M 69.671875 221.734375 C 69.09375 221.15625 67.9375 220 67.070312 218.265625 C 68.226562 219.421875 69.382812 220.867188 69.671875 221.734375 Z M 53.484375 212.773438 C 53.484375 213.640625 52.90625 214.21875 52.035156 214.21875 C 51.746094 214.21875 51.746094 214.21875 51.457031 214.21875 C 49.433594 214.21875 47.988281 213.640625 47.121094 212.773438 C 45.964844 211.617188 45.964844 210.171875 45.964844 209.882812 C 45.964844 209.015625 46.832031 208.4375 47.699219 208.4375 C 48.566406 208.4375 49.144531 209.304688 49.144531 209.882812 C 49.144531 209.882812 49.144531 210.171875 49.433594 210.460938 C 49.722656 210.75 50.300781 211.039062 52.035156 211.039062 C 52.617188 211.328125 53.484375 211.90625 53.484375 212.773438 Z M 58.398438 209.015625 C 55.796875 209.015625 53.773438 206.992188 53.195312 205.835938 C 52.90625 204.96875 53.195312 204.101562 53.773438 203.8125 C 54.640625 203.523438 55.507812 203.8125 55.796875 204.390625 C 55.796875 204.679688 56.953125 206.125 58.976562 205.835938 C 59.84375 205.546875 60.710938 206.125 60.710938 206.992188 C 61 207.859375 60.421875 208.726562 59.554688 208.726562 C 59.265625 208.726562 58.976562 209.015625 58.398438 209.015625 Z M 381.605469 408.492188 C 372.355469 408.492188 365.125 416.007812 365.125 424.96875 C 365.125 433.929688 372.644531 441.449219 381.605469 441.449219 C 390.566406 441.449219 398.082031 433.929688 398.082031 424.96875 C 398.082031 416.007812 390.855469 408.492188 381.605469 408.492188 Z M 381.605469 438.558594 C 374.089844 438.558594 368.019531 432.484375 368.019531 424.96875 C 368.019531 417.453125 374.089844 411.382812 381.605469 411.382812 C 389.121094 411.382812 395.191406 417.453125 395.191406 424.96875 C 395.191406 432.484375 389.121094 438.558594 381.605469 438.558594 Z M 381.605469 438.558594 " fill-opacity="1" fill-rule="nonzero"/></g></svg>