<svg xmlns="http://www.w3.org/2000/svg" xmlns:xlink="http://www.w3.org/1999/xlink" width="750" zoomAndPan="magnify" viewBox="0 0 562.5 562.499982" height="750" preserveAspectRatio="xMidYMid meet" version="1.0"><defs><clipPath id="530daf3b42"><path d="M 7 118.019531 L 557 118.019531 L 557 443.980469 L 7 443.980469 Z M 7 118.019531 " clip-rule="nonzero"/></clipPath></defs><g clip-path="url(#530daf3b42)"><path fill="#ffffff" d="M 555.488281 202.945312 C 546.621094 172.074219 454.554688 181.839844 412.878906 187.929688 C 382.0625 144.203125 332.390625 118.417969 277.910156 118.417969 C 189.121094 118.417969 116.550781 188.207031 113.425781 275.167969 C 69.441406 295.046875 -0.0742188 331.496094 8.175781 360.171875 C 12.5625 375.421875 37.234375 381.898438 73.554688 381.898438 C 94.003906 381.898438 118.144531 379.832031 144.386719 376.136719 C 175.332031 418.457031 225.019531 443.65625 277.910156 443.65625 C 364.925781 443.65625 436.617188 377.015625 442.140625 291.550781 C 457.976562 284.601562 472.699219 277.542969 486.011719 270.503906 C 521.199219 251.847656 561.835938 225 555.488281 202.945312 Z M 411.964844 201.371094 C 416.917969 209.492188 421.105469 218.070312 424.453125 226.921875 C 306.457031 285.957031 153.328125 312.363281 125.730469 316.789062 C 123.410156 307.152344 122.039062 297.277344 121.617188 287.308594 C 139.175781 284.585938 293.5625 259.457031 411.339844 200.386719 C 411.542969 200.714844 411.761719 201.042969 411.964844 201.371094 Z M 133.375 358.871094 C 131.75 359.019531 130.085938 359.164062 128.476562 359.273438 C 84.511719 362.511719 56.292969 357.609375 53.019531 346.199219 C 49.597656 334.273438 72.238281 314.558594 113.773438 293.089844 C 115.507812 316.148438 122.183594 338.625 133.375 358.871094 Z M 141.953125 358.066406 C 141.882812 357.589844 141.734375 357.117188 141.480469 356.675781 C 140.214844 354.464844 139.046875 352.234375 137.894531 349.964844 C 139.722656 349.820312 142.6875 349.542969 146.636719 349.160156 C 147.988281 349.03125 148.957031 347.824219 148.832031 346.472656 C 148.683594 345.117188 147.386719 344.09375 146.140625 344.277344 C 140.179688 344.882812 136.449219 345.15625 135.589844 345.230469 C 132.058594 337.585938 129.152344 329.664062 126.9375 321.546875 C 156 316.863281 308.269531 290.363281 426.117188 231.546875 C 430.761719 245.136719 433.488281 259.363281 434.164062 273.738281 C 434.203125 274.488281 434.4375 275.183594 434.824219 275.769531 C 396.382812 293.855469 348.265625 311.503906 296.507812 326.375 C 240.382812 342.503906 186.15625 353.585938 141.953125 358.066406 Z M 442.25 272.238281 C 440.933594 247.734375 433.925781 223.703125 421.929688 202.304688 C 474.839844 196.671875 509.695312 201.0625 513.390625 213.9375 C 516.683594 225.367188 495.359375 244.476562 456.367188 265.089844 C 451.867188 267.46875 447.132812 269.84375 442.25 272.238281 Z M 408.671875 196.253906 C 292.886719 254.191406 141.625 279.226562 121.488281 282.371094 C 121.488281 281.933594 121.472656 281.476562 121.472656 281.035156 C 121.472656 280.105469 121.527344 279.171875 121.542969 278.238281 C 121.5625 278.019531 121.582031 277.78125 121.5625 277.542969 C 121.929688 261.285156 124.855469 245.648438 129.9375 231 C 146.03125 230.285156 259.804688 223.027344 374.671875 159.511719 C 387.710938 169.679688 399.214844 182.023438 408.671875 196.253906 Z M 152.414062 188.898438 C 155.851562 188.808594 234.273438 186.046875 332.664062 136.523438 C 332.773438 136.46875 332.828125 136.375 332.9375 136.320312 C 341.972656 139.648438 350.640625 143.78125 358.871094 148.703125 C 355.398438 150.53125 345.960938 155.449219 335.023438 160.570312 C 333.796875 161.136719 333.269531 162.601562 333.851562 163.828125 C 334.273438 164.722656 335.152344 165.234375 336.066406 165.234375 C 336.414062 165.234375 336.761719 165.160156 337.109375 164.996094 C 350.988281 158.503906 362.511719 152.324219 362.621094 152.25 C 362.96875 152.066406 363.222656 151.8125 363.425781 151.519531 C 365.785156 153.035156 368.089844 154.644531 370.355469 156.292969 C 261.046875 216.132812 153.292969 224.835938 131.765625 225.988281 C 136.941406 212.65625 143.910156 200.183594 152.414062 188.898438 Z M 277.910156 126.59375 C 294.753906 126.59375 311.101562 129.1875 326.519531 134.125 C 242.355469 175.660156 173.847656 182.664062 156.492188 183.816406 C 185.1875 148.921875 228.953125 126.59375 277.910156 126.59375 Z M 423.410156 337.875 C 308.449219 405.652344 203.347656 410.261719 192.742188 410.554688 C 188.535156 407.847656 184.4375 404.941406 180.503906 401.847656 C 205.339844 399.546875 316.167969 386.195312 428.113281 324.378906 C 426.738281 328.96875 425.167969 333.46875 423.410156 337.875 Z M 200.277344 415.089844 C 227.855469 413.261719 319.789062 402.984375 420.175781 345.429688 C 414.140625 358.433594 406.332031 370.429688 397.078125 381.164062 C 391.992188 385.738281 377.726562 396.984375 351.171875 406.734375 C 349.910156 407.207031 349.253906 408.617188 349.710938 409.878906 C 350.074219 410.867188 351.007812 411.488281 352.015625 411.488281 C 352.289062 411.488281 352.582031 411.433594 352.855469 411.339844 C 362.328125 407.867188 370.265625 404.207031 376.832031 400.714844 C 349.820312 422.480469 315.363281 435.480469 277.910156 435.480469 C 250.292969 435.480469 223.59375 428.257812 200.277344 415.089844 Z M 429.886719 317.757812 C 303.054688 389.175781 176.316406 397.296875 175.054688 397.367188 C 175.054688 397.367188 175.039062 397.367188 175.039062 397.367188 C 167.191406 390.621094 160.003906 383.066406 153.585938 374.765625 C 199.050781 367.851562 250.128906 356.328125 299.253906 342.230469 C 348.027344 328.21875 394.078125 312.054688 433.652344 295.210938 C 432.957031 302.910156 431.695312 310.445312 429.886719 317.757812 Z M 482.171875 263.277344 C 434.550781 288.5 368.785156 313.753906 297.003906 334.382812 C 140.34375 379.375 23.207031 382.902344 16.019531 357.902344 C 12.5625 345.867188 36.210938 319.480469 113.351562 284.164062 C 113.371094 285.351562 113.40625 286.542969 113.460938 287.730469 C 85.460938 302.050781 42.59375 327.617188 48.300781 347.53125 C 52.25 361.304688 76.828125 365.179688 103.199219 365.179688 C 111.777344 365.179688 120.539062 364.777344 128.824219 364.175781 C 175.550781 360.738281 235.570312 348.996094 297.863281 331.109375 C 360.132812 313.222656 417.25 291.316406 458.671875 269.421875 C 488.683594 253.566406 523.355469 230.835938 518.109375 212.582031 C 511.890625 190.949219 454.792969 193.726562 419.222656 197.660156 C 419.113281 197.476562 419.003906 197.292969 418.894531 197.113281 C 418.546875 196.5625 418.199219 196.015625 417.851562 195.464844 C 507.71875 182.683594 544.003906 192.574219 547.609375 205.195312 C 551.300781 217.921875 526.832031 239.632812 482.171875 263.277344 Z M 482.171875 263.277344 " fill-opacity="1" fill-rule="nonzero"/></g><path fill="#ffffff" d="M 312.839844 172.75 C 313.222656 173.722656 314.140625 174.304688 315.125 174.304688 C 315.417969 174.304688 315.730469 174.25 316.023438 174.140625 C 318.710938 173.082031 321.453125 171.964844 324.199219 170.777344 C 325.441406 170.246094 326.007812 168.800781 325.476562 167.558594 C 324.945312 166.3125 323.503906 165.730469 322.257812 166.277344 C 319.570312 167.429688 316.863281 168.546875 314.230469 169.570312 C 312.96875 170.0625 312.347656 171.488281 312.839844 172.75 Z M 312.839844 172.75 " fill-opacity="1" fill-rule="nonzero"/><path fill="#ffffff" d="M 261.046875 322.753906 C 257.8125 323.683594 254.574219 324.597656 251.335938 325.460938 C 250.039062 325.804688 249.25 327.160156 249.617188 328.457031 C 249.910156 329.554688 250.898438 330.269531 251.976562 330.269531 C 252.179688 330.269531 252.398438 330.25 252.617188 330.175781 C 255.871094 329.300781 259.144531 328.386719 262.402344 327.453125 C 263.699219 327.070312 264.449219 325.714844 264.082031 324.417969 C 263.699219 323.117188 262.347656 322.386719 261.046875 322.753906 Z M 261.046875 322.753906 " fill-opacity="1" fill-rule="nonzero"/><path fill="#ffffff" d="M 232.152344 330.230469 C 205.394531 336.378906 180.339844 340.144531 164.046875 342.230469 C 162.691406 342.394531 161.761719 343.621094 161.925781 344.972656 C 162.089844 346.214844 163.132812 347.113281 164.355469 347.113281 C 164.46875 347.113281 164.578125 347.113281 164.667969 347.09375 C 181.074219 344.992188 206.292969 341.207031 233.25 335.003906 C 234.566406 334.695312 235.390625 333.394531 235.097656 332.078125 C 234.765625 330.746094 233.488281 329.957031 232.152344 330.230469 Z M 232.152344 330.230469 " fill-opacity="1" fill-rule="nonzero"/><path fill="#ffffff" d="M 338.609375 410.921875 C 336.558594 411.542969 334.476562 412.144531 332.316406 412.75 C 331.019531 413.097656 330.25 414.449219 330.597656 415.765625 C 330.890625 416.863281 331.878906 417.578125 332.957031 417.578125 C 333.175781 417.578125 333.394531 417.558594 333.597656 417.484375 C 335.808594 416.882812 337.949219 416.261719 340.015625 415.640625 C 341.316406 415.238281 342.046875 413.863281 341.644531 412.585938 C 341.277344 411.269531 339.886719 410.554688 338.609375 410.921875 Z M 338.609375 410.921875 " fill-opacity="1" fill-rule="nonzero"/><path fill="#ffffff" d="M 40.910156 358.6875 C 39.703125 358.414062 38.625 358.085938 37.65625 357.757812 C 36.355469 357.316406 34.984375 357.976562 34.527344 359.257812 C 34.089844 360.535156 34.746094 361.925781 36.027344 362.382812 C 37.144531 362.785156 38.40625 363.152344 39.796875 363.460938 C 39.976562 363.5 40.160156 363.535156 40.34375 363.535156 C 41.460938 363.535156 42.464844 362.765625 42.738281 361.632812 C 43.050781 360.316406 42.246094 359 40.910156 358.6875 Z M 40.910156 358.6875 " fill-opacity="1" fill-rule="nonzero"/><path fill="#ffffff" d="M 34.984375 344.203125 C 35.9375 343.253906 35.9375 341.699219 34.96875 340.75 C 34.015625 339.796875 32.460938 339.777344 31.511719 340.75 C 28.183594 344.078125 23.355469 351.976562 28.894531 358.050781 C 29.371094 358.578125 30.046875 358.855469 30.707031 358.855469 C 31.292969 358.855469 31.894531 358.632812 32.351562 358.214844 C 33.359375 357.300781 33.414062 355.746094 32.5 354.757812 C 28.730469 350.605469 34.914062 344.277344 34.984375 344.203125 Z M 34.984375 344.203125 " fill-opacity="1" fill-rule="nonzero"/><path fill="#ffffff" d="M 535.8125 202.011719 C 534.804688 201.117188 533.269531 201.171875 532.355469 202.175781 C 531.441406 203.183594 531.515625 204.738281 532.519531 205.632812 C 533.488281 206.511719 536.453125 209.199219 531.386719 217.027344 C 530.652344 218.160156 530.984375 219.679688 532.117188 220.410156 C 532.519531 220.683594 532.996094 220.8125 533.453125 220.8125 C 534.257812 220.8125 535.042969 220.410156 535.519531 219.699219 C 541.554688 210.351562 539.011719 204.921875 535.8125 202.011719 Z M 535.8125 202.011719 " fill-opacity="1" fill-rule="nonzero"/><path fill="#ffffff" d="M 522.917969 226.921875 C 518 231.695312 513.296875 235.1875 513.242188 235.222656 C 512.144531 236.027344 511.925781 237.566406 512.730469 238.644531 C 513.207031 239.285156 513.957031 239.632812 514.707031 239.632812 C 515.21875 239.632812 515.730469 239.46875 516.167969 239.15625 C 516.371094 239.011719 521.164062 235.445312 526.339844 230.453125 C 527.308594 229.519531 527.34375 227.964844 526.394531 226.996094 C 525.441406 226.007812 523.886719 225.988281 522.917969 226.921875 Z M 522.917969 226.921875 " fill-opacity="1" fill-rule="nonzero"/></svg>