<svg xmlns="http://www.w3.org/2000/svg" xmlns:xlink="http://www.w3.org/1999/xlink" width="750" zoomAndPan="magnify" viewBox="0 0 562.5 562.499982" height="750" preserveAspectRatio="xMidYMid meet" version="1.0"><defs><clipPath id="c268842c37"><path d="M 440 263 L 445.035156 263 L 445.035156 269 L 440 269 Z M 440 263 " clip-rule="nonzero"/></clipPath><clipPath id="59fc47c9e5"><path d="M 116.824219 360 L 124 360 L 124 367 L 116.824219 367 Z M 116.824219 360 " clip-rule="nonzero"/></clipPath><clipPath id="892b5ab373"><path d="M 160.402344 156.523438 L 422.515625 156.523438 L 422.515625 562 L 160.402344 562 Z M 160.402344 156.523438 " clip-rule="nonzero"/></clipPath><clipPath id="b602f1c6b5"><path d="M 161 156.523438 L 423.417969 156.523438 L 423.417969 540.183594 L 161 540.183594 Z M 161 156.523438 " clip-rule="nonzero"/></clipPath></defs><path fill="#000000" d="M 414.3125 79.480469 L 409.867188 80.125 C 409.664062 80.15625 409.476562 80.25 409.328125 80.398438 C 409.183594 80.546875 409.085938 80.734375 409.058594 80.9375 L 408.414062 85.378906 L 407.769531 80.933594 C 407.738281 80.730469 407.644531 80.542969 407.5 80.394531 C 407.351562 80.25 407.164062 80.152344 406.960938 80.125 L 402.515625 79.480469 L 406.960938 78.835938 C 407.164062 78.804688 407.351562 78.714844 407.5 78.566406 C 407.644531 78.417969 407.742188 78.230469 407.773438 78.027344 L 408.414062 73.582031 L 409.058594 78.027344 C 409.089844 78.230469 409.183594 78.417969 409.332031 78.566406 C 409.476562 78.710938 409.667969 78.8125 409.871094 78.839844 Z M 414.3125 79.480469 " fill-opacity="1" fill-rule="nonzero"/><path fill="#000000" d="M 285.25 85.378906 L 280.808594 86.023438 C 280.601562 86.054688 280.417969 86.148438 280.269531 86.296875 C 280.125 86.445312 280.023438 86.632812 279.996094 86.835938 L 279.355469 91.277344 L 278.710938 86.832031 C 278.679688 86.628906 278.585938 86.441406 278.4375 86.292969 C 278.292969 86.148438 278.101562 86.050781 277.898438 86.023438 L 273.457031 85.378906 L 277.902344 84.734375 C 278.105469 84.703125 278.292969 84.613281 278.441406 84.464844 C 278.585938 84.316406 278.683594 84.128906 278.710938 83.925781 L 279.355469 79.480469 L 280 83.925781 C 280.03125 84.128906 280.121094 84.316406 280.269531 84.464844 C 280.414062 84.609375 280.605469 84.707031 280.808594 84.734375 Z M 285.25 85.378906 " fill-opacity="1" fill-rule="nonzero"/><path fill="#000000" d="M 349.578125 550.1875 L 340.996094 551.433594 C 340.601562 551.492188 340.242188 551.667969 339.953125 551.957031 C 339.675781 552.242188 339.484375 552.601562 339.429688 552.996094 L 338.191406 561.570312 L 336.945312 552.992188 C 336.886719 552.597656 336.710938 552.238281 336.421875 551.949219 C 336.140625 551.667969 335.777344 551.480469 335.382812 551.425781 L 326.808594 550.1875 L 335.386719 548.941406 C 335.78125 548.882812 336.140625 548.703125 336.429688 548.417969 C 336.710938 548.132812 336.898438 547.769531 336.953125 547.375 L 338.191406 538.800781 L 339.4375 547.382812 C 339.496094 547.777344 339.675781 548.136719 339.960938 548.421875 C 340.242188 548.703125 340.609375 548.894531 341 548.945312 Z M 349.578125 550.1875 " fill-opacity="1" fill-rule="nonzero"/><path fill="#000000" d="M 197.0625 498.617188 L 190.964844 499.503906 C 190.683594 499.542969 190.425781 499.671875 190.222656 499.875 C 190.023438 500.078125 189.890625 500.335938 189.851562 500.613281 L 188.96875 506.710938 L 188.085938 500.609375 C 188.042969 500.332031 187.914062 500.074219 187.710938 499.871094 C 187.511719 499.671875 187.253906 499.539062 186.972656 499.5 L 180.878906 498.617188 L 186.976562 497.730469 C 187.257812 497.691406 187.515625 497.5625 187.71875 497.359375 C 187.917969 497.15625 188.050781 496.898438 188.089844 496.621094 L 188.972656 490.523438 L 189.855469 496.625 C 189.898438 496.902344 190.027344 497.160156 190.230469 497.363281 C 190.429688 497.5625 190.6875 497.695312 190.96875 497.734375 Z M 197.0625 498.617188 " fill-opacity="1" fill-rule="nonzero"/><path fill="#000000" d="M 408.824219 50.953125 L 397.765625 52.558594 C 397.257812 52.636719 396.792969 52.867188 396.421875 53.234375 C 396.0625 53.601562 395.820312 54.070312 395.75 54.578125 L 394.148438 65.628906 L 392.542969 54.570312 C 392.464844 54.0625 392.238281 53.59375 391.867188 53.226562 C 391.507812 52.867188 391.035156 52.621094 390.527344 52.550781 L 379.472656 50.953125 L 390.535156 49.347656 C 391.042969 49.269531 391.507812 49.042969 391.878906 48.671875 C 392.238281 48.304688 392.480469 47.839844 392.550781 47.332031 L 394.152344 36.277344 L 395.757812 47.339844 C 395.832031 47.847656 396.0625 48.3125 396.433594 48.679688 C 396.792969 49.042969 397.265625 49.285156 397.773438 49.355469 Z M 408.824219 50.953125 " fill-opacity="1" fill-rule="nonzero"/><path fill="#000000" d="M 209.132812 383.410156 L 199.726562 384.777344 C 199.292969 384.839844 198.898438 385.035156 198.585938 385.351562 C 198.277344 385.664062 198.070312 386.058594 198.011719 386.492188 L 196.652344 395.890625 L 195.285156 386.484375 C 195.222656 386.054688 195.027344 385.660156 194.710938 385.34375 C 194.40625 385.039062 194 384.828125 193.570312 384.769531 L 184.167969 383.410156 L 193.578125 382.046875 C 194.007812 381.980469 194.402344 381.785156 194.71875 381.472656 C 195.023438 381.15625 195.230469 380.761719 195.292969 380.328125 L 196.652344 370.929688 L 198.015625 380.335938 C 198.082031 380.765625 198.277344 381.164062 198.589844 381.476562 C 198.898438 381.785156 199.300781 381.992188 199.730469 382.050781 Z M 209.132812 383.410156 " fill-opacity="1" fill-rule="nonzero"/><path fill="#000000" d="M 190.480469 269.300781 L 180.246094 270.785156 C 179.777344 270.855469 179.34375 271.070312 179.003906 271.410156 C 178.671875 271.75 178.445312 272.183594 178.378906 272.652344 L 176.902344 282.878906 L 175.417969 272.644531 C 175.347656 272.175781 175.132812 271.742188 174.792969 271.402344 C 174.457031 271.070312 174.019531 270.84375 173.550781 270.78125 L 163.324219 269.300781 L 173.558594 267.816406 C 174.027344 267.746094 174.457031 267.53125 174.796875 267.191406 C 175.132812 266.847656 175.359375 266.417969 175.421875 265.949219 L 176.902344 255.722656 L 178.386719 265.957031 C 178.457031 266.425781 178.671875 266.855469 179.011719 267.195312 C 179.347656 267.53125 179.78125 267.757812 180.253906 267.820312 Z M 190.480469 269.300781 " fill-opacity="1" fill-rule="nonzero"/><path fill="#000000" d="M 383.589844 148.511719 C 383.152344 148.511719 382.734375 148.429688 382.332031 148.261719 C 381.925781 148.09375 381.570312 147.855469 381.261719 147.546875 C 380.953125 147.238281 380.714844 146.882812 380.550781 146.480469 C 380.382812 146.074219 380.296875 145.65625 380.296875 145.21875 C 380.296875 144.78125 380.382812 144.363281 380.550781 143.960938 C 380.714844 143.558594 380.953125 143.199219 381.261719 142.890625 C 381.570312 142.582031 381.925781 142.34375 382.332031 142.179688 C 382.734375 142.011719 383.152344 141.929688 383.589844 141.929688 C 384.027344 141.929688 384.445312 142.011719 384.851562 142.179688 C 385.253906 142.34375 385.609375 142.582031 385.917969 142.890625 C 386.226562 143.199219 386.464844 143.558594 386.632812 143.960938 C 386.796875 144.363281 386.882812 144.78125 386.882812 145.21875 C 386.882812 145.65625 386.796875 146.074219 386.632812 146.480469 C 386.464844 146.882812 386.226562 147.238281 385.917969 147.546875 C 385.609375 147.855469 385.253906 148.09375 384.851562 148.261719 C 384.445312 148.429688 384.027344 148.511719 383.589844 148.511719 Z M 383.589844 148.511719 " fill-opacity="1" fill-rule="nonzero"/><path fill="#000000" d="M 404.4375 166.066406 C 404.144531 166.066406 403.867188 166.011719 403.597656 165.898438 C 403.328125 165.789062 403.089844 165.628906 402.886719 165.425781 C 402.679688 165.21875 402.519531 164.980469 402.410156 164.710938 C 402.296875 164.441406 402.242188 164.164062 402.242188 163.871094 C 402.242188 163.582031 402.296875 163.300781 402.410156 163.03125 C 402.519531 162.765625 402.679688 162.527344 402.886719 162.320312 C 403.089844 162.113281 403.328125 161.957031 403.597656 161.84375 C 403.867188 161.734375 404.144531 161.679688 404.4375 161.679688 C 404.726562 161.679688 405.007812 161.734375 405.277344 161.84375 C 405.546875 161.957031 405.78125 162.113281 405.988281 162.320312 C 406.195312 162.527344 406.351562 162.765625 406.464844 163.03125 C 406.574219 163.300781 406.632812 163.582031 406.632812 163.871094 C 406.632812 164.164062 406.574219 164.441406 406.464844 164.710938 C 406.351562 164.980469 406.195312 165.21875 405.988281 165.425781 C 405.78125 165.628906 405.546875 165.789062 405.277344 165.898438 C 405.007812 166.011719 404.726562 166.066406 404.4375 166.066406 Z M 404.4375 166.066406 " fill-opacity="1" fill-rule="nonzero"/><path fill="#000000" d="M 193.644531 31.109375 C 193.351562 31.109375 193.070312 31.054688 192.804688 30.941406 C 192.535156 30.832031 192.296875 30.671875 192.089844 30.464844 C 191.886719 30.261719 191.726562 30.023438 191.617188 29.753906 C 191.503906 29.484375 191.449219 29.207031 191.449219 28.914062 C 191.449219 28.625 191.503906 28.34375 191.617188 28.074219 C 191.726562 27.804688 191.886719 27.570312 192.089844 27.363281 C 192.296875 27.15625 192.535156 27 192.804688 26.886719 C 193.070312 26.777344 193.351562 26.71875 193.644531 26.71875 C 193.933594 26.71875 194.214844 26.777344 194.484375 26.886719 C 194.75 27 194.988281 27.15625 195.195312 27.363281 C 195.402344 27.570312 195.558594 27.804688 195.671875 28.074219 C 195.78125 28.34375 195.835938 28.625 195.835938 28.914062 C 195.835938 29.207031 195.78125 29.484375 195.671875 29.753906 C 195.558594 30.023438 195.402344 30.261719 195.195312 30.464844 C 194.988281 30.671875 194.75 30.832031 194.484375 30.941406 C 194.214844 31.054688 193.933594 31.109375 193.644531 31.109375 Z M 193.644531 31.109375 " fill-opacity="1" fill-rule="nonzero"/><path fill="#000000" d="M 283.742188 212.148438 C 283.453125 212.148438 283.171875 212.09375 282.902344 211.984375 C 282.632812 211.871094 282.398438 211.710938 282.191406 211.507812 C 281.984375 211.300781 281.828125 211.0625 281.714844 210.796875 C 281.605469 210.527344 281.550781 210.246094 281.546875 209.957031 C 281.550781 209.664062 281.605469 209.382812 281.714844 209.117188 C 281.828125 208.847656 281.984375 208.609375 282.191406 208.402344 C 282.398438 208.199219 282.632812 208.039062 282.902344 207.929688 C 283.171875 207.816406 283.453125 207.761719 283.742188 207.761719 C 284.035156 207.761719 284.3125 207.816406 284.582031 207.929688 C 284.851562 208.039062 285.089844 208.199219 285.296875 208.402344 C 285.5 208.609375 285.660156 208.847656 285.769531 209.117188 C 285.882812 209.382812 285.9375 209.664062 285.9375 209.957031 C 285.9375 210.246094 285.882812 210.527344 285.769531 210.796875 C 285.660156 211.0625 285.5 211.300781 285.296875 211.507812 C 285.089844 211.710938 284.851562 211.871094 284.582031 211.984375 C 284.3125 212.09375 284.035156 212.148438 283.742188 212.148438 Z M 283.742188 212.148438 " fill-opacity="1" fill-rule="nonzero"/><path fill="#000000" d="M 163.324219 75.777344 C 163.03125 75.777344 162.75 75.722656 162.484375 75.609375 C 162.214844 75.5 161.976562 75.339844 161.769531 75.136719 C 161.566406 74.929688 161.40625 74.691406 161.296875 74.421875 C 161.183594 74.15625 161.128906 73.875 161.128906 73.582031 C 161.128906 73.292969 161.183594 73.011719 161.296875 72.742188 C 161.40625 72.476562 161.566406 72.238281 161.769531 72.03125 C 161.976562 71.824219 162.214844 71.667969 162.484375 71.554688 C 162.75 71.445312 163.03125 71.390625 163.324219 71.390625 C 163.613281 71.390625 163.894531 71.445312 164.164062 71.554688 C 164.429688 71.667969 164.667969 71.824219 164.875 72.03125 C 165.082031 72.238281 165.238281 72.476562 165.351562 72.742188 C 165.460938 73.011719 165.515625 73.292969 165.515625 73.582031 C 165.515625 73.875 165.460938 74.15625 165.351562 74.421875 C 165.238281 74.691406 165.082031 74.929688 164.875 75.136719 C 164.667969 75.339844 164.429688 75.5 164.164062 75.609375 C 163.894531 75.722656 163.613281 75.777344 163.324219 75.777344 Z M 163.324219 75.777344 " fill-opacity="1" fill-rule="nonzero"/><path fill="#000000" d="M 313.367188 306.511719 C 313.078125 306.511719 312.796875 306.453125 312.527344 306.34375 C 312.257812 306.230469 312.023438 306.074219 311.816406 305.867188 C 311.609375 305.660156 311.453125 305.425781 311.339844 305.15625 C 311.230469 304.886719 311.171875 304.605469 311.171875 304.316406 C 311.171875 304.023438 311.230469 303.746094 311.339844 303.476562 C 311.453125 303.207031 311.609375 302.96875 311.816406 302.765625 C 312.023438 302.558594 312.257812 302.398438 312.527344 302.289062 C 312.796875 302.175781 313.078125 302.121094 313.367188 302.121094 C 313.660156 302.121094 313.9375 302.175781 314.207031 302.289062 C 314.476562 302.398438 314.714844 302.558594 314.917969 302.765625 C 315.125 302.96875 315.285156 303.207031 315.394531 303.476562 C 315.507812 303.746094 315.5625 304.023438 315.5625 304.316406 C 315.5625 304.605469 315.507812 304.886719 315.394531 305.15625 C 315.285156 305.425781 315.125 305.660156 314.917969 305.867188 C 314.714844 306.074219 314.476562 306.230469 314.207031 306.34375 C 313.9375 306.453125 313.660156 306.511719 313.367188 306.511719 Z M 313.367188 306.511719 " fill-opacity="1" fill-rule="nonzero"/><path fill="#000000" d="M 337.507812 245.066406 C 337.214844 245.066406 336.9375 245.011719 336.667969 244.898438 C 336.398438 244.789062 336.160156 244.628906 335.957031 244.421875 C 335.75 244.21875 335.589844 243.980469 335.480469 243.710938 C 335.367188 243.441406 335.3125 243.164062 335.3125 242.871094 C 335.3125 242.582031 335.367188 242.300781 335.480469 242.03125 C 335.589844 241.761719 335.75 241.527344 335.957031 241.320312 C 336.160156 241.113281 336.398438 240.957031 336.667969 240.84375 C 336.9375 240.734375 337.214844 240.675781 337.507812 240.675781 C 337.796875 240.675781 338.078125 240.734375 338.347656 240.84375 C 338.617188 240.957031 338.851562 241.113281 339.058594 241.320312 C 339.265625 241.527344 339.421875 241.761719 339.535156 242.03125 C 339.644531 242.300781 339.703125 242.582031 339.703125 242.871094 C 339.703125 243.164062 339.644531 243.441406 339.535156 243.710938 C 339.421875 243.980469 339.265625 244.21875 339.058594 244.421875 C 338.851562 244.628906 338.617188 244.789062 338.347656 244.898438 C 338.078125 245.011719 337.796875 245.066406 337.507812 245.066406 Z M 337.507812 245.066406 " fill-opacity="1" fill-rule="nonzero"/><path fill="#000000" d="M 348.480469 245.066406 C 348.1875 245.066406 347.90625 245.011719 347.640625 244.898438 C 347.371094 244.789062 347.132812 244.628906 346.925781 244.421875 C 346.722656 244.21875 346.5625 243.980469 346.453125 243.710938 C 346.339844 243.441406 346.285156 243.164062 346.285156 242.871094 C 346.285156 242.582031 346.339844 242.300781 346.453125 242.03125 C 346.5625 241.761719 346.722656 241.527344 346.925781 241.320312 C 347.132812 241.113281 347.371094 240.957031 347.640625 240.84375 C 347.90625 240.734375 348.1875 240.675781 348.480469 240.675781 C 348.769531 240.675781 349.050781 240.734375 349.320312 240.84375 C 349.585938 240.957031 349.824219 241.113281 350.03125 241.320312 C 350.238281 241.527344 350.394531 241.761719 350.507812 242.03125 C 350.617188 242.300781 350.671875 242.582031 350.671875 242.871094 C 350.671875 243.164062 350.617188 243.441406 350.507812 243.710938 C 350.394531 243.980469 350.238281 244.21875 350.03125 244.421875 C 349.824219 244.628906 349.585938 244.789062 349.320312 244.898438 C 349.050781 245.011719 348.769531 245.066406 348.480469 245.066406 Z M 348.480469 245.066406 " fill-opacity="1" fill-rule="nonzero"/><path fill="#000000" d="M 128.671875 209.957031 C 128.378906 209.957031 128.097656 209.898438 127.832031 209.789062 C 127.5625 209.675781 127.324219 209.519531 127.117188 209.3125 C 126.914062 209.105469 126.753906 208.871094 126.644531 208.601562 C 126.53125 208.332031 126.476562 208.050781 126.476562 207.761719 C 126.476562 207.46875 126.53125 207.191406 126.644531 206.921875 C 126.753906 206.652344 126.914062 206.414062 127.117188 206.210938 C 127.324219 206.003906 127.5625 205.84375 127.832031 205.734375 C 128.097656 205.621094 128.378906 205.566406 128.671875 205.566406 C 128.960938 205.566406 129.242188 205.621094 129.511719 205.734375 C 129.777344 205.84375 130.015625 206.003906 130.222656 206.210938 C 130.429688 206.414062 130.585938 206.652344 130.699219 206.921875 C 130.808594 207.191406 130.863281 207.46875 130.863281 207.761719 C 130.863281 208.050781 130.808594 208.332031 130.699219 208.601562 C 130.585938 208.871094 130.429688 209.105469 130.222656 209.3125 C 130.015625 209.519531 129.777344 209.675781 129.511719 209.789062 C 129.242188 209.898438 128.960938 209.957031 128.671875 209.957031 Z M 128.671875 209.957031 " fill-opacity="1" fill-rule="nonzero"/><path fill="#000000" d="M 355.0625 202.273438 C 354.769531 202.273438 354.492188 202.21875 354.222656 202.109375 C 353.953125 201.996094 353.714844 201.839844 353.511719 201.632812 C 353.304688 201.425781 353.144531 201.1875 353.035156 200.921875 C 352.921875 200.652344 352.867188 200.371094 352.867188 200.082031 C 352.867188 199.789062 352.921875 199.507812 353.035156 199.242188 C 353.144531 198.972656 353.304688 198.734375 353.511719 198.527344 C 353.714844 198.324219 353.953125 198.164062 354.222656 198.054688 C 354.492188 197.941406 354.769531 197.886719 355.0625 197.886719 C 355.351562 197.886719 355.632812 197.941406 355.902344 198.054688 C 356.171875 198.164062 356.410156 198.324219 356.613281 198.527344 C 356.820312 198.734375 356.976562 198.972656 357.089844 199.242188 C 357.199219 199.507812 357.257812 199.789062 357.257812 200.082031 C 357.257812 200.371094 357.199219 200.652344 357.089844 200.921875 C 356.976562 201.1875 356.820312 201.425781 356.613281 201.632812 C 356.410156 201.839844 356.171875 201.996094 355.902344 202.109375 C 355.632812 202.21875 355.351562 202.273438 355.0625 202.273438 Z M 355.0625 202.273438 " fill-opacity="1" fill-rule="nonzero"/><g clip-path="url(#c268842c37)"><path fill="#000000" d="M 442.839844 268.109375 C 442.546875 268.109375 442.269531 268.050781 442 267.941406 C 441.730469 267.828125 441.492188 267.671875 441.289062 267.464844 C 441.082031 267.257812 440.921875 267.023438 440.8125 266.753906 C 440.699219 266.484375 440.644531 266.203125 440.644531 265.914062 C 440.644531 265.621094 440.699219 265.34375 440.8125 265.074219 C 440.921875 264.804688 441.082031 264.566406 441.289062 264.363281 C 441.492188 264.15625 441.730469 263.996094 442 263.886719 C 442.269531 263.773438 442.546875 263.71875 442.839844 263.71875 C 443.128906 263.71875 443.410156 263.773438 443.679688 263.886719 C 443.949219 263.996094 444.1875 264.15625 444.390625 264.363281 C 444.597656 264.566406 444.753906 264.804688 444.867188 265.074219 C 444.976562 265.34375 445.035156 265.621094 445.035156 265.914062 C 445.035156 266.203125 444.976562 266.484375 444.867188 266.753906 C 444.753906 267.023438 444.597656 267.257812 444.390625 267.464844 C 444.1875 267.671875 443.949219 267.828125 443.679688 267.941406 C 443.410156 268.050781 443.128906 268.109375 442.839844 268.109375 Z M 442.839844 268.109375 " fill-opacity="1" fill-rule="nonzero"/></g><path fill="#000000" d="M 235.464844 314.191406 C 235.175781 314.191406 234.894531 314.136719 234.625 314.023438 C 234.355469 313.914062 234.121094 313.753906 233.914062 313.546875 C 233.707031 313.34375 233.550781 313.105469 233.4375 312.835938 C 233.328125 312.566406 233.269531 312.289062 233.269531 311.996094 C 233.269531 311.707031 233.328125 311.425781 233.4375 311.15625 C 233.550781 310.886719 233.707031 310.652344 233.914062 310.445312 C 234.121094 310.238281 234.355469 310.082031 234.625 309.96875 C 234.894531 309.859375 235.175781 309.800781 235.464844 309.800781 C 235.757812 309.800781 236.035156 309.859375 236.304688 309.96875 C 236.574219 310.082031 236.8125 310.238281 237.015625 310.445312 C 237.222656 310.652344 237.382812 310.886719 237.492188 311.15625 C 237.605469 311.425781 237.660156 311.707031 237.660156 311.996094 C 237.660156 312.289062 237.605469 312.566406 237.492188 312.835938 C 237.382812 313.105469 237.222656 313.34375 237.015625 313.546875 C 236.8125 313.753906 236.574219 313.914062 236.304688 314.023438 C 236.035156 314.136719 235.757812 314.191406 235.464844 314.191406 Z M 235.464844 314.191406 " fill-opacity="1" fill-rule="nonzero"/><path fill="#000000" d="M 153.515625 115.957031 C 153.226562 115.957031 152.9375 115.929688 152.652344 115.875 C 152.371094 115.816406 152.09375 115.734375 151.828125 115.621094 C 151.558594 115.511719 151.304688 115.375 151.0625 115.214844 C 150.824219 115.054688 150.601562 114.871094 150.394531 114.664062 C 150.191406 114.460938 150.007812 114.238281 149.847656 113.996094 C 149.683594 113.757812 149.550781 113.503906 149.4375 113.234375 C 149.328125 112.964844 149.242188 112.691406 149.1875 112.40625 C 149.132812 112.121094 149.101562 111.835938 149.101562 111.546875 C 149.101562 111.257812 149.132812 110.96875 149.1875 110.683594 C 149.242188 110.402344 149.328125 110.125 149.4375 109.859375 C 149.550781 109.589844 149.683594 109.335938 149.847656 109.09375 C 150.007812 108.855469 150.191406 108.632812 150.394531 108.425781 C 150.601562 108.222656 150.824219 108.039062 151.0625 107.878906 C 151.304688 107.714844 151.558594 107.582031 151.828125 107.46875 C 152.09375 107.359375 152.371094 107.277344 152.652344 107.21875 C 152.9375 107.164062 153.226562 107.132812 153.515625 107.132812 C 153.804688 107.132812 154.089844 107.164062 154.375 107.21875 C 154.660156 107.277344 154.933594 107.359375 155.203125 107.46875 C 155.46875 107.582031 155.726562 107.714844 155.964844 107.878906 C 156.207031 108.039062 156.429688 108.222656 156.632812 108.425781 C 156.839844 108.632812 157.023438 108.855469 157.183594 109.09375 C 157.34375 109.335938 157.480469 109.589844 157.589844 109.859375 C 157.703125 110.125 157.785156 110.402344 157.839844 110.683594 C 157.898438 110.96875 157.925781 111.257812 157.925781 111.546875 C 157.925781 111.835938 157.898438 112.121094 157.839844 112.40625 C 157.785156 112.691406 157.703125 112.964844 157.589844 113.234375 C 157.480469 113.503906 157.34375 113.757812 157.183594 113.996094 C 157.023438 114.238281 156.839844 114.460938 156.632812 114.664062 C 156.429688 114.871094 156.207031 115.054688 155.964844 115.214844 C 155.726562 115.375 155.46875 115.511719 155.203125 115.621094 C 154.933594 115.734375 154.660156 115.816406 154.375 115.875 C 154.089844 115.929688 153.804688 115.957031 153.515625 115.957031 Z M 153.515625 115.957031 " fill-opacity="1" fill-rule="nonzero"/><path fill="#000000" d="M 262.894531 522.664062 C 262.460938 522.660156 262.039062 522.578125 261.636719 522.410156 C 261.234375 522.246094 260.878906 522.007812 260.570312 521.699219 C 260.261719 521.390625 260.023438 521.035156 259.855469 520.628906 C 259.6875 520.226562 259.605469 519.808594 259.605469 519.371094 C 259.605469 518.933594 259.6875 518.515625 259.855469 518.109375 C 260.023438 517.707031 260.261719 517.351562 260.570312 517.042969 C 260.878906 516.734375 261.234375 516.496094 261.636719 516.328125 C 262.039062 516.164062 262.460938 516.078125 262.894531 516.078125 C 263.332031 516.078125 263.753906 516.164062 264.15625 516.328125 C 264.558594 516.496094 264.914062 516.734375 265.222656 517.042969 C 265.53125 517.351562 265.769531 517.707031 265.9375 518.109375 C 266.105469 518.515625 266.1875 518.933594 266.1875 519.371094 C 266.1875 519.808594 266.105469 520.226562 265.9375 520.628906 C 265.769531 521.035156 265.53125 521.390625 265.222656 521.699219 C 264.914062 522.007812 264.558594 522.246094 264.15625 522.410156 C 263.753906 522.578125 263.332031 522.660156 262.894531 522.664062 Z M 262.894531 522.664062 " fill-opacity="1" fill-rule="nonzero"/><path fill="#000000" d="M 283.742188 189.109375 C 283.308594 189.109375 282.886719 189.023438 282.484375 188.859375 C 282.082031 188.691406 281.722656 188.453125 281.414062 188.144531 C 281.105469 187.835938 280.871094 187.480469 280.703125 187.078125 C 280.535156 186.671875 280.453125 186.253906 280.453125 185.816406 C 280.453125 185.378906 280.535156 184.960938 280.703125 184.558594 C 280.871094 184.152344 281.105469 183.796875 281.414062 183.488281 C 281.722656 183.179688 282.082031 182.941406 282.484375 182.777344 C 282.886719 182.609375 283.308594 182.523438 283.742188 182.523438 C 284.179688 182.523438 284.601562 182.609375 285.003906 182.777344 C 285.40625 182.941406 285.761719 183.179688 286.070312 183.488281 C 286.378906 183.796875 286.617188 184.152344 286.785156 184.558594 C 286.953125 184.960938 287.035156 185.378906 287.035156 185.816406 C 287.035156 186.253906 286.953125 186.671875 286.785156 187.078125 C 286.617188 187.480469 286.378906 187.835938 286.070312 188.144531 C 285.761719 188.453125 285.40625 188.691406 285.003906 188.859375 C 284.601562 189.023438 284.179688 189.109375 283.742188 189.109375 Z M 283.742188 189.109375 " fill-opacity="1" fill-rule="nonzero"/><path fill="#000000" d="M 232.175781 389.898438 C 231.738281 389.898438 231.316406 389.816406 230.914062 389.648438 C 230.511719 389.480469 230.15625 389.242188 229.847656 388.933594 C 229.539062 388.625 229.300781 388.269531 229.132812 387.867188 C 228.964844 387.464844 228.882812 387.042969 228.882812 386.605469 C 228.882812 386.171875 228.964844 385.75 229.132812 385.347656 C 229.300781 384.945312 229.539062 384.589844 229.847656 384.28125 C 230.15625 383.972656 230.511719 383.734375 230.914062 383.566406 C 231.316406 383.398438 231.738281 383.316406 232.175781 383.316406 C 232.609375 383.316406 233.03125 383.398438 233.433594 383.566406 C 233.835938 383.734375 234.191406 383.972656 234.5 384.28125 C 234.808594 384.589844 235.046875 384.945312 235.214844 385.347656 C 235.382812 385.75 235.464844 386.171875 235.464844 386.605469 C 235.464844 387.042969 235.382812 387.464844 235.214844 387.867188 C 235.046875 388.269531 234.808594 388.625 234.5 388.933594 C 234.191406 389.242188 233.835938 389.480469 233.433594 389.648438 C 233.03125 389.816406 232.609375 389.898438 232.175781 389.898438 Z M 232.175781 389.898438 " fill-opacity="1" fill-rule="nonzero"/><g clip-path="url(#59fc47c9e5)"><path fill="#000000" d="M 120.257812 366.855469 C 119.820312 366.855469 119.402344 366.773438 119 366.605469 C 118.59375 366.441406 118.238281 366.203125 117.929688 365.894531 C 117.621094 365.585938 117.382812 365.230469 117.21875 364.824219 C 117.050781 364.421875 116.964844 364.003906 116.964844 363.566406 C 116.964844 363.128906 117.050781 362.710938 117.21875 362.304688 C 117.382812 361.902344 117.621094 361.546875 117.929688 361.238281 C 118.238281 360.929688 118.59375 360.691406 119 360.523438 C 119.402344 360.359375 119.820312 360.273438 120.257812 360.273438 C 120.695312 360.273438 121.113281 360.359375 121.519531 360.523438 C 121.921875 360.691406 122.277344 360.929688 122.585938 361.238281 C 122.894531 361.546875 123.132812 361.902344 123.300781 362.304688 C 123.464844 362.710938 123.550781 363.128906 123.550781 363.566406 C 123.550781 364.003906 123.464844 364.421875 123.300781 364.824219 C 123.132812 365.230469 122.894531 365.585938 122.585938 365.894531 C 122.277344 366.203125 121.921875 366.441406 121.519531 366.605469 C 121.113281 366.773438 120.695312 366.855469 120.257812 366.855469 Z M 120.257812 366.855469 " fill-opacity="1" fill-rule="nonzero"/></g><path fill="#000000" d="M 315.5625 149.609375 C 315.125 149.609375 314.707031 149.523438 314.304688 149.359375 C 313.898438 149.191406 313.542969 148.953125 313.234375 148.644531 C 312.925781 148.335938 312.6875 147.980469 312.519531 147.578125 C 312.355469 147.171875 312.269531 146.753906 312.269531 146.316406 C 312.269531 145.878906 312.355469 145.460938 312.519531 145.058594 C 312.6875 144.652344 312.925781 144.296875 313.234375 143.988281 C 313.542969 143.679688 313.898438 143.441406 314.304688 143.277344 C 314.707031 143.109375 315.125 143.023438 315.5625 143.023438 C 316 143.023438 316.417969 143.109375 316.820312 143.277344 C 317.226562 143.441406 317.582031 143.679688 317.890625 143.988281 C 318.199219 144.296875 318.4375 144.652344 318.605469 145.058594 C 318.769531 145.460938 318.855469 145.878906 318.855469 146.316406 C 318.855469 146.753906 318.769531 147.171875 318.605469 147.578125 C 318.4375 147.980469 318.199219 148.335938 317.890625 148.644531 C 317.582031 148.953125 317.226562 149.191406 316.820312 149.359375 C 316.417969 149.523438 316 149.609375 315.5625 149.609375 Z M 315.5625 149.609375 " fill-opacity="1" fill-rule="nonzero"/><path fill="#000000" d="M 249.710938 540.996094 C 249.417969 540.996094 249.140625 540.941406 248.871094 540.832031 C 248.601562 540.71875 248.363281 540.5625 248.160156 540.355469 C 247.953125 540.148438 247.792969 539.910156 247.683594 539.644531 C 247.570312 539.375 247.515625 539.09375 247.515625 538.804688 C 247.515625 538.511719 247.570312 538.230469 247.683594 537.964844 C 247.792969 537.695312 247.953125 537.457031 248.160156 537.25 C 248.363281 537.046875 248.601562 536.886719 248.871094 536.777344 C 249.140625 536.664062 249.417969 536.609375 249.710938 536.609375 C 250 536.609375 250.28125 536.664062 250.550781 536.777344 C 250.820312 536.886719 251.058594 537.046875 251.261719 537.25 C 251.46875 537.457031 251.625 537.695312 251.738281 537.964844 C 251.851562 538.230469 251.90625 538.511719 251.90625 538.804688 C 251.90625 539.09375 251.851562 539.375 251.738281 539.644531 C 251.625 539.910156 251.46875 540.148438 251.261719 540.355469 C 251.058594 540.5625 250.820312 540.71875 250.550781 540.832031 C 250.28125 540.941406 250 540.996094 249.710938 540.996094 Z M 249.710938 540.996094 " fill-opacity="1" fill-rule="nonzero"/><path fill="#000000" d="M 279.355469 553.285156 C 278.917969 553.285156 278.496094 553.199219 278.09375 553.035156 C 277.691406 552.867188 277.335938 552.628906 277.027344 552.320312 C 276.71875 552.011719 276.480469 551.65625 276.3125 551.253906 C 276.144531 550.847656 276.0625 550.429688 276.0625 549.992188 C 276.0625 549.554688 276.144531 549.136719 276.3125 548.734375 C 276.480469 548.328125 276.71875 547.972656 277.027344 547.664062 C 277.335938 547.355469 277.691406 547.117188 278.09375 546.953125 C 278.496094 546.785156 278.917969 546.699219 279.355469 546.699219 C 279.789062 546.699219 280.210938 546.785156 280.613281 546.953125 C 281.015625 547.117188 281.375 547.355469 281.683594 547.664062 C 281.992188 547.972656 282.226562 548.328125 282.394531 548.734375 C 282.5625 549.136719 282.644531 549.554688 282.644531 549.992188 C 282.644531 550.429688 282.5625 550.847656 282.394531 551.253906 C 282.226562 551.65625 281.992188 552.011719 281.683594 552.320312 C 281.375 552.628906 281.015625 552.867188 280.613281 553.035156 C 280.210938 553.199219 279.789062 553.285156 279.355469 553.285156 Z M 279.355469 553.285156 " fill-opacity="1" fill-rule="nonzero"/><path fill="#000000" d="M 130.863281 393.191406 C 130.429688 393.191406 130.007812 393.105469 129.605469 392.941406 C 129.203125 392.773438 128.847656 392.535156 128.539062 392.226562 C 128.230469 391.917969 127.992188 391.5625 127.824219 391.160156 C 127.65625 390.753906 127.574219 390.335938 127.574219 389.898438 C 127.574219 389.460938 127.65625 389.042969 127.824219 388.640625 C 127.992188 388.234375 128.230469 387.878906 128.539062 387.570312 C 128.847656 387.261719 129.203125 387.023438 129.605469 386.859375 C 130.007812 386.691406 130.429688 386.605469 130.863281 386.605469 C 131.300781 386.605469 131.722656 386.691406 132.125 386.859375 C 132.527344 387.023438 132.882812 387.261719 133.191406 387.570312 C 133.5 387.878906 133.738281 388.234375 133.90625 388.640625 C 134.074219 389.042969 134.15625 389.460938 134.15625 389.898438 C 134.15625 390.335938 134.074219 390.753906 133.90625 391.160156 C 133.738281 391.5625 133.5 391.917969 133.191406 392.226562 C 132.882812 392.535156 132.527344 392.773438 132.125 392.941406 C 131.722656 393.105469 131.300781 393.191406 130.863281 393.191406 Z M 130.863281 393.191406 " fill-opacity="1" fill-rule="nonzero"/><path fill="#000000" d="M 209.132812 449.148438 C 208.839844 449.148438 208.5625 449.09375 208.292969 448.980469 C 208.023438 448.871094 207.785156 448.710938 207.582031 448.503906 C 207.375 448.300781 207.214844 448.0625 207.105469 447.792969 C 206.992188 447.523438 206.9375 447.246094 206.9375 446.953125 C 206.9375 446.664062 206.992188 446.382812 207.105469 446.113281 C 207.214844 445.84375 207.375 445.609375 207.582031 445.402344 C 207.785156 445.195312 208.023438 445.039062 208.292969 444.925781 C 208.5625 444.816406 208.839844 444.757812 209.132812 444.757812 C 209.421875 444.757812 209.703125 444.816406 209.972656 444.925781 C 210.242188 445.039062 210.476562 445.195312 210.683594 445.402344 C 210.890625 445.609375 211.046875 445.84375 211.160156 446.113281 C 211.269531 446.382812 211.328125 446.664062 211.328125 446.953125 C 211.328125 447.246094 211.269531 447.523438 211.160156 447.792969 C 211.046875 448.0625 210.890625 448.300781 210.683594 448.503906 C 210.476562 448.710938 210.242188 448.871094 209.972656 448.980469 C 209.703125 449.09375 209.421875 449.148438 209.132812 449.148438 Z M 209.132812 449.148438 " fill-opacity="1" fill-rule="nonzero"/><path fill="#000000" d="M 231.238281 288.695312 C 231 288.695312 230.773438 288.652344 230.558594 288.5625 C 230.339844 288.472656 230.148438 288.34375 229.980469 288.175781 C 229.8125 288.011719 229.6875 287.816406 229.597656 287.601562 C 229.503906 287.382812 229.460938 287.15625 229.460938 286.921875 C 229.460938 286.683594 229.503906 286.457031 229.597656 286.242188 C 229.6875 286.023438 229.8125 285.832031 229.980469 285.664062 C 230.148438 285.5 230.339844 285.371094 230.558594 285.28125 C 230.773438 285.1875 231 285.144531 231.238281 285.144531 C 231.472656 285.144531 231.699219 285.1875 231.917969 285.28125 C 232.132812 285.371094 232.328125 285.5 232.492188 285.664062 C 232.660156 285.832031 232.789062 286.023438 232.878906 286.242188 C 232.96875 286.457031 233.011719 286.683594 233.011719 286.921875 C 233.011719 287.15625 232.96875 287.382812 232.878906 287.601562 C 232.789062 287.816406 232.660156 288.011719 232.492188 288.175781 C 232.328125 288.34375 232.132812 288.472656 231.917969 288.5625 C 231.699219 288.652344 231.472656 288.695312 231.238281 288.695312 Z M 231.238281 288.695312 " fill-opacity="1" fill-rule="nonzero"/><path fill="#000000" d="M 336.410156 68.414062 C 336.117188 68.414062 335.839844 68.359375 335.570312 68.246094 C 335.300781 68.136719 335.0625 67.976562 334.859375 67.773438 C 334.652344 67.566406 334.492188 67.328125 334.382812 67.058594 C 334.269531 66.789062 334.214844 66.511719 334.214844 66.21875 C 334.214844 65.929688 334.269531 65.648438 334.382812 65.378906 C 334.492188 65.113281 334.652344 64.875 334.859375 64.667969 C 335.0625 64.460938 335.300781 64.304688 335.570312 64.191406 C 335.839844 64.082031 336.117188 64.027344 336.410156 64.027344 C 336.699219 64.027344 336.980469 64.082031 337.25 64.191406 C 337.519531 64.304688 337.753906 64.460938 337.960938 64.667969 C 338.167969 64.875 338.324219 65.113281 338.4375 65.378906 C 338.546875 65.648438 338.605469 65.929688 338.605469 66.21875 C 338.605469 66.511719 338.546875 66.789062 338.4375 67.058594 C 338.324219 67.328125 338.167969 67.566406 337.960938 67.773438 C 337.753906 67.976562 337.519531 68.136719 337.25 68.246094 C 336.980469 68.359375 336.699219 68.414062 336.410156 68.414062 Z M 336.410156 68.414062 " fill-opacity="1" fill-rule="nonzero"/><path fill="#000000" d="M 315.5625 6.96875 C 315.125 6.96875 314.707031 6.886719 314.304688 6.71875 C 313.898438 6.554688 313.542969 6.316406 313.234375 6.007812 C 312.925781 5.699219 312.6875 5.339844 312.519531 4.9375 C 312.355469 4.535156 312.269531 4.113281 312.269531 3.679688 C 312.269531 3.242188 312.355469 2.824219 312.519531 2.417969 C 312.6875 2.015625 312.925781 1.660156 313.234375 1.351562 C 313.542969 1.042969 313.898438 0.804688 314.304688 0.636719 C 314.707031 0.46875 315.125 0.386719 315.5625 0.386719 C 316 0.386719 316.417969 0.46875 316.820312 0.636719 C 317.226562 0.804688 317.582031 1.042969 317.890625 1.351562 C 318.199219 1.660156 318.4375 2.015625 318.605469 2.417969 C 318.769531 2.824219 318.855469 3.242188 318.855469 3.679688 C 318.855469 4.113281 318.769531 4.535156 318.605469 4.9375 C 318.4375 5.339844 318.199219 5.699219 317.890625 6.007812 C 317.582031 6.316406 317.226562 6.554688 316.820312 6.71875 C 316.417969 6.886719 316 6.96875 315.5625 6.96875 Z M 315.5625 6.96875 " fill-opacity="1" fill-rule="nonzero"/><path fill="#000000" d="M 279.355469 317.578125 L 274.910156 318.222656 C 274.707031 318.253906 274.519531 318.34375 274.371094 318.492188 C 274.226562 318.640625 274.128906 318.828125 274.101562 319.03125 L 273.457031 323.472656 L 272.8125 319.03125 C 272.78125 318.824219 272.6875 318.636719 272.539062 318.492188 C 272.394531 318.347656 272.203125 318.246094 272.003906 318.21875 L 267.558594 317.578125 L 272.003906 316.933594 C 272.207031 316.902344 272.394531 316.808594 272.542969 316.660156 C 272.6875 316.511719 272.785156 316.324219 272.8125 316.121094 L 273.457031 311.679688 L 274.101562 316.125 C 274.132812 316.328125 274.226562 316.515625 274.371094 316.664062 C 274.519531 316.808594 274.707031 316.90625 274.910156 316.933594 Z M 279.355469 317.578125 " fill-opacity="1" fill-rule="nonzero"/><g clip-path="url(#892b5ab373)"><path fill="#ffffff" d="M 160.402344 156.523438 L 422.515625 156.523438 L 422.515625 561.980469 L 160.402344 561.980469 Z M 160.402344 156.523438 " fill-opacity="1" fill-rule="nonzero"/></g><g clip-path="url(#b602f1c6b5)"><path fill="#000000" d="M 238.359375 540.132812 C 233.347656 539.523438 229.546875 538.65625 227.609375 537.679688 C 223.582031 535.648438 222.171875 531.65625 223.808594 526.910156 C 224.804688 524.023438 226.566406 520.601562 228.71875 517.386719 C 229.804688 515.761719 230.691406 514.34375 230.691406 514.234375 C 230.691406 514.125 230.417969 513.417969 230.082031 512.667969 C 226.648438 504.976562 223.84375 495.269531 221.878906 484.308594 C 220.289062 475.417969 219.039062 458.894531 219.019531 446.492188 C 219.003906 437.640625 219.566406 431.601562 221.523438 419.535156 C 221.964844 416.808594 222.332031 414.507812 222.332031 414.429688 C 222.332031 414.351562 221.789062 415.066406 221.125 416.019531 C 215.152344 424.617188 214.226562 425.753906 208.625 431.378906 C 205.621094 434.394531 202.570312 437.257812 201.84375 437.746094 C 200.675781 438.53125 200.546875 438.695312 200.722656 439.164062 C 201.152344 440.289062 201.4375 445.082031 201.191406 447.054688 C 200.644531 451.476562 199.65625 453.023438 195.929688 455.308594 C 193.992188 456.496094 192.257812 457.007812 190.089844 457.019531 C 188.410156 457.03125 188.003906 456.949219 186.839844 456.351562 C 185.164062 455.496094 184.183594 453.980469 183.636719 451.402344 C 183.429688 450.433594 183.207031 449.453125 183.148438 449.230469 C 183.054688 448.894531 182.78125 449.023438 181.515625 449.996094 C 178.6875 452.167969 176.425781 453.007812 173.40625 453.007812 C 169.183594 453.007812 165.839844 450.964844 163.089844 446.699219 C 160.667969 442.949219 160.414062 437.691406 162.464844 433.816406 C 163.820312 431.265625 167.925781 427.488281 172.964844 424.160156 L 175.496094 422.488281 L 175.886719 420.5625 C 176.964844 415.222656 179.820312 405.683594 182.03125 400.027344 C 184.191406 394.5 189.214844 384.921875 192.992188 379.125 C 195.300781 375.582031 201.386719 367.089844 203.589844 364.347656 C 209.996094 356.347656 221.441406 344.648438 228.023438 339.367188 C 230.929688 337.035156 236.070312 333.628906 238.34375 332.53125 C 239.621094 331.914062 240.464844 331.671875 241.632812 331.585938 L 243.203125 331.476562 L 243.457031 330.472656 C 243.597656 329.917969 243.710938 328.492188 243.714844 327.300781 C 243.71875 324.789062 243.972656 323.511719 244.773438 321.914062 C 245.089844 321.285156 245.320312 320.75 245.28125 320.726562 C 245.246094 320.703125 244.226562 320.285156 243.011719 319.792969 C 240.328125 318.707031 234.742188 315.933594 232.207031 314.429688 C 222.035156 308.394531 212.808594 299.671875 206.507812 290.113281 C 200.160156 280.496094 196.25 270.195312 194.441406 258.347656 C 193.804688 254.179688 193.5625 244.617188 193.980469 240.039062 C 195.335938 225.039062 200.867188 210.246094 209.851562 197.566406 C 213.199219 192.84375 215.625 189.992188 220.230469 185.378906 C 228.207031 177.386719 235.777344 171.914062 245.800781 166.890625 C 256.265625 161.648438 266.917969 158.515625 279.140625 157.09375 C 283.960938 156.535156 294.066406 156.535156 298.890625 157.09375 C 307.253906 158.066406 314.566406 159.867188 321.890625 162.753906 C 349.585938 173.667969 368.632812 198.109375 371.8125 226.820312 C 372.777344 235.519531 372.394531 243.917969 370.652344 252.300781 C 365.472656 277.175781 349.21875 299.320312 326.121094 312.953125 L 325.070312 313.574219 L 325.742188 314.90625 C 326.402344 316.214844 326.414062 316.308594 326.417969 320.105469 C 326.421875 322.230469 326.503906 324.101562 326.605469 324.261719 C 326.875 324.683594 328.816406 323.417969 337.917969 316.882812 C 346.566406 310.671875 349.28125 308.65625 352.785156 305.84375 C 361.300781 298.996094 372.402344 288.90625 377.023438 283.800781 L 379.632812 280.921875 L 379.726562 277.78125 C 379.835938 274.117188 380.832031 264.433594 381.335938 262.070312 C 382.410156 257.074219 384.882812 252.933594 387.578125 251.621094 C 388.925781 250.964844 390.980469 250.640625 392.261719 250.882812 C 393.34375 251.085938 394.679688 252.269531 395.222656 253.496094 C 395.457031 254.03125 395.71875 255.105469 395.796875 255.890625 C 395.878906 256.675781 396.019531 257.359375 396.109375 257.417969 C 396.203125 257.472656 397.152344 256.722656 398.226562 255.746094 C 403.1875 251.238281 407.128906 249.082031 409.664062 249.488281 C 412.039062 249.871094 414.53125 251.652344 417.222656 254.886719 C 420.621094 258.972656 422.835938 263.382812 423.011719 266.414062 C 423.410156 273.230469 415.953125 282.523438 403.394531 290.875 C 402.136719 291.714844 400.742188 292.492188 400.300781 292.605469 L 399.496094 292.8125 L 399 296.175781 C 398.238281 301.351562 397.621094 303.898438 395.640625 310.042969 C 393.355469 317.117188 392.578125 319.085938 390.242188 323.691406 C 387.867188 328.375 386.09375 331.230469 381.800781 337.265625 C 377.722656 343 375.082031 346.335938 369.4375 352.882812 C 362.5625 360.847656 357.671875 365.503906 351.589844 369.867188 C 349.109375 371.648438 347.992188 372.273438 344.066406 374.074219 C 341.5 375.25 341.632812 374.921875 342.296875 378.546875 C 344.140625 388.601562 345.1875 408.621094 344.761719 425.667969 C 344.214844 447.609375 343.386719 460.019531 341.746094 470.8125 C 341.375 473.242188 340.800781 477.164062 340.46875 479.523438 C 339.730469 484.746094 338.859375 489.007812 337.183594 495.597656 C 335.394531 502.601562 335.085938 503.589844 334.425781 504.300781 C 334.105469 504.648438 333.671875 505.265625 333.460938 505.675781 C 333.253906 506.082031 332.777344 506.863281 332.40625 507.402344 C 331.882812 508.171875 331.785156 508.484375 331.964844 508.824219 C 332.496094 509.816406 333.164062 514.84375 333.175781 517.933594 C 333.1875 521.765625 332.878906 523.789062 331.980469 525.777344 C 330.363281 529.34375 327.789062 532.035156 324.460938 533.628906 C 320.550781 535.503906 317.789062 535.855469 310.261719 535.417969 C 305.296875 535.132812 303.679688 534.804688 300.875 533.5 C 296.585938 531.507812 294.144531 528.808594 287.339844 518.515625 C 285.730469 516.085938 284.195312 513.894531 283.917969 513.652344 C 283.398438 513.1875 283.238281 511.933594 283.648438 511.523438 C 283.792969 511.378906 283.667969 510.742188 283.308594 509.742188 C 283 508.886719 282.429688 506.480469 282.042969 504.394531 C 281.652344 502.308594 281.03125 499.117188 280.65625 497.300781 C 280.28125 495.488281 279.808594 492.347656 279.597656 490.320312 C 279.386719 488.296875 279.140625 486.167969 279.046875 485.589844 L 278.878906 484.542969 L 278.394531 486.40625 C 275.753906 496.601562 272.253906 507.972656 270.875 510.835938 C 269.828125 513.007812 268.390625 515.058594 267.261719 515.988281 C 266.5625 516.558594 266.230469 517.007812 266.230469 517.394531 C 266.230469 518.1875 264.894531 521.558594 263.382812 524.578125 C 258.183594 534.960938 251.464844 539.757812 241.5625 540.140625 C 240.25 540.1875 238.808594 540.1875 238.359375 540.132812 Z M 244.707031 535.867188 C 247.347656 535.410156 250.015625 534.320312 252.203125 532.8125 C 254.976562 530.902344 257.683594 527.261719 260.242188 522 C 261.148438 520.136719 261.847656 518.578125 261.800781 518.535156 C 261.75 518.488281 260.875 518.621094 259.851562 518.824219 C 258.359375 519.117188 256.289062 519.195312 249.394531 519.199219 C 241.003906 519.207031 240.714844 519.1875 237.230469 518.558594 C 235.265625 518.207031 233.558594 517.894531 233.429688 517.867188 C 233.03125 517.78125 230.507812 521.660156 229.070312 524.566406 C 225.671875 531.4375 226.402344 533.730469 232.464844 535.171875 C 237.355469 536.335938 240.835938 536.535156 244.707031 535.867188 Z M 319.769531 531.203125 C 322.339844 530.542969 324.550781 529.304688 326.054688 527.679688 C 329.160156 524.316406 329.976562 520.265625 328.933594 513.363281 L 328.683594 511.703125 L 327.257812 512.695312 C 324.476562 514.632812 322.277344 515.527344 318.316406 516.335938 C 316.15625 516.777344 315.113281 516.839844 310.035156 516.828125 C 303.8125 516.8125 301.097656 516.621094 294.378906 515.710938 C 292.027344 515.390625 290.066406 515.167969 290.023438 515.210938 C 289.976562 515.257812 291.039062 516.945312 292.378906 518.960938 C 299.886719 530.273438 302.046875 531.515625 314.355469 531.628906 C 317.269531 531.65625 318.316406 531.574219 319.769531 531.203125 Z M 259.945312 514.804688 C 264.1875 513.824219 265.46875 512.878906 267.144531 509.484375 C 269.238281 505.253906 274.554688 486.871094 276.25 478.023438 C 277.128906 473.429688 277.511719 472.472656 278.625 472.105469 C 279.28125 471.886719 279.601562 471.902344 280.257812 472.175781 C 281.6875 472.773438 281.804688 473.308594 282.859375 483.839844 C 283.746094 492.710938 283.777344 492.9375 284.9375 498.734375 C 285.371094 500.910156 285.949219 503.84375 286.21875 505.25 C 286.773438 508.15625 287.539062 510.039062 288.378906 510.589844 C 289.042969 511.023438 290.042969 511.210938 296.042969 512 C 305.386719 513.230469 313.875 513.324219 318.554688 512.25 C 322.34375 511.378906 324.695312 510.074219 327.257812 507.421875 C 328.503906 506.128906 330.597656 503.269531 330.597656 502.859375 C 330.597656 502.78125 330.851562 502.339844 331.164062 501.886719 C 331.554688 501.3125 332.226562 499.097656 333.351562 494.660156 C 335.359375 486.730469 335.753906 484.8125 336.625 478.699219 C 337.007812 476.023438 337.582031 472.15625 337.898438 470.109375 C 339.398438 460.507812 340.316406 446.894531 340.839844 426.707031 C 341.308594 408.554688 340.261719 388.347656 338.355469 378.769531 C 337.582031 374.890625 335.554688 367.039062 334.996094 365.765625 C 334.1875 363.925781 334.59375 362.628906 336.074219 362.34375 C 336.636719 362.234375 336.949219 362.339844 337.550781 362.851562 C 338.523438 363.671875 339.03125 364.867188 339.921875 368.429688 L 340.632812 371.277344 L 342.179688 370.582031 C 346.179688 368.78125 347.667969 367.917969 350.640625 365.679688 C 356.574219 361.210938 360.425781 357.402344 368.125 348.398438 C 372.640625 343.117188 374.257812 341.066406 377.75 336.183594 C 385.582031 325.238281 388.023438 320.617188 391.398438 310.351562 C 393.675781 303.429688 394.273438 301.109375 395.0625 296.039062 C 395.890625 290.769531 395.917969 291.003906 394.273438 289.789062 C 393.515625 289.230469 391.816406 288.117188 390.496094 287.3125 C 389.175781 286.507812 387.003906 285.175781 385.671875 284.355469 L 383.246094 282.859375 L 380.699219 285.609375 C 373.515625 293.367188 359.65625 305.742188 350.226562 312.820312 C 345.125 316.652344 331.785156 326.078125 329.652344 327.363281 C 328.316406 328.164062 326.902344 329.0625 326.507812 329.359375 C 326.109375 329.65625 325.675781 329.902344 325.539062 329.902344 C 325.402344 329.902344 324.917969 330.414062 324.457031 331.039062 C 322.5 333.710938 317.117188 337.242188 313.113281 338.480469 C 310.597656 339.253906 304.375 340.53125 299.347656 341.300781 C 290.195312 342.703125 289.527344 342.753906 272.394531 343.402344 C 263.902344 343.726562 261.25 343.46875 255.363281 341.75 C 248.835938 339.847656 246.042969 338.359375 244.601562 336.015625 L 244.09375 335.195312 L 242.679688 335.34375 C 240.894531 335.527344 239.351562 336.277344 235.339844 338.925781 C 230.550781 342.078125 227.460938 344.75 220.214844 351.996094 C 211.171875 361.039062 207.519531 365.277344 201.550781 373.652344 C 197.179688 379.78125 195.5 382.335938 193.074219 386.566406 C 188.570312 394.414062 186.046875 399.941406 183.617188 407.296875 C 181.941406 412.375 179.582031 421.289062 179.578125 422.5625 C 179.574219 425 181.917969 427.597656 187.710938 431.578125 C 190.613281 433.574219 195.375 436.25 196.023438 436.25 C 196.914062 436.25 199.175781 434.921875 201.132812 433.25 C 203.453125 431.269531 208.714844 425.953125 210.71875 423.566406 C 213.898438 419.777344 222.703125 406.863281 224.355469 403.554688 C 224.613281 403.042969 225.039062 401.683594 225.300781 400.53125 C 226.050781 397.261719 227.832031 391.226562 228.34375 390.222656 C 228.976562 388.980469 229.960938 388.566406 231.050781 389.085938 C 231.984375 389.53125 232.269531 390.355469 231.902344 391.558594 C 230.332031 396.691406 229.253906 400.765625 229.183594 401.808594 C 229.136719 402.515625 228.886719 403.5625 228.632812 404.136719 C 227.863281 405.871094 225.621094 417.921875 224.324219 427.289062 C 222.558594 440.003906 222.429688 446.785156 223.617188 464.058594 C 224.71875 480.132812 226.546875 490.757812 230.035156 501.40625 C 231.984375 507.355469 234.257812 512.808594 234.789062 512.808594 C 234.96875 512.808594 235.328125 513.160156 235.582031 513.59375 C 236.035156 514.363281 236.097656 514.386719 238.652344 514.777344 C 240.085938 514.992188 241.417969 515.210938 241.609375 515.253906 C 241.800781 515.296875 245.617188 515.304688 250.089844 515.269531 C 256.769531 515.214844 258.53125 515.132812 259.945312 514.804688 Z M 193.25 452.289062 C 195.226562 451.3125 196.644531 449.921875 197.023438 448.585938 C 197.359375 447.402344 197.449219 442.96875 197.167969 441.339844 L 196.984375 440.261719 L 195.628906 440.164062 C 194.5 440.082031 193.839844 439.824219 191.632812 438.597656 C 185.410156 435.140625 179.527344 430.699219 177.609375 428.011719 L 176.519531 426.484375 L 174.113281 428.125 C 171.382812 429.988281 168.199219 432.695312 166.953125 434.21875 C 165.492188 436.007812 165.074219 437.230469 165.066406 439.75 C 165.0625 441.792969 165.121094 442.085938 165.835938 443.535156 C 166.835938 445.570312 168.800781 447.691406 170.425781 448.488281 C 171.570312 449.050781 171.875 449.097656 173.71875 449.003906 C 176.242188 448.875 177.253906 448.394531 180.503906 445.777344 C 183.152344 443.644531 183.902344 443.320312 185.078125 443.816406 C 186.070312 444.230469 186.351562 444.886719 187.003906 448.316406 C 187.636719 451.660156 188.035156 452.679688 188.835938 452.988281 C 189.8125 453.371094 191.644531 453.078125 193.25 452.289062 Z M 272.976562 448.90625 C 264.710938 448.488281 254.757812 446.679688 250.773438 444.871094 C 247.132812 443.21875 245.925781 441.765625 245.675781 438.738281 C 245.527344 436.894531 246.003906 392.621094 246.246094 386.0625 C 246.253906 385.914062 246.527344 385.46875 246.859375 385.074219 C 247.628906 384.15625 248.742188 384.097656 249.632812 384.925781 C 250.722656 385.9375 254.054688 386.382812 262.171875 386.597656 C 268.738281 386.769531 273.96875 386.460938 278.453125 385.628906 C 286.042969 384.226562 300.429688 379.992188 306.441406 377.394531 C 310.625 375.585938 311.507812 376.191406 311.878906 381.097656 C 311.960938 382.1875 312.226562 384.648438 312.472656 386.570312 C 313.640625 395.722656 314.125 405.394531 314.171875 420.585938 C 314.21875 436.042969 314.042969 437.535156 312.082031 438.464844 C 311.410156 438.785156 311.234375 438.785156 310.507812 438.484375 C 309.738281 438.160156 309.671875 438.167969 309.4375 438.601562 C 308.980469 439.457031 305.433594 441.863281 302.605469 443.238281 C 299.464844 444.765625 294.976562 446.375 291.332031 447.277344 C 286.5 448.472656 278.496094 449.183594 272.976562 448.90625 Z M 284.710938 444.503906 C 293.5625 443.351562 303.867188 439.242188 306.667969 435.75 C 307.34375 434.910156 307.503906 434.824219 308.261719 434.914062 C 308.726562 434.96875 309.28125 435.089844 309.492188 435.1875 C 310.160156 435.480469 310.269531 433.34375 310.25 420.078125 C 310.226562 405.167969 309.878906 398.089844 308.628906 387.265625 C 307.890625 380.859375 307.921875 381.03125 307.410156 381.308594 C 306.589844 381.746094 297.148438 384.878906 293.308594 385.984375 C 286.484375 387.949219 280.46875 389.375 276.582031 389.949219 C 271.574219 390.6875 257.195312 390.636719 252.132812 389.867188 L 250.222656 389.578125 L 250.109375 390.515625 C 250.042969 391.035156 249.929688 394.710938 249.847656 398.6875 L 249.703125 405.917969 L 257.21875 406.332031 C 263.648438 406.6875 265.433594 406.707031 269.609375 406.472656 C 274.703125 406.1875 285.949219 406.210938 286.128906 406.511719 C 286.472656 407.066406 282.683594 408.105469 279.136719 408.429688 C 278.367188 408.5 275.492188 408.78125 272.746094 409.050781 C 268.824219 409.441406 266.824219 409.519531 263.453125 409.425781 C 259.5625 409.316406 253.675781 408.679688 250.933594 408.070312 C 250.371094 407.945312 249.875 407.886719 249.824219 407.9375 C 249.773438 407.988281 249.664062 412.851562 249.585938 418.742188 L 249.4375 429.457031 L 251.390625 429.339844 C 252.496094 429.277344 255.765625 429.4375 258.914062 429.714844 C 266.320312 430.363281 268.902344 430.34375 273.527344 429.601562 C 275.621094 429.265625 278.25 428.996094 279.484375 428.996094 C 281.65625 428.992188 283.660156 429.394531 283.742188 429.851562 C 283.832031 430.375 273.589844 433.027344 269.875 433.445312 C 267.304688 433.734375 263.484375 433.460938 256.984375 432.527344 C 254.347656 432.144531 251.585938 431.835938 250.851562 431.832031 L 249.515625 431.828125 L 249.515625 435.304688 C 249.515625 437.21875 249.609375 439.03125 249.726562 439.339844 C 250.214844 440.625 252.902344 441.773438 258.257812 442.984375 C 263.492188 444.167969 265.089844 444.386719 272.632812 444.953125 C 275.019531 445.136719 281.792969 444.882812 284.710938 444.503906 Z M 295.039062 430.542969 C 294.820312 430.273438 294.8125 430.113281 295.003906 429.921875 C 295.316406 429.605469 299.480469 428.921875 303.167969 428.578125 C 304.644531 428.441406 306.296875 428.28125 306.839844 428.222656 C 307.964844 428.101562 308.058594 428.273438 307.273438 429.011719 C 306.519531 429.722656 304.992188 430.144531 301.6875 430.554688 C 297.949219 431.019531 295.433594 431.011719 295.039062 430.542969 Z M 296.035156 406.316406 C 295.75 406.253906 295.515625 406.105469 295.515625 405.996094 C 295.515625 405.757812 296.324219 405.613281 298.765625 405.417969 C 300.597656 405.269531 304.460938 404.386719 305.886719 403.792969 C 306.882812 403.375 306.898438 403.375 306.898438 403.6875 C 306.898438 404.046875 304.222656 405.203125 302.109375 405.757812 C 300.300781 406.234375 297.066406 406.53125 296.035156 406.316406 Z M 273.90625 339.445312 C 286.820312 338.964844 289.464844 338.769531 296.132812 337.800781 C 302.632812 336.855469 306.195312 336.1875 310.496094 335.109375 C 315.6875 333.804688 321.492188 329.738281 322.402344 326.761719 C 322.550781 326.277344 322.597656 324.230469 322.519531 321.367188 C 322.414062 317.316406 322.347656 316.679688 321.953125 316.121094 L 321.507812 315.484375 L 319.851562 316.320312 C 318.429688 317.035156 318.027344 317.140625 317.035156 317.042969 C 315.996094 316.941406 315.78125 317.011719 314.839844 317.730469 C 314.265625 318.167969 313.402344 318.726562 312.925781 318.96875 C 308.675781 321.144531 296.707031 324.660156 290.195312 325.652344 C 287.917969 326 285.957031 326.058594 277.621094 326.042969 C 259.652344 326.007812 253.746094 325.082031 250.925781 321.863281 C 250.070312 320.890625 249.933594 320.941406 248.835938 322.652344 C 247.839844 324.207031 247.390625 326.136719 247.566406 328.074219 C 247.660156 329.078125 247.609375 330.035156 247.421875 330.699219 C 247.261719 331.277344 247.195312 332.101562 247.277344 332.53125 C 247.484375 333.640625 248.777344 335.050781 250.238281 335.765625 C 252.882812 337.058594 259.625 339.007812 262.867188 339.414062 C 265.199219 339.707031 266.726562 339.710938 273.90625 339.445312 Z M 287.382812 321.980469 C 290.992188 321.648438 294.761719 320.863281 300.042969 319.34375 C 309.878906 316.511719 313.261719 314.835938 315.03125 311.929688 C 315.878906 310.535156 315.621094 309.902344 314.019531 309.464844 C 313.15625 309.230469 313.128906 309.238281 313.277344 309.730469 C 313.882812 311.773438 313.609375 312.953125 312.433594 313.363281 C 310.964844 313.875 310.214844 313.105469 309.269531 310.125 C 308.304688 307.085938 307.972656 304.53125 308.125 301.375 L 308.253906 298.757812 L 306.007812 300.460938 C 292.128906 310.992188 275.285156 313.402344 260.34375 306.992188 L 259.441406 306.601562 L 259.597656 307.144531 C 259.683594 307.441406 259.8125 309.253906 259.882812 311.175781 C 260.03125 315.164062 259.589844 318.976562 258.816406 320.28125 C 258.570312 320.707031 258.4375 321.097656 258.53125 321.15625 C 259.804688 321.941406 281.117188 322.550781 287.382812 321.980469 Z M 255.511719 318.261719 C 255.671875 317.234375 255.746094 316.300781 255.671875 316.183594 C 255.59375 316.058594 255.269531 316.066406 254.875 316.203125 C 253.238281 316.773438 252.875 318.355469 254.125 319.46875 C 254.53125 319.835938 254.941406 320.132812 255.039062 320.132812 C 255.136719 320.128906 255.347656 319.300781 255.511719 318.261719 Z M 249.988281 315.261719 C 252.066406 312.988281 253.363281 312.21875 255.109375 312.21875 L 256.089844 312.21875 L 255.929688 309.964844 C 255.84375 308.726562 255.660156 307.257812 255.519531 306.703125 C 255.378906 306.152344 255.320312 305.410156 255.390625 305.0625 C 255.503906 304.480469 255.359375 304.320312 253.777344 303.261719 C 246.8125 298.597656 240.542969 290.394531 237.421875 281.851562 C 237 280.699219 236.632812 279.726562 236.605469 279.683594 C 236.578125 279.644531 235.863281 279.515625 235.019531 279.394531 C 228.792969 278.511719 223.785156 275.335938 222.648438 271.542969 C 221.988281 269.34375 222.40625 266.1875 223.710938 263.550781 C 224.558594 261.835938 225.507812 260.679688 227.105469 259.40625 L 228.402344 258.371094 L 228.25 252.074219 L 228.09375 245.78125 L 227.199219 245.015625 C 225.726562 243.753906 223.464844 240.773438 222.664062 239.03125 C 222.25 238.136719 221.628906 236.359375 221.28125 235.078125 C 220.933594 233.800781 220.1875 231.675781 219.628906 230.359375 C 218.121094 226.824219 218.453125 226.191406 222.230469 225.390625 C 223.5 225.121094 225.1875 224.664062 225.976562 224.378906 C 229.921875 222.945312 233.734375 219.804688 236.15625 215.992188 C 236.890625 214.839844 237.683594 213.683594 237.921875 213.425781 C 238.191406 213.128906 238.441406 212.304688 238.59375 211.214844 C 238.972656 208.527344 239.683594 206.199219 240.914062 203.660156 C 242.558594 200.253906 244.140625 197.972656 246.679688 195.347656 C 251.980469 189.875 257.878906 186.789062 263.050781 186.789062 C 265.464844 186.789062 269.105469 187.546875 271.535156 188.554688 L 273.484375 189.359375 L 276.5625 187.304688 C 282.738281 183.175781 288.894531 181.351562 294.007812 182.132812 C 298.585938 182.832031 301.691406 184.132812 306.902344 187.53125 C 321.324219 196.9375 325.132812 199.863281 327.566406 203.402344 C 329.476562 206.1875 332.765625 213.355469 334.398438 218.292969 C 335.390625 221.285156 336.539062 226.164062 337.714844 232.398438 C 338.496094 236.523438 338.574219 237.296875 338.570312 240.894531 C 338.566406 245.039062 338.273438 247.980469 337.652344 250.015625 L 337.285156 251.226562 L 338.277344 252.34375 C 338.820312 252.957031 339.609375 254.191406 340.027344 255.085938 C 342.195312 259.75 341.507812 263.957031 337.976562 267.597656 C 335.550781 270.101562 332.464844 271.289062 327.699219 271.558594 L 325.84375 271.660156 L 324.734375 274.648438 C 322.128906 281.683594 318.484375 287.878906 313.867188 293.128906 L 312.234375 294.980469 L 312.183594 300.4375 C 312.15625 303.433594 312.195312 305.953125 312.269531 306.027344 C 312.347656 306.101562 312.742188 306 313.152344 305.796875 C 313.789062 305.480469 314.070312 305.464844 315.105469 305.710938 C 316.726562 306.089844 316.84375 306.164062 318.304688 307.679688 C 319 308.402344 319.988281 309.207031 320.5 309.46875 C 321.011719 309.730469 321.601562 310.09375 321.8125 310.28125 C 322.277344 310.6875 322.566406 310.558594 326.191406 308.300781 C 342.976562 297.835938 355.769531 282.710938 362.738281 265.085938 C 365.773438 257.414062 367.582031 249.539062 368.238281 241.144531 C 369.152344 229.523438 367.042969 217.082031 362.3125 206.175781 C 354.585938 188.359375 339.570312 174.011719 320.847656 166.539062 C 303.734375 159.722656 284.5 158.660156 265.890625 163.511719 C 235.957031 171.316406 211.707031 193.226562 202.011719 221.226562 C 198.964844 230.027344 197.601562 238.257812 197.640625 247.640625 C 197.683594 259.480469 200.238281 270.175781 205.503906 280.570312 C 213.691406 296.722656 227.230469 309.039062 244.746094 316.265625 C 246.152344 316.847656 247.480469 317.324219 247.695312 317.328125 C 247.910156 317.335938 248.933594 316.410156 249.988281 315.261719 Z M 284.710938 305.9375 C 293.867188 304.136719 302.273438 299.460938 309.238281 292.289062 C 316.636719 284.675781 321.441406 275.140625 323.523438 263.929688 C 323.96875 261.527344 324.292969 251.121094 323.929688 250.761719 C 323.808594 250.640625 322.515625 250.4375 321.054688 250.308594 C 317.390625 249.984375 315.390625 249.515625 313.242188 248.476562 C 311.074219 247.425781 308.015625 245.542969 306.128906 244.089844 C 305.386719 243.519531 304.75 243.089844 304.714844 243.136719 C 304.675781 243.183594 304.324219 243.703125 303.925781 244.289062 C 302.933594 245.765625 300.867188 247.605469 299.402344 248.320312 C 296.871094 249.554688 294.824219 249.929688 290.515625 249.945312 C 287.035156 249.953125 286.261719 249.882812 284.011719 249.347656 C 274.375 247.054688 265.402344 241.398438 262.191406 235.59375 C 261.570312 234.472656 260.976562 233.5 260.871094 233.433594 C 260.683594 233.316406 258.53125 235.027344 253.34375 239.402344 C 250.074219 242.164062 243.046875 247.433594 241.320312 248.425781 C 240.28125 249.019531 239.988281 249.3125 239.988281 249.746094 C 239.988281 250.050781 239.785156 251.167969 239.539062 252.230469 C 238.285156 257.613281 237.859375 265.453125 238.5625 270.214844 C 240.058594 280.386719 243.859375 288.507812 250.203125 295.085938 C 256.414062 301.523438 264.171875 305.332031 273.441406 306.492188 C 275.542969 306.753906 282.191406 306.429688 284.710938 305.9375 Z M 277.566406 290.027344 C 275.636719 289.304688 273.9375 287.441406 273.324219 285.378906 C 273.136719 284.734375 272.980469 283.410156 272.980469 282.429688 C 272.980469 280.871094 273.046875 280.589844 273.515625 280.148438 C 274.246094 279.457031 275.53125 279.46875 276.160156 280.164062 C 276.507812 280.546875 276.675781 281.148438 276.785156 282.394531 C 276.953125 284.292969 277.320312 285.183594 278.234375 285.902344 C 279.007812 286.515625 280.078125 286.523438 281.054688 285.925781 C 282.421875 285.089844 282.8125 284.035156 283.335938 279.785156 C 283.585938 277.726562 285.308594 276.839844 286.582031 278.117188 C 287.058594 278.59375 287.152344 278.914062 287.152344 280.035156 C 287.144531 286.113281 284.398438 290.015625 279.953125 290.265625 C 279.015625 290.320312 278.101562 290.226562 277.566406 290.027344 Z M 404.59375 285.25 C 410.570312 281.019531 415.46875 275.828125 417.773438 271.296875 C 418.933594 269.015625 418.996094 268.796875 418.996094 267.109375 C 418.996094 265.492188 418.90625 265.136719 418.015625 263.277344 C 415.652344 258.355469 411.070312 253.34375 408.929688 253.34375 C 408.125 253.34375 405.316406 254.929688 403.410156 256.460938 C 401.4375 258.046875 397.585938 261.773438 395.980469 263.644531 C 395.191406 264.570312 394.910156 264.746094 394.222656 264.746094 C 393.644531 264.746094 393.242188 264.570312 392.84375 264.148438 C 392.308594 263.582031 392.273438 263.347656 392.132812 259.785156 C 391.964844 255.53125 391.769531 254.738281 390.882812 254.738281 C 389.183594 254.738281 387.941406 255.910156 386.539062 258.832031 C 385.351562 261.300781 384.875 263.75 384.152344 271.03125 C 383.363281 279.003906 383.332031 278.460938 384.667969 279.199219 C 387.269531 280.621094 395.082031 285.519531 396.953125 286.894531 L 398.988281 288.390625 L 400.046875 288.050781 C 400.628906 287.867188 402.667969 286.613281 404.59375 285.25 Z M 235.0625 273.066406 C 234.601562 270.480469 234.167969 264.242188 234.351562 262.8125 C 234.488281 261.734375 233.757812 260.792969 232.785156 260.792969 C 231.847656 260.792969 229.300781 262.449219 228.226562 263.753906 C 226.523438 265.832031 225.804688 269.144531 226.664062 270.957031 C 227.046875 271.769531 228.710938 273.167969 230.226562 273.957031 C 231.011719 274.363281 234.375 275.375 235.125 275.425781 C 235.449219 275.449219 235.445312 275.207031 235.0625 273.066406 Z M 261.140625 273.074219 C 260.152344 272.554688 259.65625 271.378906 259.546875 269.289062 C 259.464844 267.691406 259.523438 267.242188 259.941406 266.425781 C 260.507812 265.3125 261.011719 264.980469 262.121094 264.980469 C 263.679688 264.980469 264.367188 266.519531 264.375 270.027344 C 264.382812 271.675781 264.3125 272.015625 263.859375 272.539062 C 263.242188 273.246094 261.972656 273.5 261.140625 273.074219 Z M 293.367188 271.980469 C 292.640625 271.328125 292.605469 271.214844 292.53125 269.351562 C 292.390625 265.90625 293.339844 264.046875 295.246094 264.046875 C 296.5 264.046875 296.863281 264.222656 297.265625 264.996094 C 297.671875 265.789062 297.714844 268.402344 297.34375 270.132812 C 296.828125 272.539062 294.976562 273.40625 293.367188 271.980469 Z M 330.597656 267.261719 C 333.363281 266.734375 335.675781 264.960938 336.796875 262.503906 C 337.609375 260.71875 337.476562 258.847656 336.371094 256.644531 C 335.023438 253.960938 332.988281 253.128906 329.550781 253.859375 L 328.15625 254.15625 L 328.003906 257.765625 C 327.921875 259.75 327.632812 262.710938 327.367188 264.34375 C 327.097656 265.976562 326.878906 267.421875 326.878906 267.550781 C 326.878906 267.804688 328.359375 267.6875 330.597656 267.261719 Z M 234.75 256.542969 C 234.816406 256.257812 235.027344 255.078125 235.21875 253.925781 C 235.410156 252.773438 235.671875 251.464844 235.800781 251.019531 C 236.222656 249.566406 236.191406 249.53125 234.0625 249.027344 L 232.085938 248.558594 L 232.085938 250.21875 C 232.085938 251.128906 232.152344 252.984375 232.238281 254.34375 L 232.386719 256.8125 L 233.222656 256.898438 C 233.6875 256.949219 234.1875 257.007812 234.347656 257.027344 C 234.503906 257.050781 234.6875 256.832031 234.75 256.542969 Z M 332.054688 249.738281 L 333.632812 249.738281 L 333.964844 248.621094 C 334.449219 246.976562 334.855469 241.914062 334.699219 239.378906 C 334.445312 235.125 332.183594 224.058594 330.613281 219.367188 C 329.011719 214.59375 326.328125 208.730469 324.429688 205.871094 C 322.191406 202.5 319.96875 200.804688 304.109375 190.390625 C 301.363281 188.589844 299.640625 187.722656 297.257812 186.949219 C 292.699219 185.472656 289.824219 185.523438 285.285156 187.152344 C 282.800781 188.046875 281.203125 188.898438 278.335938 190.851562 C 274.117188 193.726562 273.886719 193.773438 270.78125 192.488281 C 265.125 190.144531 261.179688 190.183594 256.480469 192.628906 C 248.738281 196.664062 243.039062 204.945312 242.324219 213.203125 C 242.015625 216.765625 241.671875 218.636719 241.195312 219.371094 C 240.988281 219.691406 240.796875 220.496094 240.773438 221.164062 C 240.695312 223.503906 238.332031 227.277344 236.722656 227.632812 C 235.558594 227.886719 235.546875 227.546875 236.65625 226.050781 C 237.777344 224.539062 238.890625 222.328125 239.160156 221.074219 C 239.292969 220.457031 239.238281 220.3125 238.832031 220.1875 C 238.441406 220.0625 237.984375 220.402344 236.4375 221.992188 C 234.28125 224.203125 232.679688 225.453125 230.414062 226.691406 C 228.863281 227.539062 225.199219 228.90625 224.460938 228.914062 C 223.601562 228.921875 223.433594 229.25 223.8125 230.164062 C 224.007812 230.632812 224.546875 232.296875 225.007812 233.863281 C 226.160156 237.757812 226.917969 239.085938 229.445312 241.652344 C 231.878906 244.117188 233.460938 245.007812 236.199219 245.457031 C 237.8125 245.722656 237.917969 245.707031 239.101562 245.121094 C 240.675781 244.339844 247.328125 239.351562 251.761719 235.625 C 258.90625 229.621094 260.171875 228.679688 261.101562 228.679688 C 262.5 228.683594 263.140625 229.417969 266.019531 234.328125 C 267.136719 236.230469 268.753906 237.773438 271.707031 239.746094 C 277.558594 243.660156 284.792969 246.128906 290.40625 246.128906 C 296.300781 246.128906 299.441406 244.59375 301.484375 240.714844 C 302.492188 238.792969 303.382812 237.984375 304.480469 237.984375 C 305.15625 237.984375 305.570312 238.257812 307.121094 239.707031 C 309.703125 242.128906 314.394531 245 317.03125 245.777344 C 318.261719 246.136719 323.121094 246.648438 323.441406 246.449219 C 323.542969 246.386719 323.625 246.203125 323.625 246.039062 C 323.625 245.484375 324.558594 244.875 325.410156 244.875 C 326.699219 244.875 327.230469 245.664062 327.574219 248.105469 L 327.859375 250.113281 L 329.167969 249.925781 C 329.886719 249.820312 331.171875 249.738281 332.054688 249.738281 Z M 358.042969 241.910156 C 357.972656 237.105469 358.011719 236.085938 358.269531 236.171875 C 358.820312 236.351562 359.195312 238.914062 359.238281 242.773438 C 359.269531 245.988281 359.21875 246.605469 358.871094 247.136719 C 358.648438 247.480469 358.386719 247.757812 358.296875 247.757812 C 358.203125 247.757812 358.089844 245.136719 358.042969 241.910156 Z M 357.109375 229.433594 C 356.984375 228.953125 356.710938 227.667969 356.5 226.582031 C 356.289062 225.492188 355.90625 223.765625 355.648438 222.742188 C 355.390625 221.71875 354.773438 219 354.277344 216.699219 C 353.09375 211.226562 352.4375 209.226562 350.679688 205.738281 C 349.875 204.148438 349.316406 202.789062 349.4375 202.714844 C 350.246094 202.214844 352.089844 204.5 353.957031 208.316406 C 356.4375 213.390625 358.296875 222.765625 357.894531 228.152344 C 357.808594 229.335938 357.644531 230.304688 357.53125 230.304688 C 357.421875 230.304688 357.234375 229.921875 357.109375 229.433594 Z M 326.015625 229.316406 C 324.679688 227.859375 321.179688 221.148438 320.921875 219.554688 C 320.792969 218.761719 321.324219 217.816406 321.75 218.082031 C 322.027344 218.25 324.683594 223.03125 325.378906 224.609375 C 325.910156 225.8125 326.878906 229.0625 326.878906 229.644531 C 326.878906 229.992188 326.507812 229.851562 326.015625 229.316406 Z M 313.316406 210.550781 C 311.945312 208.171875 310.480469 206.710938 307.777344 205.039062 C 306.589844 204.304688 304.535156 202.972656 303.207031 202.082031 C 300.242188 200.09375 299.125 199.585938 297.1875 199.34375 C 296.359375 199.242188 295.601562 199.027344 295.5 198.871094 C 294.972656 198.007812 296.207031 197.59375 298.769531 197.777344 C 300.667969 197.914062 302 198.539062 306.859375 201.578125 C 310.730469 203.996094 312.578125 205.574219 313.476562 207.230469 C 314.179688 208.523438 314.933594 211.878906 314.601562 212.210938 C 314.480469 212.332031 313.949219 211.648438 313.316406 210.550781 Z M 313.316406 210.550781 " fill-opacity="1" fill-rule="evenodd"/></g></svg>