<svg xmlns="http://www.w3.org/2000/svg" xmlns:xlink="http://www.w3.org/1999/xlink" width="750" zoomAndPan="magnify" viewBox="0 0 562.5 562.499982" height="750" preserveAspectRatio="xMidYMid meet" version="1.0"><defs><clipPath id="fd353f4d11"><path d="M 112.515625 0 L 449.71875 0 L 449.71875 562 L 112.515625 562 Z M 112.515625 0 " clip-rule="nonzero"/></clipPath></defs><g clip-path="url(#fd353f4d11)"><path fill="#000000" d="M 447.753906 172.894531 C 449.035156 179.085938 449.675781 185.34375 449.675781 191.667969 C 449.585938 197.507812 449.710938 203.375 449.191406 209.175781 C 448.59375 216.136719 448.035156 223.148438 446.515625 229.984375 C 445.550781 234.296875 444.121094 238.511719 442.796875 242.738281 C 441.824219 245.855469 440.726562 248.941406 439.578125 252 C 438.429688 255.054688 437.183594 258.082031 435.898438 261.078125 C 434.328125 264.71875 432.707031 268.34375 430.996094 271.925781 C 428.601562 276.980469 426.242188 282.09375 423.214844 286.820312 C 422.335938 288.195312 421.628906 289.679688 420.820312 291.113281 C 415.148438 301.636719 408.339844 311.363281 400.398438 320.300781 C 397.4375 323.597656 394.546875 326.976562 391.421875 330.109375 C 382.480469 339.082031 372.785156 347.09375 361.796875 353.464844 C 361.382812 353.691406 361.007812 353.96875 360.675781 354.300781 C 360.398438 354.527344 360.195312 354.804688 360.0625 355.136719 C 359.929688 355.472656 359.886719 355.8125 359.933594 356.167969 C 361.640625 363.429688 363.261719 370.714844 365.832031 377.734375 C 368.714844 385.628906 371.21875 393.640625 373.640625 401.691406 C 375.316406 407.269531 377.304688 412.765625 379.0625 418.324219 C 380.960938 424.304688 383.039062 430.285156 383.851562 436.582031 C 384.011719 437.785156 384.53125 438.804688 385.414062 439.636719 C 388.40625 442.628906 391.398438 445.53125 394.320312 448.566406 C 402.238281 456.839844 409.820312 465.410156 417.53125 473.878906 C 421.457031 478.191406 425.644531 482.253906 429.863281 486.3125 C 432.742188 489.070312 435.449219 491.953125 438.070312 494.949219 C 439.632812 496.742188 440.65625 498.804688 441.136719 501.132812 C 442.644531 508.023438 442.546875 508.007812 442.636719 514.972656 C 442.703125 520.613281 441.582031 526.117188 441.148438 531.722656 C 440.988281 532.660156 440.589844 533.484375 439.949219 534.191406 C 439.21875 535.113281 438.359375 535.890625 437.371094 536.523438 C 434.976562 537.972656 432.535156 539.371094 430.015625 540.578125 C 419.914062 545.511719 409.414062 549.367188 398.519531 552.140625 C 392.402344 553.652344 386.304688 555.203125 380.1875 556.722656 C 375.4375 557.917969 370.613281 558.652344 365.753906 559.359375 C 360.894531 560.066406 356.003906 560.347656 351.101562 560.601562 C 350.402344 560.609375 349.703125 560.65625 349.007812 560.734375 C 345.558594 561.378906 342.078125 561.710938 338.566406 561.726562 C 335.0625 561.648438 331.554688 561.726562 328.046875 561.726562 L 328.046875 561.824219 C 325.238281 561.824219 322.4375 561.859375 319.632812 561.824219 C 316.363281 561.78125 313.082031 561.882812 309.875 561.015625 C 309.191406 560.847656 308.496094 560.765625 307.792969 560.769531 C 301.707031 560.742188 295.695312 559.800781 289.683594 559.019531 C 283.433594 558.210938 277.195312 557.222656 271.039062 555.933594 C 263.75 554.382812 256.445312 552.832031 249.269531 550.753906 C 240.519531 548.210938 231.835938 545.5 223.535156 541.699219 C 219.851562 540.082031 216.613281 537.828125 213.820312 534.9375 C 213.058594 534.199219 212.460938 533.34375 212.03125 532.371094 C 211.601562 531.398438 211.375 530.378906 211.34375 529.316406 C 211.3125 526.984375 211.140625 524.605469 211.523438 522.320312 C 212.121094 518.617188 212.210938 514.886719 212.558594 511.171875 C 213.011719 506.25 214.101562 501.5 216.902344 497.28125 C 217.820312 495.894531 218.835938 494.589844 220.398438 493.964844 C 223.277344 492.765625 225.511719 490.765625 227.855469 488.835938 C 235.910156 482.078125 244.1875 475.625 252.269531 468.921875 C 256.753906 465.183594 261.445312 461.746094 266.089844 458.214844 C 270.546875 454.816406 274.953125 451.347656 279.453125 448 C 283.394531 445.0625 287.527344 442.433594 291.855469 440.105469 C 292.496094 439.816406 293.023438 439.394531 293.441406 438.828125 C 293.859375 438.265625 294.113281 437.636719 294.199219 436.941406 C 294.851562 432.328125 295.753906 427.765625 296.898438 423.25 C 298.390625 417.867188 299.753906 412.425781 301.359375 407.066406 C 303.8125 399.019531 305.652344 390.832031 306.878906 382.507812 C 307.070312 381.132812 307.324219 379.761719 307.523438 378.386719 C 307.515625 378.214844 307.476562 378.050781 307.40625 377.894531 C 307.332031 377.734375 307.234375 377.597656 307.109375 377.480469 C 306.984375 377.359375 306.839844 377.269531 306.679688 377.207031 C 306.515625 377.144531 306.351562 377.117188 306.175781 377.121094 C 303.902344 377.582031 301.605469 377.988281 299.347656 378.542969 C 294.363281 379.789062 289.300781 380.566406 284.222656 381.347656 C 278.207031 382.222656 272.160156 382.691406 266.082031 382.761719 C 264.914062 382.757812 263.746094 382.820312 262.582031 382.945312 C 256.992188 383.753906 251.402344 383.507812 245.824219 383.027344 C 244.195312 382.898438 242.554688 382.835938 240.925781 382.789062 C 238.121094 382.707031 235.3125 382.675781 232.511719 382.582031 C 221.5 382.1875 210.726562 380.253906 200.085938 377.492188 C 186.933594 373.972656 174.382812 368.964844 162.425781 362.460938 C 157.46875 359.796875 152.882812 356.609375 148.660156 352.890625 C 143.410156 348.230469 138.46875 343.265625 133.835938 337.992188 C 131.203125 334.992188 128.96875 331.71875 127.132812 328.171875 C 126.265625 326.519531 125.476562 324.824219 124.679688 323.136719 C 122.789062 319.140625 121.53125 314.835938 118.890625 311.175781 C 116.984375 306.652344 115.398438 302.023438 114.140625 297.28125 C 113.128906 293.683594 112.589844 290.019531 112.515625 286.289062 C 112.582031 280.214844 112.515625 274.109375 113.117188 268.082031 C 113.886719 260.867188 115.363281 253.804688 117.542969 246.886719 C 121.203125 235.261719 125.941406 224.097656 131.757812 213.390625 C 135.1875 207.023438 138.539062 200.605469 142.585938 194.582031 C 146.167969 189.113281 150.054688 183.867188 154.246094 178.847656 C 155.304688 177.601562 156.261719 176.269531 157.320312 175.03125 C 157.867188 174.414062 158.285156 173.71875 158.578125 172.949219 C 158.867188 172.175781 159.011719 171.378906 159.007812 170.554688 C 159.058594 166.117188 159.1875 161.6875 159.296875 157.242188 C 159.445312 150.707031 159.183594 144.164062 160.117188 137.65625 C 160.238281 136.261719 160.269531 134.867188 160.210938 133.46875 C 160.402344 122.253906 160.578125 111.039062 160.8125 99.824219 C 160.890625 95.867188 160.773438 91.890625 161.488281 87.949219 C 161.601562 87.019531 161.644531 86.089844 161.613281 85.15625 C 161.78125 77.914062 161.945312 70.671875 162.109375 63.425781 C 162.179688 60.394531 162.1875 57.378906 162.917969 54.375 C 163.359375 52.582031 163.277344 50.667969 163.414062 48.808594 C 163.355469 48.464844 163.21875 48.152344 163.007812 47.875 C 162.796875 47.597656 162.535156 47.382812 162.21875 47.234375 C 160.464844 46.59375 158.699219 46.003906 156.949219 45.339844 C 154.84375 44.578125 152.886719 43.542969 151.078125 42.226562 C 149.265625 40.90625 147.679688 39.363281 146.308594 37.59375 C 144.851562 35.722656 143.898438 33.625 143.449219 31.296875 C 142.6875 27.390625 141.855469 23.519531 142.25 19.511719 C 142.71875 14.777344 144.195312 10.40625 147.242188 6.648438 C 148.167969 5.425781 149.265625 4.390625 150.539062 3.539062 C 151.8125 2.691406 153.1875 2.070312 154.671875 1.683594 C 160.46875 0.21875 166.191406 0.160156 171.90625 2.132812 C 173.910156 2.847656 175.683594 3.9375 177.226562 5.398438 C 181.871094 9.632812 184.671875 14.894531 186.078125 20.949219 C 186.828125 24.171875 187.277344 27.359375 186.246094 30.625 C 185.863281 31.894531 186.554688 32.863281 187.628906 33.539062 C 187.832031 33.664062 188.011719 33.8125 188.230469 33.945312 C 197.085938 40.011719 205.992188 46.019531 214.863281 52.105469 C 227.179688 60.566406 239.480469 69.058594 251.761719 77.582031 C 260.398438 83.5625 268.984375 89.644531 277.597656 95.664062 C 278.9375 96.601562 280.308594 97.5 281.667969 98.394531 C 282.066406 98.660156 282.5 98.820312 282.972656 98.878906 C 283.445312 98.933594 283.90625 98.882812 284.355469 98.726562 C 294.53125 95.269531 305.117188 93.304688 315.644531 91.289062 C 320.667969 90.332031 325.742188 89.414062 330.902344 89.210938 C 333.222656 89.121094 335.535156 88.71875 337.863281 88.503906 C 339.949219 88.304688 342.050781 88.054688 344.144531 88.03125 C 349.289062 87.988281 354.453125 87.730469 359.558594 88.140625 C 370.277344 89.007812 380.804688 90.816406 390.960938 94.671875 C 404.34375 99.734375 414.730469 108.425781 422.832031 119.96875 C 425.304688 123.636719 428.027344 127.113281 430.988281 130.398438 C 435.019531 134.734375 438.011719 139.695312 439.96875 145.28125 C 443.269531 154.285156 445.867188 163.492188 447.753906 172.894531 Z M 444.3125 194.527344 C 444.097656 188.164062 444.078125 181.65625 442.773438 175.179688 C 441.804688 170.394531 440.378906 165.699219 439.265625 160.949219 C 439.226562 160.746094 439.011719 160.578125 438.878906 160.402344 C 438.78125 160.609375 438.597656 160.824219 438.597656 161.035156 C 438.554688 163.359375 438.523438 165.695312 438.53125 168.027344 C 438.582031 173.402344 438.132812 178.738281 437.179688 184.03125 C 435.863281 191.160156 433.847656 198.085938 431.128906 204.808594 C 427.179688 214.316406 422.566406 223.484375 417.285156 232.320312 C 412.179688 240.980469 406.558594 249.289062 399.632812 256.652344 C 397.238281 259.199219 394.917969 261.832031 392.578125 264.425781 C 392.226562 264.753906 391.988281 265.144531 391.863281 265.605469 C 391.734375 266.066406 391.738281 266.527344 391.871094 266.988281 C 392.882812 270.085938 393.941406 273.160156 395.007812 276.234375 C 395.207031 276.832031 395.648438 276.980469 396.101562 276.609375 C 397.015625 275.894531 397.886719 275.132812 398.71875 274.324219 C 405.792969 267.148438 412 259.265625 418.152344 251.328125 C 421.957031 246.414062 422.011719 245.808594 421.214844 239.726562 C 421.035156 238.34375 420.617188 237 420.371094 235.617188 C 420.183594 234.464844 420.09375 233.308594 420.097656 232.140625 C 420.175781 231.671875 420.429688 231.347656 420.871094 231.160156 C 421.34375 231.144531 421.742188 231.3125 422.066406 231.65625 C 423.15625 232.925781 423.84375 234.382812 424.125 236.03125 C 424.382812 237.160156 424.527344 238.3125 424.757812 239.457031 C 424.863281 239.613281 425.007812 239.691406 425.195312 239.691406 C 425.433594 239.671875 425.632812 239.578125 425.796875 239.402344 C 426.804688 237.839844 427.746094 236.234375 428.789062 234.683594 C 429.332031 233.929688 429.929688 233.21875 430.582031 232.554688 C 430.679688 232.433594 431.039062 232.488281 431.246094 232.554688 C 431.457031 232.621094 431.726562 232.789062 431.761719 232.941406 C 431.878906 233.359375 431.878906 233.773438 431.761719 234.1875 C 430.34375 237.125 428.941406 240.078125 427.375 242.929688 C 426.21875 245.023438 425.320312 247.117188 425.617188 249.5625 C 425.671875 250.496094 425.683594 251.425781 425.644531 252.355469 C 425.667969 255.195312 425.171875 257.933594 424.148438 260.582031 C 424.082031 260.765625 423.730469 261.046875 423.640625 261 C 423.300781 260.839844 422.773438 260.574219 422.753906 260.324219 C 422.621094 258.238281 422.605469 256.136719 422.492188 254.042969 C 422.492188 253.644531 422.25 252.957031 422.054688 252.9375 C 421.570312 252.894531 421.152344 253.042969 420.804688 253.378906 C 419.714844 254.578125 418.683594 255.867188 417.695312 257.167969 C 411.609375 265.152344 405.515625 273.136719 398.316406 280.1875 C 397.980469 280.515625 397.6875 280.878906 397.382812 281.226562 C 397.050781 281.566406 396.808594 281.960938 396.660156 282.414062 C 396.515625 282.867188 396.476562 283.328125 396.546875 283.800781 C 396.964844 286.316406 397.460938 288.828125 397.929688 291.339844 C 398.046875 291.976562 398.429688 292.140625 398.957031 291.734375 C 402.484375 288.984375 405.355469 285.625 408.042969 282.082031 C 408.601562 281.347656 409.144531 280.582031 410.078125 280.257812 C 410.289062 280.1875 410.675781 280.140625 410.730469 280.257812 C 410.992188 280.59375 411.414062 281.101562 411.328125 281.375 C 410.359375 284.03125 408.640625 286.25 406.863281 288.410156 C 405.222656 290.390625 403.46875 292.273438 401.84375 294.261719 C 397.867188 299.121094 397.652344 297.351562 397.367188 304.734375 C 397.367188 305.425781 397.085938 306.109375 397 306.800781 C 396.792969 308.648438 396.558594 310.503906 396.445312 312.363281 C 396.476562 313.054688 396.597656 313.730469 396.796875 314.390625 C 397.796875 314.285156 398.390625 313.566406 398.988281 312.871094 C 399.441406 312.347656 399.878906 311.796875 400.308594 311.238281 C 404.589844 305.695312 408.578125 299.949219 412.28125 294.003906 C 417.253906 286.101562 422.070312 278.105469 425.871094 269.539062 C 429.097656 262.285156 432.175781 254.984375 434.765625 247.476562 C 437.578125 239.320312 440.363281 231.144531 441.441406 222.523438 C 442.523438 219.140625 442.207031 215.558594 442.898438 212.136719 C 444.03125 206.359375 443.949219 200.507812 444.3125 194.527344 Z M 435.761719 517.683594 C 435.761719 515.824219 435.761719 513.953125 435.761719 512.085938 C 435.761719 511.160156 435.671875 510.230469 435.605469 509.296875 C 435.550781 508.507812 434.84375 507.90625 434.269531 508.175781 C 428.339844 510.917969 422.300781 513.402344 415.96875 515.023438 C 408.054688 517.042969 400.195312 519.210938 392.273438 521.140625 C 385.257812 522.851562 378.148438 524.195312 371 525.226562 C 365.933594 525.96875 360.90625 527.132812 355.738281 527.15625 C 351.621094 528.191406 347.402344 528.03125 343.207031 528.191406 C 333.628906 528.558594 324.054688 528.347656 314.476562 528.152344 C 308.875 528.042969 303.273438 528.226562 297.71875 527.222656 C 296.792969 527.082031 295.859375 527.03125 294.917969 527.066406 C 285.054688 527.179688 275.460938 524.988281 265.773438 523.636719 C 253.246094 520.757812 240.957031 517.15625 229.425781 511.351562 C 226.71875 509.988281 224 508.648438 221.285156 507.296875 C 220.800781 507.050781 219.804688 507.707031 219.738281 508.324219 C 219.292969 512.257812 218.800781 516.1875 218.433594 520.136719 C 218.152344 523.125 218.046875 526.1875 217.871094 529.214844 C 217.824219 529.8125 217.9375 530.378906 218.203125 530.917969 C 218.472656 531.453125 218.859375 531.882812 219.363281 532.207031 C 220.660156 533.207031 222.035156 534.082031 223.492188 534.832031 C 227.082031 536.464844 230.757812 538.023438 234.457031 539.429688 C 245.597656 543.667969 257.039062 546.824219 268.777344 548.898438 C 273.128906 549.667969 277.453125 550.769531 281.941406 550.769531 C 282.648438 550.75 283.34375 550.832031 284.027344 551.007812 C 287.203125 551.925781 290.484375 551.90625 293.746094 552.105469 C 294.914062 552.097656 296.078125 552.179688 297.234375 552.347656 C 302.070312 553.378906 306.980469 553.28125 311.875 553.515625 C 314.667969 553.640625 317.464844 553.789062 320.253906 554.113281 C 322.578125 554.382812 324.90625 554.40625 327.238281 554.1875 C 329.09375 554.007812 330.960938 553.910156 332.824219 553.839844 C 337.25 553.675781 341.6875 553.570312 346.121094 553.394531 C 347.996094 553.417969 349.855469 553.28125 351.707031 552.976562 C 356.960938 551.835938 362.339844 551.683594 367.636719 550.84375 C 371.792969 550.179688 375.910156 549.425781 379.972656 548.402344 C 383.816406 547.445312 387.605469 546.265625 391.457031 545.363281 C 399.398438 543.441406 407.179688 541.011719 414.800781 538.074219 C 420.269531 536.027344 425.707031 533.796875 430.59375 530.609375 C 436.078125 527.019531 435.8125 528.621094 435.570312 521.925781 C 435.515625 520.523438 435.570312 519.121094 435.570312 517.738281 Z M 430.761719 169.664062 C 430.78125 169.429688 430.769531 169.199219 430.734375 168.964844 C 430.015625 162.953125 429.601562 156.890625 428.171875 150.992188 C 427.242188 147.148438 426.601562 143.21875 424.835938 139.628906 C 421.113281 132.085938 417.058594 124.742188 411.324219 118.46875 C 403.8125 110.226562 394.949219 103.996094 384.234375 100.523438 C 372.175781 96.59375 359.808594 94.757812 347.125 95.015625 C 343.109375 95.15625 337.722656 94.914062 332.414062 96.015625 C 331.261719 96.210938 330.101562 96.3125 328.933594 96.316406 C 324.019531 96.464844 319.230469 97.648438 314.402344 98.359375 C 310.023438 99.007812 305.734375 100.15625 301.429688 101.207031 C 298.269531 101.964844 295.140625 102.871094 291.992188 103.726562 C 291.871094 103.738281 291.761719 103.777344 291.664062 103.847656 C 291.566406 103.914062 291.488281 104 291.429688 104.105469 C 291.371094 104.210938 291.34375 104.324219 291.34375 104.445312 C 291.34375 104.5625 291.367188 104.675781 291.421875 104.785156 C 291.507812 104.988281 291.566406 105.257812 291.730469 105.382812 C 294.914062 107.746094 298.042969 110.167969 301.304688 112.410156 C 324.777344 128.503906 348.273438 144.566406 371.792969 160.605469 C 380.46875 166.5 389.359375 172.109375 398.179688 177.789062 C 403.277344 181.070312 408.460938 184.222656 413.578125 187.480469 C 416.925781 189.613281 420.210938 191.835938 423.519531 194.011719 C 423.710938 194.144531 423.925781 194.242188 424.121094 194.359375 C 424.910156 194.839844 426.226562 194.480469 426.511719 193.707031 C 429.421875 185.921875 429.925781 177.769531 430.761719 169.664062 Z M 430.253906 500.941406 C 430.359375 500.898438 430.460938 500.84375 430.554688 500.773438 C 430.648438 500.703125 430.730469 500.625 430.800781 500.535156 C 430.875 500.445312 430.933594 500.347656 430.980469 500.242188 C 431.027344 500.136719 431.0625 500.023438 431.082031 499.910156 C 431.101562 499.796875 431.105469 499.683594 431.09375 499.566406 C 431.085938 499.449219 431.058594 499.339844 431.019531 499.230469 C 430.984375 499.121094 430.929688 499.019531 430.867188 498.921875 C 430.800781 498.828125 430.722656 498.742188 430.636719 498.664062 C 424.171875 492.921875 418.386719 486.546875 412.8125 479.96875 C 412.359375 479.429688 411.886719 478.925781 411.40625 478.40625 C 409.121094 475.914062 408.277344 475.710938 405.332031 476.894531 C 401.664062 478.363281 398 479.882812 394.300781 481.277344 C 389.976562 483.023438 385.527344 484.375 380.960938 485.328125 C 379.164062 485.667969 377.308594 486.027344 375.484375 486.390625 C 375.03125 486.480469 374.59375 486.644531 374.136719 486.757812 C 373.929688 486.84375 373.742188 486.964844 373.582031 487.121094 C 373.417969 487.277344 373.285156 487.457031 373.1875 487.664062 C 373.09375 487.867188 373.035156 488.082031 373.015625 488.304688 C 373 488.53125 373.019531 488.753906 373.085938 488.96875 C 376.328125 495.929688 379.511719 502.917969 381.320312 510.433594 C 381.429688 510.890625 381.644531 511.289062 381.964844 511.632812 C 382.40625 512.007812 382.878906 512.339844 383.382812 512.625 C 383.945312 512.671875 384.507812 512.671875 385.066406 512.625 C 388.945312 511.882812 392.824219 511.121094 396.703125 510.339844 C 403.777344 508.914062 410.675781 506.824219 417.648438 504.921875 C 421.46875 503.875 425.261719 502.761719 428.992188 501.445312 C 429.410156 501.308594 429.824219 501.117188 430.253906 500.941406 Z M 422.640625 204.886719 C 422.863281 204.464844 422.957031 204.011719 422.929688 203.535156 C 422.808594 202.882812 422.640625 202.050781 422.175781 201.699219 C 421.039062 200.875 419.84375 200.15625 418.582031 199.546875 C 413.214844 196.710938 407.910156 193.757812 402.667969 190.683594 C 390.382812 183.503906 378.261719 176 366.453125 168.019531 C 358.324219 162.527344 350.214844 157.003906 342.125 151.460938 C 332.683594 145 323.214844 138.5625 313.820312 132.039062 C 305.574219 126.308594 297.367188 120.515625 289.210938 114.660156 C 285.984375 112.363281 282.960938 109.765625 279.371094 108.007812 C 278.425781 107.554688 277.136719 107.960938 267.398438 111.429688 C 265.003906 112.289062 262.574219 113.222656 260.179688 114.125 C 256.046875 115.722656 251.957031 117.441406 247.792969 118.945312 C 239.414062 121.972656 231.722656 126.445312 223.480469 129.710938 C 219.714844 132.050781 215.921875 134.335938 212.191406 136.738281 C 208.660156 139.011719 205.191406 141.394531 201.71875 143.753906 C 199.402344 145.328125 197.050781 146.859375 194.835938 148.582031 C 188.011719 153.898438 181.496094 159.5625 175.085938 165.328125 C 172.65625 167.511719 170.394531 169.886719 168.023438 172.140625 C 167.425781 172.707031 166.972656 173.371094 166.65625 174.132812 C 166.34375 174.894531 166.203125 175.683594 166.226562 176.507812 C 166.148438 180.472656 166.304688 184.492188 165.773438 188.402344 C 165.125 193.296875 165.097656 198.175781 164.953125 203.074219 C 164.832031 207.511719 164.886719 211.980469 164.355469 216.371094 C 163.882812 220.328125 163.707031 224.269531 163.613281 228.238281 C 163.457031 234.308594 163.320312 240.382812 163.152344 246.453125 C 163.109375 248.085938 162.960938 249.714844 162.851562 251.347656 C 162.683594 253.902344 162.390625 256.464844 162.367188 259.027344 C 162.308594 268.367188 162.3125 277.710938 162.367188 287.058594 C 162.316406 289.164062 162.421875 291.257812 162.691406 293.34375 C 163.0625 296.125 163.242188 298.914062 163.230469 301.71875 C 163.335938 312.707031 163.46875 323.695312 163.628906 334.683594 C 163.628906 335.386719 163.628906 336.085938 163.671875 336.785156 C 163.683594 337.074219 163.738281 337.355469 163.84375 337.628906 C 163.945312 337.898438 164.089844 338.148438 164.277344 338.371094 C 164.460938 338.597656 164.675781 338.785156 164.921875 338.941406 C 165.171875 339.09375 165.433594 339.207031 165.71875 339.273438 C 166.144531 339.46875 166.582031 339.625 167.035156 339.75 C 171.390625 340.511719 175.679688 341.738281 180.167969 341.730469 C 181.808594 341.65625 183.441406 341.753906 185.0625 342.023438 C 189.449219 342.945312 193.882812 342.8125 198.324219 342.957031 C 201.59375 342.859375 204.910156 343.058594 208.117188 342.574219 C 212.054688 342.054688 216.011719 341.75 219.984375 341.664062 C 225.371094 341.445312 230.632812 340.257812 235.996094 339.941406 C 242.8125 338.386719 249.683594 337.066406 256.421875 335.15625 C 262.945312 333.308594 269.316406 331.046875 275.707031 328.824219 C 286.292969 325.128906 296.527344 320.574219 306.6875 315.832031 C 308.375 315.042969 310.023438 314.164062 311.660156 313.261719 C 322.695312 307.148438 333.589844 300.796875 343.917969 293.523438 C 350.226562 289.09375 356.632812 284.792969 362.808594 280.191406 C 372.574219 272.925781 381.492188 264.679688 389.960938 255.945312 C 395.496094 250.21875 400.472656 244.035156 404.882812 237.40625 C 410.257812 229.195312 415.148438 220.703125 419.550781 211.933594 C 420.75 209.660156 421.640625 207.242188 422.640625 204.878906 Z M 403.542969 472.394531 C 404.140625 472.078125 404.445312 471.132812 404.058594 470.671875 C 401.949219 468.179688 399.867188 465.65625 397.742188 463.183594 C 394.835938 459.84375 391.890625 456.523438 388.949219 453.210938 C 387.398438 451.464844 385.832031 449.730469 384.253906 448.019531 C 383.4375 447.140625 382.875 447.085938 381.859375 447.929688 C 376.574219 452.320312 370.617188 455.417969 363.988281 457.222656 C 363.550781 457.398438 363.125 457.597656 362.710938 457.820312 C 362.488281 457.890625 362.289062 458 362.109375 458.148438 C 361.929688 458.296875 361.785156 458.476562 361.679688 458.683594 C 361.570312 458.886719 361.503906 459.109375 361.484375 459.339844 C 361.464844 459.570312 361.488281 459.800781 361.558594 460.023438 C 363.464844 465.277344 365.351562 470.546875 367.328125 475.789062 C 368 477.527344 368.796875 479.210938 369.71875 480.835938 C 370 481.34375 370.816406 481.554688 371.1875 481.773438 C 371.746094 481.785156 372.300781 481.757812 372.855469 481.691406 C 383.207031 479.730469 393.164062 476.480469 403.003906 472.796875 C 403.191406 472.671875 403.371094 472.539062 403.542969 472.394531 Z M 389.027344 302.105469 C 391.636719 299.714844 393.085938 297.082031 392.621094 294.988281 C 392.363281 291.878906 392.242188 290.257812 392.085938 288.636719 C 392.027344 288.402344 391.910156 288.203125 391.726562 288.039062 C 391.652344 287.957031 391.566406 287.894531 391.464844 287.847656 C 391.363281 287.800781 391.257812 287.78125 391.148438 287.78125 C 391.035156 287.78125 390.929688 287.800781 390.828125 287.847656 C 390.726562 287.894531 390.640625 287.957031 390.566406 288.039062 C 387.460938 290.839844 384.492188 293.8125 381.253906 296.449219 C 376.207031 300.550781 370.972656 304.433594 365.835938 308.410156 C 364.921875 309.121094 364.054688 309.886719 363.238281 310.707031 C 362.90625 311.066406 362.746094 311.488281 362.765625 311.976562 C 363.183594 314.71875 363.808594 317.410156 364.644531 320.054688 C 364.792969 320.570312 365.921875 320.894531 366.441406 320.625 C 366.867188 320.457031 367.28125 320.257812 367.679688 320.027344 C 375.132812 314.433594 382.207031 308.410156 389.027344 302.105469 Z M 390.902344 321.992188 C 391.417969 321.503906 391.789062 320.917969 392.019531 320.246094 C 392.246094 319.570312 392.304688 318.882812 392.195312 318.175781 C 391.980469 316.5625 391.96875 314.925781 391.871094 313.304688 C 391.949219 313.296875 392.027344 313.296875 392.105469 313.304688 C 392.105469 311.902344 392.105469 310.503906 392.105469 309.117188 C 392.136719 308.417969 392.105469 307.722656 392.015625 307.027344 C 391.863281 306.640625 391.613281 306.332031 391.261719 306.101562 C 391.171875 306.023438 390.789062 306.175781 390.664062 306.316406 C 383.042969 313.542969 375.261719 320.59375 366.824219 326.890625 C 366.359375 327.261719 366.003906 327.714844 365.753906 328.253906 C 365.507812 328.789062 365.394531 329.355469 365.417969 329.949219 C 365.332031 332.980469 365.316406 336.019531 365.089844 339.050781 C 364.90625 340.199219 364.5625 341.296875 364.058594 342.347656 C 363.855469 342.773438 363.546875 343.101562 363.132812 343.328125 C 362.714844 343.511719 362.277344 343.601562 361.820312 343.589844 C 361.710938 343.589844 361.539062 343.230469 361.484375 342.992188 C 360.929688 340.921875 361.367188 338.804688 361.257812 336.730469 C 361.199219 335.535156 361.160156 334.402344 361.097656 333.230469 C 361.066406 332.632812 360.0625 331.953125 359.601562 332.226562 C 352.382812 336.511719 345.167969 340.808594 337.957031 345.117188 C 337.789062 345.269531 337.703125 345.457031 337.695312 345.683594 C 337.667969 345.917969 337.722656 346.132812 337.863281 346.324219 C 338.371094 346.796875 338.933594 347.214844 339.472656 347.644531 C 340.375 348.371094 341.328125 349.050781 342.171875 349.847656 C 342.433594 350.203125 342.550781 350.601562 342.519531 351.042969 C 342.519531 351.535156 341.40625 352.238281 340.910156 352.171875 C 340.410156 352.109375 340.003906 352.035156 339.554688 351.953125 C 337.222656 351.484375 335.210938 350.296875 333.152344 349.195312 C 332.523438 348.855469 331.855469 348.679688 331.140625 348.667969 C 330.429688 348.652344 329.75 348.804688 329.113281 349.117188 C 319.683594 353.167969 310.175781 357.011719 300.4375 360.265625 C 300.257812 360.324219 300.125 360.523438 299.964844 360.648438 C 300.273438 360.992188 300.621094 361.289062 301.011719 361.535156 C 301.847656 361.957031 302.726562 362.261719 303.644531 362.449219 C 305.949219 362.800781 308.230469 363.246094 310.511719 363.757812 C 320.480469 365.984375 320.5 365.921875 330.058594 362.007812 C 331.355469 361.480469 332.613281 360.859375 333.898438 360.289062 C 343.726562 355.949219 353.140625 350.785156 362.59375 345.703125 C 367.738281 342.9375 372.738281 339.914062 376.824219 335.625 C 377.304688 335.121094 377.945312 334.773438 378.441406 334.285156 C 382.613281 330.195312 386.785156 326.113281 390.925781 321.992188 Z M 390.507812 282.339844 C 390.972656 281.792969 391.199219 281.160156 391.195312 280.445312 C 391.128906 279.585938 390.976562 278.746094 390.726562 277.921875 C 390.480469 275.0625 389.882812 272.28125 388.933594 269.578125 C 388.71875 268.976562 387.84375 268.839844 387.214844 269.347656 C 386.585938 269.859375 386.109375 270.199219 385.605469 270.675781 C 377.757812 278.308594 369.316406 285.214844 360.28125 291.394531 C 359.683594 291.757812 359.171875 292.222656 358.757812 292.789062 C 358.332031 293.359375 358.132812 294 358.15625 294.707031 C 358.710938 297.910156 359.5625 301.035156 360.714844 304.074219 C 360.8125 304.28125 360.949219 304.460938 361.125 304.609375 C 361.296875 304.761719 361.496094 304.871094 361.714844 304.9375 C 361.933594 305.007812 362.15625 305.03125 362.382812 305.011719 C 362.613281 304.988281 362.828125 304.921875 363.03125 304.808594 C 363.226562 304.691406 363.4375 304.59375 363.628906 304.457031 C 370.347656 299.867188 376.785156 294.90625 382.9375 289.578125 C 385.636719 287.308594 388.078125 284.808594 390.53125 282.316406 Z M 375.683594 442.472656 C 377.589844 440.785156 378.285156 440.160156 376.878906 437.050781 C 375.945312 434.917969 375.347656 432.648438 374.582031 430.441406 C 374.347656 429.78125 374.058594 429.140625 373.789062 428.496094 C 373.519531 427.851562 372.640625 427.355469 372.121094 427.585938 C 371.484375 427.886719 370.839844 428.132812 370.210938 428.4375 C 366.222656 430.414062 362.0625 431.921875 357.734375 432.960938 C 353.402344 433.996094 349.011719 434.539062 344.558594 434.585938 C 340.371094 434.636719 336.148438 434.585938 331.941406 434.441406 C 322.535156 434.0625 313.4375 432.234375 304.859375 428.171875 C 304.699219 428.113281 304.535156 428.082031 304.363281 428.085938 C 304.191406 428.085938 304.023438 428.121094 303.867188 428.183594 C 303.707031 428.25 303.566406 428.34375 303.441406 428.460938 C 303.316406 428.578125 303.21875 428.71875 303.148438 428.871094 C 302.449219 431.5625 301.753906 434.253906 301.132812 436.976562 C 301.066406 437.464844 301.191406 437.894531 301.507812 438.269531 C 302.28125 439.148438 303.132812 439.945312 304.058594 440.660156 C 308.988281 444.304688 314.5625 446.640625 320.285156 448.757812 C 327.371094 451.378906 334.601562 452.945312 341.089844 452.6875 C 350.210938 452.652344 356.503906 451.546875 364.183594 449.011719 C 368.472656 447.628906 372.304688 445.449219 375.683594 442.472656 Z M 374.378906 513.988281 C 374.683594 513.8125 374.914062 513.566406 375.0625 513.246094 C 375.214844 512.929688 375.257812 512.59375 375.195312 512.246094 C 373.550781 507.894531 371.917969 503.519531 370.230469 499.179688 C 369.21875 496.566406 368.132812 493.980469 367.046875 491.402344 C 366.128906 489.269531 365.417969 488.777344 363.375 488.910156 C 361.039062 488.988281 358.714844 489.195312 356.402344 489.539062 C 353.40625 490.066406 350.382812 490.335938 347.335938 490.339844 C 342.433594 490.386719 337.519531 490.265625 332.617188 490.382812 C 326.257812 490.53125 320.050781 489.316406 313.808594 488.503906 C 310.347656 488.054688 306.953125 487.152344 303.527344 486.457031 C 303.058594 486.347656 302.597656 486.375 302.148438 486.535156 C 301.695312 486.699219 301.324219 486.972656 301.035156 487.355469 C 298.976562 489.898438 296.972656 492.472656 294.9375 495.039062 C 291.609375 499.257812 288.503906 503.640625 284.761719 507.546875 C 282.367188 510.070312 280.148438 512.808594 277.898438 515.488281 C 277.515625 515.9375 277.683594 516.46875 278.160156 516.566406 C 282.5 517.425781 286.832031 518.269531 291.328125 518.300781 C 299.742188 518.355469 308.152344 518.570312 316.566406 518.71875 L 316.566406 518.484375 C 319.835938 518.484375 323.109375 518.484375 326.382812 518.484375 C 339.945312 518.429688 353.453125 517.71875 366.878906 515.621094 C 369.1875 515.261719 371.46875 514.78125 373.730469 514.214844 C 373.941406 514.15625 374.160156 514.058594 374.378906 513.988281 Z M 365.320312 425.171875 C 373.980469 422 372.535156 423.757812 370.109375 415.1875 C 369.410156 412.722656 368.714844 410.273438 368.007812 407.808594 C 367.878906 407.367188 367.699219 406.933594 367.542969 406.5 C 367.457031 406.289062 367.335938 406.105469 367.179688 405.941406 C 367.023438 405.78125 366.839844 405.65625 366.636719 405.5625 C 366.429688 405.472656 366.214844 405.425781 365.988281 405.417969 C 365.761719 405.410156 365.546875 405.445312 365.332031 405.523438 C 361.6875 407.058594 358.089844 408.734375 354.367188 410.03125 C 351.933594 410.835938 349.4375 411.375 346.886719 411.648438 C 342.96875 412.148438 339.011719 412.378906 335.078125 412.71875 C 334.84375 412.722656 334.609375 412.710938 334.378906 412.683594 C 330.203125 412.359375 326.03125 412.039062 321.851562 411.726562 C 318.367188 411.402344 314.976562 410.65625 311.675781 409.488281 C 310.796875 409.183594 309.949219 408.792969 309.078125 408.453125 C 308.746094 408.335938 308.414062 408.339844 308.085938 408.464844 C 307.753906 408.59375 307.503906 408.808594 307.332031 409.117188 C 306.980469 410.09375 305.070312 419.476562 304.992188 420.671875 C 305.03125 421.136719 305.1875 421.558594 305.453125 421.941406 C 305.722656 422.320312 306.066406 422.613281 306.488281 422.808594 C 311.234375 424.792969 316.152344 426.15625 321.242188 426.898438 C 327.898438 427.878906 334.570312 429.128906 341.238281 428.65625 C 345.328125 428.941406 349.40625 428.789062 353.464844 428.199219 C 357.527344 427.613281 361.476562 426.601562 365.320312 425.171875 Z M 364.394531 400.410156 C 364.683594 400.21875 364.910156 399.96875 365.070312 399.660156 C 365.234375 399.355469 365.3125 399.027344 365.308594 398.679688 C 364.222656 393.675781 362.847656 388.75 361.191406 383.902344 C 361.136719 383.742188 361.050781 383.601562 360.933594 383.480469 C 360.816406 383.355469 360.679688 383.261719 360.523438 383.199219 C 360.367188 383.132812 360.203125 383.101562 360.035156 383.105469 C 359.867188 383.109375 359.703125 383.148438 359.550781 383.21875 C 354.734375 385.613281 349.800781 387.707031 344.445312 388.601562 C 341.917969 389.023438 339.371094 389.332031 336.863281 389.851562 C 331.53125 390.917969 326.195312 390.925781 320.859375 389.882812 C 318.117188 389.378906 315.328125 389.050781 312.664062 388.171875 C 312.3125 388.15625 311.980469 388.234375 311.671875 388.40625 C 311.363281 388.582031 311.125 388.824219 310.960938 389.136719 C 310.394531 392.582031 309.835938 396.027344 309.28125 399.476562 C 309.210938 399.9375 309.195312 400.410156 309.152344 400.875 C 309.027344 402.425781 309.679688 403.394531 311.367188 403.921875 C 314.925781 405.113281 318.582031 405.792969 322.332031 405.960938 C 324.664062 406.015625 327.003906 405.960938 329.339844 405.960938 L 329.339844 406.121094 C 332.839844 406.015625 336.378906 406.175781 339.835938 405.738281 C 345.820312 404.980469 351.859375 404.175781 357.636719 402.179688 C 359.617188 401.503906 361.6875 401.089844 363.710938 400.558594 C 363.9375 400.515625 364.171875 400.480469 364.394531 400.410156 Z M 360.980469 483.425781 C 362.328125 483.125 362.914062 482.175781 362.496094 480.902344 C 360.460938 474.730469 358.417969 468.546875 356.367188 462.359375 C 356.222656 461.921875 355.984375 461.511719 355.804688 461.082031 C 355.648438 460.632812 355.378906 460.273438 354.992188 460 C 354.605469 459.722656 354.179688 459.585938 353.703125 459.585938 C 351.621094 459.746094 349.515625 459.835938 347.457031 460.183594 C 343.519531 460.832031 339.585938 460.796875 335.660156 460.082031 C 332.464844 459.484375 329.164062 459.542969 326.023438 458.542969 C 325.519531 458.375 324.742188 458.898438 324.15625 459.21875 C 323.773438 459.492188 323.457031 459.824219 323.203125 460.21875 C 318.449219 466.546875 313.460938 472.6875 308.242188 478.640625 C 307.824219 479.199219 307.476562 479.796875 307.195312 480.433594 C 306.890625 480.984375 307.050781 481.355469 307.625 481.511719 C 313.246094 483.042969 319.027344 483.746094 324.773438 484.410156 C 329.847656 485.011719 335 484.902344 339.066406 485.058594 C 344.3125 484.847656 348.496094 484.617188 352.679688 484.53125 C 355.484375 484.441406 358.253906 484.070312 360.980469 483.425781 Z M 360.113281 325.039062 C 360.339844 324.6875 360.511719 324.308594 360.628906 323.90625 C 360.328125 321.515625 360.066406 319.1875 359.773438 316.886719 C 359.683594 316.203125 359.46875 315.535156 359.34375 314.863281 C 359.28125 314.699219 359.1875 314.558594 359.0625 314.4375 C 358.933594 314.320312 358.789062 314.234375 358.621094 314.183594 C 358.453125 314.132812 358.28125 314.125 358.109375 314.15625 C 357.9375 314.183594 357.78125 314.25 357.644531 314.355469 C 346.59375 321.695312 335.121094 328.296875 323.472656 334.648438 C 322.714844 335.066406 322.605469 335.78125 323.214844 336.246094 C 325.246094 337.808594 327.261719 339.367188 329.316406 340.894531 C 329.769531 341.277344 330.296875 341.507812 330.886719 341.585938 C 331.480469 341.660156 332.042969 341.570312 332.582031 341.3125 C 341.644531 337.039062 350.320312 332.09375 358.613281 326.472656 C 359.1875 326.070312 359.6875 325.59375 360.113281 325.039062 Z M 358.378906 378.609375 C 358.675781 378.429688 358.910156 378.1875 359.078125 377.882812 C 359.246094 377.578125 359.328125 377.253906 359.324219 376.90625 C 358.636719 374.6875 357.824219 372.503906 357.257812 370.257812 C 356.308594 366.425781 355.613281 362.546875 355.171875 358.621094 C 355.09375 358.023438 354.703125 357.820312 354.152344 358.050781 L 349.179688 360.167969 C 345.492188 362.007812 341.996094 363.816406 338.40625 365.550781 C 336.109375 366.664062 333.773438 367.71875 331.402344 368.664062 C 327.945312 370.027344 324.457031 371.289062 320.960938 372.550781 C 318.769531 373.332031 316.550781 374.015625 314.375 374.769531 C 312.953125 375.261719 311.980469 376.167969 311.980469 377.800781 C 311.980469 378.027344 311.980469 378.261719 311.980469 378.496094 C 311.878906 382.417969 311.730469 383.28125 316.128906 384.152344 C 318.859375 384.707031 321.609375 385.0625 324.390625 385.222656 C 330.726562 385.554688 336.878906 384.351562 343.039062 383.089844 C 348.0625 382.066406 352.792969 380.097656 357.773438 378.902344 C 357.984375 378.816406 358.183594 378.71875 358.378906 378.609375 Z M 357.027344 308.574219 C 357.292969 308.1875 357.492188 307.769531 357.625 307.324219 C 357.003906 303.878906 356.058594 300.527344 354.792969 297.269531 C 354.589844 296.796875 353.460938 296.515625 352.949219 296.820312 C 352.148438 297.292969 351.347656 297.765625 350.554688 298.261719 C 345.257812 301.675781 340.035156 305.230469 334.648438 308.496094 C 326.460938 313.445312 318.253906 318.394531 309.582031 322.484375 C 305.394531 324.476562 301.066406 326.304688 296.808594 328.207031 C 285.933594 333.085938 274.777344 337.203125 263.339844 340.558594 C 262.625 340.699219 262.082031 341.085938 261.71875 341.71875 C 261.433594 342.269531 261.882812 343.285156 262.917969 343.972656 C 265.449219 345.636719 268.015625 347.246094 270.589844 348.84375 C 270.984375 349.101562 271.414062 349.265625 271.882812 349.332031 C 272.347656 349.398438 272.808594 349.359375 273.257812 349.21875 C 275.054688 348.691406 276.886719 348.316406 278.644531 347.699219 C 284.367188 345.683594 290.113281 343.734375 295.75 341.496094 C 300.539062 339.601562 305.136719 337.347656 309.808594 335.21875 C 310.457031 334.941406 311.03125 334.5625 311.539062 334.074219 C 311.851562 333.730469 311.949219 333.332031 311.839844 332.878906 C 310.84375 331.300781 309.703125 329.828125 308.707031 328.25 C 308.390625 327.636719 308.175781 326.988281 308.066406 326.304688 C 308.03125 326.132812 308.207031 325.898438 308.300781 325.707031 C 308.339844 325.589844 308.402344 325.484375 308.492188 325.398438 C 308.582031 325.3125 308.6875 325.25 308.808594 325.21875 C 308.929688 325.183594 309.050781 325.179688 309.171875 325.207031 C 309.292969 325.230469 309.402344 325.285156 309.5 325.367188 C 310.640625 326.15625 311.761719 327 312.867188 327.84375 C 313.976562 328.6875 315.046875 329.605469 316.207031 330.378906 C 316.605469 330.640625 317.042969 330.792969 317.519531 330.839844 C 317.992188 330.886719 318.453125 330.824219 318.894531 330.648438 C 319.339844 330.507812 319.777344 330.34375 320.199219 330.144531 C 332.332031 324.097656 344.070312 317.355469 355.402344 309.917969 C 356.003906 309.539062 356.546875 309.085938 357.027344 308.558594 Z M 324.238281 344.996094 C 324.390625 344.886719 324.382812 344.582031 324.457031 344.398438 C 324.277344 343.992188 324.210938 343.453125 323.898438 343.203125 C 321.902344 341.605469 319.878906 340.042969 317.824219 338.511719 C 317.425781 338.253906 317 338.183594 316.542969 338.304688 C 315.449219 338.699219 314.378906 339.15625 313.335938 339.667969 C 303.664062 344.253906 293.890625 348.636719 283.679688 351.890625 C 282.808594 352.230469 281.976562 352.644531 281.183594 353.128906 C 281.050781 353.128906 280.9375 353.175781 280.84375 353.269531 C 280.75 353.363281 280.703125 353.476562 280.703125 353.609375 C 280.703125 353.742188 280.75 353.855469 280.84375 353.945312 C 280.9375 354.039062 281.050781 354.085938 281.183594 354.085938 C 283.300781 355.03125 285.421875 355.996094 287.570312 356.878906 C 289.132812 357.507812 290.730469 357.601562 292.355469 357.160156 C 293.488281 356.886719 294.589844 356.507812 295.707031 356.191406 C 304.878906 353.519531 313.664062 349.800781 322.46875 346.132812 C 323.105469 345.824219 323.695312 345.445312 324.238281 344.996094 Z M 318.496094 457.898438 C 318.613281 457.699219 318.683594 457.484375 318.707031 457.257812 C 318.730469 457.027344 318.707031 456.800781 318.628906 456.582031 C 318.550781 456.363281 318.429688 456.171875 318.269531 456.007812 C 318.105469 455.84375 317.914062 455.722656 317.699219 455.644531 C 310.378906 453.011719 303.617188 449.464844 298.066406 443.867188 C 297.816406 443.605469 297.269531 443.617188 296.703125 443.453125 C 295.457031 444.332031 294.085938 445.25 292.8125 446.230469 C 287.335938 450.570312 281.882812 454.960938 276.417969 459.328125 C 273.863281 461.363281 271.296875 463.378906 268.765625 465.429688 C 268.242188 465.894531 267.789062 466.421875 267.398438 467 C 267.328125 467.207031 267.363281 467.394531 267.496094 467.5625 C 267.953125 468.082031 268.476562 468.515625 269.070312 468.867188 C 278.039062 472.808594 287.238281 476.113281 296.667969 478.785156 C 297.335938 479.003906 298.027344 479.101562 298.730469 479.082031 C 299.4375 479.070312 300.09375 478.886719 300.699219 478.527344 C 301.445312 477.960938 302.121094 477.324219 302.722656 476.605469 C 307.59375 471.566406 312.007812 466.140625 316.382812 460.679688 C 317.113281 459.777344 317.804688 458.832031 318.496094 457.898438 Z M 307.367188 368.472656 C 307.394531 368.25 307.339844 368.050781 307.199219 367.875 C 306.828125 367.59375 306.414062 367.394531 305.960938 367.273438 C 301.8125 366.492188 297.941406 364.8125 293.992188 363.40625 C 292.179688 362.761719 290.355469 362.714844 288.515625 363.269531 C 284.691406 364.308594 280.816406 365.164062 277.003906 366.257812 C 274.257812 366.949219 271.480469 367.148438 268.664062 366.855469 C 267.902344 366.796875 267.167969 366.011719 267.464844 365.566406 C 267.765625 365.117188 267.945312 364.644531 268.292969 364.542969 C 272.085938 363.386719 275.902344 362.324219 279.703125 361.191406 C 280.359375 360.960938 280.980469 360.664062 281.570312 360.300781 C 281.757812 360.199219 281.871094 359.953125 282.003906 359.773438 C 282.308594 359.351562 282.171875 358.996094 281.609375 358.726562 C 279.714844 357.8125 277.835938 356.867188 275.921875 356.011719 C 274.816406 355.539062 273.671875 355.417969 272.492188 355.648438 C 271.5625 355.757812 270.644531 355.933594 269.738281 356.175781 C 264.632812 357.902344 259.273438 358.507812 254.070312 359.800781 C 250.910156 360.578125 247.644531 360.933594 244.417969 361.4375 C 241.425781 361.90625 238.429688 362.289062 235.4375 362.753906 C 235.066406 362.8125 234.746094 363.195312 234.398438 363.421875 C 234.570312 363.578125 234.726562 363.804688 234.929688 363.871094 C 238.460938 365.066406 242.011719 366.230469 245.511719 367.507812 C 246.804688 367.980469 248.269531 368.21875 249.222656 369.355469 C 249.46875 369.742188 249.617188 370.164062 249.671875 370.617188 C 249.671875 370.691406 249.3125 370.90625 249.074219 370.972656 C 246.988281 371.503906 244.921875 371.4375 242.871094 370.773438 C 238.164062 369.445312 233.433594 368.136719 228.777344 366.628906 C 225.898438 365.703125 223.21875 364.039062 220.289062 363.40625 C 217.363281 362.773438 214.257812 363.027344 211.230469 362.808594 C 210.546875 362.691406 209.890625 362.492188 209.261719 362.210938 C 209.097656 362.148438 208.953125 362.058594 208.828125 361.9375 C 208.703125 361.816406 208.605469 361.675781 208.539062 361.511719 C 208.472656 361.351562 208.4375 361.183594 208.441406 361.011719 C 208.441406 360.835938 208.476562 360.671875 208.546875 360.511719 C 208.800781 360.132812 209.082031 359.777344 209.390625 359.441406 C 210.773438 357.898438 210.769531 357.914062 209.703125 356.789062 C 209.070312 356.113281 208.441406 355.425781 207.855469 354.714844 C 207.476562 354.253906 207.507812 353.824219 207.882812 353.566406 C 208.058594 353.425781 208.257812 353.359375 208.480469 353.363281 C 209.816406 353.753906 211.175781 354.117188 212.46875 354.636719 C 214.863281 355.59375 217.171875 356.683594 219.554688 357.628906 C 220.203125 357.917969 220.878906 358.023438 221.582031 357.945312 C 228.03125 356.800781 234.667969 357.492188 241.070312 355.960938 C 245.070312 355.917969 248.953125 355.0625 252.832031 354.253906 C 256.9375 353.40625 261.085938 352.730469 265.023438 351.199219 C 265.285156 351.132812 265.433594 350.964844 265.472656 350.699219 C 265.507812 350.429688 265.40625 350.230469 265.171875 350.097656 C 262.507812 347.84375 259.828125 345.617188 257.074219 343.472656 C 256.46875 343.089844 255.8125 342.945312 255.101562 343.035156 C 253.9375 343.15625 252.792969 343.375 251.671875 343.691406 C 242.851562 345.988281 233.90625 347.582031 224.839844 348.476562 C 218.804688 349.136719 212.730469 349.351562 206.679688 349.8125 C 199.714844 350.34375 192.675781 350.410156 185.734375 349.210938 C 184.113281 348.960938 182.484375 348.84375 180.84375 348.859375 C 176.621094 348.8125 172.464844 348.285156 168.363281 347.28125 C 162.917969 346 157.382812 345.027344 152.289062 342.554688 C 150.1875 341.535156 148.097656 340.511719 145.96875 339.53125 C 145.542969 339.402344 145.113281 339.308594 144.675781 339.253906 C 144.078125 339.085938 143.980469 339.1875 144.078125 339.679688 C 144.417969 340.804688 145.015625 341.769531 145.871094 342.574219 C 148.921875 345.832031 152.3125 348.683594 156.046875 351.132812 C 162.09375 355.152344 168.480469 358.542969 175.199219 361.300781 C 184.269531 365.042969 193.550781 368.144531 203.046875 370.605469 C 209.632812 372.273438 216.214844 373.78125 222.996094 374.195312 C 224.152344 374.265625 225.300781 374.558594 226.457031 374.699219 C 228.078125 374.890625 229.691406 375.121094 231.328125 375.164062 C 236.714844 375.308594 242.101562 375.375 247.445312 375.46875 L 247.445312 375.222656 C 251.632812 375.222656 255.859375 375.253906 260.0625 375.222656 C 262.394531 375.222656 264.777344 375.3125 267.050781 374.894531 C 270.296875 374.296875 273.5625 374.296875 276.8125 374.046875 C 278.679688 373.902344 280.566406 373.882812 282.410156 373.621094 C 288.171875 372.789062 293.957031 371.964844 299.683594 370.917969 C 302.179688 370.457031 304.742188 370.109375 307.105469 369.046875 C 307.242188 368.945312 307.351562 368.65625 307.367188 368.472656 Z M 294.3125 485.816406 C 294.679688 485.375 294.238281 484.394531 293.585938 484.15625 C 293.152344 484 292.734375 483.773438 292.292969 483.644531 C 281.925781 480.8125 271.679688 477.664062 262.167969 472.515625 C 261.695312 472.339844 261.207031 472.210938 260.707031 472.132812 C 260.078125 472.328125 259.476562 472.597656 258.914062 472.941406 C 254.652344 476.199219 250.425781 479.519531 246.175781 482.796875 C 240.0625 487.503906 233.964844 492.214844 227.886719 496.9375 C 227.15625 497.503906 226.515625 498.179688 225.839844 498.8125 C 225.390625 499.238281 225.472656 499.585938 225.886719 500.011719 C 227.214844 501.457031 229.039062 502.019531 230.769531 502.625 C 235.835938 504.417969 240.867188 506.210938 245.925781 508.007812 C 251.878906 510.089844 257.960938 511.722656 263.957031 513.640625 C 265.949219 514.273438 268.011719 514.722656 270.0625 515.164062 C 270.414062 515.25 270.761719 515.226562 271.097656 515.09375 C 271.433594 514.964844 271.707031 514.75 271.914062 514.453125 C 272.566406 513.496094 273.074219 512.433594 273.78125 511.515625 C 277.925781 506.132812 282.082031 500.816406 286.300781 495.523438 C 288.914062 492.246094 291.640625 489.058594 294.3125 485.816406 Z M 270.242188 103.039062 C 270.414062 102.964844 270.535156 102.757812 270.683594 102.617188 C 270.453125 102.207031 270.320312 101.667969 269.980469 101.421875 C 262.929688 96.445312 255.867188 91.496094 248.792969 86.570312 C 234.222656 76.480469 219.621094 66.457031 205.070312 56.339844 C 198.375 51.679688 191.820312 46.824219 185.882812 41.183594 C 185.210938 40.535156 184.480469 39.96875 183.679688 39.488281 C 183.234375 39.308594 182.808594 39.34375 182.398438 39.589844 C 181.496094 40.320312 180.628906 41.097656 179.808594 41.917969 C 179.558594 42.175781 179.414062 42.484375 179.375 42.839844 C 179.332031 43.199219 179.40625 43.53125 179.59375 43.839844 C 185.207031 51.320312 189.660156 59.519531 194.128906 67.695312 C 194.578125 68.515625 195.070312 69.304688 195.535156 70.089844 C 199.527344 76.933594 203.515625 83.785156 207.507812 90.640625 C 213.121094 100.316406 218.726562 109.996094 224.324219 119.675781 C 224.4375 119.878906 224.601562 120.054688 224.726562 120.273438 C 224.847656 120.472656 224.996094 120.644531 225.175781 120.789062 C 225.355469 120.9375 225.550781 121.050781 225.769531 121.128906 C 225.988281 121.207031 226.210938 121.246094 226.445312 121.246094 C 226.675781 121.25 226.902344 121.210938 227.121094 121.136719 C 228.382812 120.539062 229.632812 119.941406 230.878906 119.269531 C 236.460938 116.351562 242.203125 113.792969 248.105469 111.585938 C 255.5 108.820312 262.863281 105.878906 270.242188 103.027344 Z M 218.710938 125.078125 C 218.964844 124.828125 219.117188 124.527344 219.167969 124.179688 C 219.21875 123.828125 219.15625 123.496094 218.984375 123.1875 C 218.386719 122.183594 217.789062 121.191406 217.15625 120.195312 C 213.652344 114.683594 210.019531 109.25 206.675781 103.640625 C 201.175781 94.425781 195.421875 85.359375 190.226562 75.957031 C 184.925781 66.386719 179.101562 57.050781 174.285156 47.179688 C 174.027344 46.660156 172.980469 46.105469 172.523438 46.332031 C 171.910156 46.632812 171.371094 47.03125 170.902344 47.527344 C 170.632812 47.929688 170.503906 48.367188 170.519531 48.851562 C 170.464844 50.25 170.519531 51.648438 170.519531 53.035156 L 170.519531 70.53125 C 170.382812 75.914062 170.519531 82.714844 169.921875 89.449219 C 169.320312 96.441406 169.203125 103.433594 168.871094 110.410156 C 168.789062 112.285156 168.871094 114.1875 168.542969 116.003906 C 167.945312 119.246094 167.914062 122.503906 167.808594 125.765625 C 167.664062 129.953125 167.632812 134.167969 167.515625 138.371094 C 167.394531 142.578125 167.453125 146.789062 167.042969 150.96875 C 166.6875 154.460938 166.617188 157.953125 166.574219 161.445312 C 166.589844 161.910156 166.691406 162.351562 166.878906 162.773438 C 166.914062 162.886719 166.972656 162.980469 167.050781 163.066406 C 167.132812 163.152344 167.222656 163.214844 167.332031 163.257812 C 167.4375 163.304688 167.550781 163.320312 167.664062 163.316406 C 167.78125 163.3125 167.890625 163.28125 167.992188 163.230469 C 168.96875 162.59375 169.886719 161.882812 170.738281 161.089844 C 175.863281 156.304688 180.914062 151.441406 186.253906 146.925781 C 189.433594 144.167969 192.769531 141.617188 196.261719 139.269531 C 198.210938 138.003906 200.144531 136.679688 202.085938 135.375 C 207.316406 131.871094 212.457031 128.199219 218.171875 125.488281 C 218.382812 125.410156 218.519531 125.191406 218.710938 125.066406 Z M 178.75 28.910156 C 179.347656 24.667969 178.957031 20.535156 176.953125 16.65625 C 176.421875 15.621094 175.941406 14.554688 175.367188 13.542969 C 172.8125 9.082031 168.859375 7.03125 163.816406 7 C 160.710938 7.027344 157.8125 7.808594 155.117188 9.347656 C 153.203125 10.375 151.804688 11.882812 150.929688 13.875 C 149.59375 16.761719 149.019531 19.789062 149.199219 22.964844 C 149.285156 24.328125 149.132812 26.714844 150.152344 28.875 C 151.167969 31.03125 152.269531 33.019531 153.441406 35.027344 C 154.160156 36.257812 155.097656 37.289062 156.253906 38.121094 C 157.410156 38.957031 158.6875 39.519531 160.082031 39.8125 C 164.527344 40.847656 168.871094 40.882812 172.738281 37.875 C 173.105469 37.589844 173.523438 37.378906 173.898438 37.101562 C 175.261719 36.152344 176.363281 34.960938 177.210938 33.53125 C 178.054688 32.101562 178.566406 30.558594 178.75 28.910156 Z M 160.25 335.898438 C 160.355469 334.972656 160.355469 334.046875 160.25 333.117188 C 159.199219 328.511719 159.523438 323.828125 159.300781 319.183594 C 159.085938 314.757812 158.855469 310.335938 158.578125 305.917969 C 158.457031 303.828125 158.140625 301.730469 158.082031 299.660156 C 157.535156 281.234375 157.214844 262.8125 157.398438 236.859375 C 157.542969 226.167969 157.792969 207.980469 158.046875 189.789062 C 158.046875 188.625 158.085938 187.453125 157.996094 186.296875 C 157.972656 185.820312 157.773438 185.429688 157.398438 185.132812 C 156.921875 185.101562 156.523438 185.261719 156.203125 185.617188 C 152.59375 189.902344 149.320312 194.429688 146.378906 199.199219 C 142.734375 204.910156 139.75 210.96875 136.59375 216.957031 C 131.515625 226.699219 127.476562 236.859375 124.480469 247.429688 C 121.808594 256.410156 120.300781 265.578125 119.949219 274.941406 C 119.886719 277.039062 119.949219 279.128906 119.832031 281.238281 C 119.449219 289.085938 121.351562 296.5625 124.207031 303.714844 C 129.796875 317.710938 139.664062 327.945312 153.035156 334.816406 C 154.9375 335.683594 156.882812 336.441406 158.867188 337.09375 C 159.328125 337.304688 160.238281 336.515625 160.25 335.898438 Z M 160.25 335.898438 " fill-opacity="1" fill-rule="nonzero"/></g><path fill="#000000" d="M 392.121094 124.550781 C 392.195312 125.007812 392.125 125.441406 391.90625 125.847656 C 391.871094 125.960938 391.808594 126.058594 391.726562 126.144531 C 391.640625 126.230469 391.542969 126.292969 391.433594 126.332031 C 391.320312 126.375 391.207031 126.386719 391.085938 126.375 C 390.96875 126.363281 390.859375 126.324219 390.757812 126.261719 C 389.71875 125.746094 388.675781 125.234375 387.652344 124.671875 C 386.011719 123.777344 384.402344 122.839844 382.757812 121.957031 C 381.746094 121.410156 380.417969 122.121094 380.039062 123.34375 C 379.953125 123.558594 379.875 123.777344 379.8125 124 C 378.871094 129.832031 376.359375 135.105469 374.042969 140.460938 C 372.609375 143.671875 370.839844 146.683594 368.734375 149.496094 C 368.128906 150.203125 367.453125 150.832031 366.710938 151.386719 C 366.546875 151.523438 366.171875 151.644531 366.0625 151.5625 C 365.734375 151.296875 365.28125 150.960938 365.242188 150.605469 C 365.117188 149.910156 365.191406 149.238281 365.460938 148.589844 C 368.816406 142.636719 370.847656 136.226562 372.46875 129.632812 C 373.023438 127.378906 373.929688 125.203125 374.621094 122.984375 C 374.902344 122.09375 375.058594 121.191406 375.257812 120.261719 C 375.425781 119.492188 374.878906 118.117188 374.261719 117.816406 C 373.246094 117.234375 372.191406 116.746094 371.089844 116.34375 C 366.636719 114.957031 362.117188 113.828125 357.535156 112.960938 C 352.4375 112.050781 347.359375 111.917969 342.207031 111.867188 C 340.585938 111.867188 338.957031 111.714844 337.335938 111.601562 C 337.132812 111.601562 336.738281 111.355469 336.773438 111.253906 C 336.773438 110.824219 336.886719 110.425781 337.121094 110.058594 C 337.40625 109.675781 337.785156 109.425781 338.25 109.316406 C 342.386719 108.71875 346.46875 107.558594 350.710938 107.703125 C 355.867188 107.789062 360.921875 108.53125 365.882812 109.933594 C 369.019531 110.820312 372.097656 111.925781 375.203125 112.925781 C 376.398438 113.300781 377.304688 112.804688 377.792969 111.375 C 378.171875 110.261719 378.5 109.160156 379.355469 108.292969 C 379.492188 108.195312 379.636719 108.121094 379.800781 108.078125 C 379.960938 108.03125 380.125 108.019531 380.292969 108.035156 C 380.457031 108.054688 380.617188 108.101562 380.765625 108.179688 C 380.914062 108.257812 381.042969 108.359375 381.152344 108.484375 C 381.429688 108.851562 381.640625 109.25 381.792969 109.683594 C 381.984375 110.59375 382.074219 111.515625 382.0625 112.445312 C 381.90625 116.320312 382.152344 116.410156 385.625 118.425781 C 387.699219 119.539062 389.542969 120.957031 391.152344 122.671875 C 391.605469 123.230469 391.929688 123.859375 392.121094 124.550781 Z M 392.121094 124.550781 " fill-opacity="1" fill-rule="nonzero"/><path fill="#000000" d="M 378.253906 252.78125 C 379.320312 253.300781 379.710938 254.886719 378.855469 255.710938 C 378.234375 256.402344 377.511719 256.953125 376.679688 257.371094 C 373.347656 258.683594 369.890625 259.300781 366.308594 259.222656 C 365.992188 259.152344 364.859375 258.9375 363.746094 258.625 C 363.078125 258.445312 362.425781 257.171875 362.4375 256.339844 C 362.4375 255.589844 362.746094 254.992188 363.351562 254.546875 C 363.917969 254.140625 364.53125 253.820312 365.191406 253.589844 C 365.636719 253.441406 366.09375 253.371094 366.566406 253.378906 C 369.597656 253.363281 372.589844 253.007812 375.542969 252.320312 C 376.503906 252.136719 377.410156 252.289062 378.253906 252.78125 Z M 378.253906 252.78125 " fill-opacity="1" fill-rule="nonzero"/><path fill="#000000" d="M 355.199219 178.847656 C 355.460938 179.769531 355.40625 180.679688 355.039062 181.566406 C 353.242188 185.878906 351.335938 190.113281 349.179688 194.257812 C 347.675781 197.152344 346.371094 200.160156 344.75 202.984375 C 341.160156 209.328125 336.683594 214.964844 331.320312 219.90625 C 328.5625 222.410156 325.769531 224.878906 322.941406 227.316406 C 322.210938 227.972656 321.355469 228.289062 320.375 228.261719 C 319.992188 228.050781 319.457031 227.925781 319.265625 227.601562 C 319.039062 227.183594 319.027344 226.761719 319.238281 226.335938 C 321.660156 223.210938 324.164062 220.148438 326.621094 217.046875 C 330.523438 212.113281 334.503906 207.230469 338.261719 202.1875 C 340.058594 199.765625 341.460938 197.046875 342.972656 194.414062 C 345.421875 190.171875 347.804688 185.898438 350.261719 181.667969 C 350.878906 180.671875 351.570312 179.730469 352.339844 178.847656 C 352.679688 178.53125 353.058594 178.269531 353.476562 178.0625 C 353.949219 177.773438 355.058594 178.246094 355.199219 178.847656 Z M 355.199219 178.847656 " fill-opacity="1" fill-rule="nonzero"/><path fill="#000000" d="M 352.261719 256.273438 C 352.609375 256.335938 352.90625 256.492188 353.148438 256.746094 C 353.394531 257.003906 353.535156 257.304688 353.578125 257.65625 C 353.558594 258.003906 353.445312 258.320312 353.242188 258.605469 C 353.039062 258.890625 352.773438 259.09375 352.449219 259.222656 C 351.839844 259.5625 351.207031 259.835938 350.542969 260.050781 C 346.460938 260.964844 342.164062 260.269531 339.214844 261.554688 C 338.394531 261.617188 337.574219 261.617188 336.753906 261.554688 C 332.917969 260.71875 328.972656 260.359375 325.246094 258.992188 C 321.722656 257.695312 318.578125 255.78125 315.808594 253.253906 C 315.640625 253.109375 315.585938 252.847656 315.449219 252.65625 C 314.921875 251.992188 315.449219 250.5625 316.304688 250.492188 C 317.210938 250.359375 318.109375 250.402344 319.003906 250.617188 C 320.757812 251.179688 322.433594 252.015625 324.15625 252.664062 C 327.214844 253.769531 330.351562 254.566406 333.566406 255.054688 C 338.617188 255.835938 343.699219 256.148438 348.808594 256 C 349.964844 256.027344 351.117188 256.121094 352.261719 256.273438 Z M 352.261719 256.273438 " fill-opacity="1" fill-rule="nonzero"/><path fill="#000000" d="M 316.371094 230.4375 C 316.824219 230.972656 317.210938 231.550781 317.523438 232.175781 C 317.839844 232.800781 318.078125 233.457031 318.238281 234.140625 C 318.398438 234.820312 318.472656 235.511719 318.46875 236.214844 C 318.460938 236.914062 318.371094 237.605469 318.199219 238.285156 C 317.589844 240.796875 316.574219 243.132812 315.148438 245.292969 C 311.414062 251.023438 306.757812 255.867188 301.179688 259.828125 C 294.273438 264.703125 286.863281 268.542969 278.652344 270.695312 C 271.625 272.542969 264.484375 273.519531 257.210938 272.972656 C 253.949219 272.667969 250.78125 271.949219 247.707031 270.816406 C 245.949219 270.15625 244.324219 269.257812 242.835938 268.109375 C 240.820312 266.640625 239.53125 264.707031 239.496094 262.261719 C 239.425781 256.402344 238.238281 250.683594 237.414062 244.917969 C 236.457031 238.242188 235.570312 231.550781 234.683594 224.867188 C 234.261719 221.640625 233.648438 218.441406 233.097656 215.222656 C 232.824219 213.617188 232.394531 212.027344 232.265625 210.4375 C 232.117188 208.582031 232.226562 206.710938 232.226562 204.84375 L 232.164062 204.84375 C 232.164062 204.144531 232.207031 203.445312 232.164062 202.75 C 231.8125 198.003906 233.792969 194.128906 236.78125 190.695312 C 238.164062 189.113281 239.695312 187.6875 241.371094 186.417969 C 244.757812 183.933594 248.308594 181.710938 252.023438 179.753906 C 254.945312 178.253906 258.023438 177.207031 261.253906 176.613281 C 262.628906 176.304688 264.015625 176.210938 265.421875 176.339844 C 266.824219 176.46875 268.175781 176.8125 269.46875 177.367188 C 272.164062 178.566406 274.367188 180.246094 275.457031 182.925781 C 276.589844 185.507812 278.136719 187.816406 280.101562 189.84375 C 286.371094 196.746094 292.226562 204 298.054688 211.292969 C 302.914062 217.269531 308.195312 222.851562 313.890625 228.039062 C 314.78125 228.773438 315.605469 229.574219 316.371094 230.4375 Z M 312.078125 236.519531 C 312.394531 234.808594 312.078125 233.273438 310.652344 232.117188 C 307.75 229.78125 304.765625 227.535156 301.96875 225.074219 C 299.277344 222.835938 296.777344 220.402344 294.464844 217.777344 C 287.878906 209.917969 281.546875 201.878906 275.109375 193.917969 C 274.960938 193.730469 274.773438 193.597656 274.550781 193.515625 C 274.34375 193.445312 274 193.390625 273.875 193.515625 C 272.832031 194.425781 271.804688 195.347656 270.816406 196.320312 C 267.039062 200.199219 262.710938 203.308594 257.824219 205.640625 C 254.667969 207.183594 251.351562 208.21875 247.875 208.75 C 245.117188 209.121094 242.375 209.828125 239.605469 208.851562 C 239.375 208.765625 239.148438 208.777344 238.929688 208.886719 C 238.574219 209.132812 238.058594 209.4375 237.996094 209.785156 C 237.617188 211.933594 238.6875 213.886719 238.921875 215.957031 C 239.855469 224.277344 241.96875 232.441406 242.261719 240.84375 C 243.417969 246.105469 243.351562 251.484375 243.667969 256.824219 C 243.707031 257.988281 243.820312 259.140625 244.015625 260.289062 C 244.148438 261.234375 244.507812 262.085938 245.089844 262.84375 C 245.675781 263.597656 246.410156 264.15625 247.296875 264.523438 C 248.132812 264.929688 248.996094 265.28125 249.882812 265.574219 C 253.945312 266.617188 258.027344 267.609375 261.730469 267.371094 C 267.117188 267.371094 274.75 266.046875 278.6875 264.492188 C 289.460938 260.222656 298.652344 253.570312 306.816406 245.402344 C 308.75 243.351562 310.3125 241.054688 311.507812 238.503906 C 311.789062 237.871094 311.980469 237.207031 312.078125 236.519531 Z M 269.242188 188.335938 C 270.105469 187.015625 269.75 185.078125 268.597656 183.839844 C 267.226562 182.375 265.503906 181.855469 262.136719 181.949219 C 257.949219 182.511719 252.492188 183.464844 248.121094 187.488281 C 246.925781 188.59375 245.53125 189.496094 244.40625 190.65625 C 241.808594 193.335938 239.324219 196.125 238.546875 199.976562 C 238.347656 200.945312 239.144531 202.46875 240.136719 202.757812 C 240.566406 202.925781 241.011719 203.054688 241.464844 203.140625 C 244.523438 203.488281 247.5 203.140625 250.394531 202.09375 C 256.601562 199.804688 262.050781 196.328125 266.734375 191.664062 C 267.691406 190.644531 268.527344 189.535156 269.242188 188.335938 Z M 269.242188 188.335938 " fill-opacity="1" fill-rule="nonzero"/><path fill="#000000" d="M 283.128906 128.207031 C 283.253906 128.316406 283.355469 128.445312 283.433594 128.59375 C 283.511719 128.742188 283.558594 128.898438 283.574219 129.066406 C 283.59375 129.230469 283.578125 129.394531 283.53125 129.558594 C 283.488281 129.71875 283.414062 129.867188 283.3125 130 C 282.644531 130.632812 281.90625 131.179688 281.097656 131.632812 C 278.96875 132.582031 276.808594 133.46875 274.605469 134.234375 C 264.03125 137.90625 253.5625 141.902344 243.183594 146.0625 C 231.410156 150.71875 220.3125 156.636719 209.886719 163.820312 C 209.328125 164.234375 208.726562 164.585938 208.09375 164.875 C 207.652344 164.988281 207.203125 165.035156 206.746094 165.011719 C 205.945312 164.917969 205.273438 163.527344 205.710938 162.851562 C 206.054688 162.246094 206.453125 161.675781 206.90625 161.140625 C 208.980469 158.898438 211.285156 156.9375 213.832031 155.25 C 217.554688 152.859375 221.261719 150.382812 225.113281 148.21875 C 236.332031 141.917969 248.078125 136.839844 260.347656 132.976562 C 266.128906 131.183594 271.953125 129.472656 277.785156 127.796875 C 278.914062 127.507812 280.0625 127.386719 281.230469 127.441406 C 281.921875 127.550781 282.554688 127.808594 283.128906 128.207031 Z M 283.128906 128.207031 " fill-opacity="1" fill-rule="nonzero"/><path fill="#000000" d="M 268.542969 227.925781 C 268.636719 232.328125 266.511719 237.253906 261.625 239.230469 C 260.761719 239.578125 259.828125 239.761719 258.960938 240.085938 C 256.386719 241.011719 253.949219 240.683594 251.496094 239.5625 C 247.167969 237.597656 245.410156 233.972656 244.960938 229.558594 C 244.941406 228.386719 245.140625 227.253906 245.558594 226.160156 C 246.261719 223.875 247.703125 222.035156 249.304688 220.3125 C 250.265625 219.214844 251.464844 218.535156 252.898438 218.273438 C 253.597656 218.203125 254.28125 218.0625 254.949219 217.847656 C 258.726562 216.261719 261.90625 217.78125 264.640625 220.085938 C 265.792969 221.074219 266.707031 222.25 267.382812 223.609375 C 268.0625 224.972656 268.445312 226.410156 268.542969 227.925781 Z M 259.21875 235.101562 C 262.035156 234.726562 264.289062 231.910156 263.8125 229.121094 C 262.945312 224.085938 260.074219 222.28125 256.46875 222.183594 C 255.640625 222.132812 254.859375 222.300781 254.121094 222.6875 C 253.386719 223.074219 252.804688 223.625 252.375 224.335938 C 251.722656 225.296875 251.214844 226.328125 250.855469 227.433594 C 250.585938 228.328125 250.558594 229.230469 250.773438 230.136719 C 251.097656 231.25 251.578125 232.285156 252.222656 233.25 C 252.539062 233.742188 252.949219 234.148438 253.445312 234.460938 C 253.945312 234.773438 254.484375 234.96875 255.070312 235.042969 C 255.753906 235.15625 256.445312 235.1875 257.0625 235.246094 C 257.835938 235.238281 258.554688 235.214844 259.21875 235.125 Z M 259.21875 235.101562 " fill-opacity="1" fill-rule="nonzero"/><path fill="#000000" d="M 266.933594 252.472656 C 267.128906 254.703125 266.039062 256.472656 264.132812 257.667969 C 263.539062 258.023438 262.917969 258.316406 262.269531 258.554688 C 261.132812 258.980469 260.007812 258.949219 258.894531 258.457031 C 258.25 258.203125 257.640625 257.886719 257.0625 257.5 C 256.625 257.214844 256.234375 256.875 255.890625 256.484375 C 255.546875 256.089844 255.261719 255.65625 255.039062 255.183594 C 254.816406 254.710938 254.664062 254.214844 254.578125 253.699219 C 254.492188 253.183594 254.476562 252.667969 254.539062 252.148438 C 254.609375 251.089844 254.929688 250.113281 255.496094 249.21875 C 256.0625 248.320312 256.808594 247.613281 257.734375 247.09375 C 258.539062 246.542969 259.421875 246.359375 260.378906 246.542969 C 261.503906 246.777344 262.597656 247.109375 263.660156 247.542969 C 265.832031 248.453125 266.765625 250.335938 266.933594 252.472656 Z M 266.933594 252.472656 " fill-opacity="1" fill-rule="nonzero"/><path fill="#000000" d="M 254.363281 278.421875 C 254.578125 279.066406 254.753906 279.738281 255.003906 280.59375 C 254.710938 282.046875 254.628906 283.726562 254.039062 285.210938 C 251.457031 291.8125 247.703125 297.667969 242.78125 302.777344 C 242.242188 303.214844 241.644531 303.554688 240.988281 303.789062 C 240.234375 304.144531 238.921875 303.238281 239.007812 302.425781 C 239.003906 301.726562 239.121094 301.046875 239.351562 300.390625 C 240.179688 298.714844 241.082031 297.082031 242.039062 295.480469 C 244.246094 291.898438 246.160156 288.171875 247.78125 284.289062 C 248.496094 282.289062 249.546875 280.480469 250.921875 278.859375 C 251.429688 278.375 251.992188 277.976562 252.617188 277.664062 C 252.960938 277.570312 253.296875 277.597656 253.621094 277.738281 C 253.949219 277.878906 254.195312 278.109375 254.363281 278.421875 Z M 254.363281 278.421875 " fill-opacity="1" fill-rule="nonzero"/><path fill="#000000" d="M 232.867188 308.273438 C 233.171875 308.628906 233.367188 309.039062 233.445312 309.5 C 233.523438 309.964844 233.480469 310.414062 233.308594 310.851562 C 231.90625 313.53125 230.371094 316.136719 227.875 317.949219 C 223.195312 321.378906 218.335938 324.527344 213.292969 327.394531 C 212.460938 327.785156 211.605469 328.105469 210.71875 328.355469 C 210.378906 328.082031 210.058594 327.785156 209.761719 327.460938 C 209.652344 327.25 209.652344 327.039062 209.761719 326.824219 C 210.304688 326.074219 210.921875 325.390625 211.613281 324.773438 C 214.160156 322.777344 216.722656 320.785156 219.394531 318.925781 C 222.625 316.628906 225.480469 313.929688 227.957031 310.832031 C 228.707031 309.960938 229.503906 309.132812 230.351562 308.351562 C 230.714844 308.058594 231.128906 307.902344 231.59375 307.890625 C 232.0625 307.875 232.484375 308.003906 232.867188 308.273438 Z M 232.867188 308.273438 " fill-opacity="1" fill-rule="nonzero"/><path fill="#000000" d="M 233.273438 262.777344 C 233.25 263.027344 233.128906 263.214844 232.90625 263.339844 C 232.316406 263.710938 231.675781 263.972656 230.992188 264.121094 C 229.144531 264.324219 227.273438 264.367188 226.15625 264.433594 C 215.847656 264.164062 205.699219 262.75 195.710938 260.1875 C 190.71875 258.871094 186.207031 256.339844 181.703125 253.863281 C 180.273438 253.074219 178.890625 252.207031 177.558594 251.261719 C 177.027344 250.808594 176.566406 250.292969 176.175781 249.714844 C 176.011719 249.402344 175.933594 249.074219 175.933594 248.722656 C 175.933594 248.375 176.011719 248.042969 176.175781 247.734375 C 176.527344 247.195312 177.480469 246.742188 177.96875 246.933594 C 180.796875 248.039062 183.648438 249.074219 186.414062 250.304688 C 190.898438 252.285156 195.472656 254.027344 200.140625 255.535156 C 205.261719 257.128906 210.476562 258.335938 215.785156 259.152344 C 220.632812 259.953125 225.496094 260.347656 230.394531 260.648438 C 231.3125 260.796875 232.164062 261.128906 232.941406 261.640625 C 233.164062 261.769531 233.230469 262.371094 233.273438 262.777344 Z M 233.273438 262.777344 " fill-opacity="1" fill-rule="nonzero"/><path fill="#000000" d="M 197.785156 330.714844 C 198.433594 330.546875 199.75 331.800781 199.550781 332.667969 C 199.308594 333.21875 198.980469 333.71875 198.578125 334.164062 C 196.574219 335.765625 194.296875 336.734375 191.753906 337.066406 C 191.292969 337.035156 190.910156 336.847656 190.605469 336.503906 C 190.410156 336.226562 190.328125 335.921875 190.351562 335.582031 C 190.375 335.246094 190.5 334.957031 190.730469 334.710938 C 192.875 332.988281 195.113281 331.425781 197.785156 330.714844 Z M 197.785156 330.714844 " fill-opacity="1" fill-rule="nonzero"/><path fill="#000000" d="M 193.71875 174.167969 C 193.71875 174.367188 193.792969 174.609375 193.71875 174.765625 C 193.269531 175.570312 192.746094 176.316406 192.136719 177.003906 C 190.988281 178.128906 189.742188 179.152344 188.46875 180.15625 C 185.054688 182.902344 181.640625 185.640625 178.1875 188.332031 C 177.617188 188.71875 176.988281 188.960938 176.304688 189.050781 C 175.863281 189.027344 175.464844 188.886719 175.109375 188.625 C 174.886719 188.519531 174.730469 188.347656 174.648438 188.113281 C 174.566406 187.882812 174.578125 187.652344 174.683594 187.429688 C 174.800781 186.988281 174.960938 186.566406 175.167969 186.160156 C 175.417969 185.769531 175.71875 185.421875 176.066406 185.113281 C 181.03125 180.589844 186.519531 176.820312 192.527344 173.808594 C 192.746094 173.71875 192.96875 173.707031 193.195312 173.773438 C 193.390625 173.875 193.566406 174.007812 193.71875 174.167969 Z M 193.71875 174.167969 " fill-opacity="1" fill-rule="nonzero"/><path fill="#000000" d="M 154.671875 236.988281 C 155.179688 237.644531 154.574219 239.144531 153.785156 239.195312 C 152.859375 239.316406 151.941406 239.285156 151.023438 239.105469 C 149.46875 238.648438 147.980469 237.96875 146.457031 237.371094 C 146.238281 237.3125 146.011719 237.296875 145.785156 237.320312 C 145.558594 237.347656 145.34375 237.410156 145.136719 237.511719 C 144.933594 237.617188 144.753906 237.75 144.601562 237.917969 C 144.445312 238.085938 144.324219 238.277344 144.238281 238.488281 C 141.71875 244.769531 139.777344 251.230469 138.414062 257.859375 C 136.988281 264.691406 135.546875 271.527344 134.984375 278.511719 C 134.867188 281.070312 134.457031 283.582031 133.757812 286.046875 C 133.585938 286.59375 132.484375 286.886719 132.003906 286.542969 C 131.429688 286.128906 130.957031 285.617188 130.59375 285.007812 C 130.230469 284.398438 130.003906 283.742188 129.914062 283.039062 C 129.730469 281.421875 129.636719 279.796875 129.632812 278.164062 L 129.839844 278.164062 C 129.761719 276.769531 129.761719 275.375 129.839844 273.980469 C 130.476562 267.484375 131.492188 261.050781 132.878906 254.671875 C 134.078125 249.671875 135.757812 244.839844 137.925781 240.175781 C 138.453125 238.875 139.050781 237.609375 139.71875 236.375 C 140.640625 234.828125 139.808594 233.796875 138.964844 232.648438 C 138.4375 231.933594 138.71875 231.207031 139.449219 231.058594 C 139.675781 230.996094 139.910156 230.964844 140.144531 230.96875 C 140.863281 231.027344 141.539062 230.886719 142.171875 230.546875 C 142.804688 230.203125 143.292969 229.71875 143.640625 229.085938 C 145.050781 226.949219 146.171875 224.605469 148.058594 222.8125 C 148.578125 222.363281 149.144531 221.980469 149.75 221.65625 C 149.957031 221.574219 150.15625 221.585938 150.347656 221.699219 C 150.535156 221.820312 150.773438 222.046875 150.773438 222.230469 C 150.84375 222.917969 150.78125 223.59375 150.589844 224.257812 C 149.566406 226.605469 148.414062 228.898438 147.332031 231.214844 C 146.734375 232.5 147.105469 233.140625 148.710938 233.769531 C 150.3125 234.398438 151.785156 234.882812 153.257812 235.5625 C 153.835938 235.929688 154.308594 236.40625 154.671875 236.988281 Z M 154.671875 236.988281 " fill-opacity="1" fill-rule="nonzero"/></svg>