<svg xmlns="http://www.w3.org/2000/svg" xmlns:xlink="http://www.w3.org/1999/xlink" width="750" zoomAndPan="magnify" viewBox="0 0 562.5 562.499982" height="750" preserveAspectRatio="xMidYMid meet" version="1.0"><defs><clipPath id="4ecf9e6bf8"><path d="M 3 31 L 559 31 L 559 531.113281 L 3 531.113281 Z M 3 31 " clip-rule="nonzero"/></clipPath></defs><path fill="#000000" d="M 102.65625 287.0625 C 103.273438 287.175781 103.890625 287.242188 104.503906 287.242188 C 108.085938 287.242188 111.714844 285.214844 113.996094 281.816406 C 116.050781 278.714844 116.691406 275.179688 117.144531 272.078125 C 118.128906 265.195312 118.539062 258.238281 118.949219 251.488281 C 119.269531 246.039062 119.585938 240.613281 120.203125 235.183594 C 121.140625 227 123.261719 219.109375 127.070312 209.554688 C 128.097656 206.933594 130.859375 200.023438 126.046875 197.378906 C 119.769531 193.867188 111.417969 205.382812 111.054688 205.90625 C 97.179688 225.082031 90.65625 249.574219 93.140625 273.128906 C 93.984375 281.042969 97.363281 285.988281 102.65625 287.0625 Z M 117.464844 210.558594 C 117.921875 209.941406 118.378906 209.347656 118.835938 208.800781 C 115.273438 218.082031 113.265625 226.019531 112.308594 234.296875 C 111.671875 239.859375 111.351562 245.445312 111.007812 251.03125 C 110.621094 257.601562 110.210938 264.417969 109.273438 270.941406 C 108.933594 273.265625 108.519531 275.707031 107.378906 277.414062 C 106.558594 278.648438 105.144531 279.398438 104.230469 279.261719 C 102.703125 278.945312 101.449219 276.207031 101.015625 272.261719 C 98.730469 250.667969 104.734375 228.160156 117.464844 210.558594 Z M 117.464844 210.558594 " fill-opacity="1" fill-rule="nonzero"/><g clip-path="url(#4ecf9e6bf8)"><path fill="#000000" d="M 551.457031 267.109375 C 551.34375 266.882812 551.070312 266.859375 550.910156 266.675781 C 543.859375 244.167969 523.234375 226.496094 501.671875 218.925781 C 474.0625 209.28125 438.054688 213.15625 409.121094 216.304688 L 408.230469 216.394531 C 404.078125 210.808594 399.515625 205.382812 394.835938 200.113281 C 376.71875 179.707031 357.988281 158.589844 334.050781 143.746094 C 312.648438 130.476562 287.160156 122.746094 259.941406 120.667969 C 259.917969 120.625 259.941406 120.578125 259.917969 120.53125 C 246.636719 99.757812 238.832031 75.792969 237.351562 51.234375 C 237.351562 51.144531 237.257812 51.097656 237.234375 51.007812 C 238.332031 50.414062 239.402344 49.753906 240.246094 48.796875 C 243.101562 45.535156 243.738281 40.675781 241.820312 36.753906 C 239.882812 32.695312 235.84375 30.644531 231.28125 31.441406 C 226.238281 32.308594 222.335938 36.277344 221.8125 41.066406 C 221.332031 45.558594 224.046875 50.050781 228.269531 51.738281 C 228.65625 51.894531 229.066406 51.851562 229.453125 51.964844 C 230.960938 76 238.375 99.347656 250.605469 120.054688 C 240.363281 119.78125 229.910156 120.304688 219.371094 121.671875 C 176.722656 127.214844 139.734375 145.480469 115.273438 173.117188 C 106.238281 183.332031 98.753906 195.484375 92.527344 208.847656 C 69.664062 185.632812 50.40625 159.230469 35.34375 130.339844 C 37.832031 127.101562 38.378906 122.585938 36.578125 118.84375 C 34.613281 114.785156 30.574219 112.78125 26.011719 113.53125 C 20.96875 114.398438 17.066406 118.367188 16.542969 123.15625 C 16.039062 127.648438 18.777344 132.140625 23 133.847656 C 24.234375 134.328125 25.53125 134.578125 26.832031 134.578125 C 27.382812 134.578125 27.882812 134.328125 28.429688 134.238281 C 43.878906 163.789062 63.570312 190.8125 87.050781 214.546875 C 87.710938 215.234375 88.625 215.484375 89.492188 215.574219 C 83.445312 230.121094 78.949219 246.085938 76.371094 263.300781 C 72.515625 289.203125 72.789062 315.132812 74.15625 338.664062 C 46.480469 359.960938 24.574219 388.167969 10.859375 420.296875 C 5.886719 431.949219 -0.0898438 449.324219 5.363281 465.699219 C 5.363281 465.699219 5.363281 465.722656 5.363281 465.722656 C 5.363281 465.742188 5.386719 465.765625 5.386719 465.765625 C 5.386719 465.789062 5.386719 465.789062 5.386719 465.8125 C 5.386719 465.835938 5.40625 465.859375 5.429688 465.902344 C 14.582031 495.160156 40.933594 518.941406 72.652344 526.558594 C 86.226562 529.820312 103.410156 531.140625 121.046875 531.140625 C 142.109375 531.140625 163.808594 529.25 180.785156 526.535156 C 310.847656 505.625 413.503906 461.230469 503.859375 386.871094 C 520.039062 373.53125 538.066406 357.019531 549.015625 335.496094 C 560.882812 312.167969 561.796875 286.628906 551.457031 267.109375 Z M 232.671875 39.242188 C 234.132812 38.875 234.566406 39.832031 234.75 40.199219 C 235.273438 41.269531 235.089844 42.730469 234.339844 43.597656 C 233.628906 44.417969 232.261719 44.78125 231.28125 44.371094 C 230.367188 44.007812 229.636719 42.867188 229.75 41.910156 C 229.886719 40.519531 231.347656 39.445312 232.671875 39.242188 Z M 25.945312 126.460938 C 25.03125 126.097656 24.300781 124.957031 24.414062 124 C 24.574219 122.609375 26.035156 121.535156 27.335938 121.332031 C 27.519531 121.285156 27.699219 121.261719 27.859375 121.261719 C 28.933594 121.261719 29.273438 121.96875 29.410156 122.289062 C 29.9375 123.359375 29.753906 124.820312 29 125.6875 C 28.292969 126.507812 26.925781 126.847656 25.945312 126.460938 Z M 84.21875 264.441406 C 89.398438 229.667969 102.222656 199.886719 121.277344 178.359375 C 144.460938 152.136719 179.691406 134.808594 220.464844 129.515625 C 260.851562 124.273438 299.710938 131.75 329.921875 150.496094 C 352.875 164.722656 371.222656 185.382812 388.949219 205.382812 C 403.464844 221.730469 416.46875 238.011719 416.242188 256.9375 C 416.148438 264.828125 413.546875 273.015625 408.503906 282.023438 C 404.921875 264.121094 388.539062 250.144531 372.132812 246.085938 C 350.09375 240.679688 328.277344 248.753906 313.878906 256.527344 C 302.585938 262.59375 292.136719 270.234375 282.027344 277.597656 C 279.402344 279.515625 276.734375 281.359375 274.109375 283.230469 C 268.65625 276.664062 262.425781 270.824219 255.375 265.96875 C 262.039062 253.519531 262.152344 237.28125 254.621094 224.308594 C 246.75 210.785156 231.988281 201.390625 215.125 199.132812 C 205.0625 197.855469 196.074219 199.292969 189.066406 203.445312 C 173.230469 212.816406 170.082031 233.726562 175.148438 248.640625 C 181.21875 266.539062 198.101562 281.566406 215.742188 285.261719 C 212.5 295.226562 211.453125 305.828125 212.707031 316.226562 C 186.742188 325.964844 159.199219 331.753906 131.75 332.757812 L 130.5625 332.804688 C 124.265625 333.03125 117.101562 333.28125 110.871094 336.613281 C 99.144531 342.882812 95.378906 357.089844 96.859375 368.375 C 97.886719 376.3125 101.082031 383.5625 104.6875 390.265625 C 92.113281 381.851562 84.335938 369.675781 83.195312 355.195312 C 81.046875 328.0625 79.519531 296.023438 84.21875 264.441406 Z M 116.804688 396.765625 C 116.734375 396.285156 116.871094 395.808594 116.597656 395.351562 C 111.648438 386.9375 106.011719 377.40625 104.710938 367.417969 C 103.636719 359.09375 106.261719 348.105469 114.613281 343.65625 C 119.222656 341.195312 124.882812 340.988281 130.859375 340.761719 L 132.046875 340.714844 C 180.785156 338.914062 229.910156 322.90625 270.34375 295.65625 C 275.890625 291.917969 281.320312 287.949219 286.726562 284.003906 C 296.609375 276.777344 306.828125 269.320312 317.644531 263.484375 C 330.835938 256.390625 350.640625 248.914062 370.242188 253.769531 C 386.191406 257.691406 402.183594 272.535156 401.363281 290.527344 C 401.339844 291.164062 401.730469 291.667969 401.980469 292.214844 C 401.636719 292.695312 401.386719 293.148438 401.019531 293.652344 C 371.015625 334.421875 321.890625 365.296875 250.8125 387.988281 C 215.511719 399.25 169.398438 410.789062 125.886719 399.683594 C 122.738281 398.886719 119.703125 397.90625 116.804688 396.765625 Z M 246.453125 266.265625 C 237.441406 278.144531 226.488281 279.125 218.890625 277.964844 C 203.558594 275.5 187.996094 261.796875 182.65625 246.152344 C 178.527344 234.023438 181.308594 217.285156 193.105469 210.308594 C 199.996094 206.226562 208.324219 206.25 214.074219 207.046875 C 228.3125 208.9375 241.230469 217.101562 247.777344 228.34375 C 254.78125 240.363281 254.234375 255.980469 246.453125 266.265625 Z M 223.703125 286.261719 C 223.726562 286.261719 223.75 286.261719 223.773438 286.261719 C 234.382812 286.261719 243.851562 281.476562 251.199219 272.71875 C 257.382812 277.003906 262.859375 282.113281 267.699219 287.859375 C 267.105469 288.269531 266.535156 288.703125 265.941406 289.113281 C 251.726562 298.691406 236.390625 306.761719 220.394531 313.351562 C 219.597656 304.210938 220.648438 294.953125 223.703125 286.261719 Z M 18.140625 423.355469 C 30.597656 394.1875 50.246094 368.582031 74.820312 348.539062 C 75 350.953125 75.117188 353.53125 75.296875 355.902344 C 77.261719 380.847656 95.445312 400.117188 123.945312 407.390625 C 137.132812 410.765625 150.503906 412.15625 163.71875 412.15625 C 196.050781 412.15625 227.46875 403.8125 253.253906 395.578125 C 325.972656 372.34375 376.402344 340.558594 407.410156 298.394531 C 414.507812 288.75 423.953125 273.972656 424.160156 257.03125 C 424.296875 245.011719 419.824219 234.089844 413.34375 223.828125 C 440.882812 220.886719 474.175781 217.71875 499.046875 226.429688 C 523.621094 235.027344 548.21875 259.355469 545.410156 287.539062 C 543.265625 309.132812 526.015625 326.898438 509.382812 341.402344 C 416.242188 422.898438 297.519531 477.828125 175.058594 496.09375 C 127.414062 503.1875 89.992188 502.753906 57.273438 494.703125 C 40.433594 490.554688 19.074219 481.730469 12.847656 463.234375 C 9.355469 452.722656 11.019531 440.046875 18.140625 423.355469 Z M 541.964844 331.847656 C 531.652344 352.050781 514.378906 367.875 498.816406 380.667969 C 409.601562 454.136719 308.152344 497.964844 179.550781 518.648438 C 148.085938 523.707031 101.925781 525.351562 74.5 518.804688 C 57.386719 514.703125 42.074219 505.398438 30.597656 493.0625 C 38.722656 497.441406 47.507812 500.449219 55.425781 502.410156 C 73.382812 506.835938 92.640625 509.023438 114.113281 509.023438 C 132.957031 509.023438 153.496094 507.3125 176.289062 503.914062 C 300.210938 485.445312 420.394531 429.828125 514.675781 347.351562 C 529.28125 334.558594 544.226562 319.304688 550.476562 300.765625 C 549.90625 311.074219 547.101562 321.765625 541.964844 331.847656 Z M 541.964844 331.847656 " fill-opacity="1" fill-rule="nonzero"/></g><path fill="#000000" d="M 238.171875 227.613281 C 235.363281 226.222656 231.898438 226.703125 229.339844 228.800781 C 227.515625 230.238281 226.214844 232.3125 225.460938 234.980469 C 224.664062 237.785156 224.117188 243.460938 227.011719 246.953125 C 228.382812 248.59375 230.320312 249.484375 232.535156 249.484375 C 232.832031 249.484375 233.105469 249.460938 233.425781 249.4375 C 239.609375 248.796875 242.941406 241.433594 242.964844 236.347656 C 242.984375 232.359375 241.136719 229.027344 238.171875 227.613281 Z M 233.105469 241.867188 C 232.695312 241.25 232.605469 238.855469 233.082031 237.144531 C 233.378906 236.144531 233.789062 235.390625 234.65625 234.707031 C 234.792969 234.84375 235.046875 235.457031 235.046875 236.300781 C 235.046875 238.628906 233.3125 241.480469 233.105469 241.867188 Z M 233.105469 241.867188 " fill-opacity="1" fill-rule="nonzero"/><path fill="#000000" d="M 207.914062 243.050781 C 204.878906 240.519531 201.230469 239.378906 197.851562 239.949219 C 193.289062 240.65625 189.796875 244.488281 189.773438 248.820312 C 189.753906 251.351562 190.871094 253.835938 192.855469 255.707031 C 194.269531 257.054688 196.117188 258.078125 198.332031 258.742188 C 198.742188 258.855469 202.050781 259.8125 205.585938 259.8125 C 208.578125 259.8125 211.75 259.105469 213.503906 256.664062 C 217.203125 251.308594 210.152344 244.875 207.914062 243.050781 Z M 200.636719 251.167969 L 200.589844 251.148438 C 199.5625 250.828125 198.789062 250.441406 198.261719 249.9375 C 197.875 249.574219 197.691406 249.140625 197.691406 248.890625 C 197.691406 248.546875 198.332031 247.886719 199.109375 247.773438 C 199.246094 247.75 199.402344 247.726562 199.539062 247.726562 C 200.546875 247.726562 201.777344 248.25 202.871094 249.140625 C 203.898438 249.984375 204.878906 250.988281 205.585938 251.855469 C 204.011719 251.855469 201.914062 251.558594 200.636719 251.167969 Z M 200.636719 251.167969 " fill-opacity="1" fill-rule="nonzero"/><path fill="#000000" d="M 143.136719 185.75 C 144.367188 186.226562 145.667969 186.476562 146.96875 186.476562 C 150.027344 186.476562 153.039062 185.179688 155.113281 182.828125 C 157.96875 179.570312 158.605469 174.710938 156.710938 170.765625 C 154.75 166.707031 150.757812 164.585938 146.148438 165.453125 C 141.105469 166.320312 137.226562 170.289062 136.699219 175.054688 C 136.199219 179.570312 138.914062 184.0625 143.136719 185.75 Z M 147.492188 173.253906 C 147.675781 173.230469 147.859375 173.207031 148.019531 173.207031 C 149.089844 173.207031 149.410156 173.890625 149.570312 174.210938 C 150.09375 175.28125 149.914062 176.742188 149.160156 177.609375 C 148.429688 178.40625 147.082031 178.769531 146.101562 178.382812 C 145.1875 178.019531 144.460938 176.878906 144.574219 175.921875 C 144.710938 174.550781 146.171875 173.503906 147.492188 173.253906 Z M 147.492188 173.253906 " fill-opacity="1" fill-rule="nonzero"/></svg>