<svg xmlns="http://www.w3.org/2000/svg" xmlns:xlink="http://www.w3.org/1999/xlink" width="750" zoomAndPan="magnify" viewBox="0 0 562.5 562.499982" height="750" preserveAspectRatio="xMidYMid meet" version="1.0"><defs><clipPath id="fd6ba9215e"><path d="M 3 31 L 559 31 L 559 531.113281 L 3 531.113281 Z M 3 31 " clip-rule="nonzero"/></clipPath></defs><path fill="#ffffff" d="M 102.65625 287.230469 C 103.273438 287.34375 103.890625 287.410156 104.503906 287.410156 C 108.085938 287.410156 111.714844 285.382812 113.996094 281.980469 C 116.050781 278.878906 116.691406 275.339844 117.144531 272.238281 C 118.128906 265.347656 118.539062 258.386719 118.949219 251.632812 C 119.269531 246.179688 119.585938 240.75 120.203125 235.320312 C 121.140625 227.128906 123.261719 219.234375 127.070312 209.671875 C 128.097656 207.046875 130.859375 200.132812 126.046875 197.488281 C 119.769531 193.972656 111.417969 205.496094 111.054688 206.019531 C 97.179688 225.210938 90.65625 249.71875 93.140625 273.289062 C 93.984375 281.207031 97.363281 286.15625 102.65625 287.230469 Z M 117.464844 210.675781 C 117.921875 210.058594 118.378906 209.464844 118.835938 208.917969 C 115.273438 218.207031 113.265625 226.144531 112.308594 234.429688 C 111.671875 239.996094 111.351562 245.585938 111.007812 251.175781 C 110.621094 257.75 110.210938 264.570312 109.273438 271.097656 C 108.933594 273.425781 108.519531 275.867188 107.378906 277.578125 C 106.558594 278.808594 105.144531 279.5625 104.230469 279.425781 C 102.703125 279.105469 101.449219 276.367188 101.015625 272.421875 C 98.730469 250.8125 104.734375 228.292969 117.464844 210.675781 Z M 117.464844 210.675781 " fill-opacity="1" fill-rule="nonzero"/><g clip-path="url(#fd6ba9215e)"><path fill="#ffffff" d="M 551.457031 267.265625 C 551.34375 267.035156 551.070312 267.011719 550.910156 266.832031 C 543.859375 244.308594 523.234375 226.625 501.671875 219.050781 C 474.0625 209.398438 438.054688 213.277344 409.121094 216.425781 L 408.230469 216.515625 C 404.078125 210.925781 399.515625 205.496094 394.835938 200.226562 C 376.71875 179.804688 357.988281 158.675781 334.050781 143.820312 C 312.648438 130.539062 287.160156 122.804688 259.941406 120.730469 C 259.917969 120.683594 259.941406 120.636719 259.917969 120.589844 C 246.636719 99.804688 238.832031 75.824219 237.351562 51.25 C 237.351562 51.15625 237.257812 51.113281 237.234375 51.019531 C 238.332031 50.425781 239.402344 49.765625 240.246094 48.808594 C 243.101562 45.542969 243.738281 40.683594 241.820312 36.757812 C 239.882812 32.699219 235.84375 30.644531 231.28125 31.441406 C 226.238281 32.308594 222.335938 36.28125 221.8125 41.070312 C 221.332031 45.566406 224.046875 50.0625 228.269531 51.75 C 228.65625 51.910156 229.066406 51.863281 229.453125 51.980469 C 230.960938 76.027344 238.375 99.394531 250.605469 120.113281 C 240.363281 119.839844 229.910156 120.363281 219.371094 121.734375 C 176.722656 127.277344 139.734375 145.554688 115.273438 173.210938 C 106.238281 183.433594 98.753906 195.59375 92.527344 208.964844 C 69.664062 185.734375 50.40625 159.3125 35.34375 130.402344 C 37.832031 127.164062 38.378906 122.644531 36.578125 118.902344 C 34.613281 114.839844 30.574219 112.832031 26.011719 113.585938 C 20.96875 114.453125 17.066406 118.425781 16.542969 123.214844 C 16.039062 127.710938 18.777344 132.207031 23 133.917969 C 24.234375 134.394531 25.53125 134.648438 26.832031 134.648438 C 27.382812 134.648438 27.882812 134.394531 28.429688 134.304688 C 43.878906 163.875 63.570312 190.914062 87.050781 214.667969 C 87.710938 215.355469 88.625 215.605469 89.492188 215.695312 C 83.445312 230.253906 78.949219 246.226562 76.371094 263.453125 C 72.515625 289.375 72.789062 315.316406 74.15625 338.867188 C 46.480469 360.175781 24.574219 388.402344 10.859375 420.554688 C 5.886719 432.214844 -0.0898438 449.601562 5.363281 465.984375 C 5.363281 465.984375 5.363281 466.007812 5.363281 466.007812 C 5.363281 466.027344 5.386719 466.050781 5.386719 466.050781 C 5.386719 466.074219 5.386719 466.074219 5.386719 466.097656 C 5.386719 466.121094 5.40625 466.144531 5.429688 466.1875 C 14.582031 495.464844 40.933594 519.261719 72.652344 526.882812 C 86.226562 530.148438 103.410156 531.46875 121.046875 531.46875 C 142.109375 531.46875 163.808594 529.578125 180.785156 526.859375 C 310.847656 505.9375 413.503906 461.511719 503.859375 387.101562 C 520.039062 373.753906 538.066406 357.234375 549.015625 335.695312 C 560.882812 312.351562 561.796875 286.796875 551.457031 267.265625 Z M 232.671875 39.246094 C 234.132812 38.882812 234.566406 39.839844 234.75 40.203125 C 235.273438 41.277344 235.089844 42.738281 234.339844 43.605469 C 233.628906 44.425781 232.261719 44.792969 231.28125 44.378906 C 230.367188 44.015625 229.636719 42.875 229.75 41.917969 C 229.886719 40.523438 231.347656 39.453125 232.671875 39.246094 Z M 25.945312 126.523438 C 25.03125 126.160156 24.300781 125.019531 24.414062 124.058594 C 24.574219 122.667969 26.035156 121.59375 27.335938 121.390625 C 27.519531 121.34375 27.699219 121.320312 27.859375 121.320312 C 28.933594 121.320312 29.273438 122.027344 29.410156 122.347656 C 29.9375 123.421875 29.753906 124.882812 29 125.75 C 28.292969 126.570312 26.925781 126.914062 25.945312 126.523438 Z M 84.21875 264.59375 C 89.398438 229.796875 102.222656 199.996094 121.277344 178.457031 C 144.460938 152.21875 179.691406 134.875 220.464844 129.582031 C 260.851562 124.332031 299.710938 131.816406 329.921875 150.574219 C 352.875 164.8125 371.222656 185.484375 388.949219 205.496094 C 403.464844 221.855469 416.46875 238.148438 416.242188 257.085938 C 416.148438 264.980469 413.546875 273.171875 408.503906 282.1875 C 404.921875 264.273438 388.539062 250.289062 372.132812 246.226562 C 350.09375 240.816406 328.277344 248.894531 313.878906 256.675781 C 302.585938 262.746094 292.136719 270.390625 282.027344 277.761719 C 279.402344 279.675781 276.734375 281.523438 274.109375 283.394531 C 268.65625 276.824219 262.425781 270.984375 255.375 266.125 C 262.039062 253.664062 262.152344 237.417969 254.621094 224.433594 C 246.75 210.902344 231.988281 201.503906 215.125 199.246094 C 205.0625 197.964844 196.074219 199.402344 189.066406 203.558594 C 173.230469 212.933594 170.082031 233.859375 175.148438 248.78125 C 181.21875 266.695312 198.101562 281.730469 215.742188 285.425781 C 212.5 295.398438 211.453125 306.007812 212.707031 316.414062 C 186.742188 326.15625 159.199219 331.953125 131.75 332.957031 L 130.5625 333 C 124.265625 333.230469 117.101562 333.480469 110.871094 336.8125 C 99.144531 343.085938 95.378906 357.300781 96.859375 368.597656 C 97.886719 376.539062 101.082031 383.792969 104.6875 390.503906 C 92.113281 382.082031 84.335938 369.898438 83.195312 355.410156 C 81.046875 328.253906 79.519531 296.195312 84.21875 264.59375 Z M 116.804688 397.003906 C 116.734375 396.527344 116.871094 396.046875 116.597656 395.589844 C 111.648438 387.171875 106.011719 377.632812 104.710938 367.640625 C 103.636719 359.3125 106.261719 348.3125 114.613281 343.863281 C 119.222656 341.398438 124.882812 341.195312 130.859375 340.964844 L 132.046875 340.917969 C 180.785156 339.117188 229.910156 323.097656 270.34375 295.832031 C 275.890625 292.089844 281.320312 288.121094 286.726562 284.171875 C 296.609375 276.9375 306.828125 269.476562 317.644531 263.636719 C 330.835938 256.539062 350.640625 249.054688 370.242188 253.914062 C 386.191406 257.839844 402.183594 272.695312 401.363281 290.699219 C 401.339844 291.335938 401.730469 291.839844 401.980469 292.386719 C 401.636719 292.867188 401.386719 293.320312 401.019531 293.824219 C 371.015625 334.621094 321.890625 365.515625 250.8125 388.21875 C 215.511719 399.492188 169.398438 411.039062 125.886719 399.925781 C 122.738281 399.128906 119.703125 398.144531 116.804688 397.003906 Z M 246.453125 266.417969 C 237.441406 278.308594 226.488281 279.289062 218.890625 278.125 C 203.558594 275.660156 187.996094 261.949219 182.65625 246.292969 C 178.527344 234.15625 181.308594 217.40625 193.105469 210.425781 C 199.996094 206.339844 208.324219 206.363281 214.074219 207.160156 C 228.3125 209.054688 241.230469 217.226562 247.777344 228.472656 C 254.78125 240.5 254.234375 256.128906 246.453125 266.417969 Z M 223.703125 286.429688 C 223.726562 286.429688 223.75 286.429688 223.773438 286.429688 C 234.382812 286.429688 243.851562 281.640625 251.199219 272.878906 C 257.382812 277.167969 262.859375 282.277344 267.699219 288.027344 C 267.105469 288.4375 266.535156 288.871094 265.941406 289.28125 C 251.726562 298.867188 236.390625 306.945312 220.394531 313.539062 C 219.597656 304.386719 220.648438 295.125 223.703125 286.429688 Z M 18.140625 423.609375 C 30.597656 394.425781 50.246094 368.804688 74.820312 348.746094 C 75 351.164062 75.117188 353.742188 75.296875 356.117188 C 77.261719 381.078125 95.445312 400.359375 123.945312 407.636719 C 137.132812 411.015625 150.503906 412.40625 163.71875 412.40625 C 196.050781 412.40625 227.46875 404.054688 253.253906 395.820312 C 325.972656 372.566406 376.402344 340.761719 407.410156 298.570312 C 414.507812 288.917969 423.953125 274.132812 424.160156 257.179688 C 424.296875 245.152344 419.824219 234.222656 413.34375 223.957031 C 440.882812 221.011719 474.175781 217.839844 499.046875 226.558594 C 523.621094 235.160156 548.21875 259.507812 545.410156 287.707031 C 543.265625 309.316406 526.015625 327.09375 509.382812 341.605469 C 416.242188 423.15625 297.519531 478.121094 175.058594 496.398438 C 127.414062 503.496094 89.992188 503.0625 57.273438 495.007812 C 40.433594 490.855469 19.074219 482.023438 12.847656 463.519531 C 9.355469 453 11.019531 440.3125 18.140625 423.609375 Z M 541.964844 332.042969 C 531.652344 352.261719 514.378906 368.09375 498.816406 380.894531 C 409.601562 454.414062 308.152344 498.269531 179.550781 518.964844 C 148.085938 524.03125 101.925781 525.675781 74.5 519.125 C 57.386719 515.019531 42.074219 505.710938 30.597656 493.363281 C 38.722656 497.746094 47.507812 500.757812 55.425781 502.71875 C 73.382812 507.148438 92.640625 509.335938 114.113281 509.335938 C 132.957031 509.335938 153.496094 507.625 176.289062 504.226562 C 300.210938 485.742188 420.394531 430.089844 514.675781 347.558594 C 529.28125 334.757812 544.226562 319.492188 550.476562 300.941406 C 549.90625 311.257812 547.101562 321.957031 541.964844 332.042969 Z M 541.964844 332.042969 " fill-opacity="1" fill-rule="nonzero"/></g><path fill="#ffffff" d="M 238.171875 227.742188 C 235.363281 226.351562 231.898438 226.832031 229.339844 228.929688 C 227.515625 230.367188 226.214844 232.445312 225.460938 235.113281 C 224.664062 237.921875 224.117188 243.601562 227.011719 247.09375 C 228.382812 248.734375 230.320312 249.625 232.535156 249.625 C 232.832031 249.625 233.105469 249.601562 233.425781 249.582031 C 239.609375 248.941406 242.941406 241.570312 242.964844 236.484375 C 242.984375 232.488281 241.136719 229.160156 238.171875 227.742188 Z M 233.105469 242.003906 C 232.695312 241.386719 232.605469 238.992188 233.082031 237.28125 C 233.378906 236.277344 233.789062 235.523438 234.65625 234.839844 C 234.792969 234.976562 235.046875 235.59375 235.046875 236.4375 C 235.046875 238.765625 233.3125 241.617188 233.105469 242.003906 Z M 233.105469 242.003906 " fill-opacity="1" fill-rule="nonzero"/><path fill="#ffffff" d="M 207.914062 243.191406 C 204.878906 240.660156 201.230469 239.519531 197.851562 240.089844 C 193.289062 240.796875 189.796875 244.628906 189.773438 248.964844 C 189.753906 251.496094 190.871094 253.984375 192.855469 255.855469 C 194.269531 257.203125 196.117188 258.226562 198.332031 258.890625 C 198.742188 259.003906 202.050781 259.960938 205.585938 259.960938 C 208.578125 259.960938 211.75 259.253906 213.503906 256.8125 C 217.203125 251.453125 210.152344 245.015625 207.914062 243.191406 Z M 200.636719 251.3125 L 200.589844 251.292969 C 199.5625 250.972656 198.789062 250.585938 198.261719 250.082031 C 197.875 249.71875 197.691406 249.285156 197.691406 249.03125 C 197.691406 248.691406 198.332031 248.027344 199.109375 247.914062 C 199.246094 247.890625 199.402344 247.867188 199.539062 247.867188 C 200.546875 247.867188 201.777344 248.394531 202.871094 249.285156 C 203.898438 250.128906 204.878906 251.132812 205.585938 252 C 204.011719 252 201.914062 251.703125 200.636719 251.3125 Z M 200.636719 251.3125 " fill-opacity="1" fill-rule="nonzero"/><path fill="#ffffff" d="M 143.136719 185.851562 C 144.367188 186.328125 145.667969 186.582031 146.96875 186.582031 C 150.027344 186.582031 153.039062 185.28125 155.113281 182.929688 C 157.96875 179.667969 158.605469 174.804688 156.710938 170.859375 C 154.75 166.796875 150.757812 164.675781 146.148438 165.542969 C 141.105469 166.410156 137.226562 170.378906 136.699219 175.148438 C 136.199219 179.667969 138.914062 184.160156 143.136719 185.851562 Z M 147.492188 173.347656 C 147.675781 173.324219 147.859375 173.300781 148.019531 173.300781 C 149.089844 173.300781 149.410156 173.984375 149.570312 174.304688 C 150.09375 175.378906 149.914062 176.835938 149.160156 177.703125 C 148.429688 178.503906 147.082031 178.867188 146.101562 178.480469 C 145.1875 178.113281 144.460938 176.972656 144.574219 176.015625 C 144.710938 174.648438 146.171875 173.597656 147.492188 173.347656 Z M 147.492188 173.347656 " fill-opacity="1" fill-rule="nonzero"/></svg>