<svg xmlns="http://www.w3.org/2000/svg" xmlns:xlink="http://www.w3.org/1999/xlink" width="1000" zoomAndPan="magnify" viewBox="0 0 750 187.499995" height="250" preserveAspectRatio="xMidYMid meet" version="1.0"><defs><g/></defs><path fill="#000000" d="M 269.757812 154.347656 Z M 141.078125 27.4375 Z M 141.078125 0 L 114.230469 46.539062 C 108.425781 39.976562 101.1875 35.597656 91.59375 35.011719 C 70.550781 33.578125 64.996094 42.667969 55.824219 57.816406 L 53.300781 61.941406 L 14.417969 127.835938 C -0.226562 153.167969 -0.226562 153.253906 12.484375 154.433594 L 22.582031 155.1875 C 24.433594 155.273438 26.117188 155.273438 27.882812 155.273438 C 42.441406 154.9375 52.710938 152.832031 65.167969 144.585938 C 76.695312 137.011719 80.484375 132.046875 86.542969 122.03125 C 90.078125 116.222656 100.933594 97.371094 111.203125 79.53125 L 112.96875 76.417969 L 115.074219 72.882812 L 122.898438 59.246094 L 141.160156 27.519531 L 154.710938 50.917969 L 163.128906 38.125 L 149.074219 13.800781 L 141.160156 0.0859375 Z M 147.054688 79.867188 L 147.054688 79.949219 L 141.078125 89.964844 L 135.101562 79.949219 L 135.101562 79.867188 L 127.949219 67.746094 L 120.121094 81.382812 L 123.402344 86.851562 L 133.167969 103.261719 L 106.234375 148.539062 C 98.15625 162.089844 96.558594 164.699219 96.304688 165.121094 L 96.136719 165.289062 L 95.882812 165.710938 C 94.957031 167.644531 93.273438 171.261719 98.410156 174.796875 C 99.082031 175.21875 100.261719 175.890625 102.363281 176.816406 C 133.753906 190.113281 148.316406 190.113281 179.707031 176.816406 C 181.8125 175.890625 182.988281 175.304688 183.664062 174.796875 C 188.796875 171.261719 187.195312 167.644531 186.1875 165.710938 L 185.933594 165.289062 L 185.851562 165.203125 L 185.765625 165.121094 C 185.511719 164.613281 183.914062 162.089844 175.835938 148.539062 L 148.90625 103.261719 L 158.667969 86.851562 L 167.082031 72.714844 C 177.183594 90.132812 192.5 116.730469 194.433594 120.011719 C 201.082031 131.203125 204.785156 136.421875 216.988281 144.5 C 229.445312 152.664062 239.710938 154.851562 254.273438 155.1875 C 256.039062 155.1875 257.722656 155.1875 259.574219 155.105469 L 269.671875 154.347656 C 282.378906 153.167969 282.378906 153.167969 267.738281 127.753906 L 228.855469 61.855469 L 226.332031 57.734375 C 217.15625 42.667969 211.601562 33.496094 190.5625 34.925781 C 182.566406 35.515625 176.257812 38.542969 170.953125 43.34375 C 163.464844 50.160156 152.691406 70.1875 146.96875 79.867188 Z M 111.789062 165.960938 L 117.933594 155.609375 L 141.078125 116.730469 C 147.558594 127.667969 155.300781 140.628906 164.222656 155.609375 C 167 160.238281 168.933594 163.519531 170.363281 165.960938 C 145.117188 175.722656 137.039062 175.722656 111.789062 165.960938 Z M 175.332031 59.246094 C 186.269531 78.269531 197.128906 98.296875 208.742188 116.8125 C 210.003906 118.832031 211.351562 120.769531 212.613281 122.535156 C 217.324219 128.761719 227.171875 135.328125 234.410156 138.105469 C 241.394531 140.796875 251.746094 141.640625 259.070312 141.304688 L 237.101562 102.167969 L 214.632812 64.71875 C 208.152344 54.03125 204.195312 47.632812 191.488281 48.476562 C 184 48.980469 179.285156 53.355469 175.332031 59.164062 Z M 90.582031 48.558594 C 98.074219 49.066406 102.785156 53.441406 106.742188 59.246094 L 77.621094 109.660156 C 76.023438 112.351562 74.421875 115.046875 73.328125 116.8125 C 72.066406 118.832031 70.722656 120.769531 69.457031 122.535156 C 64.746094 128.761719 54.898438 135.328125 47.660156 138.105469 C 40.675781 140.796875 30.324219 141.640625 22.917969 141.304688 L 44.882812 102.167969 L 67.355469 64.71875 C 73.835938 54.03125 77.789062 47.632812 90.5 48.476562 Z M 90.582031 48.558594 " fill-opacity="1" fill-rule="evenodd"/><g fill="#000000" fill-opacity="1"><g transform="translate(328.396305, 145.354349)"><g><path d="M 49.375 2.109375 C 40.539062 2.109375 32.9375 0.65625 26.5625 -2.25 C 20.195312 -5.164062 15.28125 -9.304688 11.8125 -14.671875 C 8.351562 -20.046875 6.625 -26.34375 6.625 -33.5625 L 30.109375 -33.5625 C 30.109375 -28.550781 31.835938 -24.640625 35.296875 -21.828125 C 38.765625 -19.015625 43.40625 -17.609375 49.21875 -17.609375 C 54.238281 -17.609375 58.203125 -18.585938 61.109375 -20.546875 C 64.023438 -22.503906 65.484375 -25.238281 65.484375 -28.75 C 65.484375 -32.46875 63.722656 -35.476562 60.203125 -37.78125 C 56.691406 -40.09375 51.222656 -42.050781 43.796875 -43.65625 C 31.460938 -46.257812 22.332031 -50.222656 16.40625 -55.546875 C 10.488281 -60.867188 7.53125 -67.789062 7.53125 -76.3125 C 7.53125 -85.945312 11.039062 -93.550781 18.0625 -99.125 C 25.082031 -104.695312 34.664062 -107.484375 46.8125 -107.484375 C 55.144531 -107.484375 62.367188 -106.050781 68.484375 -103.1875 C 74.609375 -100.332031 79.351562 -96.316406 82.71875 -91.140625 C 86.082031 -85.972656 87.765625 -79.828125 87.765625 -72.703125 L 64.734375 -72.703125 C 64.734375 -77.421875 63.175781 -81.132812 60.0625 -83.84375 C 56.945312 -86.550781 52.628906 -87.90625 47.109375 -87.90625 C 42.097656 -87.90625 38.132812 -86.925781 35.21875 -84.96875 C 32.3125 -83.019531 30.859375 -80.285156 30.859375 -76.765625 C 30.859375 -73.554688 32.460938 -70.847656 35.671875 -68.640625 C 38.890625 -66.429688 44.507812 -64.375 52.53125 -62.46875 C 65.675781 -59.351562 75.160156 -55.1875 80.984375 -49.96875 C 86.804688 -44.757812 89.71875 -37.988281 89.71875 -29.65625 C 89.71875 -19.71875 86.128906 -11.9375 78.953125 -6.3125 C 71.773438 -0.695312 61.914062 2.109375 49.375 2.109375 Z M 49.375 2.109375 "/></g></g></g><g fill="#000000" fill-opacity="1"><g transform="translate(419.62233, 145.354349)"><g><path d="M 62.625 2.109375 C 51.6875 2.109375 41.972656 -0.222656 33.484375 -4.890625 C 25.003906 -9.554688 18.378906 -16.003906 13.609375 -24.234375 C 8.847656 -32.460938 6.46875 -41.945312 6.46875 -52.6875 C 6.46875 -63.425781 8.847656 -72.910156 13.609375 -81.140625 C 18.378906 -89.367188 25.003906 -95.816406 33.484375 -100.484375 C 41.972656 -105.148438 51.6875 -107.484375 62.625 -107.484375 C 73.65625 -107.484375 83.382812 -105.148438 91.8125 -100.484375 C 100.25 -95.816406 106.875 -89.367188 111.6875 -81.140625 C 116.507812 -72.910156 118.921875 -63.425781 118.921875 -52.6875 C 118.921875 -41.945312 116.507812 -32.460938 111.6875 -24.234375 C 106.875 -16.003906 100.25 -9.554688 91.8125 -4.890625 C 83.382812 -0.222656 73.65625 2.109375 62.625 2.109375 Z M 30.859375 -52.6875 C 30.859375 -46.363281 32.210938 -40.789062 34.921875 -35.96875 C 37.628906 -31.15625 41.363281 -27.394531 46.125 -24.6875 C 50.894531 -21.976562 56.394531 -20.625 62.625 -20.625 C 68.945312 -20.625 74.488281 -21.976562 79.25 -24.6875 C 84.019531 -27.394531 87.734375 -31.15625 90.390625 -35.96875 C 93.054688 -40.789062 94.390625 -46.363281 94.390625 -52.6875 C 94.390625 -59.007812 93.054688 -64.578125 90.390625 -69.390625 C 87.734375 -74.210938 84.019531 -77.976562 79.25 -80.6875 C 74.488281 -83.394531 68.945312 -84.75 62.625 -84.75 C 56.394531 -84.75 50.894531 -83.394531 46.125 -80.6875 C 41.363281 -77.976562 37.628906 -74.210938 34.921875 -69.390625 C 32.210938 -64.578125 30.859375 -59.007812 30.859375 -52.6875 Z M 30.859375 -52.6875 "/></g></g></g><g fill="#000000" fill-opacity="1"><g transform="translate(539.751662, 145.354349)"><g><path d="M 12.640625 0 L 12.640625 -105.375 L 57.65625 -105.375 C 65.6875 -105.375 72.660156 -103.914062 78.578125 -101 C 84.492188 -98.09375 89.054688 -93.929688 92.265625 -88.515625 C 95.484375 -83.097656 97.09375 -76.625 97.09375 -69.09375 C 97.09375 -61.363281 95.335938 -54.710938 91.828125 -49.140625 C 88.316406 -43.578125 83.398438 -39.390625 77.078125 -36.578125 L 98.90625 0 L 71.203125 0 L 52.390625 -32.8125 L 36.578125 -32.8125 L 36.578125 0 Z M 36.28125 -52.984375 L 54.5 -52.984375 C 60.414062 -52.984375 64.953125 -54.363281 68.109375 -57.125 C 71.273438 -59.882812 72.859375 -63.820312 72.859375 -68.9375 C 72.859375 -74.0625 71.273438 -78.003906 68.109375 -80.765625 C 64.953125 -83.523438 60.414062 -84.90625 54.5 -84.90625 L 36.28125 -84.90625 Z M 36.28125 -52.984375 "/></g></g></g><g fill="#000000" fill-opacity="1"><g transform="translate(640.4616, 145.354349)"><g><path d="M 1.359375 0 L 43.203125 -105.375 L 66.6875 -105.375 L 108.53125 0 L 82.9375 0 L 75.875 -18.21875 L 34.015625 -18.21875 L 26.9375 0 Z M 40.1875 -37.03125 L 69.84375 -37.03125 L 54.9375 -75.5625 Z M 40.1875 -37.03125 "/></g></g></g></svg>