<svg xmlns="http://www.w3.org/2000/svg" xmlns:xlink="http://www.w3.org/1999/xlink" width="1000" zoomAndPan="magnify" viewBox="0 0 750 187.499995" height="250" preserveAspectRatio="xMidYMid meet" version="1.0"><defs><g/><clipPath id="52f88c3d78"><path d="M 3 0.167969 L 279 0.167969 L 279 187 L 3 187 Z M 3 0.167969 " clip-rule="nonzero"/></clipPath></defs><g clip-path="url(#52f88c3d78)"><path fill="#000000" d="M 269.507812 154.371094 Z M 140.949219 27.578125 Z M 140.949219 0.167969 L 114.128906 46.667969 C 108.324219 40.109375 101.09375 35.734375 91.511719 35.148438 C 70.488281 33.71875 64.941406 42.796875 55.777344 57.933594 L 53.253906 62.054688 L 14.410156 127.886719 C -0.222656 153.195312 -0.222656 153.28125 12.476562 154.457031 L 22.5625 155.214844 C 24.414062 155.296875 26.097656 155.296875 27.863281 155.296875 C 42.40625 154.960938 52.664062 152.859375 65.109375 144.621094 C 76.628906 137.050781 80.410156 132.089844 86.464844 122.085938 C 89.996094 116.285156 100.84375 97.449219 111.101562 79.625 L 112.867188 76.515625 L 114.96875 72.984375 L 122.789062 59.363281 L 141.035156 27.664062 L 154.570312 51.039062 L 162.976562 38.257812 L 148.9375 13.960938 L 141.035156 0.253906 Z M 146.917969 79.960938 L 146.917969 80.046875 L 140.949219 90.050781 L 134.980469 80.046875 L 134.980469 79.960938 L 127.832031 67.855469 L 120.011719 81.476562 L 123.292969 86.941406 L 133.046875 103.335938 L 106.140625 148.570312 C 98.066406 162.109375 96.472656 164.714844 96.21875 165.136719 L 96.132812 165.21875 L 96.050781 165.304688 L 95.796875 165.722656 C 94.875 167.65625 93.191406 171.273438 98.320312 174.804688 C 98.992188 175.222656 100.171875 175.898438 102.273438 176.820312 C 133.632812 190.105469 148.179688 190.105469 179.542969 176.820312 C 181.644531 175.898438 182.820312 175.308594 183.492188 174.804688 C 188.621094 171.273438 187.023438 167.65625 186.015625 165.722656 L 185.765625 165.304688 L 185.679688 165.21875 L 185.59375 165.136719 C 185.34375 164.628906 183.746094 162.109375 175.675781 148.570312 L 148.769531 103.335938 L 158.523438 86.941406 L 166.929688 72.816406 C 177.019531 90.21875 192.320312 116.789062 194.257812 120.066406 C 200.898438 131.25 204.597656 136.464844 216.789062 144.535156 C 229.234375 152.691406 239.492188 154.878906 254.035156 155.214844 C 255.800781 155.214844 257.484375 155.214844 259.332031 155.128906 L 269.421875 154.371094 C 282.121094 153.195312 282.121094 153.195312 267.488281 127.804688 L 228.644531 61.96875 L 226.121094 57.847656 C 216.957031 42.796875 211.410156 33.632812 190.386719 35.0625 C 182.402344 35.652344 176.09375 38.679688 170.796875 43.472656 C 163.3125 50.28125 152.550781 70.292969 146.835938 79.960938 Z M 111.6875 165.976562 L 117.828125 155.632812 L 140.949219 116.789062 C 147.421875 127.71875 155.160156 140.667969 164.070312 155.632812 C 166.847656 160.257812 168.78125 163.539062 170.210938 165.976562 C 144.984375 175.730469 136.914062 175.730469 111.6875 165.976562 Z M 175.167969 59.363281 C 186.101562 78.363281 196.945312 98.375 208.550781 116.871094 C 209.8125 118.890625 211.15625 120.824219 212.417969 122.589844 C 217.125 128.8125 226.964844 135.371094 234.195312 138.144531 C 241.171875 140.835938 251.515625 141.675781 258.828125 141.339844 L 236.882812 102.242188 L 214.433594 64.828125 C 207.960938 54.148438 204.007812 47.757812 191.3125 48.601562 C 183.828125 49.105469 179.121094 53.476562 175.167969 59.277344 Z M 90.5 48.683594 C 97.984375 49.1875 102.691406 53.5625 106.644531 59.363281 L 77.554688 109.726562 C 75.957031 112.417969 74.359375 115.105469 73.265625 116.871094 C 72.003906 118.890625 70.65625 120.824219 69.398438 122.589844 C 64.6875 128.8125 54.851562 135.371094 47.621094 138.144531 C 40.640625 140.835938 30.300781 141.675781 22.902344 141.339844 L 44.84375 102.242188 L 67.296875 64.828125 C 73.769531 54.148438 77.722656 47.757812 90.417969 48.601562 Z M 90.5 48.683594 " fill-opacity="1" fill-rule="evenodd"/></g><g fill="#000000" fill-opacity="1"><g transform="translate(300.973439, 150.741551)"><g><path d="M 33.1875 -33.34375 C 33.1875 -30.539062 34.328125 -28.304688 36.609375 -26.640625 C 38.898438 -24.984375 41.757812 -23.84375 45.1875 -23.21875 C 48.613281 -22.59375 52.015625 -22.515625 55.390625 -22.984375 C 58.765625 -23.453125 61.59375 -24.4375 63.875 -25.9375 C 66.15625 -27.445312 67.296875 -29.5 67.296875 -32.09375 C 67.296875 -34.6875 66.382812 -36.660156 64.5625 -38.015625 C 62.75 -39.367188 60.335938 -40.328125 57.328125 -40.890625 C 54.316406 -41.460938 50.992188 -41.851562 47.359375 -42.0625 C 39.460938 -42.6875 32.554688 -44.113281 26.640625 -46.34375 C 20.722656 -48.582031 16.128906 -52.035156 12.859375 -56.703125 C 9.585938 -61.378906 7.898438 -67.664062 7.796875 -75.5625 C 7.691406 -82.3125 9.117188 -88.070312 12.078125 -92.84375 C 15.035156 -97.625 18.976562 -101.46875 23.90625 -104.375 C 28.84375 -107.289062 34.296875 -109.210938 40.265625 -110.140625 C 46.242188 -111.078125 52.21875 -111.078125 58.1875 -110.140625 C 64.15625 -109.210938 69.632812 -107.289062 74.625 -104.375 C 79.613281 -101.46875 83.613281 -97.625 86.625 -92.84375 C 89.632812 -88.070312 91.085938 -82.3125 90.984375 -75.5625 C 86.097656 -75.5625 81.65625 -75.5625 77.65625 -75.5625 C 73.664062 -75.5625 69.28125 -75.5625 64.5 -75.5625 C 64.5 -78.46875 63.507812 -80.75 61.53125 -82.40625 C 59.5625 -84.070312 57.097656 -85.164062 54.140625 -85.6875 C 51.179688 -86.207031 48.21875 -86.15625 45.25 -85.53125 C 42.289062 -84.90625 39.773438 -83.785156 37.703125 -82.171875 C 35.628906 -80.566406 34.488281 -78.46875 34.28125 -75.875 C 34.070312 -73.175781 34.742188 -71.070312 36.296875 -69.5625 C 37.859375 -68.050781 39.988281 -66.984375 42.6875 -66.359375 C 45.382812 -65.742188 48.34375 -65.226562 51.5625 -64.8125 C 56.96875 -64.1875 62.210938 -63.378906 67.296875 -62.390625 C 72.390625 -61.410156 76.988281 -59.851562 81.09375 -57.71875 C 85.195312 -55.59375 88.441406 -52.476562 90.828125 -48.375 C 93.210938 -44.269531 94.40625 -38.789062 94.40625 -31.9375 C 94.40625 -25.394531 92.796875 -19.785156 89.578125 -15.109375 C 86.359375 -10.429688 82.125 -6.664062 76.875 -3.8125 C 71.632812 -0.957031 65.847656 0.929688 59.515625 1.859375 C 53.179688 2.796875 46.867188 2.769531 40.578125 1.78125 C 34.296875 0.800781 28.554688 -1.140625 23.359375 -4.046875 C 18.171875 -6.953125 13.992188 -10.847656 10.828125 -15.734375 C 7.660156 -20.617188 6.128906 -26.488281 6.234375 -33.34375 C 10.910156 -33.34375 15.375 -33.34375 19.625 -33.34375 C 23.882812 -33.34375 28.40625 -33.34375 33.1875 -33.34375 Z M 33.1875 -33.34375 "/></g></g></g><g fill="#000000" fill-opacity="1"><g transform="translate(396.479508, 150.741551)"><g><path d="M 119.03125 -54.375 C 119.03125 -44.925781 117.445312 -36.664062 114.28125 -29.59375 C 111.113281 -22.53125 106.878906 -16.632812 101.578125 -11.90625 C 96.285156 -7.1875 90.3125 -3.628906 83.65625 -1.234375 C 77.007812 1.148438 70.15625 2.34375 63.09375 2.34375 C 56.03125 2.34375 49.175781 1.148438 42.53125 -1.234375 C 35.882812 -3.628906 29.910156 -7.1875 24.609375 -11.90625 C 19.316406 -16.632812 15.085938 -22.53125 11.921875 -29.59375 C 8.753906 -36.664062 7.171875 -44.925781 7.171875 -54.375 C 7.171875 -63.820312 8.753906 -72.078125 11.921875 -79.140625 C 15.085938 -86.203125 19.316406 -92.097656 24.609375 -96.828125 C 29.910156 -101.554688 35.882812 -105.085938 42.53125 -107.421875 C 49.175781 -109.753906 56.03125 -110.921875 63.09375 -110.921875 C 70.15625 -110.921875 77.007812 -109.753906 83.65625 -107.421875 C 90.3125 -105.085938 96.285156 -101.554688 101.578125 -96.828125 C 106.878906 -92.097656 111.113281 -86.203125 114.28125 -79.140625 C 117.445312 -72.078125 119.03125 -63.820312 119.03125 -54.375 Z M 35.828125 -54.375 C 35.828125 -47.832031 37.148438 -42.351562 39.796875 -37.9375 C 42.453125 -33.519531 45.859375 -30.21875 50.015625 -28.03125 C 54.171875 -25.851562 58.554688 -24.765625 63.171875 -24.765625 C 67.796875 -24.765625 72.1875 -25.851562 76.34375 -28.03125 C 80.5 -30.21875 83.898438 -33.519531 86.546875 -37.9375 C 89.191406 -42.351562 90.515625 -47.832031 90.515625 -54.375 C 90.515625 -60.914062 89.191406 -66.367188 86.546875 -70.734375 C 83.898438 -75.097656 80.5 -78.367188 76.34375 -80.546875 C 72.1875 -82.722656 67.796875 -83.8125 63.171875 -83.8125 C 58.554688 -83.8125 54.171875 -82.722656 50.015625 -80.546875 C 45.859375 -78.367188 42.453125 -75.097656 39.796875 -70.734375 C 37.148438 -66.367188 35.828125 -60.914062 35.828125 -54.375 Z M 35.828125 -54.375 "/></g></g></g><g fill="#000000" fill-opacity="1"><g transform="translate(517.22536, 150.741551)"><g><path d="M 84.59375 -38.640625 L 105.9375 -4.046875 L 105.9375 0 L 74.78125 0 L 56.09375 -32.09375 L 41.59375 -32.09375 L 41.59375 0 C 36.925781 0 32.253906 0 27.578125 0 C 22.898438 0 18.273438 0 13.703125 0 C 13.703125 -18.175781 13.703125 -36.351562 13.703125 -54.53125 C 13.703125 -72.707031 13.703125 -90.882812 13.703125 -109.0625 C 21.597656 -109.0625 29.570312 -109.0625 37.625 -109.0625 C 45.675781 -109.0625 53.648438 -109.0625 61.546875 -109.0625 C 68.710938 -109.0625 74.890625 -107.757812 80.078125 -105.15625 C 85.273438 -102.5625 89.484375 -99.132812 92.703125 -94.875 C 95.921875 -90.625 98.175781 -85.925781 99.46875 -80.78125 C 100.769531 -75.632812 101.082031 -70.410156 100.40625 -65.109375 C 99.726562 -59.816406 98.066406 -54.859375 95.421875 -50.234375 C 92.773438 -45.617188 89.164062 -41.753906 84.59375 -38.640625 Z M 61.546875 -56.859375 C 64.554688 -56.859375 66.992188 -57.765625 68.859375 -59.578125 C 70.734375 -61.398438 72.003906 -63.660156 72.671875 -66.359375 C 73.347656 -69.066406 73.375 -71.769531 72.75 -74.46875 C 72.132812 -77.164062 70.914062 -79.445312 69.09375 -81.3125 C 67.28125 -83.1875 64.765625 -84.125 61.546875 -84.125 C 58.316406 -84.226562 55.015625 -84.253906 51.640625 -84.203125 C 48.265625 -84.148438 44.914062 -84.125 41.59375 -84.125 C 41.59375 -79.664062 41.59375 -75.097656 41.59375 -70.421875 C 41.59375 -65.742188 41.59375 -61.222656 41.59375 -56.859375 Z M 61.546875 -56.859375 "/></g></g></g><g fill="#000000" fill-opacity="1"><g transform="translate(620.677289, 150.741551)"><g><path d="M 83.203125 0 L 76.8125 -13.703125 L 33.8125 -13.703125 L 27.421875 0 L 0.15625 0 L 0.15625 -4.046875 L 49.234375 -110.453125 L 61.234375 -110.453125 L 110.453125 -4.046875 L 110.453125 0 Z M 67.765625 -37.546875 L 55.15625 -66.21875 L 42.84375 -37.546875 Z M 67.765625 -37.546875 "/></g></g></g></svg>